<?xml version="1.0" encoding="UTF-8" standalone="no"?>
<!DOCTYPE svg PUBLIC "-//W3C//DTD SVG 1.1//EN" "http://www.w3.org/Graphics/SVG/1.1/DTD/svg11.dtd">
<svg width="100%" height="100%" viewBox="0 0 580 400" version="1.1" xmlns="http://www.w3.org/2000/svg" xmlns:xlink="http://www.w3.org/1999/xlink" xml:space="preserve" xmlns:serif="http://www.serif.com/" style="fill-rule:evenodd;clip-rule:evenodd;stroke-linecap:round;stroke-linejoin:round;stroke-miterlimit:1.5;">
    <path d="M290.775,63.844L78.023,104.339" style="fill:none;stroke:black;stroke-width:1px;"/>
    <path d="M290.775,63.844L184.01,104.339" style="fill:none;stroke:black;stroke-width:1px;"/>
    <path d="M290.775,63.844L290.775,104.339" style="fill:none;stroke:black;stroke-width:1px;"/>
    <path d="M290.775,63.844L395.988,104.339" style="fill:none;stroke:black;stroke-width:1px;"/>
    <path d="M290.775,63.844L502.604,104.339" style="fill:none;stroke:black;stroke-width:1px;"/>
    <path d="M333.587,292.099L333.781,311.124" style="fill:none;stroke:black;stroke-width:1px;"/>
    <path d="M394.005,292.099L394.005,362.533" style="fill:none;stroke:black;stroke-width:1px;"/>
    <path d="M453.657,292.099L453.657,362.533" style="fill:none;stroke:black;stroke-width:1px;"/>
    <path d="M333.014,342.913L333.209,361.938" style="fill:none;stroke:black;stroke-width:1px;"/>
    <path d="M122.288,118.51C122.288,110.689 115.938,104.339 108.117,104.339L47.93,104.339C40.109,104.339 33.759,110.689 33.759,118.51L33.759,146.851C33.759,154.672 40.109,161.021 47.93,161.021L108.117,161.021C115.938,161.021 122.288,154.672 122.288,146.851L122.288,118.51Z" style="fill:rgb(235,235,235);"/>
    <path d="M228.274,118.51C228.274,110.689 221.925,104.339 214.104,104.339L153.916,104.339C146.095,104.339 139.746,110.689 139.746,118.51L139.746,146.851C139.746,154.672 146.095,161.021 153.916,161.021L214.104,161.021C221.925,161.021 228.274,154.672 228.274,146.851L228.274,118.51Z" style="fill:rgb(235,235,235);"/>
    <path d="M334.265,118.51C334.265,110.689 327.916,104.339 320.095,104.339L259.908,104.339C252.087,104.339 245.737,110.689 245.737,118.51L245.737,146.851C245.737,154.672 252.087,161.021 259.908,161.021L320.095,161.021C327.916,161.021 334.265,154.672 334.265,146.851L334.265,118.51Z" style="fill:rgb(235,235,235);"/>
    <path d="M372.084,21.332C372.084,13.511 365.734,7.162 357.913,7.162L222.117,7.162C214.296,7.162 207.946,13.511 207.946,21.332L207.946,49.673C207.946,57.494 214.296,63.844 222.117,63.844L357.913,63.844C365.734,63.844 372.084,57.494 372.084,49.673L372.084,21.332Z" style="fill:rgb(235,235,235);"/>
    <path d="M218.798,201.714C218.798,195.568 213.808,190.577 207.661,190.577L160.359,190.577C154.212,190.577 149.222,195.568 149.222,201.714L149.222,223.988C149.222,230.134 154.212,235.125 160.359,235.125L207.661,235.125C213.808,235.125 218.798,230.134 218.798,223.988L218.798,201.714Z" style="fill:rgb(235,235,235);"/>
    <path d="M440.252,118.51C440.252,110.689 433.902,104.339 426.081,104.339L365.894,104.339C358.073,104.339 351.724,110.689 351.724,118.51L351.724,146.851C351.724,154.672 358.073,161.021 365.894,161.021L426.081,161.021C433.902,161.021 440.252,154.672 440.252,146.851L440.252,118.51Z" style="fill:rgb(235,235,235);"/>
    <path d="M546.241,118.51C546.241,110.689 539.891,104.339 532.07,104.339L471.883,104.339C464.062,104.339 457.712,110.689 457.712,118.51L457.712,146.851C457.712,154.672 464.062,161.021 471.883,161.021L532.07,161.021C539.891,161.021 546.241,154.672 546.241,146.851L546.241,118.51Z" style="fill:rgb(235,235,235);"/>
    <path d="M57.812,136.425L61.606,127.101L63.042,127.101L66.856,136.425L65.38,136.425L64.389,133.834L60.191,133.834L59.18,136.425L57.812,136.425ZM60.636,132.686L63.958,132.686L62.317,128.372L60.636,132.686Z" style="fill-rule:nonzero;"/>
    <path d="M68.251,136.425L68.251,127.101L72.175,127.101C73.209,127.101 74.016,127.362 74.595,127.884C75.173,128.405 75.463,129.111 75.463,129.999C75.463,130.888 75.176,131.591 74.601,132.108C74.027,132.625 73.218,132.884 72.175,132.884L69.57,132.884L69.57,136.425L68.251,136.425ZM69.57,131.681L72.175,131.681C72.808,131.681 73.288,131.532 73.614,131.233C73.939,130.935 74.102,130.523 74.102,129.999C74.102,129.466 73.939,129.05 73.614,128.752C73.288,128.453 72.808,128.304 72.175,128.304L69.57,128.304L69.57,131.681Z" style="fill-rule:nonzero;"/>
    <path d="M77.124,136.425L77.124,127.101L78.805,127.101L83.55,134.607L83.55,127.101L84.814,127.101L84.814,136.425L83.269,136.425L78.389,128.741L78.389,136.425L77.124,136.425Z" style="fill-rule:nonzero;"/>
    <rect x="87.323" y="127.101" width="1.306" height="9.324" style="fill-rule:nonzero;"/>
    <path d="M91.807,135.236C90.973,134.329 90.556,133.171 90.556,131.763C90.556,130.355 90.975,129.197 91.811,128.29C92.647,127.383 93.737,126.93 95.082,126.93C96.659,126.93 97.88,127.557 98.746,128.81L97.714,129.521C97.121,128.6 96.258,128.14 95.123,128.14C95.118,128.14 95.114,128.14 95.109,128.14C94.148,128.14 93.377,128.468 92.799,129.124C92.22,129.781 91.93,130.656 91.93,131.749C91.93,132.852 92.22,133.736 92.799,134.402C93.377,135.067 94.139,135.4 95.082,135.4C96.221,135.4 97.098,134.921 97.714,133.964L98.794,134.661C97.946,135.951 96.713,136.596 95.096,136.596C93.742,136.596 92.646,136.143 91.807,135.236Z" style="fill-rule:nonzero;"/>
    <path d="M160.449,136.425L160.449,127.101L161.755,127.101L161.755,135.222L166.937,135.222L166.937,136.425L160.449,136.425Z" style="fill-rule:nonzero;"/>
    <path d="M167.299,136.425L171.093,127.101L172.528,127.101L176.343,136.425L174.866,136.425L173.875,133.834L169.678,133.834L168.666,136.425L167.299,136.425ZM170.122,132.686L173.444,132.686L171.804,128.372L170.122,132.686Z" style="fill-rule:nonzero;"/>
    <path d="M178.4,135.236C177.566,134.329 177.149,133.171 177.149,131.763C177.149,130.355 177.568,129.197 178.404,128.29C179.24,127.383 180.33,126.93 181.675,126.93C183.252,126.93 184.473,127.557 185.339,128.81L184.307,129.521C183.714,128.6 182.851,128.14 181.716,128.14C181.711,128.14 181.707,128.14 181.702,128.14C180.741,128.14 179.97,128.468 179.392,129.124C178.813,129.781 178.523,130.656 178.523,131.749C178.523,132.852 178.813,133.736 179.392,134.402C179.97,135.067 180.731,135.4 181.675,135.4C182.814,135.4 183.691,134.921 184.307,133.964L185.387,134.661C184.539,135.951 183.306,136.596 181.688,136.596C180.335,136.596 179.239,136.143 178.4,135.236Z" style="fill-rule:nonzero;"/>
    <path d="M187.116,136.425L187.116,127.101L188.798,127.101L193.542,134.607L193.542,127.101L194.807,127.101L194.807,136.425L193.262,136.425L188.381,128.741L188.381,136.425L187.116,136.425Z" style="fill-rule:nonzero;"/>
    <rect x="197.315" y="127.101" width="1.306" height="9.324" style="fill-rule:nonzero;"/>
    <path d="M201.8,135.236C200.966,134.329 200.549,133.171 200.549,131.763C200.549,130.355 200.967,129.197 201.803,128.29C202.639,127.383 203.73,126.93 205.074,126.93C206.651,126.93 207.872,127.557 208.738,128.81L207.706,129.521C207.114,128.6 206.25,128.14 205.115,128.14C205.111,128.14 205.106,128.14 205.102,128.14C204.14,128.14 203.37,128.468 202.791,129.124C202.212,129.781 201.923,130.656 201.923,131.749C201.923,132.852 202.212,133.736 202.791,134.402C203.37,135.067 204.131,135.4 205.074,135.4C206.214,135.4 207.091,134.921 207.706,133.964L208.786,134.661C207.938,135.951 206.706,136.596 205.088,136.596C203.734,136.596 202.638,136.143 201.8,135.236Z" style="fill-rule:nonzero;"/>
    <path d="M274.068,136.297L277.862,126.973L279.298,126.973L283.112,136.297L281.635,136.297L280.644,133.707L276.447,133.707L275.435,136.297L274.068,136.297ZM276.891,132.558L280.214,132.558L278.573,128.245L276.891,132.558Z" style="fill-rule:nonzero;"/>
    <path d="M284.507,136.297L284.507,126.973L288.594,126.973C289.547,126.973 290.306,127.22 290.871,127.715C291.436,128.209 291.718,128.871 291.718,129.701C291.718,130.325 291.543,130.864 291.192,131.317C290.841,131.771 290.376,132.1 289.798,132.305L291.971,136.297L290.488,136.297L288.499,132.544L285.826,132.544L285.826,136.297L284.507,136.297ZM285.826,131.396L288.594,131.396C289.128,131.396 289.555,131.249 289.876,130.955C290.197,130.661 290.358,130.277 290.358,129.803C290.358,129.306 290.193,128.911 289.863,128.617C289.532,128.323 289.096,128.176 288.553,128.176L285.826,128.176L285.826,131.396Z" style="fill-rule:nonzero;"/>
    <rect x="293.756" y="126.973" width="1.306" height="9.324" style="fill-rule:nonzero;"/>
    <path d="M297.577,136.297L297.577,126.973L299.259,126.973L304.003,134.479L304.003,126.973L305.267,126.973L305.267,136.297L303.722,136.297L298.842,128.614L298.842,136.297L297.577,136.297Z" style="fill-rule:nonzero;"/>
    <rect x="275.124" y="30.841" width="1.306" height="9.324" style="fill-rule:nonzero;"/>
    <path d="M277.845,40.165L281.639,30.841L283.074,30.841L286.889,40.165L285.412,40.165L284.421,37.574L280.224,37.574L279.212,40.165L277.845,40.165ZM280.668,36.426L283.99,36.426L282.35,32.112L280.668,36.426Z" style="fill-rule:nonzero;"/>
    <path d="M288.283,40.165L288.283,30.841L289.965,30.841L294.709,38.347L294.709,30.841L295.974,30.841L295.974,40.165L294.429,40.165L289.548,32.481L289.548,40.165L288.283,40.165Z" style="fill-rule:nonzero;"/>
    <path d="M297.382,40.165L301.176,30.841L302.612,30.841L306.426,40.165L304.949,40.165L303.958,37.574L299.761,37.574L298.749,40.165L297.382,40.165ZM300.205,36.426L303.528,36.426L301.887,32.112L300.205,36.426Z" style="fill-rule:nonzero;"/>
    <path d="M173.847,217.513L173.847,208.189L175.528,208.189L180.272,215.695L180.272,208.189L181.537,208.189L181.537,217.513L179.992,217.513L175.111,209.829L175.111,217.513L173.847,217.513Z" style="fill-rule:nonzero;"/>
    <rect x="184.046" y="208.189" width="1.306" height="9.324" style="fill-rule:nonzero;"/>
    <path d="M187.867,217.513L187.867,208.189L191.955,208.189C192.907,208.189 193.666,208.436 194.231,208.931C194.796,209.425 195.079,210.087 195.079,210.916C195.079,211.541 194.904,212.08 194.553,212.533C194.202,212.987 193.737,213.316 193.158,213.521L195.332,217.513L193.848,217.513L191.859,213.76L189.186,213.76L189.186,217.513L187.867,217.513ZM189.186,212.612L191.955,212.612C192.488,212.612 192.915,212.465 193.237,212.171C193.558,211.877 193.719,211.493 193.719,211.019C193.719,210.522 193.553,210.127 193.223,209.833C192.893,209.539 192.456,209.392 191.914,209.392L189.186,209.392L189.186,212.612Z" style="fill-rule:nonzero;"/>
    <path d="M209.413,268.258C209.413,263.872 205.852,260.311 201.466,260.311L167.712,260.311C163.326,260.311 159.765,263.872 159.765,268.258L159.765,284.152C159.765,288.538 163.326,292.099 167.712,292.099L201.466,292.099C205.852,292.099 209.413,288.538 209.413,284.152L209.413,268.258Z" style="fill:rgb(235,235,235);"/>
    <path d="M174.971,280.867L174.971,271.543L176.277,271.543L176.277,279.664L181.458,279.664L181.458,280.867L174.971,280.867Z" style="fill-rule:nonzero;"/>
    <rect x="182.921" y="271.543" width="1.306" height="9.324" style="fill-rule:nonzero;"/>
    <path d="M186.743,280.867L186.743,271.543L190.83,271.543C191.783,271.543 192.542,271.79 193.107,272.285C193.672,272.779 193.954,273.441 193.954,274.271C193.954,274.895 193.779,275.434 193.428,275.887C193.077,276.341 192.612,276.67 192.034,276.875L194.207,280.867L192.724,280.867L190.735,277.114L188.062,277.114L188.062,280.867L186.743,280.867ZM188.062,275.966L190.83,275.966C191.364,275.966 191.791,275.819 192.112,275.525C192.433,275.231 192.594,274.847 192.594,274.373C192.594,273.877 192.429,273.481 192.098,273.187C191.768,272.893 191.332,272.746 190.789,272.746L188.062,272.746L188.062,275.966Z" style="fill-rule:nonzero;"/>
    <path d="M149.688,268.258C149.688,263.872 146.127,260.311 141.74,260.311L107.986,260.311C103.6,260.311 100.039,263.872 100.039,268.258L100.039,284.152C100.039,288.538 103.6,292.099 107.986,292.099L141.74,292.099C146.127,292.099 149.688,288.538 149.688,284.152L149.688,268.258Z" style="fill:rgb(235,235,235);"/>
    <path d="M115.245,280.867L115.245,271.543L116.551,271.543L116.551,279.664L121.733,279.664L121.733,280.867L115.245,280.867Z" style="fill-rule:nonzero;"/>
    <rect x="123.195" y="271.543" width="1.306" height="9.324" style="fill-rule:nonzero;"/>
    <path d="M127.017,280.867L127.017,271.543L131.105,271.543C132.057,271.543 132.816,271.79 133.381,272.285C133.946,272.779 134.229,273.441 134.229,274.271C134.229,274.895 134.053,275.434 133.702,275.887C133.351,276.341 132.886,276.67 132.308,276.875L134.482,280.867L132.998,280.867L131.009,277.114L128.336,277.114L128.336,280.867L127.017,280.867ZM128.336,275.966L131.105,275.966C131.638,275.966 132.065,275.819 132.386,275.525C132.708,275.231 132.868,274.847 132.868,274.373C132.868,273.877 132.703,273.481 132.373,273.187C132.042,272.893 131.606,272.746 131.064,272.746L128.336,272.746L128.336,275.966Z" style="fill-rule:nonzero;"/>
    <path d="M149.688,268.258C149.688,263.872 146.127,260.311 141.74,260.311L107.986,260.311C103.6,260.311 100.039,263.872 100.039,268.258L100.039,284.152C100.039,288.538 103.6,292.099 107.986,292.099L141.74,292.099C146.127,292.099 149.688,288.538 149.688,284.152L149.688,268.258Z" style="fill:rgb(235,235,235);"/>
    <path d="M115.245,280.867L115.245,271.543L116.551,271.543L116.551,279.664L121.733,279.664L121.733,280.867L115.245,280.867Z" style="fill-rule:nonzero;"/>
    <rect x="123.195" y="271.543" width="1.306" height="9.324" style="fill-rule:nonzero;"/>
    <path d="M127.017,280.867L127.017,271.543L131.105,271.543C132.057,271.543 132.816,271.79 133.381,272.285C133.946,272.779 134.229,273.441 134.229,274.271C134.229,274.895 134.053,275.434 133.702,275.887C133.351,276.341 132.886,276.67 132.308,276.875L134.482,280.867L132.998,280.867L131.009,277.114L128.336,277.114L128.336,280.867L127.017,280.867ZM128.336,275.966L131.105,275.966C131.638,275.966 132.065,275.819 132.386,275.525C132.708,275.231 132.868,274.847 132.868,274.373C132.868,273.877 132.703,273.481 132.373,273.187C132.042,272.893 131.606,272.746 131.064,272.746L128.336,272.746L128.336,275.966Z" style="fill-rule:nonzero;"/>
    <path d="M90.054,268.258C90.054,263.872 86.493,260.311 82.107,260.311L48.353,260.311C43.967,260.311 40.406,263.872 40.406,268.258L40.406,284.152C40.406,288.538 43.967,292.099 48.353,292.099L82.107,292.099C86.493,292.099 90.054,288.538 90.054,284.152L90.054,268.258Z" style="fill:rgb(235,235,235);"/>
    <path d="M55.612,280.867L55.612,271.543L56.918,271.543L56.918,279.664L62.099,279.664L62.099,280.867L55.612,280.867Z" style="fill-rule:nonzero;"/>
    <rect x="63.562" y="271.543" width="1.306" height="9.324" style="fill-rule:nonzero;"/>
    <path d="M67.383,280.867L67.383,271.543L71.471,271.543C72.424,271.543 73.182,271.79 73.748,272.285C74.313,272.779 74.595,273.441 74.595,274.271C74.595,274.895 74.42,275.434 74.069,275.887C73.718,276.341 73.253,276.67 72.674,276.875L74.848,280.867L73.365,280.867L71.376,277.114L68.703,277.114L68.703,280.867L67.383,280.867ZM68.703,275.966L71.471,275.966C72.004,275.966 72.432,275.819 72.753,275.525C73.074,275.231 73.235,274.847 73.235,274.373C73.235,273.877 73.07,273.481 72.739,273.187C72.409,272.893 71.973,272.746 71.43,272.746L68.703,272.746L68.703,275.966Z" style="fill-rule:nonzero;"/>
    <path d="M269.065,268.258C269.065,263.872 265.504,260.311 261.118,260.311L227.364,260.311C222.978,260.311 219.417,263.872 219.417,268.258L219.417,284.152C219.417,288.538 222.978,292.099 227.364,292.099L261.118,292.099C265.504,292.099 269.065,288.538 269.065,284.152L269.065,268.258Z" style="fill:rgb(235,235,235);"/>
    <path d="M234.623,280.867L234.623,271.543L235.928,271.543L235.928,279.664L241.11,279.664L241.11,280.867L234.623,280.867Z" style="fill-rule:nonzero;"/>
    <rect x="242.573" y="271.543" width="1.306" height="9.324" style="fill-rule:nonzero;"/>
    <path d="M246.394,280.867L246.394,271.543L250.482,271.543C251.434,271.543 252.193,271.79 252.758,272.285C253.323,272.779 253.606,273.441 253.606,274.271C253.606,274.895 253.431,275.434 253.08,275.887C252.729,276.341 252.264,276.67 251.685,276.875L253.859,280.867L252.376,280.867L250.386,277.114L247.713,277.114L247.713,280.867L246.394,280.867ZM247.713,275.966L250.482,275.966C251.015,275.966 251.442,275.819 251.764,275.525C252.085,275.231 252.246,274.847 252.246,274.373C252.246,273.877 252.08,273.481 251.75,273.187C251.42,272.893 250.983,272.746 250.441,272.746L247.713,272.746L247.713,275.966Z" style="fill-rule:nonzero;"/>
    <path d="M365.786,136.297L365.786,126.973L369.874,126.973C370.826,126.973 371.585,127.22 372.15,127.715C372.715,128.209 372.998,128.871 372.998,129.701C372.998,130.325 372.822,130.864 372.471,131.317C372.12,131.771 371.656,132.1 371.077,132.305L373.251,136.297L371.767,136.297L369.778,132.544L367.105,132.544L367.105,136.297L365.786,136.297ZM367.105,131.396L369.874,131.396C370.407,131.396 370.834,131.249 371.155,130.955C371.477,130.661 371.637,130.277 371.637,129.803C371.637,129.306 371.472,128.911 371.142,128.617C370.811,128.323 370.375,128.176 369.833,128.176L367.105,128.176L367.105,131.396Z" style="fill-rule:nonzero;"/>
    <rect x="375.035" y="126.973" width="1.306" height="9.324" style="fill-rule:nonzero;"/>
    <path d="M378.856,136.297L378.856,126.973L382.78,126.973C383.814,126.973 384.621,127.234 385.2,127.756C385.779,128.278 386.068,128.983 386.068,129.872C386.068,130.76 385.781,131.463 385.207,131.98C384.632,132.498 383.824,132.756 382.78,132.756L380.175,132.756L380.175,136.297L378.856,136.297ZM380.175,131.553L382.78,131.553C383.413,131.553 383.893,131.404 384.219,131.105C384.545,130.807 384.708,130.396 384.708,129.872C384.708,129.338 384.545,128.923 384.219,128.624C383.893,128.326 383.413,128.176 382.78,128.176L380.175,128.176L380.175,131.553Z" style="fill-rule:nonzero;"/>
    <path d="M387.729,136.297L387.729,126.973L394.34,126.973L394.34,128.176L389.048,128.176L389.048,130.808L393.656,130.808L393.656,131.943L389.048,131.943L389.048,135.094L394.476,135.094L394.476,136.297L387.729,136.297Z" style="fill-rule:nonzero;"/>
    <path d="M400.177,136.297L400.177,126.973L401.859,126.973L406.603,134.479L406.603,126.973L407.868,126.973L407.868,136.297L406.323,136.297L401.442,128.614L401.442,136.297L400.177,136.297Z" style="fill-rule:nonzero;"/>
    <path d="M411.04,135.108C410.206,134.201 409.789,133.043 409.789,131.635C409.789,130.227 410.207,129.069 411.043,128.163C411.879,127.256 412.97,126.802 414.314,126.802C415.891,126.802 417.112,127.429 417.978,128.682L416.946,129.393C416.353,128.472 415.49,128.012 414.355,128.012C414.351,128.012 414.346,128.012 414.341,128.012C413.38,128.012 412.61,128.34 412.031,128.997C411.452,129.653 411.163,130.528 411.163,131.622C411.163,132.724 411.452,133.609 412.031,134.274C412.61,134.939 413.371,135.272 414.314,135.272C415.453,135.272 416.331,134.793 416.946,133.836L418.026,134.534C417.178,135.823 415.946,136.468 414.328,136.468C412.974,136.468 411.878,136.015 411.04,135.108Z" style="fill-rule:nonzero;"/>
    <path d="M420.419,135.108C419.585,134.201 419.168,133.043 419.168,131.635C419.168,130.227 419.586,129.069 420.422,128.163C421.258,127.256 422.349,126.802 423.693,126.802C425.27,126.802 426.491,127.429 427.357,128.682L426.325,129.393C425.732,128.472 424.869,128.012 423.734,128.012C423.729,128.012 423.725,128.012 423.72,128.012C422.759,128.012 421.989,128.34 421.41,128.997C420.831,129.653 420.542,130.528 420.542,131.622C420.542,132.724 420.831,133.609 421.41,134.274C421.989,134.939 422.75,135.272 423.693,135.272C424.832,135.272 425.71,134.793 426.325,133.836L427.405,134.534C426.557,135.823 425.325,136.468 423.707,136.468C422.353,136.468 421.257,136.015 420.419,135.108Z" style="fill-rule:nonzero;"/>
    <path d="M475.234,136.297L479.028,126.973L480.463,126.973L484.278,136.297L482.801,136.297L481.81,133.707L477.613,133.707L476.601,136.297L475.234,136.297ZM478.057,132.558L481.379,132.558L479.738,128.245L478.057,132.558Z" style="fill-rule:nonzero;"/>
    <path d="M485.672,136.297L485.672,126.973L492.405,126.973L492.405,128.176L486.991,128.176L486.991,130.863L491.585,130.863L491.585,131.998L486.991,131.998L486.991,136.297L485.672,136.297Z" style="fill-rule:nonzero;"/>
    <path d="M494.094,136.297L494.094,126.973L498.182,126.973C499.134,126.973 499.893,127.22 500.458,127.715C501.023,128.209 501.306,128.871 501.306,129.701C501.306,130.325 501.13,130.864 500.78,131.317C500.429,131.771 499.964,132.1 499.385,132.305L501.559,136.297L500.075,136.297L498.086,132.544L495.413,132.544L495.413,136.297L494.094,136.297ZM495.413,131.396L498.182,131.396C498.715,131.396 499.142,131.249 499.464,130.955C499.785,130.661 499.946,130.277 499.946,129.803C499.946,129.306 499.78,128.911 499.45,128.617C499.12,128.323 498.683,128.176 498.141,128.176L495.413,128.176L495.413,131.396Z" style="fill-rule:nonzero;"/>
    <rect x="503.343" y="126.973" width="1.306" height="9.324" style="fill-rule:nonzero;"/>
    <path d="M507.164,136.297L507.164,126.973L508.846,126.973L513.59,134.479L513.59,126.973L514.855,126.973L514.855,136.297L513.31,136.297L508.429,128.614L508.429,136.297L507.164,136.297Z" style="fill-rule:nonzero;"/>
    <rect x="517.363" y="126.973" width="1.306" height="9.324" style="fill-rule:nonzero;"/>
    <path d="M521.848,135.108C521.014,134.201 520.597,133.043 520.597,131.635C520.597,130.227 521.015,129.069 521.851,128.163C522.688,127.256 523.778,126.802 525.122,126.802C526.699,126.802 527.92,127.429 528.786,128.682L527.754,129.393C527.162,128.472 526.298,128.012 525.163,128.012C525.159,128.012 525.154,128.012 525.15,128.012C524.188,128.012 523.418,128.34 522.839,128.997C522.26,129.653 521.971,130.528 521.971,131.622C521.971,132.724 522.26,133.609 522.839,134.274C523.418,134.939 524.179,135.272 525.122,135.272C526.262,135.272 527.139,134.793 527.754,133.836L528.834,134.534C527.987,135.823 526.754,136.468 525.136,136.468C523.782,136.468 522.686,136.015 521.848,135.108Z" style="fill-rule:nonzero;"/>
    <path d="M184.502,161.021L184.502,190.577" style="fill:none;stroke:black;stroke-width:1px;"/>
    <path d="M184.589,235.125L184.589,260.311" style="fill:none;stroke:black;stroke-width:1px;"/>
    <path d="M244.241,260.311L184.589,235.125L127.112,260.311" style="fill:none;stroke:black;stroke-width:1px;"/>
    <path d="M184.589,161.021L65.23,260.311" style="fill:none;stroke:black;stroke-width:1px;"/>
    <path d="M64.412,292.099L64.412,362.533" style="fill:none;stroke:black;stroke-width:1px;"/>
    <path d="M183.235,292.099L183.235,362.533" style="fill:none;stroke:black;stroke-width:1px;"/>
    <path d="M394.005,161.021L393.872,260.311" style="fill:none;stroke:black;stroke-width:1px;"/>
    <path d="M243.467,292.099L243.467,362.533" style="fill:none;stroke:black;stroke-width:1px;"/>
    <path d="M124.096,292.099L124.291,311.124" style="fill:none;stroke:black;stroke-width:1px;"/>
    <path d="M149.115,319.071C149.115,314.685 145.554,311.124 141.168,311.124L107.414,311.124C103.028,311.124 99.467,314.685 99.467,319.071L99.467,334.966C99.467,339.352 103.028,342.913 107.414,342.913L141.168,342.913C145.554,342.913 149.115,339.352 149.115,334.966L149.115,319.071Z" style="fill:rgb(235,235,235);"/>
    <rect x="114.601" y="322.356" width="1.306" height="9.324" style="fill-rule:nonzero;"/>
    <path d="M117.657,329.931L118.73,329.247C119.345,330.218 120.284,330.703 121.546,330.703C122.18,330.703 122.69,330.561 123.078,330.276C123.465,329.991 123.659,329.6 123.659,329.104C123.659,328.926 123.636,328.767 123.59,328.628C123.545,328.489 123.454,328.366 123.317,328.259C123.18,328.152 123.063,328.066 122.965,328C122.867,327.933 122.69,327.863 122.435,327.788C122.18,327.712 121.988,327.659 121.861,327.627C121.733,327.595 121.499,327.543 121.157,327.47C120.701,327.379 120.314,327.276 119.995,327.162C119.676,327.048 119.358,326.893 119.041,326.697C118.724,326.501 118.484,326.247 118.32,325.935C118.156,325.623 118.074,325.257 118.074,324.838C118.074,324.018 118.377,323.37 118.983,322.896C119.589,322.423 120.373,322.186 121.335,322.186C122.055,322.186 122.718,322.328 123.324,322.613C123.93,322.898 124.433,323.307 124.835,323.84L123.83,324.558C123.233,323.756 122.378,323.352 121.266,323.348C120.724,323.348 120.276,323.458 119.923,323.679C119.57,323.9 119.393,324.243 119.393,324.708C119.393,324.904 119.434,325.077 119.516,325.228C119.598,325.378 119.692,325.498 119.796,325.586C119.901,325.675 120.065,325.763 120.289,325.85C120.512,325.936 120.699,326 120.849,326.041L121.546,326.205C121.975,326.31 122.327,326.402 122.603,326.482C122.878,326.562 123.185,326.678 123.522,326.831C123.859,326.983 124.122,327.148 124.312,327.326C124.501,327.504 124.661,327.735 124.793,328.02C124.926,328.305 124.992,328.63 124.992,328.994C124.992,329.851 124.669,330.541 124.024,331.065C123.38,331.59 122.522,331.852 121.451,331.852C120.594,331.852 119.836,331.681 119.178,331.339C118.519,330.997 118.012,330.528 117.657,329.931Z" style="fill-rule:nonzero;"/>
    <path d="M126.892,331.681L126.892,322.356L130.816,322.356C131.85,322.356 132.657,322.617 133.236,323.139C133.815,323.661 134.104,324.366 134.104,325.255C134.104,326.144 133.817,326.847 133.243,327.364C132.668,327.881 131.86,328.14 130.816,328.14L128.211,328.14L128.211,331.681L126.892,331.681ZM128.211,326.937L130.816,326.937C131.449,326.937 131.929,326.787 132.255,326.489C132.581,326.19 132.744,325.779 132.744,325.255C132.744,324.722 132.581,324.306 132.255,324.007C131.929,323.709 131.449,323.56 130.816,323.56L128.211,323.56L128.211,326.937Z" style="fill-rule:nonzero;"/>
    <path d="M123.524,342.913L123.719,361.938" style="fill:none;stroke:black;stroke-width:1px;"/>
    <path d="M358.605,319.071C358.605,314.685 355.044,311.124 350.658,311.124L316.904,311.124C312.518,311.124 308.957,314.685 308.957,319.071L308.957,334.966C308.957,339.352 312.518,342.913 316.904,342.913L350.658,342.913C355.044,342.913 358.605,339.352 358.605,334.966L358.605,319.071Z" style="fill:rgb(235,235,235);"/>
    <rect x="324.091" y="322.356" width="1.306" height="9.324" style="fill-rule:nonzero;"/>
    <path d="M327.147,329.931L328.22,329.247C328.836,330.218 329.774,330.703 331.037,330.703C331.67,330.703 332.181,330.561 332.568,330.276C332.955,329.991 333.149,329.6 333.149,329.104C333.149,328.926 333.126,328.767 333.081,328.628C333.035,328.489 332.944,328.366 332.807,328.259C332.67,328.152 332.553,328.066 332.455,328C332.357,327.933 332.181,327.863 331.925,327.788C331.67,327.712 331.479,327.659 331.351,327.627C331.224,327.595 330.989,327.543 330.647,327.47C330.191,327.379 329.804,327.276 329.485,327.162C329.166,327.048 328.848,326.893 328.531,326.697C328.215,326.501 327.974,326.247 327.81,325.935C327.646,325.623 327.564,325.257 327.564,324.838C327.564,324.018 327.867,323.37 328.473,322.896C329.079,322.423 329.863,322.186 330.825,322.186C331.545,322.186 332.208,322.328 332.814,322.613C333.42,322.898 333.924,323.307 334.325,323.84L333.32,324.558C332.723,323.756 331.868,323.352 330.756,323.348C330.214,323.348 329.766,323.458 329.413,323.679C329.06,323.9 328.883,324.243 328.883,324.708C328.883,324.904 328.924,325.077 329.006,325.228C329.088,325.378 329.182,325.498 329.287,325.586C329.392,325.675 329.556,325.763 329.779,325.85C330.002,325.936 330.189,326 330.339,326.041L331.037,326.205C331.465,326.31 331.817,326.402 332.093,326.482C332.369,326.562 332.675,326.678 333.012,326.831C333.35,326.983 333.613,327.148 333.802,327.326C333.991,327.504 334.152,327.735 334.284,328.02C334.416,328.305 334.482,328.63 334.482,328.994C334.482,329.851 334.16,330.541 333.515,331.065C332.87,331.59 332.012,331.852 330.941,331.852C330.084,331.852 329.327,331.681 328.668,331.339C328.01,330.997 327.503,330.528 327.147,329.931Z" style="fill-rule:nonzero;"/>
    <path d="M336.382,331.681L336.382,322.356L340.306,322.356C341.341,322.356 342.147,322.617 342.726,323.139C343.305,323.661 343.594,324.366 343.594,325.255C343.594,326.144 343.307,326.847 342.733,327.364C342.159,327.881 341.35,328.14 340.306,328.14L337.702,328.14L337.702,331.681L336.382,331.681ZM337.702,326.937L340.306,326.937C340.94,326.937 341.419,326.787 341.745,326.489C342.071,326.19 342.234,325.779 342.234,325.255C342.234,324.722 342.071,324.306 341.745,324.007C341.419,323.709 340.94,323.56 340.306,323.56L337.702,323.56L337.702,326.937Z" style="fill-rule:nonzero;"/>
    <path d="M418.829,268.258C418.829,263.872 415.268,260.311 410.882,260.311L377.128,260.311C372.742,260.311 369.181,263.872 369.181,268.258L369.181,284.152C369.181,288.538 372.742,292.099 377.128,292.099L410.882,292.099C415.268,292.099 418.829,288.538 418.829,284.152L418.829,268.258Z" style="fill:rgb(235,235,235);"/>
    <path d="M384.387,280.867L384.387,271.543L385.693,271.543L385.693,279.664L390.874,279.664L390.874,280.867L384.387,280.867Z" style="fill-rule:nonzero;"/>
    <rect x="392.337" y="271.543" width="1.306" height="9.324" style="fill-rule:nonzero;"/>
    <path d="M396.158,280.867L396.158,271.543L400.246,271.543C401.199,271.543 401.958,271.79 402.523,272.285C403.088,272.779 403.37,273.441 403.37,274.271C403.37,274.895 403.195,275.434 402.844,275.887C402.493,276.341 402.028,276.67 401.449,276.875L403.623,280.867L402.14,280.867L400.151,277.114L397.478,277.114L397.478,280.867L396.158,280.867ZM397.478,275.966L400.246,275.966C400.779,275.966 401.207,275.819 401.528,275.525C401.849,275.231 402.01,274.847 402.01,274.373C402.01,273.877 401.845,273.481 401.514,273.187C401.184,272.893 400.748,272.746 400.205,272.746L397.478,272.746L397.478,275.966Z" style="fill-rule:nonzero;"/>
    <path d="M359.103,268.258C359.103,263.872 355.542,260.311 351.156,260.311L317.402,260.311C313.016,260.311 309.455,263.872 309.455,268.258L309.455,284.152C309.455,288.538 313.016,292.099 317.402,292.099L351.156,292.099C355.542,292.099 359.103,288.538 359.103,284.152L359.103,268.258Z" style="fill:rgb(235,235,235);"/>
    <path d="M324.661,280.867L324.661,271.543L325.967,271.543L325.967,279.664L331.148,279.664L331.148,280.867L324.661,280.867Z" style="fill-rule:nonzero;"/>
    <rect x="332.611" y="271.543" width="1.306" height="9.324" style="fill-rule:nonzero;"/>
    <path d="M336.433,280.867L336.433,271.543L340.52,271.543C341.473,271.543 342.232,271.79 342.797,272.285C343.362,272.779 343.644,273.441 343.644,274.271C343.644,274.895 343.469,275.434 343.118,275.887C342.767,276.341 342.302,276.67 341.724,276.875L343.897,280.867L342.414,280.867L340.425,277.114L337.752,277.114L337.752,280.867L336.433,280.867ZM337.752,275.966L340.52,275.966C341.054,275.966 341.481,275.819 341.802,275.525C342.123,275.231 342.284,274.847 342.284,274.373C342.284,273.877 342.119,273.481 341.788,273.187C341.458,272.893 341.022,272.746 340.479,272.746L337.752,272.746L337.752,275.966Z" style="fill-rule:nonzero;"/>
    <path d="M478.481,268.258C478.481,263.872 474.92,260.311 470.534,260.311L436.78,260.311C432.393,260.311 428.832,263.872 428.832,268.258L428.832,284.152C428.832,288.538 432.393,292.099 436.78,292.099L470.534,292.099C474.92,292.099 478.481,288.538 478.481,284.152L478.481,268.258Z" style="fill:rgb(235,235,235);"/>
    <path d="M444.038,280.867L444.038,271.543L445.344,271.543L445.344,279.664L450.526,279.664L450.526,280.867L444.038,280.867Z" style="fill-rule:nonzero;"/>
    <rect x="451.989" y="271.543" width="1.306" height="9.324" style="fill-rule:nonzero;"/>
    <path d="M455.81,280.867L455.81,271.543L459.898,271.543C460.85,271.543 461.609,271.79 462.174,272.285C462.739,272.779 463.022,273.441 463.022,274.271C463.022,274.895 462.846,275.434 462.495,275.887C462.145,276.341 461.68,276.67 461.101,276.875L463.275,280.867L461.791,280.867L459.802,277.114L457.129,277.114L457.129,280.867L455.81,280.867ZM457.129,275.966L459.898,275.966C460.431,275.966 460.858,275.819 461.18,275.525C461.501,275.231 461.661,274.847 461.661,274.373C461.661,273.877 461.496,273.481 461.166,273.187C460.835,272.893 460.399,272.746 459.857,272.746L457.129,272.746L457.129,275.966Z" style="fill-rule:nonzero;"/>
    <path d="M209.413,368.997C209.413,364.611 205.852,361.05 201.466,361.05L167.712,361.05C163.326,361.05 159.765,364.611 159.765,368.997L159.765,384.891C159.765,389.277 163.326,392.838 167.712,392.838L201.466,392.838C205.852,392.838 209.413,389.277 209.413,384.891L209.413,368.997Z" style="fill:rgb(235,235,235);"/>
    <path d="M149.688,368.997C149.688,364.611 146.127,361.05 141.74,361.05L107.986,361.05C103.6,361.05 100.039,364.611 100.039,368.997L100.039,384.891C100.039,389.277 103.6,392.838 107.986,392.838L141.74,392.838C146.127,392.838 149.688,389.277 149.688,384.891L149.688,368.997Z" style="fill:rgb(235,235,235);"/>
    <path d="M115.245,381.606L115.245,372.282L116.551,372.282L116.551,380.403L121.733,380.403L121.733,381.606L115.245,381.606Z" style="fill-rule:nonzero;"/>
    <rect x="123.195" y="372.282" width="1.306" height="9.324" style="fill-rule:nonzero;"/>
    <path d="M127.017,381.606L127.017,372.282L131.105,372.282C132.057,372.282 132.816,372.529 133.381,373.024C133.946,373.518 134.229,374.18 134.229,375.009C134.229,375.634 134.053,376.173 133.702,376.626C133.351,377.08 132.886,377.409 132.308,377.614L134.482,381.606L132.998,381.606L131.009,377.853L128.336,377.853L128.336,381.606L127.017,381.606ZM128.336,376.705L131.105,376.705C131.638,376.705 132.065,376.558 132.386,376.264C132.708,375.97 132.868,375.586 132.868,375.112C132.868,374.615 132.703,374.22 132.373,373.926C132.042,373.632 131.606,373.485 131.064,373.485L128.336,373.485L128.336,376.705Z" style="fill-rule:nonzero;"/>
    <path d="M149.688,368.997C149.688,364.611 146.127,361.05 141.74,361.05L107.986,361.05C103.6,361.05 100.039,364.611 100.039,368.997L100.039,384.891C100.039,389.277 103.6,392.838 107.986,392.838L141.74,392.838C146.127,392.838 149.688,389.277 149.688,384.891L149.688,368.997Z" style="fill:rgb(235,235,235);"/>
    <path d="M90.054,368.997C90.054,364.611 86.493,361.05 82.107,361.05L48.353,361.05C43.967,361.05 40.406,364.611 40.406,368.997L40.406,384.891C40.406,389.277 43.967,392.838 48.353,392.838L82.107,392.838C86.493,392.838 90.054,389.277 90.054,384.891L90.054,368.997Z" style="fill:rgb(235,235,235);"/>
    <g transform="matrix(0.871951,0,0,0.871951,-28.0567,273.901)">
        <path d="M96.968,116.464L96.968,108.826L102.383,108.826L102.383,109.811L98.049,109.811L98.049,111.967L101.823,111.967L101.823,112.897L98.049,112.897L98.049,115.479L102.495,115.479L102.495,116.464L96.968,116.464Z" style="fill-rule:nonzero;"/>
        <path d="M103.94,116.464L103.94,110.5L104.937,110.5L104.937,111.486C105.448,110.735 106.128,110.36 106.975,110.36C107.617,110.36 108.126,110.559 108.501,110.957C108.876,111.354 109.064,111.91 109.064,112.623L109.064,116.464L108.067,116.464L108.067,112.852C108.067,111.822 107.623,111.305 106.734,111.301C106.215,111.301 105.786,111.474 105.446,111.819C105.106,112.164 104.937,112.611 104.937,113.16L104.937,116.464L103.94,116.464Z" style="fill-rule:nonzero;"/>
        <path d="M110.402,113.496C110.402,112.585 110.65,111.835 111.147,111.245C111.643,110.655 112.31,110.36 113.146,110.36C114.035,110.36 114.742,110.735 115.268,111.486L115.268,108.277L116.265,108.277L116.265,116.464L115.268,116.464L115.268,115.49C114.749,116.233 114.042,116.604 113.146,116.604C112.314,116.604 111.648,116.31 111.15,115.722C110.651,115.134 110.402,114.392 110.402,113.496ZM111.936,111.906C111.619,112.313 111.46,112.838 111.46,113.482C111.46,114.126 111.621,114.654 111.942,115.067C112.263,115.479 112.724,115.686 113.325,115.686C113.937,115.686 114.414,115.478 114.756,115.061C115.098,114.645 115.268,114.12 115.268,113.485C115.268,112.85 115.098,112.326 114.756,111.911C114.414,111.497 113.937,111.29 113.325,111.29C112.72,111.29 112.258,111.495 111.936,111.906Z" style="fill-rule:nonzero;"/>
        <path d="M94.837,125.066L94.837,120.294L95.901,120.294L95.901,125.066C95.901,125.678 96.085,126.165 96.453,126.527C96.821,126.889 97.322,127.07 97.956,127.07C98.591,127.07 99.096,126.889 99.471,126.527C99.846,126.165 100.034,125.678 100.034,125.066L100.034,120.294L101.098,120.294L101.098,125.066C101.098,125.976 100.806,126.705 100.222,127.252C99.637,127.799 98.882,128.073 97.956,128.073C97.031,128.073 96.279,127.799 95.702,127.252C95.126,126.705 94.837,125.976 94.837,125.066Z" style="fill-rule:nonzero;"/>
        <path d="M102.408,126.796L103.142,126.247C103.609,126.889 104.262,127.21 105.102,127.21C105.524,127.21 105.861,127.128 106.113,126.964C106.365,126.8 106.491,126.561 106.491,126.247C106.491,125.963 106.376,125.768 106.146,125.662C105.917,125.556 105.484,125.441 104.85,125.318C104.163,125.187 103.636,124.999 103.268,124.755C102.9,124.51 102.716,124.121 102.716,123.587C102.716,123.012 102.932,122.575 103.363,122.277C103.794,121.978 104.323,121.829 104.951,121.829C105.929,121.829 106.735,122.163 107.37,122.831L106.709,123.458C106.265,122.947 105.675,122.691 104.939,122.691C104.588,122.691 104.291,122.758 104.046,122.893C103.802,123.027 103.679,123.227 103.679,123.492C103.679,123.608 103.708,123.711 103.766,123.803C103.824,123.894 103.889,123.969 103.959,124.027C104.03,124.085 104.142,124.139 104.295,124.189C104.449,124.24 104.581,124.276 104.693,124.298L105.158,124.388C105.449,124.44 105.686,124.49 105.869,124.536C106.052,124.583 106.258,124.652 106.488,124.744C106.717,124.835 106.896,124.939 107.023,125.054C107.15,125.17 107.259,125.323 107.35,125.514C107.442,125.704 107.487,125.922 107.487,126.169C107.487,126.744 107.269,127.205 106.832,127.552C106.395,127.899 105.8,128.073 105.046,128.073C103.847,128.069 102.968,127.643 102.408,126.796Z" style="fill-rule:nonzero;"/>
        <path d="M108.479,124.976C108.479,124.072 108.745,123.322 109.277,122.725C109.809,122.127 110.517,121.829 111.402,121.829C112.257,121.829 112.944,122.113 113.465,122.68C113.986,123.247 114.246,123.955 114.246,124.802C114.246,124.955 114.239,125.086 114.224,125.194L109.548,125.194C109.578,125.807 109.772,126.286 110.131,126.633C110.489,126.981 110.963,127.154 111.553,127.154C112.247,127.154 112.835,126.893 113.317,126.37L113.983,127.025C113.334,127.72 112.516,128.069 111.53,128.073C110.582,128.073 109.837,127.784 109.293,127.207C108.75,126.631 108.479,125.887 108.479,124.976ZM109.571,124.422L113.216,124.422C113.164,123.873 112.969,123.447 112.631,123.145C112.293,122.842 111.88,122.691 111.39,122.691C110.879,122.691 110.457,122.852 110.125,123.173C109.793,123.494 109.608,123.91 109.571,124.422Z" style="fill-rule:nonzero;"/>
        <path d="M115.59,127.933L115.59,121.969L116.587,121.969L116.587,122.977C117.05,122.23 117.623,121.857 118.306,121.857C118.31,121.857 118.314,121.857 118.318,121.857C118.639,121.857 118.911,121.928 119.135,122.07L118.81,123.022C118.59,122.902 118.368,122.842 118.144,122.842C118.136,122.842 118.129,122.842 118.122,122.842C117.7,122.842 117.338,123.02 117.038,123.374C116.737,123.729 116.587,124.212 116.587,124.825L116.587,127.933L115.59,127.933Z" style="fill-rule:nonzero;"/>
    </g>
    <path d="M269.065,368.997C269.065,364.611 265.504,361.05 261.118,361.05L227.364,361.05C222.978,361.05 219.417,364.611 219.417,368.997L219.417,384.891C219.417,389.277 222.978,392.838 227.364,392.838L261.118,392.838C265.504,392.838 269.065,389.277 269.065,384.891L269.065,368.997Z" style="fill:rgb(235,235,235);"/>
    <path d="M418.829,368.997C418.829,364.611 415.268,361.05 410.882,361.05L377.128,361.05C372.742,361.05 369.181,364.611 369.181,368.997L369.181,384.891C369.181,389.277 372.742,392.838 377.128,392.838L410.882,392.838C415.268,392.838 418.829,389.277 418.829,384.891L418.829,368.997Z" style="fill:rgb(235,235,235);"/>
    <path d="M359.103,368.997C359.103,364.611 355.542,361.05 351.156,361.05L317.402,361.05C313.016,361.05 309.455,364.611 309.455,368.997L309.455,384.891C309.455,389.277 313.016,392.838 317.402,392.838L351.156,392.838C355.542,392.838 359.103,389.277 359.103,384.891L359.103,368.997Z" style="fill:rgb(235,235,235);"/>
    <path d="M478.481,368.997C478.481,364.611 474.92,361.05 470.534,361.05L436.78,361.05C432.393,361.05 428.832,364.611 428.832,368.997L428.832,384.891C428.832,389.277 432.393,392.838 436.78,392.838L470.534,392.838C474.92,392.838 478.481,389.277 478.481,384.891L478.481,368.997Z" style="fill:rgb(235,235,235);"/>
    <path d="M453.657,260.311L394.005,161.021L336.528,260.311" style="fill:none;stroke:black;stroke-width:1px;"/>
    <g transform="matrix(0.871951,0,0,0.871951,31.5766,273.901)">
        <path d="M96.968,116.464L96.968,108.826L102.383,108.826L102.383,109.811L98.049,109.811L98.049,111.967L101.823,111.967L101.823,112.897L98.049,112.897L98.049,115.479L102.495,115.479L102.495,116.464L96.968,116.464Z" style="fill-rule:nonzero;"/>
        <path d="M103.94,116.464L103.94,110.5L104.937,110.5L104.937,111.486C105.448,110.735 106.128,110.36 106.975,110.36C107.617,110.36 108.126,110.559 108.501,110.957C108.876,111.354 109.064,111.91 109.064,112.623L109.064,116.464L108.067,116.464L108.067,112.852C108.067,111.822 107.623,111.305 106.734,111.301C106.215,111.301 105.786,111.474 105.446,111.819C105.106,112.164 104.937,112.611 104.937,113.16L104.937,116.464L103.94,116.464Z" style="fill-rule:nonzero;"/>
        <path d="M110.402,113.496C110.402,112.585 110.65,111.835 111.147,111.245C111.643,110.655 112.31,110.36 113.146,110.36C114.035,110.36 114.742,110.735 115.268,111.486L115.268,108.277L116.265,108.277L116.265,116.464L115.268,116.464L115.268,115.49C114.749,116.233 114.042,116.604 113.146,116.604C112.314,116.604 111.648,116.31 111.15,115.722C110.651,115.134 110.402,114.392 110.402,113.496ZM111.936,111.906C111.619,112.313 111.46,112.838 111.46,113.482C111.46,114.126 111.621,114.654 111.942,115.067C112.263,115.479 112.724,115.686 113.325,115.686C113.937,115.686 114.414,115.478 114.756,115.061C115.098,114.645 115.268,114.12 115.268,113.485C115.268,112.85 115.098,112.326 114.756,111.911C114.414,111.497 113.937,111.29 113.325,111.29C112.72,111.29 112.258,111.495 111.936,111.906Z" style="fill-rule:nonzero;"/>
        <path d="M94.837,125.066L94.837,120.294L95.901,120.294L95.901,125.066C95.901,125.678 96.085,126.165 96.453,126.527C96.821,126.889 97.322,127.07 97.956,127.07C98.591,127.07 99.096,126.889 99.471,126.527C99.846,126.165 100.034,125.678 100.034,125.066L100.034,120.294L101.098,120.294L101.098,125.066C101.098,125.976 100.806,126.705 100.222,127.252C99.637,127.799 98.882,128.073 97.956,128.073C97.031,128.073 96.279,127.799 95.702,127.252C95.126,126.705 94.837,125.976 94.837,125.066Z" style="fill-rule:nonzero;"/>
        <path d="M102.408,126.796L103.142,126.247C103.609,126.889 104.262,127.21 105.102,127.21C105.524,127.21 105.861,127.128 106.113,126.964C106.365,126.8 106.491,126.561 106.491,126.247C106.491,125.963 106.376,125.768 106.146,125.662C105.917,125.556 105.484,125.441 104.85,125.318C104.163,125.187 103.636,124.999 103.268,124.755C102.9,124.51 102.716,124.121 102.716,123.587C102.716,123.012 102.932,122.575 103.363,122.277C103.794,121.978 104.323,121.829 104.951,121.829C105.929,121.829 106.735,122.163 107.37,122.831L106.709,123.458C106.265,122.947 105.675,122.691 104.939,122.691C104.588,122.691 104.291,122.758 104.046,122.893C103.802,123.027 103.679,123.227 103.679,123.492C103.679,123.608 103.708,123.711 103.766,123.803C103.824,123.894 103.889,123.969 103.959,124.027C104.03,124.085 104.142,124.139 104.295,124.189C104.449,124.24 104.581,124.276 104.693,124.298L105.158,124.388C105.449,124.44 105.686,124.49 105.869,124.536C106.052,124.583 106.258,124.652 106.488,124.744C106.717,124.835 106.896,124.939 107.023,125.054C107.15,125.17 107.259,125.323 107.35,125.514C107.442,125.704 107.487,125.922 107.487,126.169C107.487,126.744 107.269,127.205 106.832,127.552C106.395,127.899 105.8,128.073 105.046,128.073C103.847,128.069 102.968,127.643 102.408,126.796Z" style="fill-rule:nonzero;"/>
        <path d="M108.479,124.976C108.479,124.072 108.745,123.322 109.277,122.725C109.809,122.127 110.517,121.829 111.402,121.829C112.257,121.829 112.944,122.113 113.465,122.68C113.986,123.247 114.246,123.955 114.246,124.802C114.246,124.955 114.239,125.086 114.224,125.194L109.548,125.194C109.578,125.807 109.772,126.286 110.131,126.633C110.489,126.981 110.963,127.154 111.553,127.154C112.247,127.154 112.835,126.893 113.317,126.37L113.983,127.025C113.334,127.72 112.516,128.069 111.53,128.073C110.582,128.073 109.837,127.784 109.293,127.207C108.75,126.631 108.479,125.887 108.479,124.976ZM109.571,124.422L113.216,124.422C113.164,123.873 112.969,123.447 112.631,123.145C112.293,122.842 111.88,122.691 111.39,122.691C110.879,122.691 110.457,122.852 110.125,123.173C109.793,123.494 109.608,123.91 109.571,124.422Z" style="fill-rule:nonzero;"/>
        <path d="M115.59,127.933L115.59,121.969L116.587,121.969L116.587,122.977C117.05,122.23 117.623,121.857 118.306,121.857C118.31,121.857 118.314,121.857 118.318,121.857C118.639,121.857 118.911,121.928 119.135,122.07L118.81,123.022C118.59,122.902 118.368,122.842 118.144,122.842C118.136,122.842 118.129,122.842 118.122,122.842C117.7,122.842 117.338,123.02 117.038,123.374C116.737,123.729 116.587,124.212 116.587,124.825L116.587,127.933L115.59,127.933Z" style="fill-rule:nonzero;"/>
    </g>
    <g transform="matrix(0.871951,0,0,0.871951,91.3025,273.901)">
        <path d="M96.968,116.464L96.968,108.826L102.383,108.826L102.383,109.811L98.049,109.811L98.049,111.967L101.823,111.967L101.823,112.897L98.049,112.897L98.049,115.479L102.495,115.479L102.495,116.464L96.968,116.464Z" style="fill-rule:nonzero;"/>
        <path d="M103.94,116.464L103.94,110.5L104.937,110.5L104.937,111.486C105.448,110.735 106.128,110.36 106.975,110.36C107.617,110.36 108.126,110.559 108.501,110.957C108.876,111.354 109.064,111.91 109.064,112.623L109.064,116.464L108.067,116.464L108.067,112.852C108.067,111.822 107.623,111.305 106.734,111.301C106.215,111.301 105.786,111.474 105.446,111.819C105.106,112.164 104.937,112.611 104.937,113.16L104.937,116.464L103.94,116.464Z" style="fill-rule:nonzero;"/>
        <path d="M110.402,113.496C110.402,112.585 110.65,111.835 111.147,111.245C111.643,110.655 112.31,110.36 113.146,110.36C114.035,110.36 114.742,110.735 115.268,111.486L115.268,108.277L116.265,108.277L116.265,116.464L115.268,116.464L115.268,115.49C114.749,116.233 114.042,116.604 113.146,116.604C112.314,116.604 111.648,116.31 111.15,115.722C110.651,115.134 110.402,114.392 110.402,113.496ZM111.936,111.906C111.619,112.313 111.46,112.838 111.46,113.482C111.46,114.126 111.621,114.654 111.942,115.067C112.263,115.479 112.724,115.686 113.325,115.686C113.937,115.686 114.414,115.478 114.756,115.061C115.098,114.645 115.268,114.12 115.268,113.485C115.268,112.85 115.098,112.326 114.756,111.911C114.414,111.497 113.937,111.29 113.325,111.29C112.72,111.29 112.258,111.495 111.936,111.906Z" style="fill-rule:nonzero;"/>
        <path d="M94.837,125.066L94.837,120.294L95.901,120.294L95.901,125.066C95.901,125.678 96.085,126.165 96.453,126.527C96.821,126.889 97.322,127.07 97.956,127.07C98.591,127.07 99.096,126.889 99.471,126.527C99.846,126.165 100.034,125.678 100.034,125.066L100.034,120.294L101.098,120.294L101.098,125.066C101.098,125.976 100.806,126.705 100.222,127.252C99.637,127.799 98.882,128.073 97.956,128.073C97.031,128.073 96.279,127.799 95.702,127.252C95.126,126.705 94.837,125.976 94.837,125.066Z" style="fill-rule:nonzero;"/>
        <path d="M102.408,126.796L103.142,126.247C103.609,126.889 104.262,127.21 105.102,127.21C105.524,127.21 105.861,127.128 106.113,126.964C106.365,126.8 106.491,126.561 106.491,126.247C106.491,125.963 106.376,125.768 106.146,125.662C105.917,125.556 105.484,125.441 104.85,125.318C104.163,125.187 103.636,124.999 103.268,124.755C102.9,124.51 102.716,124.121 102.716,123.587C102.716,123.012 102.932,122.575 103.363,122.277C103.794,121.978 104.323,121.829 104.951,121.829C105.929,121.829 106.735,122.163 107.37,122.831L106.709,123.458C106.265,122.947 105.675,122.691 104.939,122.691C104.588,122.691 104.291,122.758 104.046,122.893C103.802,123.027 103.679,123.227 103.679,123.492C103.679,123.608 103.708,123.711 103.766,123.803C103.824,123.894 103.889,123.969 103.959,124.027C104.03,124.085 104.142,124.139 104.295,124.189C104.449,124.24 104.581,124.276 104.693,124.298L105.158,124.388C105.449,124.44 105.686,124.49 105.869,124.536C106.052,124.583 106.258,124.652 106.488,124.744C106.717,124.835 106.896,124.939 107.023,125.054C107.15,125.17 107.259,125.323 107.35,125.514C107.442,125.704 107.487,125.922 107.487,126.169C107.487,126.744 107.269,127.205 106.832,127.552C106.395,127.899 105.8,128.073 105.046,128.073C103.847,128.069 102.968,127.643 102.408,126.796Z" style="fill-rule:nonzero;"/>
        <path d="M108.479,124.976C108.479,124.072 108.745,123.322 109.277,122.725C109.809,122.127 110.517,121.829 111.402,121.829C112.257,121.829 112.944,122.113 113.465,122.68C113.986,123.247 114.246,123.955 114.246,124.802C114.246,124.955 114.239,125.086 114.224,125.194L109.548,125.194C109.578,125.807 109.772,126.286 110.131,126.633C110.489,126.981 110.963,127.154 111.553,127.154C112.247,127.154 112.835,126.893 113.317,126.37L113.983,127.025C113.334,127.72 112.516,128.069 111.53,128.073C110.582,128.073 109.837,127.784 109.293,127.207C108.75,126.631 108.479,125.887 108.479,124.976ZM109.571,124.422L113.216,124.422C113.164,123.873 112.969,123.447 112.631,123.145C112.293,122.842 111.88,122.691 111.39,122.691C110.879,122.691 110.457,122.852 110.125,123.173C109.793,123.494 109.608,123.91 109.571,124.422Z" style="fill-rule:nonzero;"/>
        <path d="M115.59,127.933L115.59,121.969L116.587,121.969L116.587,122.977C117.05,122.23 117.623,121.857 118.306,121.857C118.31,121.857 118.314,121.857 118.318,121.857C118.639,121.857 118.911,121.928 119.135,122.07L118.81,123.022C118.59,122.902 118.368,122.842 118.144,122.842C118.136,122.842 118.129,122.842 118.122,122.842C117.7,122.842 117.338,123.02 117.038,123.374C116.737,123.729 116.587,124.212 116.587,124.825L116.587,127.933L115.59,127.933Z" style="fill-rule:nonzero;"/>
    </g>
    <g transform="matrix(0.871951,0,0,0.871951,150.954,273.901)">
        <path d="M96.968,116.464L96.968,108.826L102.383,108.826L102.383,109.811L98.049,109.811L98.049,111.967L101.823,111.967L101.823,112.897L98.049,112.897L98.049,115.479L102.495,115.479L102.495,116.464L96.968,116.464Z" style="fill-rule:nonzero;"/>
        <path d="M103.94,116.464L103.94,110.5L104.937,110.5L104.937,111.486C105.448,110.735 106.128,110.36 106.975,110.36C107.617,110.36 108.126,110.559 108.501,110.957C108.876,111.354 109.064,111.91 109.064,112.623L109.064,116.464L108.067,116.464L108.067,112.852C108.067,111.822 107.623,111.305 106.734,111.301C106.215,111.301 105.786,111.474 105.446,111.819C105.106,112.164 104.937,112.611 104.937,113.16L104.937,116.464L103.94,116.464Z" style="fill-rule:nonzero;"/>
        <path d="M110.402,113.496C110.402,112.585 110.65,111.835 111.147,111.245C111.643,110.655 112.31,110.36 113.146,110.36C114.035,110.36 114.742,110.735 115.268,111.486L115.268,108.277L116.265,108.277L116.265,116.464L115.268,116.464L115.268,115.49C114.749,116.233 114.042,116.604 113.146,116.604C112.314,116.604 111.648,116.31 111.15,115.722C110.651,115.134 110.402,114.392 110.402,113.496ZM111.936,111.906C111.619,112.313 111.46,112.838 111.46,113.482C111.46,114.126 111.621,114.654 111.942,115.067C112.263,115.479 112.724,115.686 113.325,115.686C113.937,115.686 114.414,115.478 114.756,115.061C115.098,114.645 115.268,114.12 115.268,113.485C115.268,112.85 115.098,112.326 114.756,111.911C114.414,111.497 113.937,111.29 113.325,111.29C112.72,111.29 112.258,111.495 111.936,111.906Z" style="fill-rule:nonzero;"/>
        <path d="M94.837,125.066L94.837,120.294L95.901,120.294L95.901,125.066C95.901,125.678 96.085,126.165 96.453,126.527C96.821,126.889 97.322,127.07 97.956,127.07C98.591,127.07 99.096,126.889 99.471,126.527C99.846,126.165 100.034,125.678 100.034,125.066L100.034,120.294L101.098,120.294L101.098,125.066C101.098,125.976 100.806,126.705 100.222,127.252C99.637,127.799 98.882,128.073 97.956,128.073C97.031,128.073 96.279,127.799 95.702,127.252C95.126,126.705 94.837,125.976 94.837,125.066Z" style="fill-rule:nonzero;"/>
        <path d="M102.408,126.796L103.142,126.247C103.609,126.889 104.262,127.21 105.102,127.21C105.524,127.21 105.861,127.128 106.113,126.964C106.365,126.8 106.491,126.561 106.491,126.247C106.491,125.963 106.376,125.768 106.146,125.662C105.917,125.556 105.484,125.441 104.85,125.318C104.163,125.187 103.636,124.999 103.268,124.755C102.9,124.51 102.716,124.121 102.716,123.587C102.716,123.012 102.932,122.575 103.363,122.277C103.794,121.978 104.323,121.829 104.951,121.829C105.929,121.829 106.735,122.163 107.37,122.831L106.709,123.458C106.265,122.947 105.675,122.691 104.939,122.691C104.588,122.691 104.291,122.758 104.046,122.893C103.802,123.027 103.679,123.227 103.679,123.492C103.679,123.608 103.708,123.711 103.766,123.803C103.824,123.894 103.889,123.969 103.959,124.027C104.03,124.085 104.142,124.139 104.295,124.189C104.449,124.24 104.581,124.276 104.693,124.298L105.158,124.388C105.449,124.44 105.686,124.49 105.869,124.536C106.052,124.583 106.258,124.652 106.488,124.744C106.717,124.835 106.896,124.939 107.023,125.054C107.15,125.17 107.259,125.323 107.35,125.514C107.442,125.704 107.487,125.922 107.487,126.169C107.487,126.744 107.269,127.205 106.832,127.552C106.395,127.899 105.8,128.073 105.046,128.073C103.847,128.069 102.968,127.643 102.408,126.796Z" style="fill-rule:nonzero;"/>
        <path d="M108.479,124.976C108.479,124.072 108.745,123.322 109.277,122.725C109.809,122.127 110.517,121.829 111.402,121.829C112.257,121.829 112.944,122.113 113.465,122.68C113.986,123.247 114.246,123.955 114.246,124.802C114.246,124.955 114.239,125.086 114.224,125.194L109.548,125.194C109.578,125.807 109.772,126.286 110.131,126.633C110.489,126.981 110.963,127.154 111.553,127.154C112.247,127.154 112.835,126.893 113.317,126.37L113.983,127.025C113.334,127.72 112.516,128.069 111.53,128.073C110.582,128.073 109.837,127.784 109.293,127.207C108.75,126.631 108.479,125.887 108.479,124.976ZM109.571,124.422L113.216,124.422C113.164,123.873 112.969,123.447 112.631,123.145C112.293,122.842 111.88,122.691 111.39,122.691C110.879,122.691 110.457,122.852 110.125,123.173C109.793,123.494 109.608,123.91 109.571,124.422Z" style="fill-rule:nonzero;"/>
        <path d="M115.59,127.933L115.59,121.969L116.587,121.969L116.587,122.977C117.05,122.23 117.623,121.857 118.306,121.857C118.31,121.857 118.314,121.857 118.318,121.857C118.639,121.857 118.911,121.928 119.135,122.07L118.81,123.022C118.59,122.902 118.368,122.842 118.144,122.842C118.136,122.842 118.129,122.842 118.122,122.842C117.7,122.842 117.338,123.02 117.038,123.374C116.737,123.729 116.587,124.212 116.587,124.825L116.587,127.933L115.59,127.933Z" style="fill-rule:nonzero;"/>
    </g>
    <g transform="matrix(0.871951,0,0,0.871951,240.992,273.901)">
        <path d="M96.968,116.464L96.968,108.826L102.383,108.826L102.383,109.811L98.049,109.811L98.049,111.967L101.823,111.967L101.823,112.897L98.049,112.897L98.049,115.479L102.495,115.479L102.495,116.464L96.968,116.464Z" style="fill-rule:nonzero;"/>
        <path d="M103.94,116.464L103.94,110.5L104.937,110.5L104.937,111.486C105.448,110.735 106.128,110.36 106.975,110.36C107.617,110.36 108.126,110.559 108.501,110.957C108.876,111.354 109.064,111.91 109.064,112.623L109.064,116.464L108.067,116.464L108.067,112.852C108.067,111.822 107.623,111.305 106.734,111.301C106.215,111.301 105.786,111.474 105.446,111.819C105.106,112.164 104.937,112.611 104.937,113.16L104.937,116.464L103.94,116.464Z" style="fill-rule:nonzero;"/>
        <path d="M110.402,113.496C110.402,112.585 110.65,111.835 111.147,111.245C111.643,110.655 112.31,110.36 113.146,110.36C114.035,110.36 114.742,110.735 115.268,111.486L115.268,108.277L116.265,108.277L116.265,116.464L115.268,116.464L115.268,115.49C114.749,116.233 114.042,116.604 113.146,116.604C112.314,116.604 111.648,116.31 111.15,115.722C110.651,115.134 110.402,114.392 110.402,113.496ZM111.936,111.906C111.619,112.313 111.46,112.838 111.46,113.482C111.46,114.126 111.621,114.654 111.942,115.067C112.263,115.479 112.724,115.686 113.325,115.686C113.937,115.686 114.414,115.478 114.756,115.061C115.098,114.645 115.268,114.12 115.268,113.485C115.268,112.85 115.098,112.326 114.756,111.911C114.414,111.497 113.937,111.29 113.325,111.29C112.72,111.29 112.258,111.495 111.936,111.906Z" style="fill-rule:nonzero;"/>
        <path d="M94.837,125.066L94.837,120.294L95.901,120.294L95.901,125.066C95.901,125.678 96.085,126.165 96.453,126.527C96.821,126.889 97.322,127.07 97.956,127.07C98.591,127.07 99.096,126.889 99.471,126.527C99.846,126.165 100.034,125.678 100.034,125.066L100.034,120.294L101.098,120.294L101.098,125.066C101.098,125.976 100.806,126.705 100.222,127.252C99.637,127.799 98.882,128.073 97.956,128.073C97.031,128.073 96.279,127.799 95.702,127.252C95.126,126.705 94.837,125.976 94.837,125.066Z" style="fill-rule:nonzero;"/>
        <path d="M102.408,126.796L103.142,126.247C103.609,126.889 104.262,127.21 105.102,127.21C105.524,127.21 105.861,127.128 106.113,126.964C106.365,126.8 106.491,126.561 106.491,126.247C106.491,125.963 106.376,125.768 106.146,125.662C105.917,125.556 105.484,125.441 104.85,125.318C104.163,125.187 103.636,124.999 103.268,124.755C102.9,124.51 102.716,124.121 102.716,123.587C102.716,123.012 102.932,122.575 103.363,122.277C103.794,121.978 104.323,121.829 104.951,121.829C105.929,121.829 106.735,122.163 107.37,122.831L106.709,123.458C106.265,122.947 105.675,122.691 104.939,122.691C104.588,122.691 104.291,122.758 104.046,122.893C103.802,123.027 103.679,123.227 103.679,123.492C103.679,123.608 103.708,123.711 103.766,123.803C103.824,123.894 103.889,123.969 103.959,124.027C104.03,124.085 104.142,124.139 104.295,124.189C104.449,124.24 104.581,124.276 104.693,124.298L105.158,124.388C105.449,124.44 105.686,124.49 105.869,124.536C106.052,124.583 106.258,124.652 106.488,124.744C106.717,124.835 106.896,124.939 107.023,125.054C107.15,125.17 107.259,125.323 107.35,125.514C107.442,125.704 107.487,125.922 107.487,126.169C107.487,126.744 107.269,127.205 106.832,127.552C106.395,127.899 105.8,128.073 105.046,128.073C103.847,128.069 102.968,127.643 102.408,126.796Z" style="fill-rule:nonzero;"/>
        <path d="M108.479,124.976C108.479,124.072 108.745,123.322 109.277,122.725C109.809,122.127 110.517,121.829 111.402,121.829C112.257,121.829 112.944,122.113 113.465,122.68C113.986,123.247 114.246,123.955 114.246,124.802C114.246,124.955 114.239,125.086 114.224,125.194L109.548,125.194C109.578,125.807 109.772,126.286 110.131,126.633C110.489,126.981 110.963,127.154 111.553,127.154C112.247,127.154 112.835,126.893 113.317,126.37L113.983,127.025C113.334,127.72 112.516,128.069 111.53,128.073C110.582,128.073 109.837,127.784 109.293,127.207C108.75,126.631 108.479,125.887 108.479,124.976ZM109.571,124.422L113.216,124.422C113.164,123.873 112.969,123.447 112.631,123.145C112.293,122.842 111.88,122.691 111.39,122.691C110.879,122.691 110.457,122.852 110.125,123.173C109.793,123.494 109.608,123.91 109.571,124.422Z" style="fill-rule:nonzero;"/>
        <path d="M115.59,127.933L115.59,121.969L116.587,121.969L116.587,122.977C117.05,122.23 117.623,121.857 118.306,121.857C118.31,121.857 118.314,121.857 118.318,121.857C118.639,121.857 118.911,121.928 119.135,122.07L118.81,123.022C118.59,122.902 118.368,122.842 118.144,122.842C118.136,122.842 118.129,122.842 118.122,122.842C117.7,122.842 117.338,123.02 117.038,123.374C116.737,123.729 116.587,124.212 116.587,124.825L116.587,127.933L115.59,127.933Z" style="fill-rule:nonzero;"/>
    </g>
    <g transform="matrix(0.871951,0,0,0.871951,300.718,273.901)">
        <path d="M96.968,116.464L96.968,108.826L102.383,108.826L102.383,109.811L98.049,109.811L98.049,111.967L101.823,111.967L101.823,112.897L98.049,112.897L98.049,115.479L102.495,115.479L102.495,116.464L96.968,116.464Z" style="fill-rule:nonzero;"/>
        <path d="M103.94,116.464L103.94,110.5L104.937,110.5L104.937,111.486C105.448,110.735 106.128,110.36 106.975,110.36C107.617,110.36 108.126,110.559 108.501,110.957C108.876,111.354 109.064,111.91 109.064,112.623L109.064,116.464L108.067,116.464L108.067,112.852C108.067,111.822 107.623,111.305 106.734,111.301C106.215,111.301 105.786,111.474 105.446,111.819C105.106,112.164 104.937,112.611 104.937,113.16L104.937,116.464L103.94,116.464Z" style="fill-rule:nonzero;"/>
        <path d="M110.402,113.496C110.402,112.585 110.65,111.835 111.147,111.245C111.643,110.655 112.31,110.36 113.146,110.36C114.035,110.36 114.742,110.735 115.268,111.486L115.268,108.277L116.265,108.277L116.265,116.464L115.268,116.464L115.268,115.49C114.749,116.233 114.042,116.604 113.146,116.604C112.314,116.604 111.648,116.31 111.15,115.722C110.651,115.134 110.402,114.392 110.402,113.496ZM111.936,111.906C111.619,112.313 111.46,112.838 111.46,113.482C111.46,114.126 111.621,114.654 111.942,115.067C112.263,115.479 112.724,115.686 113.325,115.686C113.937,115.686 114.414,115.478 114.756,115.061C115.098,114.645 115.268,114.12 115.268,113.485C115.268,112.85 115.098,112.326 114.756,111.911C114.414,111.497 113.937,111.29 113.325,111.29C112.72,111.29 112.258,111.495 111.936,111.906Z" style="fill-rule:nonzero;"/>
        <path d="M94.837,125.066L94.837,120.294L95.901,120.294L95.901,125.066C95.901,125.678 96.085,126.165 96.453,126.527C96.821,126.889 97.322,127.07 97.956,127.07C98.591,127.07 99.096,126.889 99.471,126.527C99.846,126.165 100.034,125.678 100.034,125.066L100.034,120.294L101.098,120.294L101.098,125.066C101.098,125.976 100.806,126.705 100.222,127.252C99.637,127.799 98.882,128.073 97.956,128.073C97.031,128.073 96.279,127.799 95.702,127.252C95.126,126.705 94.837,125.976 94.837,125.066Z" style="fill-rule:nonzero;"/>
        <path d="M102.408,126.796L103.142,126.247C103.609,126.889 104.262,127.21 105.102,127.21C105.524,127.21 105.861,127.128 106.113,126.964C106.365,126.8 106.491,126.561 106.491,126.247C106.491,125.963 106.376,125.768 106.146,125.662C105.917,125.556 105.484,125.441 104.85,125.318C104.163,125.187 103.636,124.999 103.268,124.755C102.9,124.51 102.716,124.121 102.716,123.587C102.716,123.012 102.932,122.575 103.363,122.277C103.794,121.978 104.323,121.829 104.951,121.829C105.929,121.829 106.735,122.163 107.37,122.831L106.709,123.458C106.265,122.947 105.675,122.691 104.939,122.691C104.588,122.691 104.291,122.758 104.046,122.893C103.802,123.027 103.679,123.227 103.679,123.492C103.679,123.608 103.708,123.711 103.766,123.803C103.824,123.894 103.889,123.969 103.959,124.027C104.03,124.085 104.142,124.139 104.295,124.189C104.449,124.24 104.581,124.276 104.693,124.298L105.158,124.388C105.449,124.44 105.686,124.49 105.869,124.536C106.052,124.583 106.258,124.652 106.488,124.744C106.717,124.835 106.896,124.939 107.023,125.054C107.15,125.17 107.259,125.323 107.35,125.514C107.442,125.704 107.487,125.922 107.487,126.169C107.487,126.744 107.269,127.205 106.832,127.552C106.395,127.899 105.8,128.073 105.046,128.073C103.847,128.069 102.968,127.643 102.408,126.796Z" style="fill-rule:nonzero;"/>
        <path d="M108.479,124.976C108.479,124.072 108.745,123.322 109.277,122.725C109.809,122.127 110.517,121.829 111.402,121.829C112.257,121.829 112.944,122.113 113.465,122.68C113.986,123.247 114.246,123.955 114.246,124.802C114.246,124.955 114.239,125.086 114.224,125.194L109.548,125.194C109.578,125.807 109.772,126.286 110.131,126.633C110.489,126.981 110.963,127.154 111.553,127.154C112.247,127.154 112.835,126.893 113.317,126.37L113.983,127.025C113.334,127.72 112.516,128.069 111.53,128.073C110.582,128.073 109.837,127.784 109.293,127.207C108.75,126.631 108.479,125.887 108.479,124.976ZM109.571,124.422L113.216,124.422C113.164,123.873 112.969,123.447 112.631,123.145C112.293,122.842 111.88,122.691 111.39,122.691C110.879,122.691 110.457,122.852 110.125,123.173C109.793,123.494 109.608,123.91 109.571,124.422Z" style="fill-rule:nonzero;"/>
        <path d="M115.59,127.933L115.59,121.969L116.587,121.969L116.587,122.977C117.05,122.23 117.623,121.857 118.306,121.857C118.31,121.857 118.314,121.857 118.318,121.857C118.639,121.857 118.911,121.928 119.135,122.07L118.81,123.022C118.59,122.902 118.368,122.842 118.144,122.842C118.136,122.842 118.129,122.842 118.122,122.842C117.7,122.842 117.338,123.02 117.038,123.374C116.737,123.729 116.587,124.212 116.587,124.825L116.587,127.933L115.59,127.933Z" style="fill-rule:nonzero;"/>
    </g>
    <g transform="matrix(0.871951,0,0,0.871951,360.37,273.901)">
        <path d="M96.968,116.464L96.968,108.826L102.383,108.826L102.383,109.811L98.049,109.811L98.049,111.967L101.823,111.967L101.823,112.897L98.049,112.897L98.049,115.479L102.495,115.479L102.495,116.464L96.968,116.464Z" style="fill-rule:nonzero;"/>
        <path d="M103.94,116.464L103.94,110.5L104.937,110.5L104.937,111.486C105.448,110.735 106.128,110.36 106.975,110.36C107.617,110.36 108.126,110.559 108.501,110.957C108.876,111.354 109.064,111.91 109.064,112.623L109.064,116.464L108.067,116.464L108.067,112.852C108.067,111.822 107.623,111.305 106.734,111.301C106.215,111.301 105.786,111.474 105.446,111.819C105.106,112.164 104.937,112.611 104.937,113.16L104.937,116.464L103.94,116.464Z" style="fill-rule:nonzero;"/>
        <path d="M110.402,113.496C110.402,112.585 110.65,111.835 111.147,111.245C111.643,110.655 112.31,110.36 113.146,110.36C114.035,110.36 114.742,110.735 115.268,111.486L115.268,108.277L116.265,108.277L116.265,116.464L115.268,116.464L115.268,115.49C114.749,116.233 114.042,116.604 113.146,116.604C112.314,116.604 111.648,116.31 111.15,115.722C110.651,115.134 110.402,114.392 110.402,113.496ZM111.936,111.906C111.619,112.313 111.46,112.838 111.46,113.482C111.46,114.126 111.621,114.654 111.942,115.067C112.263,115.479 112.724,115.686 113.325,115.686C113.937,115.686 114.414,115.478 114.756,115.061C115.098,114.645 115.268,114.12 115.268,113.485C115.268,112.85 115.098,112.326 114.756,111.911C114.414,111.497 113.937,111.29 113.325,111.29C112.72,111.29 112.258,111.495 111.936,111.906Z" style="fill-rule:nonzero;"/>
        <path d="M94.837,125.066L94.837,120.294L95.901,120.294L95.901,125.066C95.901,125.678 96.085,126.165 96.453,126.527C96.821,126.889 97.322,127.07 97.956,127.07C98.591,127.07 99.096,126.889 99.471,126.527C99.846,126.165 100.034,125.678 100.034,125.066L100.034,120.294L101.098,120.294L101.098,125.066C101.098,125.976 100.806,126.705 100.222,127.252C99.637,127.799 98.882,128.073 97.956,128.073C97.031,128.073 96.279,127.799 95.702,127.252C95.126,126.705 94.837,125.976 94.837,125.066Z" style="fill-rule:nonzero;"/>
        <path d="M102.408,126.796L103.142,126.247C103.609,126.889 104.262,127.21 105.102,127.21C105.524,127.21 105.861,127.128 106.113,126.964C106.365,126.8 106.491,126.561 106.491,126.247C106.491,125.963 106.376,125.768 106.146,125.662C105.917,125.556 105.484,125.441 104.85,125.318C104.163,125.187 103.636,124.999 103.268,124.755C102.9,124.51 102.716,124.121 102.716,123.587C102.716,123.012 102.932,122.575 103.363,122.277C103.794,121.978 104.323,121.829 104.951,121.829C105.929,121.829 106.735,122.163 107.37,122.831L106.709,123.458C106.265,122.947 105.675,122.691 104.939,122.691C104.588,122.691 104.291,122.758 104.046,122.893C103.802,123.027 103.679,123.227 103.679,123.492C103.679,123.608 103.708,123.711 103.766,123.803C103.824,123.894 103.889,123.969 103.959,124.027C104.03,124.085 104.142,124.139 104.295,124.189C104.449,124.24 104.581,124.276 104.693,124.298L105.158,124.388C105.449,124.44 105.686,124.49 105.869,124.536C106.052,124.583 106.258,124.652 106.488,124.744C106.717,124.835 106.896,124.939 107.023,125.054C107.15,125.17 107.259,125.323 107.35,125.514C107.442,125.704 107.487,125.922 107.487,126.169C107.487,126.744 107.269,127.205 106.832,127.552C106.395,127.899 105.8,128.073 105.046,128.073C103.847,128.069 102.968,127.643 102.408,126.796Z" style="fill-rule:nonzero;"/>
        <path d="M108.479,124.976C108.479,124.072 108.745,123.322 109.277,122.725C109.809,122.127 110.517,121.829 111.402,121.829C112.257,121.829 112.944,122.113 113.465,122.68C113.986,123.247 114.246,123.955 114.246,124.802C114.246,124.955 114.239,125.086 114.224,125.194L109.548,125.194C109.578,125.807 109.772,126.286 110.131,126.633C110.489,126.981 110.963,127.154 111.553,127.154C112.247,127.154 112.835,126.893 113.317,126.37L113.983,127.025C113.334,127.72 112.516,128.069 111.53,128.073C110.582,128.073 109.837,127.784 109.293,127.207C108.75,126.631 108.479,125.887 108.479,124.976ZM109.571,124.422L113.216,124.422C113.164,123.873 112.969,123.447 112.631,123.145C112.293,122.842 111.88,122.691 111.39,122.691C110.879,122.691 110.457,122.852 110.125,123.173C109.793,123.494 109.608,123.91 109.571,124.422Z" style="fill-rule:nonzero;"/>
        <path d="M115.59,127.933L115.59,121.969L116.587,121.969L116.587,122.977C117.05,122.23 117.623,121.857 118.306,121.857C118.31,121.857 118.314,121.857 118.318,121.857C118.639,121.857 118.911,121.928 119.135,122.07L118.81,123.022C118.59,122.902 118.368,122.842 118.144,122.842C118.136,122.842 118.129,122.842 118.122,122.842C117.7,122.842 117.338,123.02 117.038,123.374C116.737,123.729 116.587,124.212 116.587,124.825L116.587,127.933L115.59,127.933Z" style="fill-rule:nonzero;"/>
    </g>
</svg>
