<?xml version="1.0" encoding="UTF-8" standalone="no"?><!DOCTYPE svg PUBLIC "-//W3C//DTD SVG 1.1//EN" "http://www.w3.org/Graphics/SVG/1.1/DTD/svg11.dtd"><svg width="100%" height="100%" viewBox="0 0 500 400" version="1.1" xmlns="http://www.w3.org/2000/svg" xmlns:xlink="http://www.w3.org/1999/xlink" xml:space="preserve" xmlns:serif="http://www.serif.com/" style="fill-rule:evenodd;clip-rule:evenodd;stroke-linejoin:round;stroke-miterlimit:1.5;"><path d="M244.918,67.246L244.918,94.117" style="fill:none;stroke:rgb(186,189,182);stroke-width:4px;"/><path d="M258.501,67.246L258.501,94.117" style="fill:none;stroke:rgb(136,138,133);stroke-width:8px;"/><path d="M218.664,141.588L183.994,160.692" style="fill:none;stroke:rgb(136,138,133);stroke-width:8px;"/><path d="M166.191,208.164L184.236,236.781" style="fill:none;stroke:rgb(136,138,133);stroke-width:8px;"/><path d="M210.007,131.557L169.677,153.325" style="fill:none;stroke:rgb(186,189,182);stroke-width:4px;"/><path d="M169.677,239.602L150.826,209.396" style="fill:none;stroke:rgb(186,189,182);stroke-width:4px;"/><path d="M231.068,275.945L253.667,291.045" style="fill:none;stroke:rgb(136,138,133);stroke-width:8px;"/><path d="M327.126,319.845L362.245,336.135" style="fill:none;stroke:rgb(136,138,133);stroke-width:8px;"/><path d="M132.611,329.716L167.905,288.91" style="fill:none;stroke:rgb(186,189,182);stroke-width:4px;"/><path d="M296.228,24.735C296.228,16.914 289.879,10.564 282.058,10.564L221.87,10.564C214.049,10.564 207.7,16.914 207.7,24.735L207.7,53.076C207.7,60.897 214.049,67.246 221.87,67.246L282.058,67.246C289.879,67.246 296.228,60.897 296.228,53.076L296.228,24.735Z" style="fill:rgb(200,255,106);fill-opacity:0.6;stroke:rgb(136,138,133);stroke-width:1px;stroke-miterlimit:1.41421;"/><path d="M241.976,41.745C242.051,41.745 242.116,41.775 242.172,41.836L242.711,42.417C242.3,42.893 241.802,43.264 241.217,43.53C240.631,43.796 239.923,43.929 239.092,43.929C238.373,43.929 237.72,43.804 237.132,43.554C236.544,43.305 236.042,42.955 235.627,42.504C235.212,42.054 234.89,41.514 234.661,40.884C234.432,40.254 234.318,39.561 234.318,38.805C234.318,38.049 234.437,37.356 234.675,36.726C234.913,36.096 235.248,35.554 235.68,35.102C236.111,34.649 236.628,34.298 237.23,34.048C237.832,33.799 238.497,33.674 239.225,33.674C239.939,33.674 240.569,33.788 241.115,34.017C241.661,34.245 242.142,34.556 242.557,34.948L242.109,35.571C242.081,35.617 242.045,35.656 242.001,35.686C241.956,35.717 241.897,35.732 241.822,35.732C241.738,35.732 241.635,35.686 241.514,35.595C241.393,35.504 241.234,35.403 241.038,35.291C240.842,35.179 240.597,35.077 240.303,34.986C240.009,34.895 239.647,34.85 239.218,34.85C238.7,34.85 238.226,34.94 237.797,35.119C237.368,35.299 236.998,35.559 236.688,35.9C236.377,36.24 236.136,36.656 235.963,37.146C235.79,37.636 235.704,38.189 235.704,38.805C235.704,39.43 235.794,39.988 235.974,40.478C236.153,40.968 236.398,41.382 236.709,41.72C237.019,42.059 237.385,42.316 237.808,42.494C238.23,42.671 238.686,42.76 239.176,42.76C239.475,42.76 239.744,42.742 239.985,42.707C240.225,42.672 240.447,42.617 240.65,42.543C240.853,42.468 241.042,42.374 241.217,42.259C241.392,42.145 241.565,42.008 241.738,41.85C241.817,41.78 241.897,41.745 241.976,41.745Z" style="fill-rule:nonzero;"/><rect x="244.034" y="33.506" width="1.246" height="10.311"/><path d="M248.612,36.726L248.612,43.817L247.366,43.817L247.366,36.726L248.612,36.726ZM248.878,34.5C248.878,34.621 248.854,34.734 248.805,34.839C248.756,34.944 248.69,35.038 248.609,35.119C248.527,35.201 248.431,35.265 248.322,35.312C248.212,35.358 248.096,35.382 247.975,35.382C247.854,35.382 247.741,35.358 247.636,35.312C247.531,35.265 247.438,35.201 247.359,35.119C247.28,35.038 247.217,34.944 247.17,34.839C247.123,34.734 247.1,34.621 247.1,34.5C247.1,34.378 247.123,34.263 247.17,34.153C247.217,34.044 247.28,33.948 247.359,33.866C247.438,33.785 247.531,33.72 247.636,33.674C247.741,33.627 247.854,33.604 247.975,33.604C248.096,33.604 248.212,33.627 248.322,33.674C248.431,33.72 248.527,33.785 248.609,33.866C248.69,33.948 248.756,34.044 248.805,34.153C248.854,34.263 248.878,34.378 248.878,34.5Z" style="fill-rule:nonzero;"/><path d="M255.402,39.498C255.402,39.208 255.361,38.944 255.28,38.703C255.198,38.463 255.079,38.255 254.923,38.08C254.766,37.905 254.576,37.77 254.352,37.674C254.128,37.579 253.874,37.531 253.589,37.531C252.992,37.531 252.519,37.705 252.172,38.052C251.824,38.4 251.608,38.882 251.524,39.498L255.402,39.498ZM256.41,42.823C256.256,43.009 256.072,43.172 255.857,43.309C255.642,43.447 255.413,43.56 255.168,43.649C254.923,43.737 254.669,43.804 254.408,43.848C254.147,43.893 253.888,43.915 253.631,43.915C253.141,43.915 252.69,43.832 252.277,43.666C251.864,43.501 251.507,43.258 251.206,42.938C250.905,42.619 250.67,42.223 250.502,41.752C250.334,41.28 250.25,40.739 250.25,40.128C250.25,39.633 250.326,39.171 250.478,38.742C250.629,38.312 250.847,37.94 251.132,37.625C251.417,37.31 251.764,37.063 252.175,36.883C252.586,36.704 253.048,36.614 253.561,36.614C253.986,36.614 254.379,36.685 254.741,36.827C255.102,36.97 255.415,37.175 255.679,37.443C255.942,37.712 256.149,38.043 256.298,38.437C256.447,38.832 256.522,39.281 256.522,39.785C256.522,39.981 256.501,40.111 256.459,40.177C256.417,40.242 256.338,40.275 256.221,40.275L251.482,40.275C251.496,40.723 251.558,41.112 251.668,41.444C251.777,41.775 251.93,42.052 252.126,42.273C252.322,42.495 252.555,42.661 252.826,42.77C253.097,42.88 253.4,42.935 253.736,42.935C254.049,42.935 254.318,42.899 254.545,42.826C254.771,42.754 254.966,42.676 255.129,42.592C255.292,42.508 255.429,42.43 255.539,42.357C255.648,42.285 255.743,42.249 255.822,42.249C255.925,42.249 256.004,42.288 256.06,42.368L256.41,42.823Z" style="fill-rule:nonzero;"/><path d="M259.224,37.755C259.378,37.582 259.541,37.426 259.714,37.286C259.887,37.146 260.07,37.026 260.264,36.925C260.457,36.825 260.663,36.748 260.88,36.694C261.097,36.641 261.331,36.614 261.583,36.614C261.97,36.614 262.312,36.678 262.609,36.806C262.905,36.935 263.152,37.117 263.351,37.352C263.549,37.588 263.699,37.871 263.802,38.203C263.905,38.534 263.956,38.9 263.956,39.302L263.956,43.817L262.703,43.817L262.703,39.302C262.703,38.765 262.581,38.349 262.336,38.052C262.091,37.756 261.718,37.608 261.219,37.608C260.85,37.608 260.506,37.696 260.187,37.874C259.867,38.051 259.572,38.291 259.301,38.595L259.301,43.817L258.048,43.817L258.048,36.726L258.797,36.726C258.974,36.726 259.084,36.812 259.126,36.985L259.224,37.755Z" style="fill-rule:nonzero;"/><path d="M267.939,43.929C267.379,43.929 266.949,43.772 266.648,43.46C266.347,43.147 266.196,42.697 266.196,42.109L266.196,37.769L265.342,37.769C265.267,37.769 265.204,37.747 265.153,37.702C265.102,37.658 265.076,37.589 265.076,37.496L265.076,36.999L266.238,36.852L266.525,34.661C266.539,34.591 266.571,34.534 266.62,34.489C266.669,34.445 266.733,34.423 266.812,34.423L267.442,34.423L267.442,36.866L269.493,36.866L269.493,37.769L267.442,37.769L267.442,42.025C267.442,42.323 267.514,42.545 267.659,42.69C267.804,42.834 267.99,42.907 268.219,42.907C268.35,42.907 268.463,42.889 268.559,42.854C268.654,42.819 268.737,42.781 268.807,42.739C268.877,42.697 268.937,42.658 268.986,42.623C269.035,42.588 269.078,42.571 269.115,42.571C269.18,42.571 269.239,42.61 269.29,42.69L269.654,43.285C269.439,43.485 269.18,43.643 268.877,43.757C268.574,43.872 268.261,43.929 267.939,43.929Z" style="fill-rule:nonzero;"/><path d="M139.737,341.558C139.737,333.737 133.387,327.388 125.566,327.388L37.375,327.388C29.554,327.388 23.205,333.737 23.205,341.558L23.205,369.899C23.205,377.72 29.554,384.07 37.375,384.07L125.566,384.07C133.387,384.07 139.737,377.72 139.737,369.899L139.737,341.558Z" style="fill:rgb(200,255,106);fill-opacity:0.6;stroke:rgb(136,138,133);stroke-width:1px;stroke-miterlimit:1.41421;"/><path d="M47.276,359.018L47.276,359.97L41.9,359.97L41.9,359.018L44.049,359.018L44.049,352.179C44.049,351.974 44.056,351.766 44.07,351.556L42.285,353.089C42.225,353.141 42.164,353.172 42.103,353.184C42.043,353.195 41.987,353.197 41.935,353.187C41.884,353.178 41.836,353.159 41.792,353.131C41.748,353.103 41.714,353.073 41.69,353.04L41.298,352.501L44.287,349.918L45.302,349.918L45.302,359.018L47.276,359.018Z" style="fill-rule:nonzero;"/><path d="M50.251,352.886C50.251,353.204 50.297,353.487 50.388,353.737C50.479,353.986 50.61,354.198 50.78,354.37C50.95,354.543 51.158,354.674 51.403,354.762C51.648,354.851 51.922,354.895 52.225,354.895C52.561,354.895 52.859,354.84 53.118,354.731C53.377,354.621 53.595,354.475 53.772,354.293C53.95,354.111 54.085,353.901 54.178,353.663C54.272,353.425 54.318,353.178 54.318,352.921C54.318,352.609 54.268,352.325 54.168,352.071C54.068,351.816 53.929,351.601 53.751,351.423C53.574,351.246 53.363,351.109 53.118,351.014C52.873,350.918 52.603,350.87 52.309,350.87C52.001,350.87 51.721,350.92 51.469,351.021C51.217,351.121 51,351.26 50.818,351.437C50.636,351.615 50.496,351.827 50.398,352.074C50.3,352.322 50.251,352.592 50.251,352.886ZM53.163,355.973C53.266,355.838 53.362,355.71 53.45,355.588C53.539,355.467 53.623,355.346 53.702,355.224C53.446,355.43 53.156,355.586 52.834,355.693C52.512,355.801 52.172,355.854 51.812,355.854C51.434,355.854 51.076,355.791 50.738,355.665C50.4,355.539 50.102,355.354 49.845,355.109C49.589,354.864 49.385,354.563 49.233,354.206C49.081,353.849 49.005,353.439 49.005,352.977C49.005,352.539 49.087,352.128 49.25,351.745C49.414,351.363 49.642,351.029 49.936,350.744C50.23,350.46 50.58,350.236 50.986,350.072C51.392,349.909 51.838,349.827 52.323,349.827C52.804,349.827 53.24,349.907 53.632,350.065C54.024,350.224 54.36,350.446 54.64,350.73C54.92,351.015 55.136,351.356 55.288,351.752C55.44,352.149 55.515,352.588 55.515,353.068C55.515,353.358 55.489,353.632 55.435,353.891C55.381,354.15 55.304,354.404 55.204,354.654C55.104,354.903 54.981,355.151 54.836,355.396C54.692,355.641 54.528,355.892 54.346,356.148L51.903,359.676C51.843,359.765 51.756,359.836 51.644,359.89C51.532,359.943 51.404,359.97 51.259,359.97L50.111,359.97L53.163,355.973Z" style="fill-rule:nonzero;"/><path d="M63.299,358.787C63.435,358.787 63.542,358.827 63.621,358.906C63.701,358.986 63.74,359.088 63.74,359.214L63.74,359.97L57.048,359.97L57.048,359.543C57.048,359.455 57.067,359.364 57.104,359.27C57.142,359.177 57.2,359.091 57.279,359.011L60.492,355.784C60.758,355.514 61.001,355.253 61.22,355.004C61.44,354.754 61.626,354.503 61.78,354.251C61.934,353.999 62.053,353.744 62.137,353.485C62.221,353.226 62.263,352.949 62.263,352.655C62.263,352.361 62.217,352.103 62.123,351.882C62.03,351.66 61.903,351.477 61.742,351.332C61.581,351.188 61.391,351.079 61.171,351.007C60.952,350.934 60.716,350.898 60.464,350.898C60.208,350.898 59.972,350.936 59.757,351.01C59.543,351.085 59.353,351.189 59.187,351.322C59.021,351.455 58.882,351.612 58.77,351.794C58.658,351.976 58.579,352.177 58.532,352.396C58.476,352.56 58.401,352.668 58.305,352.722C58.209,352.775 58.075,352.791 57.902,352.767L57.251,352.655C57.317,352.198 57.444,351.793 57.633,351.441C57.822,351.088 58.06,350.793 58.347,350.555C58.634,350.317 58.962,350.136 59.33,350.013C59.699,349.889 60.098,349.827 60.527,349.827C60.952,349.827 61.349,349.89 61.717,350.016C62.086,350.142 62.406,350.325 62.676,350.566C62.947,350.806 63.159,351.099 63.313,351.444C63.467,351.79 63.544,352.182 63.544,352.62C63.544,352.994 63.488,353.34 63.376,353.66C63.264,353.979 63.113,354.284 62.921,354.573C62.73,354.863 62.51,355.145 62.26,355.42C62.01,355.696 61.745,355.973 61.465,356.253L58.819,358.955C59.006,358.904 59.195,358.863 59.386,358.833C59.578,358.802 59.762,358.787 59.939,358.787L63.299,358.787Z" style="fill-rule:nonzero;"/><path d="M65.287,359.2C65.287,359.079 65.31,358.965 65.354,358.857C65.398,358.75 65.459,358.657 65.536,358.577C65.613,358.498 65.705,358.435 65.812,358.388C65.92,358.342 66.034,358.318 66.155,358.318C66.277,358.318 66.391,358.342 66.498,358.388C66.606,358.435 66.699,358.498 66.778,358.577C66.858,358.657 66.921,358.75 66.967,358.857C67.014,358.965 67.037,359.079 67.037,359.2C67.037,359.326 67.014,359.442 66.967,359.547C66.921,359.652 66.858,359.744 66.778,359.823C66.699,359.903 66.606,359.964 66.498,360.009C66.391,360.053 66.277,360.075 66.155,360.075C66.034,360.075 65.92,360.053 65.812,360.009C65.705,359.964 65.613,359.903 65.536,359.823C65.459,359.744 65.398,359.652 65.354,359.547C65.31,359.442 65.287,359.326 65.287,359.2Z" style="fill-rule:nonzero;"/><path d="M75.514,354.958C75.514,355.836 75.42,356.595 75.231,357.237C75.042,357.878 74.784,358.409 74.457,358.829C74.131,359.249 73.745,359.562 73.299,359.767C72.853,359.973 72.376,360.075 71.867,360.075C71.354,360.075 70.877,359.973 70.436,359.767C69.995,359.562 69.611,359.249 69.284,358.829C68.958,358.409 68.701,357.878 68.514,357.237C68.328,356.595 68.234,355.836 68.234,354.958C68.234,354.081 68.328,353.32 68.514,352.676C68.701,352.032 68.958,351.499 69.284,351.077C69.611,350.654 69.995,350.341 70.436,350.135C70.877,349.93 71.354,349.827 71.867,349.827C72.376,349.827 72.853,349.93 73.299,350.135C73.745,350.341 74.131,350.654 74.457,351.077C74.784,351.499 75.042,352.032 75.231,352.676C75.42,353.32 75.514,354.081 75.514,354.958ZM74.219,354.958C74.219,354.193 74.155,353.55 74.027,353.03C73.899,352.509 73.726,352.091 73.509,351.773C73.292,351.456 73.041,351.228 72.756,351.091C72.472,350.953 72.175,350.884 71.867,350.884C71.559,350.884 71.263,350.953 70.978,351.091C70.694,351.228 70.444,351.456 70.229,351.773C70.015,352.091 69.843,352.509 69.715,353.03C69.587,353.55 69.522,354.193 69.522,354.958C69.522,355.724 69.587,356.365 69.715,356.883C69.843,357.401 70.015,357.819 70.229,358.136C70.444,358.454 70.694,358.681 70.978,358.819C71.263,358.956 71.559,359.025 71.867,359.025C72.175,359.025 72.472,358.956 72.756,358.819C73.041,358.681 73.292,358.454 73.509,358.136C73.726,357.819 73.899,357.401 74.027,356.883C74.155,356.365 74.219,355.724 74.219,354.958Z" style="fill-rule:nonzero;"/><path d="M76.711,359.2C76.711,359.079 76.734,358.965 76.778,358.857C76.822,358.75 76.883,358.657 76.96,358.577C77.037,358.498 77.129,358.435 77.236,358.388C77.344,358.342 77.458,358.318 77.579,358.318C77.701,358.318 77.815,358.342 77.922,358.388C78.03,358.435 78.123,358.498 78.202,358.577C78.282,358.657 78.345,358.75 78.391,358.857C78.438,358.965 78.461,359.079 78.461,359.2C78.461,359.326 78.438,359.442 78.391,359.547C78.345,359.652 78.282,359.744 78.202,359.823C78.123,359.903 78.03,359.964 77.922,360.009C77.815,360.053 77.701,360.075 77.579,360.075C77.458,360.075 77.344,360.053 77.236,360.009C77.129,359.964 77.037,359.903 76.96,359.823C76.883,359.744 76.822,359.652 76.778,359.547C76.734,359.442 76.711,359.326 76.711,359.2Z" style="fill-rule:nonzero;"/><path d="M86.147,358.787C86.283,358.787 86.39,358.827 86.469,358.906C86.549,358.986 86.588,359.088 86.588,359.214L86.588,359.97L79.896,359.97L79.896,359.543C79.896,359.455 79.915,359.364 79.952,359.27C79.99,359.177 80.048,359.091 80.127,359.011L83.34,355.784C83.606,355.514 83.849,355.253 84.068,355.004C84.288,354.754 84.474,354.503 84.628,354.251C84.782,353.999 84.901,353.744 84.985,353.485C85.069,353.226 85.111,352.949 85.111,352.655C85.111,352.361 85.065,352.103 84.971,351.882C84.878,351.66 84.751,351.477 84.59,351.332C84.429,351.188 84.239,351.079 84.019,351.007C83.8,350.934 83.564,350.898 83.312,350.898C83.056,350.898 82.82,350.936 82.605,351.01C82.391,351.085 82.201,351.189 82.035,351.322C81.869,351.455 81.73,351.612 81.618,351.794C81.506,351.976 81.427,352.177 81.38,352.396C81.324,352.56 81.249,352.668 81.153,352.722C81.057,352.775 80.923,352.791 80.75,352.767L80.099,352.655C80.165,352.198 80.292,351.793 80.481,351.441C80.67,351.088 80.908,350.793 81.195,350.555C81.482,350.317 81.81,350.136 82.178,350.013C82.547,349.889 82.946,349.827 83.375,349.827C83.8,349.827 84.197,349.89 84.565,350.016C84.934,350.142 85.254,350.325 85.524,350.566C85.795,350.806 86.007,351.099 86.161,351.444C86.315,351.79 86.392,352.182 86.392,352.62C86.392,352.994 86.336,353.34 86.224,353.66C86.112,353.979 85.961,354.284 85.769,354.573C85.578,354.863 85.358,355.145 85.108,355.42C84.858,355.696 84.593,355.973 84.313,356.253L81.667,358.955C81.854,358.904 82.043,358.863 82.234,358.833C82.426,358.802 82.61,358.787 82.787,358.787L86.147,358.787Z" style="fill-rule:nonzero;"/><path d="M88.135,359.2C88.135,359.079 88.158,358.965 88.202,358.857C88.246,358.75 88.307,358.657 88.384,358.577C88.461,358.498 88.553,358.435 88.66,358.388C88.768,358.342 88.882,358.318 89.003,358.318C89.125,358.318 89.239,358.342 89.346,358.388C89.454,358.435 89.547,358.498 89.626,358.577C89.706,358.657 89.769,358.75 89.815,358.857C89.862,358.965 89.885,359.079 89.885,359.2C89.885,359.326 89.862,359.442 89.815,359.547C89.769,359.652 89.706,359.744 89.626,359.823C89.547,359.903 89.454,359.964 89.346,360.009C89.239,360.053 89.125,360.075 89.003,360.075C88.882,360.075 88.768,360.053 88.66,360.009C88.553,359.964 88.461,359.903 88.384,359.823C88.307,359.744 88.246,359.652 88.202,359.547C88.158,359.442 88.135,359.326 88.135,359.2Z" style="fill-rule:nonzero;"/><path d="M98.362,354.958C98.362,355.836 98.268,356.595 98.079,357.237C97.89,357.878 97.632,358.409 97.305,358.829C96.979,359.249 96.593,359.562 96.147,359.767C95.701,359.973 95.224,360.075 94.715,360.075C94.202,360.075 93.725,359.973 93.284,359.767C92.843,359.562 92.459,359.249 92.132,358.829C91.806,358.409 91.549,357.878 91.362,357.237C91.176,356.595 91.082,355.836 91.082,354.958C91.082,354.081 91.176,353.32 91.362,352.676C91.549,352.032 91.806,351.499 92.132,351.077C92.459,350.654 92.843,350.341 93.284,350.135C93.725,349.93 94.202,349.827 94.715,349.827C95.224,349.827 95.701,349.93 96.147,350.135C96.593,350.341 96.979,350.654 97.305,351.077C97.632,351.499 97.89,352.032 98.079,352.676C98.268,353.32 98.362,354.081 98.362,354.958ZM97.067,354.958C97.067,354.193 97.003,353.55 96.875,353.03C96.747,352.509 96.574,352.091 96.357,351.773C96.14,351.456 95.889,351.228 95.604,351.091C95.32,350.953 95.023,350.884 94.715,350.884C94.407,350.884 94.111,350.953 93.826,351.091C93.542,351.228 93.292,351.456 93.077,351.773C92.863,352.091 92.691,352.509 92.563,353.03C92.435,353.55 92.37,354.193 92.37,354.958C92.37,355.724 92.435,356.365 92.563,356.883C92.691,357.401 92.863,357.819 93.077,358.136C93.292,358.454 93.542,358.681 93.826,358.819C94.111,358.956 94.407,359.025 94.715,359.025C95.023,359.025 95.32,358.956 95.604,358.819C95.889,358.681 96.14,358.454 96.357,358.136C96.574,357.819 96.747,357.401 96.875,356.883C97.003,356.365 97.067,355.724 97.067,354.958Z" style="fill-rule:nonzero;"/><path d="M100.455,360.117C100.395,360.281 100.3,360.402 100.172,360.481C100.044,360.561 99.912,360.6 99.776,360.6L99.251,360.6L103.458,350.121C103.514,349.972 103.6,349.858 103.714,349.778C103.828,349.699 103.96,349.659 104.109,349.659L104.641,349.659L100.455,360.117Z" style="fill-rule:nonzero;"/><path d="M112.019,358.787C112.155,358.787 112.262,358.827 112.341,358.906C112.421,358.986 112.46,359.088 112.46,359.214L112.46,359.97L105.768,359.97L105.768,359.543C105.768,359.455 105.787,359.364 105.824,359.27C105.862,359.177 105.92,359.091 105.999,359.011L109.212,355.784C109.478,355.514 109.721,355.253 109.94,355.004C110.16,354.754 110.346,354.503 110.5,354.251C110.654,353.999 110.773,353.744 110.857,353.485C110.941,353.226 110.983,352.949 110.983,352.655C110.983,352.361 110.937,352.103 110.843,351.882C110.75,351.66 110.623,351.477 110.462,351.332C110.301,351.188 110.111,351.079 109.891,351.007C109.672,350.934 109.436,350.898 109.184,350.898C108.928,350.898 108.692,350.936 108.477,351.01C108.263,351.085 108.073,351.189 107.907,351.322C107.741,351.455 107.602,351.612 107.49,351.794C107.378,351.976 107.299,352.177 107.252,352.396C107.196,352.56 107.121,352.668 107.025,352.722C106.929,352.775 106.795,352.791 106.622,352.767L105.971,352.655C106.037,352.198 106.164,351.793 106.353,351.441C106.542,351.088 106.78,350.793 107.067,350.555C107.354,350.317 107.682,350.136 108.05,350.013C108.419,349.889 108.818,349.827 109.247,349.827C109.672,349.827 110.069,349.89 110.437,350.016C110.806,350.142 111.126,350.325 111.396,350.566C111.667,350.806 111.879,351.099 112.033,351.444C112.187,351.79 112.264,352.182 112.264,352.62C112.264,352.994 112.208,353.34 112.096,353.66C111.984,353.979 111.833,354.284 111.641,354.573C111.45,354.863 111.23,355.145 110.98,355.42C110.73,355.696 110.465,355.973 110.185,356.253L107.539,358.955C107.726,358.904 107.915,358.863 108.106,358.833C108.298,358.802 108.482,358.787 108.659,358.787L112.019,358.787Z" style="fill-rule:nonzero;"/><path d="M118.34,356.351L118.34,352.214C118.34,352.093 118.345,351.96 118.354,351.815C118.364,351.671 118.378,351.524 118.396,351.374L114.742,356.351L118.34,356.351ZM120.951,356.351L120.951,357.065C120.951,357.14 120.929,357.203 120.885,357.254C120.841,357.306 120.772,357.331 120.678,357.331L119.432,357.331L119.432,359.97L118.34,359.97L118.34,357.331L113.888,357.331C113.795,357.331 113.715,357.304 113.647,357.251C113.579,357.197 113.536,357.131 113.517,357.051L113.391,356.414L118.27,349.939L119.432,349.939L119.432,356.351L120.951,356.351Z" style="fill-rule:nonzero;"/><path d="M476.836,341.074C476.836,333.253 470.487,326.904 462.666,326.904L374.475,326.904C366.654,326.904 360.304,333.253 360.304,341.074L360.304,369.415C360.304,377.236 366.654,383.586 374.475,383.586L462.666,383.586C470.487,383.586 476.836,377.236 476.836,369.415L476.836,341.074Z" style="fill:rgb(200,255,106);fill-opacity:0.6;stroke:rgb(136,138,133);stroke-width:1px;stroke-miterlimit:1.41421;"/><path d="M384.505,358.534L384.505,359.486L379.129,359.486L379.129,358.534L381.278,358.534L381.278,351.695C381.278,351.49 381.285,351.282 381.299,351.072L379.514,352.605C379.453,352.657 379.392,352.688 379.332,352.7C379.271,352.711 379.215,352.713 379.164,352.703C379.112,352.694 379.065,352.675 379.02,352.647C378.976,352.619 378.942,352.589 378.919,352.556L378.527,352.017L381.516,349.434L382.531,349.434L382.531,358.534L384.505,358.534Z" style="fill-rule:nonzero;"/><path d="M387.48,352.402C387.48,352.72 387.525,353.003 387.616,353.253C387.707,353.502 387.838,353.714 388.008,353.886C388.179,354.059 388.386,354.19 388.631,354.278C388.876,354.367 389.15,354.411 389.454,354.411C389.79,354.411 390.087,354.356 390.346,354.247C390.605,354.137 390.823,353.991 391.001,353.809C391.178,353.627 391.313,353.417 391.407,353.179C391.5,352.941 391.547,352.694 391.547,352.437C391.547,352.125 391.497,351.841 391.396,351.587C391.296,351.332 391.157,351.117 390.98,350.939C390.802,350.762 390.591,350.625 390.346,350.53C390.101,350.434 389.832,350.386 389.538,350.386C389.23,350.386 388.95,350.436 388.698,350.537C388.446,350.637 388.229,350.776 388.047,350.953C387.865,351.131 387.725,351.343 387.627,351.59C387.529,351.838 387.48,352.108 387.48,352.402ZM390.392,355.489C390.494,355.354 390.59,355.226 390.679,355.104C390.767,354.983 390.851,354.862 390.931,354.74C390.674,354.946 390.385,355.102 390.063,355.209C389.741,355.317 389.4,355.37 389.041,355.37C388.663,355.37 388.305,355.307 387.966,355.181C387.628,355.055 387.33,354.87 387.074,354.625C386.817,354.38 386.613,354.079 386.461,353.722C386.31,353.365 386.234,352.955 386.234,352.493C386.234,352.055 386.315,351.644 386.479,351.261C386.642,350.879 386.871,350.545 387.165,350.26C387.459,349.976 387.809,349.752 388.215,349.588C388.621,349.425 389.066,349.343 389.552,349.343C390.032,349.343 390.469,349.423 390.861,349.581C391.253,349.74 391.589,349.962 391.869,350.246C392.149,350.531 392.365,350.872 392.516,351.268C392.668,351.665 392.744,352.104 392.744,352.584C392.744,352.874 392.717,353.148 392.663,353.407C392.61,353.666 392.533,353.92 392.432,354.17C392.332,354.419 392.209,354.667 392.065,354.912C391.92,355.157 391.757,355.408 391.575,355.664L389.132,359.192C389.071,359.281 388.985,359.352 388.873,359.406C388.761,359.459 388.632,359.486 388.488,359.486L387.34,359.486L390.392,355.489Z" style="fill-rule:nonzero;"/><path d="M400.528,358.303C400.663,358.303 400.77,358.343 400.85,358.422C400.929,358.502 400.969,358.604 400.969,358.73L400.969,359.486L394.277,359.486L394.277,359.059C394.277,358.971 394.295,358.88 394.333,358.786C394.37,358.693 394.428,358.607 394.508,358.527L397.721,355.3C397.987,355.03 398.229,354.769 398.449,354.52C398.668,354.27 398.855,354.019 399.009,353.767C399.163,353.515 399.282,353.26 399.366,353.001C399.45,352.742 399.492,352.465 399.492,352.171C399.492,351.877 399.445,351.619 399.352,351.398C399.258,351.176 399.131,350.993 398.97,350.848C398.809,350.704 398.619,350.595 398.4,350.523C398.18,350.45 397.945,350.414 397.693,350.414C397.436,350.414 397.2,350.452 396.986,350.526C396.771,350.601 396.581,350.705 396.415,350.838C396.25,350.971 396.111,351.128 395.999,351.31C395.887,351.492 395.807,351.693 395.761,351.912C395.705,352.076 395.629,352.184 395.533,352.238C395.438,352.291 395.303,352.307 395.131,352.283L394.48,352.171C394.545,351.714 394.672,351.309 394.861,350.957C395.05,350.604 395.288,350.309 395.575,350.071C395.862,349.833 396.19,349.652 396.559,349.529C396.927,349.405 397.326,349.343 397.756,349.343C398.18,349.343 398.577,349.406 398.946,349.532C399.314,349.658 399.634,349.841 399.905,350.082C400.175,350.322 400.388,350.615 400.542,350.96C400.696,351.306 400.773,351.698 400.773,352.136C400.773,352.51 400.717,352.856 400.605,353.176C400.493,353.495 400.341,353.8 400.15,354.089C399.958,354.379 399.738,354.661 399.488,354.936C399.239,355.212 398.974,355.489 398.694,355.769L396.048,358.471C396.234,358.42 396.423,358.379 396.615,358.349C396.806,358.318 396.99,358.303 397.168,358.303L400.528,358.303Z" style="fill-rule:nonzero;"/><path d="M402.516,358.716C402.516,358.595 402.538,358.481 402.582,358.373C402.627,358.266 402.687,358.173 402.764,358.093C402.841,358.014 402.933,357.951 403.041,357.904C403.148,357.858 403.262,357.834 403.384,357.834C403.505,357.834 403.619,357.858 403.727,357.904C403.834,357.951 403.927,358.014 404.007,358.093C404.086,358.173 404.149,358.266 404.196,358.373C404.242,358.481 404.266,358.595 404.266,358.716C404.266,358.842 404.242,358.958 404.196,359.063C404.149,359.168 404.086,359.26 404.007,359.339C403.927,359.419 403.834,359.48 403.727,359.525C403.619,359.569 403.505,359.591 403.384,359.591C403.262,359.591 403.148,359.569 403.041,359.525C402.933,359.48 402.841,359.419 402.764,359.339C402.687,359.26 402.627,359.168 402.582,359.063C402.538,358.958 402.516,358.842 402.516,358.716Z" style="fill-rule:nonzero;"/><path d="M412.743,354.474C412.743,355.352 412.648,356.111 412.459,356.753C412.27,357.394 412.012,357.925 411.686,358.345C411.359,358.765 410.973,359.078 410.527,359.283C410.082,359.489 409.604,359.591 409.096,359.591C408.582,359.591 408.105,359.489 407.664,359.283C407.223,359.078 406.839,358.765 406.513,358.345C406.186,357.925 405.929,357.394 405.743,356.753C405.556,356.111 405.463,355.352 405.463,354.474C405.463,353.597 405.556,352.836 405.743,352.192C405.929,351.548 406.186,351.015 406.513,350.593C406.839,350.17 407.223,349.857 407.664,349.651C408.105,349.446 408.582,349.343 409.096,349.343C409.604,349.343 410.082,349.446 410.527,349.651C410.973,349.857 411.359,350.17 411.686,350.593C412.012,351.015 412.27,351.548 412.459,352.192C412.648,352.836 412.743,353.597 412.743,354.474ZM411.448,354.474C411.448,353.709 411.384,353.066 411.255,352.546C411.127,352.025 410.954,351.607 410.737,351.289C410.52,350.972 410.269,350.744 409.985,350.607C409.7,350.469 409.404,350.4 409.096,350.4C408.788,350.4 408.491,350.469 408.207,350.607C407.922,350.744 407.672,350.972 407.458,351.289C407.243,351.607 407.072,352.025 406.943,352.546C406.815,353.066 406.751,353.709 406.751,354.474C406.751,355.24 406.815,355.881 406.943,356.399C407.072,356.917 407.243,357.335 407.458,357.652C407.672,357.97 407.922,358.197 408.207,358.335C408.491,358.472 408.788,358.541 409.096,358.541C409.404,358.541 409.7,358.472 409.985,358.335C410.269,358.197 410.52,357.97 410.737,357.652C410.954,357.335 411.127,356.917 411.255,356.399C411.384,355.881 411.448,355.24 411.448,354.474Z" style="fill-rule:nonzero;"/><path d="M413.94,358.716C413.94,358.595 413.962,358.481 414.006,358.373C414.051,358.266 414.111,358.173 414.188,358.093C414.265,358.014 414.357,357.951 414.465,357.904C414.572,357.858 414.686,357.834 414.808,357.834C414.929,357.834 415.043,357.858 415.151,357.904C415.258,357.951 415.351,358.014 415.431,358.093C415.51,358.173 415.573,358.266 415.62,358.373C415.666,358.481 415.69,358.595 415.69,358.716C415.69,358.842 415.666,358.958 415.62,359.063C415.573,359.168 415.51,359.26 415.431,359.339C415.351,359.419 415.258,359.48 415.151,359.525C415.043,359.569 414.929,359.591 414.808,359.591C414.686,359.591 414.572,359.569 414.465,359.525C414.357,359.48 414.265,359.419 414.188,359.339C414.111,359.26 414.051,359.168 414.006,359.063C413.962,358.958 413.94,358.842 413.94,358.716Z" style="fill-rule:nonzero;"/><path d="M423.376,358.303C423.511,358.303 423.618,358.343 423.698,358.422C423.777,358.502 423.817,358.604 423.817,358.73L423.817,359.486L417.125,359.486L417.125,359.059C417.125,358.971 417.143,358.88 417.181,358.786C417.218,358.693 417.276,358.607 417.356,358.527L420.569,355.3C420.835,355.03 421.077,354.769 421.297,354.52C421.516,354.27 421.703,354.019 421.857,353.767C422.011,353.515 422.13,353.26 422.214,353.001C422.298,352.742 422.34,352.465 422.34,352.171C422.34,351.877 422.293,351.619 422.2,351.398C422.106,351.176 421.979,350.993 421.818,350.848C421.657,350.704 421.467,350.595 421.248,350.523C421.028,350.45 420.793,350.414 420.541,350.414C420.284,350.414 420.048,350.452 419.834,350.526C419.619,350.601 419.429,350.705 419.263,350.838C419.098,350.971 418.959,351.128 418.847,351.31C418.735,351.492 418.655,351.693 418.609,351.912C418.553,352.076 418.477,352.184 418.381,352.238C418.286,352.291 418.151,352.307 417.979,352.283L417.328,352.171C417.393,351.714 417.52,351.309 417.709,350.957C417.898,350.604 418.136,350.309 418.423,350.071C418.71,349.833 419.038,349.652 419.407,349.529C419.775,349.405 420.174,349.343 420.604,349.343C421.028,349.343 421.425,349.406 421.794,349.532C422.162,349.658 422.482,349.841 422.753,350.082C423.023,350.322 423.236,350.615 423.39,350.96C423.544,351.306 423.621,351.698 423.621,352.136C423.621,352.51 423.565,352.856 423.453,353.176C423.341,353.495 423.189,353.8 422.998,354.089C422.806,354.379 422.586,354.661 422.336,354.936C422.087,355.212 421.822,355.489 421.542,355.769L418.896,358.471C419.082,358.42 419.271,358.379 419.463,358.349C419.654,358.318 419.838,358.303 420.016,358.303L423.376,358.303Z" style="fill-rule:nonzero;"/><path d="M425.364,358.716C425.364,358.595 425.386,358.481 425.43,358.373C425.475,358.266 425.535,358.173 425.612,358.093C425.689,358.014 425.781,357.951 425.889,357.904C425.996,357.858 426.11,357.834 426.232,357.834C426.353,357.834 426.467,357.858 426.575,357.904C426.682,357.951 426.775,358.014 426.855,358.093C426.934,358.173 426.997,358.266 427.044,358.373C427.09,358.481 427.114,358.595 427.114,358.716C427.114,358.842 427.09,358.958 427.044,359.063C426.997,359.168 426.934,359.26 426.855,359.339C426.775,359.419 426.682,359.48 426.575,359.525C426.467,359.569 426.353,359.591 426.232,359.591C426.11,359.591 425.996,359.569 425.889,359.525C425.781,359.48 425.689,359.419 425.612,359.339C425.535,359.26 425.475,359.168 425.43,359.063C425.386,358.958 425.364,358.842 425.364,358.716Z" style="fill-rule:nonzero;"/><path d="M435.591,354.474C435.591,355.352 435.496,356.111 435.307,356.753C435.118,357.394 434.86,357.925 434.534,358.345C434.207,358.765 433.821,359.078 433.375,359.283C432.93,359.489 432.452,359.591 431.944,359.591C431.43,359.591 430.953,359.489 430.512,359.283C430.071,359.078 429.687,358.765 429.361,358.345C429.034,357.925 428.777,357.394 428.591,356.753C428.404,356.111 428.311,355.352 428.311,354.474C428.311,353.597 428.404,352.836 428.591,352.192C428.777,351.548 429.034,351.015 429.361,350.593C429.687,350.17 430.071,349.857 430.512,349.651C430.953,349.446 431.43,349.343 431.944,349.343C432.452,349.343 432.93,349.446 433.375,349.651C433.821,349.857 434.207,350.17 434.534,350.593C434.86,351.015 435.118,351.548 435.307,352.192C435.496,352.836 435.591,353.597 435.591,354.474ZM434.296,354.474C434.296,353.709 434.232,353.066 434.103,352.546C433.975,352.025 433.802,351.607 433.585,351.289C433.368,350.972 433.117,350.744 432.833,350.607C432.548,350.469 432.252,350.4 431.944,350.4C431.636,350.4 431.339,350.469 431.055,350.607C430.77,350.744 430.52,350.972 430.306,351.289C430.091,351.607 429.92,352.025 429.791,352.546C429.663,353.066 429.599,353.709 429.599,354.474C429.599,355.24 429.663,355.881 429.791,356.399C429.92,356.917 430.091,357.335 430.306,357.652C430.52,357.97 430.77,358.197 431.055,358.335C431.339,358.472 431.636,358.541 431.944,358.541C432.252,358.541 432.548,358.472 432.833,358.335C433.117,358.197 433.368,357.97 433.585,357.652C433.802,357.335 433.975,356.917 434.103,356.399C434.232,355.881 434.296,355.24 434.296,354.474Z" style="fill-rule:nonzero;"/><path d="M437.684,359.633C437.623,359.797 437.529,359.918 437.4,359.997C437.272,360.077 437.14,360.116 437.005,360.116L436.48,360.116L440.687,349.637C440.743,349.488 440.828,349.374 440.942,349.294C441.057,349.215 441.188,349.175 441.338,349.175L441.87,349.175L437.684,359.633Z" style="fill-rule:nonzero;"/><path d="M449.248,358.303C449.383,358.303 449.49,358.343 449.57,358.422C449.649,358.502 449.689,358.604 449.689,358.73L449.689,359.486L442.997,359.486L442.997,359.059C442.997,358.971 443.015,358.88 443.053,358.786C443.09,358.693 443.148,358.607 443.228,358.527L446.441,355.3C446.707,355.03 446.949,354.769 447.169,354.52C447.388,354.27 447.575,354.019 447.729,353.767C447.883,353.515 448.002,353.26 448.086,353.001C448.17,352.742 448.212,352.465 448.212,352.171C448.212,351.877 448.165,351.619 448.072,351.398C447.978,351.176 447.851,350.993 447.69,350.848C447.529,350.704 447.339,350.595 447.12,350.523C446.9,350.45 446.665,350.414 446.413,350.414C446.156,350.414 445.92,350.452 445.706,350.526C445.491,350.601 445.301,350.705 445.135,350.838C444.97,350.971 444.831,351.128 444.719,351.31C444.607,351.492 444.527,351.693 444.481,351.912C444.425,352.076 444.349,352.184 444.253,352.238C444.158,352.291 444.023,352.307 443.851,352.283L443.2,352.171C443.265,351.714 443.392,351.309 443.581,350.957C443.77,350.604 444.008,350.309 444.295,350.071C444.582,349.833 444.91,349.652 445.279,349.529C445.647,349.405 446.046,349.343 446.476,349.343C446.9,349.343 447.297,349.406 447.666,349.532C448.034,349.658 448.354,349.841 448.625,350.082C448.895,350.322 449.108,350.615 449.262,350.96C449.416,351.306 449.493,351.698 449.493,352.136C449.493,352.51 449.437,352.856 449.325,353.176C449.213,353.495 449.061,353.8 448.87,354.089C448.678,354.379 448.458,354.661 448.208,354.936C447.959,355.212 447.694,355.489 447.414,355.769L444.768,358.471C444.954,358.42 445.143,358.379 445.335,358.349C445.526,358.318 445.71,358.303 445.888,358.303L449.248,358.303Z" style="fill-rule:nonzero;"/><path d="M452.993,353.242C453.515,353.13 453.996,353.074 454.435,353.074C454.957,353.074 455.419,353.151 455.821,353.305C456.222,353.459 456.557,353.672 456.825,353.942C457.094,354.213 457.297,354.533 457.434,354.901C457.572,355.27 457.641,355.671 457.641,356.105C457.641,356.637 457.549,357.118 457.364,357.547C457.18,357.977 456.926,358.344 456.601,358.65C456.277,358.955 455.895,359.19 455.457,359.353C455.018,359.517 454.544,359.598 454.036,359.598C453.742,359.598 453.459,359.569 453.189,359.511C452.918,359.452 452.665,359.374 452.429,359.276C452.194,359.178 451.975,359.066 451.775,358.94C451.574,358.814 451.397,358.681 451.243,358.541L451.628,358.009C451.712,357.888 451.821,357.827 451.957,357.827C452.05,357.827 452.155,357.863 452.272,357.936C452.388,358.008 452.531,358.089 452.699,358.177C452.867,358.266 453.064,358.346 453.29,358.419C453.517,358.491 453.786,358.527 454.099,358.527C454.449,358.527 454.764,358.471 455.044,358.359C455.324,358.247 455.564,358.087 455.765,357.88C455.965,357.672 456.119,357.424 456.227,357.134C456.334,356.845 456.388,356.521 456.388,356.161C456.388,355.849 456.342,355.566 456.251,355.314C456.16,355.062 456.023,354.848 455.838,354.67C455.654,354.493 455.424,354.355 455.149,354.257C454.873,354.159 454.551,354.11 454.183,354.11C453.931,354.11 453.668,354.131 453.395,354.173C453.122,354.215 452.843,354.283 452.559,354.376L451.775,354.145L452.58,349.455L457.333,349.455L457.333,350.001C457.333,350.179 457.278,350.324 457.168,350.439C457.059,350.553 456.871,350.61 456.605,350.61L453.455,350.61L452.993,353.242Z" style="fill-rule:nonzero;"/><ellipse cx="251.965" cy="123.04" rx="44.264" ry="28.923" style="fill:rgb(200,255,106);fill-opacity:0.6;stroke:rgb(136,138,133);stroke-width:1px;stroke-miterlimit:1.41421;"/><path d="M229.496,124.227L227.921,120.146C227.875,120.025 227.826,119.884 227.774,119.723C227.723,119.562 227.674,119.39 227.627,119.208C227.529,119.586 227.429,119.901 227.326,120.153L225.751,124.227L229.496,124.227ZM232.324,127.951L231.274,127.951C231.153,127.951 231.055,127.921 230.98,127.86C230.906,127.8 230.85,127.723 230.812,127.629L229.874,125.207L225.373,125.207L224.435,127.629C224.407,127.713 224.354,127.788 224.274,127.853C224.195,127.919 224.097,127.951 223.98,127.951L222.93,127.951L226.941,117.92L228.313,117.92L232.324,127.951Z" style="fill-rule:nonzero;"/><path d="M238.778,119.488C238.736,119.558 238.691,119.611 238.642,119.646C238.593,119.681 238.533,119.698 238.463,119.698C238.384,119.698 238.291,119.659 238.183,119.579C238.076,119.5 237.942,119.412 237.781,119.317C237.62,119.221 237.426,119.134 237.2,119.054C236.973,118.975 236.699,118.935 236.377,118.935C236.074,118.935 235.807,118.976 235.576,119.058C235.345,119.139 235.151,119.25 234.995,119.39C234.838,119.53 234.721,119.695 234.641,119.884C234.562,120.073 234.522,120.277 234.522,120.496C234.522,120.776 234.591,121.008 234.729,121.193C234.866,121.377 235.048,121.535 235.275,121.665C235.501,121.796 235.758,121.909 236.045,122.005C236.332,122.1 236.626,122.2 236.927,122.302C237.228,122.405 237.522,122.52 237.809,122.649C238.096,122.777 238.352,122.939 238.579,123.135C238.805,123.331 238.987,123.572 239.125,123.856C239.262,124.141 239.331,124.491 239.331,124.906C239.331,125.345 239.257,125.757 239.107,126.142C238.958,126.527 238.74,126.862 238.453,127.146C238.166,127.431 237.813,127.655 237.396,127.818C236.978,127.982 236.503,128.063 235.971,128.063C235.318,128.063 234.725,127.945 234.193,127.71C233.661,127.474 233.206,127.156 232.828,126.754L233.22,126.11C233.258,126.059 233.303,126.016 233.357,125.981C233.41,125.946 233.47,125.928 233.535,125.928C233.596,125.928 233.665,125.953 233.742,126.002C233.819,126.051 233.906,126.113 234.004,126.187C234.102,126.262 234.214,126.344 234.34,126.432C234.466,126.521 234.61,126.603 234.771,126.677C234.932,126.752 235.115,126.814 235.32,126.863C235.526,126.912 235.757,126.936 236.013,126.936C236.335,126.936 236.622,126.892 236.874,126.803C237.126,126.715 237.34,126.59 237.515,126.429C237.69,126.268 237.824,126.075 237.917,125.851C238.011,125.627 238.057,125.378 238.057,125.102C238.057,124.799 237.988,124.55 237.851,124.357C237.713,124.163 237.532,124.001 237.308,123.87C237.084,123.74 236.828,123.629 236.538,123.538C236.249,123.447 235.955,123.353 235.656,123.258C235.358,123.162 235.064,123.051 234.774,122.925C234.485,122.799 234.228,122.636 234.004,122.435C233.78,122.235 233.599,121.984 233.462,121.683C233.324,121.382 233.255,121.01 233.255,120.566C233.255,120.212 233.324,119.869 233.462,119.537C233.599,119.206 233.8,118.912 234.064,118.655C234.327,118.399 234.652,118.193 235.037,118.039C235.422,117.885 235.864,117.808 236.363,117.808C236.923,117.808 237.433,117.897 237.893,118.074C238.352,118.252 238.757,118.508 239.107,118.844L238.778,119.488Z" style="fill-rule:nonzero;"/><path d="M244.007,127.027C244.343,127.027 244.648,126.974 244.921,126.866C245.194,126.759 245.427,126.61 245.621,126.418C245.814,126.227 245.964,126.001 246.069,125.739C246.174,125.478 246.226,125.193 246.226,124.885C246.226,124.559 246.175,124.263 246.072,124C245.97,123.736 245.824,123.512 245.635,123.328C245.446,123.143 245.221,123.002 244.959,122.904C244.698,122.806 244.411,122.757 244.098,122.757C243.762,122.757 243.459,122.814 243.188,122.929C242.918,123.043 242.688,123.197 242.499,123.391C242.31,123.584 242.165,123.808 242.065,124.063C241.964,124.317 241.914,124.582 241.914,124.857C241.914,125.179 241.961,125.473 242.054,125.739C242.148,126.005 242.284,126.234 242.464,126.425C242.643,126.617 242.863,126.765 243.122,126.87C243.381,126.975 243.676,127.027 244.007,127.027ZM243.279,121.679C243.191,121.791 243.105,121.9 243.024,122.005C242.942,122.11 242.864,122.214 242.789,122.316C243.027,122.153 243.289,122.027 243.573,121.938C243.858,121.85 244.168,121.805 244.504,121.805C244.91,121.805 245.293,121.872 245.652,122.005C246.012,122.138 246.325,122.331 246.594,122.586C246.862,122.84 247.076,123.153 247.234,123.524C247.393,123.895 247.472,124.318 247.472,124.794C247.472,125.256 247.388,125.686 247.22,126.082C247.052,126.479 246.818,126.824 246.517,127.118C246.216,127.412 245.854,127.643 245.432,127.811C245.009,127.979 244.544,128.063 244.035,128.063C243.531,128.063 243.074,127.983 242.663,127.822C242.253,127.661 241.904,127.432 241.617,127.136C241.33,126.839 241.108,126.48 240.952,126.058C240.795,125.635 240.717,125.163 240.717,124.64C240.717,124.202 240.814,123.734 241.008,123.237C241.201,122.74 241.511,122.209 241.935,121.644L244.483,118.221C244.549,118.137 244.638,118.066 244.753,118.008C244.867,117.949 244.999,117.92 245.148,117.92L246.254,117.92L243.279,121.679Z" style="fill-rule:nonzero;"/><path d="M253.191,124.332L253.191,120.195C253.191,120.074 253.196,119.941 253.205,119.796C253.215,119.652 253.229,119.505 253.247,119.355L249.593,124.332L253.191,124.332ZM255.802,124.332L255.802,125.046C255.802,125.121 255.78,125.184 255.736,125.235C255.691,125.287 255.623,125.312 255.529,125.312L254.283,125.312L254.283,127.951L253.191,127.951L253.191,125.312L248.739,125.312C248.646,125.312 248.565,125.285 248.498,125.232C248.43,125.178 248.387,125.112 248.368,125.032L248.242,124.395L253.121,117.92L254.283,117.92L254.283,124.332L255.802,124.332Z" style="fill-rule:nonzero;"/><path d="M258.735,121.707C259.258,121.595 259.739,121.539 260.177,121.539C260.7,121.539 261.162,121.616 261.563,121.77C261.965,121.924 262.299,122.137 262.568,122.407C262.836,122.678 263.039,122.998 263.177,123.366C263.314,123.735 263.383,124.136 263.383,124.57C263.383,125.102 263.291,125.583 263.107,126.012C262.922,126.442 262.668,126.809 262.344,127.115C262.019,127.42 261.638,127.655 261.199,127.818C260.761,127.982 260.287,128.063 259.778,128.063C259.484,128.063 259.202,128.034 258.931,127.976C258.661,127.917 258.407,127.839 258.172,127.741C257.936,127.643 257.718,127.531 257.517,127.405C257.317,127.279 257.139,127.146 256.985,127.006L257.37,126.474C257.454,126.353 257.564,126.292 257.699,126.292C257.793,126.292 257.898,126.328 258.014,126.401C258.131,126.473 258.273,126.554 258.441,126.642C258.609,126.731 258.806,126.811 259.033,126.884C259.259,126.956 259.529,126.992 259.841,126.992C260.191,126.992 260.506,126.936 260.786,126.824C261.066,126.712 261.307,126.552 261.507,126.345C261.708,126.137 261.862,125.889 261.969,125.599C262.077,125.31 262.13,124.986 262.13,124.626C262.13,124.314 262.085,124.031 261.994,123.779C261.903,123.527 261.765,123.313 261.581,123.135C261.396,122.958 261.167,122.82 260.891,122.722C260.616,122.624 260.294,122.575 259.925,122.575C259.673,122.575 259.411,122.596 259.138,122.638C258.865,122.68 258.586,122.748 258.301,122.841L257.517,122.61L258.322,117.92L263.075,117.92L263.075,118.466C263.075,118.644 263.02,118.789 262.911,118.904C262.801,119.018 262.613,119.075 262.347,119.075L259.197,119.075L258.735,121.707Z" style="fill-rule:nonzero;"/><path d="M272.021,122.939C272.021,123.817 271.927,124.576 271.738,125.218C271.549,125.859 271.291,126.39 270.964,126.81C270.638,127.23 270.251,127.543 269.806,127.748C269.36,127.954 268.883,128.056 268.374,128.056C267.861,128.056 267.384,127.954 266.943,127.748C266.502,127.543 266.118,127.23 265.791,126.81C265.465,126.39 265.208,125.859 265.021,125.218C264.835,124.576 264.741,123.817 264.741,122.939C264.741,122.062 264.835,121.301 265.021,120.657C265.208,120.013 265.465,119.48 265.791,119.058C266.118,118.635 266.502,118.322 266.943,118.116C267.384,117.911 267.861,117.808 268.374,117.808C268.883,117.808 269.36,117.911 269.806,118.116C270.251,118.322 270.638,118.635 270.964,119.058C271.291,119.48 271.549,120.013 271.738,120.657C271.927,121.301 272.021,122.062 272.021,122.939ZM270.726,122.939C270.726,122.174 270.662,121.531 270.534,121.011C270.405,120.49 270.233,120.072 270.016,119.754C269.799,119.437 269.548,119.209 269.263,119.072C268.979,118.934 268.682,118.865 268.374,118.865C268.066,118.865 267.77,118.934 267.485,119.072C267.201,119.209 266.951,119.437 266.736,119.754C266.522,120.072 266.35,120.49 266.222,121.011C266.093,121.531 266.029,122.174 266.029,122.939C266.029,123.705 266.093,124.346 266.222,124.864C266.35,125.382 266.522,125.8 266.736,126.117C266.951,126.435 267.201,126.662 267.485,126.8C267.77,126.937 268.066,127.006 268.374,127.006C268.682,127.006 268.979,126.937 269.263,126.8C269.548,126.662 269.799,126.435 270.016,126.117C270.233,125.8 270.405,125.382 270.534,124.864C270.662,124.346 270.726,123.705 270.726,122.939Z" style="fill-rule:nonzero;"/><path d="M280.141,122.939C280.141,123.817 280.047,124.576 279.858,125.218C279.669,125.859 279.411,126.39 279.084,126.81C278.758,127.23 278.371,127.543 277.926,127.748C277.48,127.954 277.003,128.056 276.494,128.056C275.981,128.056 275.504,127.954 275.063,127.748C274.622,127.543 274.238,127.23 273.911,126.81C273.585,126.39 273.328,125.859 273.141,125.218C272.955,124.576 272.861,123.817 272.861,122.939C272.861,122.062 272.955,121.301 273.141,120.657C273.328,120.013 273.585,119.48 273.911,119.058C274.238,118.635 274.622,118.322 275.063,118.116C275.504,117.911 275.981,117.808 276.494,117.808C277.003,117.808 277.48,117.911 277.926,118.116C278.371,118.322 278.758,118.635 279.084,119.058C279.411,119.48 279.669,120.013 279.858,120.657C280.047,121.301 280.141,122.062 280.141,122.939ZM278.846,122.939C278.846,122.174 278.782,121.531 278.654,121.011C278.525,120.49 278.353,120.072 278.136,119.754C277.919,119.437 277.668,119.209 277.383,119.072C277.099,118.934 276.802,118.865 276.494,118.865C276.186,118.865 275.89,118.934 275.605,119.072C275.321,119.209 275.071,119.437 274.856,119.754C274.642,120.072 274.47,120.49 274.342,121.011C274.213,121.531 274.149,122.174 274.149,122.939C274.149,123.705 274.213,124.346 274.342,124.864C274.47,125.382 274.642,125.8 274.856,126.117C275.071,126.435 275.321,126.662 275.605,126.8C275.89,126.937 276.186,127.006 276.494,127.006C276.802,127.006 277.099,126.937 277.383,126.8C277.668,126.662 277.919,126.435 278.136,126.117C278.353,125.8 278.525,125.382 278.654,124.864C278.782,124.346 278.846,123.705 278.846,122.939Z" style="fill-rule:nonzero;"/><ellipse cx="154.108" cy="180.885" rx="44.264" ry="28.923" style="fill:rgb(200,255,106);fill-opacity:0.6;stroke:rgb(136,138,133);stroke-width:1px;stroke-miterlimit:1.41421;"/><path d="M131.639,182.073L130.064,177.992C130.017,177.871 129.968,177.729 129.917,177.568C129.865,177.407 129.816,177.236 129.77,177.054C129.672,177.432 129.571,177.747 129.469,177.999L127.894,182.073L131.639,182.073ZM134.467,185.797L133.417,185.797C133.295,185.797 133.197,185.767 133.123,185.706C133.048,185.645 132.992,185.568 132.955,185.475L132.017,183.053L127.516,183.053L126.578,185.475C126.55,185.559 126.496,185.634 126.417,185.699C126.337,185.764 126.239,185.797 126.123,185.797L125.073,185.797L129.084,175.766L130.456,175.766L134.467,185.797Z" style="fill-rule:nonzero;"/><path d="M140.921,177.334C140.879,177.404 140.833,177.456 140.784,177.491C140.735,177.526 140.676,177.544 140.606,177.544C140.526,177.544 140.433,177.504 140.326,177.425C140.218,177.346 140.084,177.258 139.923,177.162C139.762,177.067 139.569,176.979 139.342,176.9C139.116,176.821 138.842,176.781 138.52,176.781C138.216,176.781 137.949,176.822 137.718,176.903C137.487,176.985 137.294,177.096 137.137,177.236C136.981,177.376 136.863,177.54 136.784,177.729C136.704,177.918 136.665,178.123 136.665,178.342C136.665,178.622 136.734,178.854 136.871,179.038C137.009,179.223 137.191,179.38 137.417,179.511C137.644,179.642 137.9,179.755 138.187,179.85C138.474,179.946 138.768,180.045 139.069,180.148C139.37,180.251 139.664,180.366 139.951,180.494C140.238,180.623 140.495,180.785 140.721,180.981C140.948,181.177 141.13,181.417 141.267,181.702C141.405,181.987 141.474,182.337 141.474,182.752C141.474,183.191 141.399,183.602 141.25,183.987C141.1,184.372 140.882,184.707 140.595,184.992C140.308,185.277 139.956,185.501 139.538,185.664C139.121,185.827 138.646,185.909 138.114,185.909C137.46,185.909 136.868,185.791 136.336,185.555C135.804,185.32 135.349,185.001 134.971,184.6L135.363,183.956C135.4,183.905 135.446,183.861 135.499,183.826C135.553,183.791 135.612,183.774 135.678,183.774C135.738,183.774 135.807,183.798 135.884,183.847C135.961,183.896 136.049,183.958 136.147,184.033C136.245,184.108 136.357,184.189 136.483,184.278C136.609,184.367 136.752,184.448 136.913,184.523C137.074,184.598 137.257,184.659 137.463,184.708C137.668,184.757 137.899,184.782 138.156,184.782C138.478,184.782 138.765,184.738 139.017,184.649C139.269,184.56 139.482,184.435 139.657,184.274C139.832,184.113 139.966,183.921 140.06,183.697C140.153,183.473 140.2,183.223 140.2,182.948C140.2,182.645 140.131,182.396 139.993,182.202C139.856,182.009 139.675,181.847 139.451,181.716C139.227,181.585 138.97,181.474 138.681,181.383C138.391,181.292 138.097,181.199 137.799,181.103C137.5,181.008 137.206,180.897 136.917,180.771C136.627,180.645 136.371,180.482 136.147,180.281C135.923,180.08 135.742,179.829 135.604,179.528C135.467,179.227 135.398,178.855 135.398,178.412C135.398,178.057 135.467,177.714 135.604,177.383C135.742,177.052 135.943,176.758 136.206,176.501C136.47,176.244 136.794,176.039 137.179,175.885C137.564,175.731 138.006,175.654 138.506,175.654C139.066,175.654 139.576,175.743 140.035,175.92C140.495,176.097 140.9,176.354 141.25,176.69L140.921,177.334Z" style="fill-rule:nonzero;"/><path d="M146.15,184.873C146.486,184.873 146.79,184.819 147.063,184.712C147.336,184.605 147.57,184.455 147.763,184.264C147.957,184.073 148.106,183.846 148.211,183.585C148.316,183.324 148.369,183.039 148.369,182.731C148.369,182.404 148.317,182.109 148.215,181.845C148.112,181.582 147.966,181.358 147.777,181.173C147.588,180.989 147.363,180.848 147.102,180.75C146.84,180.652 146.553,180.603 146.241,180.603C145.905,180.603 145.601,180.66 145.331,180.774C145.06,180.889 144.83,181.043 144.641,181.236C144.452,181.43 144.308,181.654 144.207,181.908C144.107,182.163 144.057,182.428 144.057,182.703C144.057,183.025 144.103,183.319 144.197,183.585C144.29,183.851 144.427,184.08 144.606,184.271C144.786,184.462 145.005,184.61 145.264,184.715C145.523,184.82 145.818,184.873 146.15,184.873ZM145.422,179.525C145.333,179.637 145.248,179.745 145.166,179.85C145.085,179.955 145.006,180.059 144.932,180.162C145.17,179.999 145.431,179.873 145.716,179.784C146,179.695 146.311,179.651 146.647,179.651C147.053,179.651 147.435,179.717 147.795,179.85C148.154,179.983 148.468,180.177 148.736,180.431C149.005,180.686 149.218,180.998 149.377,181.369C149.535,181.74 149.615,182.164 149.615,182.64C149.615,183.102 149.531,183.531 149.363,183.928C149.195,184.325 148.96,184.67 148.659,184.964C148.358,185.258 147.997,185.489 147.574,185.657C147.152,185.825 146.686,185.909 146.178,185.909C145.674,185.909 145.216,185.828 144.806,185.667C144.395,185.506 144.046,185.278 143.759,184.981C143.472,184.685 143.251,184.326 143.094,183.903C142.938,183.481 142.86,183.009 142.86,182.486C142.86,182.047 142.957,181.579 143.15,181.082C143.344,180.585 143.653,180.055 144.078,179.49L146.626,176.067C146.691,175.983 146.781,175.912 146.895,175.853C147.01,175.795 147.141,175.766 147.291,175.766L148.397,175.766L145.422,179.525Z" style="fill-rule:nonzero;"/><path d="M155.334,182.178L155.334,178.041C155.334,177.92 155.338,177.787 155.348,177.642C155.357,177.497 155.371,177.35 155.39,177.201L151.736,182.178L155.334,182.178ZM157.945,182.178L157.945,182.892C157.945,182.967 157.923,183.03 157.878,183.081C157.834,183.132 157.765,183.158 157.672,183.158L156.426,183.158L156.426,185.797L155.334,185.797L155.334,183.158L150.882,183.158C150.788,183.158 150.708,183.131 150.64,183.077C150.573,183.024 150.529,182.957 150.511,182.878L150.385,182.241L155.264,175.766L156.426,175.766L156.426,182.178L157.945,182.178Z" style="fill-rule:nonzero;"/><path d="M160.878,179.553C161.4,179.441 161.881,179.385 162.32,179.385C162.842,179.385 163.304,179.462 163.706,179.616C164.107,179.77 164.442,179.982 164.71,180.253C164.979,180.524 165.182,180.843 165.319,181.212C165.457,181.581 165.526,181.982 165.526,182.416C165.526,182.948 165.434,183.429 165.249,183.858C165.065,184.287 164.811,184.655 164.486,184.96C164.162,185.266 163.78,185.501 163.342,185.664C162.903,185.827 162.429,185.909 161.921,185.909C161.627,185.909 161.344,185.88 161.074,185.821C160.803,185.763 160.55,185.685 160.314,185.587C160.079,185.489 159.86,185.377 159.66,185.251C159.459,185.125 159.282,184.992 159.128,184.852L159.513,184.32C159.597,184.199 159.706,184.138 159.842,184.138C159.935,184.138 160.04,184.174 160.157,184.246C160.273,184.319 160.416,184.399 160.584,184.488C160.752,184.577 160.949,184.657 161.175,184.729C161.402,184.802 161.671,184.838 161.984,184.838C162.334,184.838 162.649,184.782 162.929,184.67C163.209,184.558 163.449,184.398 163.65,184.19C163.85,183.983 164.004,183.734 164.112,183.445C164.219,183.156 164.273,182.831 164.273,182.472C164.273,182.159 164.227,181.877 164.136,181.625C164.045,181.373 163.908,181.158 163.723,180.981C163.539,180.804 163.309,180.666 163.034,180.568C162.758,180.47 162.436,180.421 162.068,180.421C161.816,180.421 161.553,180.442 161.28,180.484C161.007,180.526 160.728,180.594 160.444,180.687L159.66,180.456L160.465,175.766L165.218,175.766L165.218,176.312C165.218,176.489 165.163,176.635 165.053,176.749C164.944,176.864 164.756,176.921 164.49,176.921L161.34,176.921L160.878,179.553Z" style="fill-rule:nonzero;"/><path d="M173.59,184.845L173.59,185.797L168.214,185.797L168.214,184.845L170.363,184.845L170.363,178.006C170.363,177.801 170.37,177.593 170.384,177.383L168.599,178.916C168.538,178.967 168.477,178.999 168.417,179.01C168.356,179.022 168.3,179.023 168.249,179.014C168.197,179.005 168.15,178.986 168.105,178.958C168.061,178.93 168.027,178.9 168.004,178.867L167.612,178.328L170.601,175.745L171.616,175.745L171.616,184.845L173.59,184.845Z" style="fill-rule:nonzero;"/><path d="M182.284,180.785C182.284,181.662 182.189,182.422 182,183.063C181.811,183.705 181.553,184.236 181.227,184.656C180.9,185.076 180.514,185.389 180.068,185.594C179.623,185.799 179.145,185.902 178.637,185.902C178.123,185.902 177.646,185.799 177.205,185.594C176.764,185.389 176.38,185.076 176.054,184.656C175.727,184.236 175.47,183.705 175.284,183.063C175.097,182.422 175.004,181.662 175.004,180.785C175.004,179.908 175.097,179.147 175.284,178.503C175.47,177.859 175.727,177.326 176.054,176.903C176.38,176.481 176.764,176.167 177.205,175.962C177.646,175.757 178.123,175.654 178.637,175.654C179.145,175.654 179.623,175.757 180.068,175.962C180.514,176.167 180.9,176.481 181.227,176.903C181.553,177.326 181.811,177.859 182,178.503C182.189,179.147 182.284,179.908 182.284,180.785ZM180.989,180.785C180.989,180.02 180.925,179.377 180.796,178.856C180.668,178.336 180.495,177.917 180.278,177.6C180.061,177.283 179.81,177.055 179.526,176.917C179.241,176.78 178.945,176.711 178.637,176.711C178.329,176.711 178.032,176.78 177.748,176.917C177.463,177.055 177.213,177.283 176.999,177.6C176.784,177.917 176.613,178.336 176.484,178.856C176.356,179.377 176.292,180.02 176.292,180.785C176.292,181.55 176.356,182.192 176.484,182.71C176.613,183.228 176.784,183.646 176.999,183.963C177.213,184.28 177.463,184.508 177.748,184.645C178.032,184.783 178.329,184.852 178.637,184.852C178.945,184.852 179.241,184.783 179.526,184.645C179.81,184.508 180.061,184.28 180.278,183.963C180.495,183.646 180.668,183.228 180.796,182.71C180.925,182.192 180.989,181.55 180.989,180.785Z" style="fill-rule:nonzero;"/><ellipse cx="351.818" cy="171.592" rx="44.264" ry="28.923" style="fill:rgb(200,255,106);fill-opacity:0.6;stroke:rgb(136,138,133);stroke-width:1px;stroke-miterlimit:1.41421;"/><path d="M329.349,172.78L327.774,168.699C327.727,168.577 327.678,168.436 327.627,168.275C327.576,168.114 327.527,167.943 327.48,167.761C327.382,168.139 327.282,168.454 327.179,168.706L325.604,172.78L329.349,172.78ZM332.177,176.504L331.127,176.504C331.006,176.504 330.908,176.473 330.833,176.413C330.758,176.352 330.702,176.275 330.665,176.182L329.727,173.76L325.226,173.76L324.288,176.182C324.26,176.266 324.206,176.34 324.127,176.406C324.048,176.471 323.95,176.504 323.833,176.504L322.783,176.504L326.794,166.473L328.166,166.473L332.177,176.504Z" style="fill-rule:nonzero;"/><path d="M338.631,168.041C338.589,168.111 338.543,168.163 338.494,168.198C338.445,168.233 338.386,168.251 338.316,168.251C338.237,168.251 338.143,168.211 338.036,168.132C337.929,168.052 337.794,167.965 337.633,167.869C337.472,167.774 337.279,167.686 337.052,167.607C336.826,167.527 336.552,167.488 336.23,167.488C335.927,167.488 335.659,167.529 335.428,167.61C335.197,167.692 335.004,167.803 334.847,167.943C334.691,168.083 334.573,168.247 334.494,168.436C334.415,168.625 334.375,168.829 334.375,169.049C334.375,169.329 334.444,169.561 334.581,169.745C334.719,169.93 334.901,170.087 335.127,170.218C335.354,170.348 335.61,170.462 335.897,170.557C336.184,170.653 336.478,170.752 336.779,170.855C337.08,170.957 337.374,171.073 337.661,171.201C337.948,171.33 338.205,171.492 338.431,171.688C338.658,171.884 338.84,172.124 338.977,172.409C339.115,172.693 339.184,173.043 339.184,173.459C339.184,173.897 339.109,174.309 338.96,174.694C338.811,175.079 338.592,175.414 338.305,175.699C338.018,175.983 337.666,176.207 337.248,176.371C336.831,176.534 336.356,176.616 335.824,176.616C335.171,176.616 334.578,176.498 334.046,176.262C333.514,176.027 333.059,175.708 332.681,175.307L333.073,174.663C333.11,174.611 333.156,174.568 333.209,174.533C333.263,174.498 333.323,174.481 333.388,174.481C333.449,174.481 333.517,174.505 333.594,174.554C333.671,174.603 333.759,174.665 333.857,174.74C333.955,174.814 334.067,174.896 334.193,174.985C334.319,175.073 334.462,175.155 334.623,175.23C334.784,175.304 334.968,175.366 335.173,175.415C335.378,175.464 335.609,175.489 335.866,175.489C336.188,175.489 336.475,175.444 336.727,175.356C336.979,175.267 337.192,175.142 337.367,174.981C337.542,174.82 337.677,174.628 337.77,174.404C337.863,174.18 337.91,173.93 337.91,173.655C337.91,173.351 337.841,173.103 337.703,172.909C337.566,172.716 337.385,172.553 337.161,172.423C336.937,172.292 336.68,172.181 336.391,172.09C336.102,171.999 335.808,171.906 335.509,171.81C335.21,171.715 334.916,171.604 334.627,171.478C334.338,171.352 334.081,171.188 333.857,170.988C333.633,170.787 333.452,170.536 333.314,170.235C333.177,169.934 333.108,169.562 333.108,169.119C333.108,168.764 333.177,168.421 333.314,168.09C333.452,167.758 333.653,167.464 333.916,167.208C334.18,166.951 334.504,166.746 334.889,166.592C335.274,166.438 335.717,166.361 336.216,166.361C336.776,166.361 337.286,166.449 337.745,166.627C338.205,166.804 338.61,167.061 338.96,167.397L338.631,168.041Z" style="fill-rule:nonzero;"/><path d="M343.86,175.58C344.196,175.58 344.5,175.526 344.773,175.419C345.046,175.311 345.28,175.162 345.473,174.971C345.667,174.779 345.816,174.553 345.921,174.292C346.026,174.03 346.079,173.746 346.079,173.438C346.079,173.111 346.028,172.816 345.925,172.552C345.822,172.289 345.676,172.065 345.487,171.88C345.298,171.696 345.073,171.555 344.812,171.457C344.551,171.359 344.264,171.31 343.951,171.31C343.615,171.31 343.312,171.367 343.041,171.481C342.77,171.596 342.54,171.75 342.351,171.943C342.162,172.137 342.018,172.361 341.917,172.615C341.817,172.87 341.767,173.134 341.767,173.41C341.767,173.732 341.814,174.026 341.907,174.292C342,174.558 342.137,174.786 342.316,174.978C342.496,175.169 342.715,175.317 342.974,175.422C343.233,175.527 343.529,175.58 343.86,175.58ZM343.132,170.232C343.043,170.344 342.958,170.452 342.876,170.557C342.795,170.662 342.717,170.766 342.642,170.869C342.88,170.705 343.141,170.579 343.426,170.491C343.711,170.402 344.021,170.358 344.357,170.358C344.763,170.358 345.146,170.424 345.505,170.557C345.864,170.69 346.178,170.884 346.446,171.138C346.715,171.393 346.928,171.705 347.087,172.076C347.246,172.447 347.325,172.871 347.325,173.347C347.325,173.809 347.241,174.238 347.073,174.635C346.905,175.031 346.67,175.377 346.369,175.671C346.068,175.965 345.707,176.196 345.284,176.364C344.862,176.532 344.397,176.616 343.888,176.616C343.384,176.616 342.927,176.535 342.516,176.374C342.105,176.213 341.756,175.985 341.469,175.688C341.182,175.392 340.961,175.033 340.804,174.61C340.648,174.188 340.57,173.715 340.57,173.193C340.57,172.754 340.667,172.286 340.86,171.789C341.054,171.292 341.363,170.761 341.788,170.197L344.336,166.774C344.401,166.69 344.491,166.619 344.605,166.56C344.72,166.502 344.852,166.473 345.001,166.473L346.107,166.473L343.132,170.232Z" style="fill-rule:nonzero;"/><path d="M350.468,170.26C350.991,170.148 351.471,170.092 351.91,170.092C352.433,170.092 352.895,170.169 353.296,170.323C353.697,170.477 354.032,170.689 354.3,170.96C354.569,171.23 354.772,171.55 354.909,171.919C355.047,172.287 355.116,172.689 355.116,173.123C355.116,173.655 355.024,174.135 354.839,174.565C354.655,174.994 354.401,175.362 354.076,175.667C353.752,175.973 353.371,176.207 352.932,176.371C352.493,176.534 352.02,176.616 351.511,176.616C351.217,176.616 350.935,176.587 350.664,176.528C350.393,176.47 350.14,176.392 349.904,176.294C349.669,176.196 349.451,176.084 349.25,175.958C349.049,175.832 348.872,175.699 348.718,175.559L349.103,175.027C349.187,174.905 349.297,174.845 349.432,174.845C349.525,174.845 349.63,174.881 349.747,174.953C349.864,175.026 350.006,175.106 350.174,175.195C350.342,175.283 350.539,175.364 350.765,175.436C350.992,175.509 351.261,175.545 351.574,175.545C351.924,175.545 352.239,175.489 352.519,175.377C352.799,175.265 353.039,175.105 353.24,174.897C353.441,174.69 353.595,174.441 353.702,174.152C353.809,173.862 353.863,173.538 353.863,173.179C353.863,172.866 353.817,172.584 353.726,172.332C353.635,172.08 353.498,171.865 353.313,171.688C353.129,171.51 352.899,171.373 352.624,171.275C352.349,171.177 352.027,171.128 351.658,171.128C351.406,171.128 351.143,171.149 350.87,171.191C350.597,171.233 350.319,171.3 350.034,171.394L349.25,171.163L350.055,166.473L354.808,166.473L354.808,167.019C354.808,167.196 354.753,167.342 354.643,167.456C354.534,167.571 354.346,167.628 354.08,167.628L350.93,167.628L350.468,170.26Z" style="fill-rule:nonzero;"/><path d="M358.588,170.26C359.111,170.148 359.591,170.092 360.03,170.092C360.553,170.092 361.015,170.169 361.416,170.323C361.817,170.477 362.152,170.689 362.42,170.96C362.689,171.23 362.892,171.55 363.029,171.919C363.167,172.287 363.236,172.689 363.236,173.123C363.236,173.655 363.144,174.135 362.959,174.565C362.775,174.994 362.521,175.362 362.196,175.667C361.872,175.973 361.491,176.207 361.052,176.371C360.613,176.534 360.14,176.616 359.631,176.616C359.337,176.616 359.055,176.587 358.784,176.528C358.513,176.47 358.26,176.392 358.024,176.294C357.789,176.196 357.571,176.084 357.37,175.958C357.169,175.832 356.992,175.699 356.838,175.559L357.223,175.027C357.307,174.905 357.417,174.845 357.552,174.845C357.645,174.845 357.75,174.881 357.867,174.953C357.984,175.026 358.126,175.106 358.294,175.195C358.462,175.283 358.659,175.364 358.885,175.436C359.112,175.509 359.381,175.545 359.694,175.545C360.044,175.545 360.359,175.489 360.639,175.377C360.919,175.265 361.159,175.105 361.36,174.897C361.561,174.69 361.715,174.441 361.822,174.152C361.929,173.862 361.983,173.538 361.983,173.179C361.983,172.866 361.937,172.584 361.846,172.332C361.755,172.08 361.618,171.865 361.433,171.688C361.249,171.51 361.019,171.373 360.744,171.275C360.469,171.177 360.147,171.128 359.778,171.128C359.526,171.128 359.263,171.149 358.99,171.191C358.717,171.233 358.439,171.3 358.154,171.394L357.37,171.163L358.175,166.473L362.928,166.473L362.928,167.019C362.928,167.196 362.873,167.342 362.763,167.456C362.654,167.571 362.466,167.628 362.2,167.628L359.05,167.628L358.588,170.26Z" style="fill-rule:nonzero;"/><path d="M369.284,172.885L369.284,168.748C369.284,168.626 369.289,168.493 369.298,168.349C369.307,168.204 369.321,168.057 369.34,167.908L365.686,172.885L369.284,172.885ZM371.895,172.885L371.895,173.599C371.895,173.673 371.873,173.736 371.828,173.788C371.784,173.839 371.715,173.865 371.622,173.865L370.376,173.865L370.376,176.504L369.284,176.504L369.284,173.865L364.832,173.865C364.739,173.865 364.658,173.838 364.59,173.784C364.523,173.731 364.48,173.664 364.461,173.585L364.335,172.948L369.214,166.473L370.376,166.473L370.376,172.885L371.895,172.885Z" style="fill-rule:nonzero;"/><path d="M379.994,171.492C379.994,172.369 379.899,173.129 379.71,173.77C379.521,174.412 379.264,174.943 378.937,175.363C378.61,175.783 378.224,176.095 377.778,176.301C377.333,176.506 376.856,176.609 376.347,176.609C375.834,176.609 375.356,176.506 374.915,176.301C374.474,176.095 374.091,175.783 373.764,175.363C373.437,174.943 373.181,174.412 372.994,173.77C372.807,173.129 372.714,172.369 372.714,171.492C372.714,170.614 372.807,169.854 372.994,169.21C373.181,168.566 373.437,168.033 373.764,167.61C374.091,167.188 374.474,166.874 374.915,166.669C375.356,166.463 375.834,166.361 376.347,166.361C376.856,166.361 377.333,166.463 377.778,166.669C378.224,166.874 378.61,167.188 378.937,167.61C379.264,168.033 379.521,168.566 379.71,169.21C379.899,169.854 379.994,170.614 379.994,171.492ZM378.699,171.492C378.699,170.726 378.635,170.084 378.506,169.563C378.378,169.043 378.205,168.624 377.988,168.307C377.771,167.989 377.521,167.762 377.236,167.624C376.951,167.487 376.655,167.418 376.347,167.418C376.039,167.418 375.743,167.487 375.458,167.624C375.173,167.762 374.924,167.989 374.709,168.307C374.494,168.624 374.323,169.043 374.194,169.563C374.066,170.084 374.002,170.726 374.002,171.492C374.002,172.257 374.066,172.899 374.194,173.417C374.323,173.935 374.494,174.352 374.709,174.67C374.924,174.987 375.173,175.215 375.458,175.352C375.743,175.49 376.039,175.559 376.347,175.559C376.655,175.559 376.951,175.49 377.236,175.352C377.521,175.215 377.771,174.987 377.988,174.67C378.205,174.352 378.378,173.935 378.506,173.417C378.635,172.899 378.699,172.257 378.699,171.492Z" style="fill-rule:nonzero;"/><ellipse cx="190.743" cy="264.856" rx="44.264" ry="28.923" style="fill:rgb(200,255,106);fill-opacity:0.6;stroke:rgb(136,138,133);stroke-width:1px;stroke-miterlimit:1.41421;"/><path d="M168.275,266.044L166.7,261.963C166.653,261.841 166.604,261.7 166.553,261.539C166.501,261.378 166.452,261.207 166.406,261.025C166.308,261.403 166.207,261.718 166.105,261.97L164.53,266.044L168.275,266.044ZM171.103,269.768L170.053,269.768C169.931,269.768 169.833,269.737 169.759,269.677C169.684,269.616 169.628,269.539 169.591,269.446L168.653,267.024L164.152,267.024L163.214,269.446C163.186,269.53 163.132,269.604 163.053,269.67C162.973,269.735 162.875,269.768 162.759,269.768L161.709,269.768L165.72,259.737L167.092,259.737L171.103,269.768Z" style="fill-rule:nonzero;"/><path d="M177.557,261.305C177.515,261.375 177.469,261.427 177.42,261.462C177.371,261.497 177.312,261.515 177.242,261.515C177.162,261.515 177.069,261.475 176.962,261.396C176.854,261.316 176.72,261.229 176.559,261.133C176.398,261.038 176.204,260.95 175.978,260.871C175.752,260.791 175.478,260.752 175.156,260.752C174.852,260.752 174.585,260.793 174.354,260.874C174.123,260.956 173.929,261.067 173.773,261.207C173.617,261.347 173.499,261.511 173.42,261.7C173.34,261.889 173.301,262.093 173.301,262.313C173.301,262.593 173.369,262.825 173.507,263.009C173.645,263.194 173.827,263.351 174.053,263.482C174.279,263.612 174.536,263.726 174.823,263.821C175.11,263.917 175.404,264.016 175.705,264.119C176.006,264.221 176.3,264.337 176.587,264.465C176.874,264.594 177.131,264.756 177.357,264.952C177.583,265.148 177.765,265.388 177.903,265.673C178.041,265.957 178.11,266.307 178.11,266.723C178.11,267.161 178.035,267.573 177.886,267.958C177.736,268.343 177.518,268.678 177.231,268.963C176.944,269.247 176.592,269.471 176.174,269.635C175.756,269.798 175.282,269.88 174.75,269.88C174.096,269.88 173.504,269.762 172.972,269.526C172.44,269.291 171.985,268.972 171.607,268.571L171.999,267.927C172.036,267.875 172.081,267.832 172.135,267.797C172.189,267.762 172.248,267.745 172.314,267.745C172.374,267.745 172.443,267.769 172.52,267.818C172.597,267.867 172.685,267.929 172.783,268.004C172.881,268.078 172.993,268.16 173.119,268.249C173.245,268.337 173.388,268.419 173.549,268.494C173.71,268.568 173.893,268.63 174.099,268.679C174.304,268.728 174.535,268.753 174.792,268.753C175.114,268.753 175.401,268.708 175.653,268.62C175.905,268.531 176.118,268.406 176.293,268.245C176.468,268.084 176.602,267.892 176.696,267.668C176.789,267.444 176.836,267.194 176.836,266.919C176.836,266.615 176.767,266.367 176.629,266.173C176.491,265.98 176.311,265.817 176.087,265.687C175.863,265.556 175.606,265.445 175.317,265.354C175.027,265.263 174.733,265.17 174.435,265.074C174.136,264.979 173.842,264.868 173.553,264.742C173.263,264.616 173.007,264.452 172.783,264.252C172.559,264.051 172.378,263.8 172.24,263.499C172.102,263.198 172.034,262.826 172.034,262.383C172.034,262.028 172.102,261.685 172.24,261.354C172.378,261.022 172.578,260.728 172.842,260.472C173.106,260.215 173.43,260.01 173.815,259.856C174.2,259.702 174.642,259.625 175.142,259.625C175.702,259.625 176.211,259.713 176.671,259.891C177.131,260.068 177.536,260.325 177.886,260.661L177.557,261.305Z" style="fill-rule:nonzero;"/><path d="M182.786,268.844C183.122,268.844 183.426,268.79 183.699,268.683C183.972,268.575 184.205,268.426 184.399,268.235C184.593,268.043 184.742,267.817 184.847,267.556C184.952,267.294 185.005,267.01 185.005,266.702C185.005,266.375 184.953,266.08 184.851,265.816C184.748,265.553 184.602,265.329 184.413,265.144C184.224,264.96 183.999,264.819 183.738,264.721C183.476,264.623 183.189,264.574 182.877,264.574C182.541,264.574 182.237,264.631 181.967,264.745C181.696,264.86 181.466,265.014 181.277,265.207C181.088,265.401 180.943,265.625 180.843,265.879C180.743,266.134 180.693,266.398 180.693,266.674C180.693,266.996 180.739,267.29 180.833,267.556C180.926,267.822 181.062,268.05 181.242,268.242C181.422,268.433 181.641,268.581 181.9,268.686C182.159,268.791 182.454,268.844 182.786,268.844ZM182.058,263.496C181.969,263.608 181.884,263.716 181.802,263.821C181.72,263.926 181.642,264.03 181.568,264.133C181.806,263.969 182.067,263.843 182.352,263.755C182.636,263.666 182.947,263.622 183.283,263.622C183.689,263.622 184.071,263.688 184.431,263.821C184.79,263.954 185.104,264.148 185.372,264.402C185.64,264.657 185.854,264.969 186.013,265.34C186.171,265.711 186.251,266.135 186.251,266.611C186.251,267.073 186.167,267.502 185.999,267.899C185.831,268.295 185.596,268.641 185.295,268.935C184.994,269.229 184.632,269.46 184.21,269.628C183.788,269.796 183.322,269.88 182.814,269.88C182.31,269.88 181.852,269.799 181.442,269.638C181.031,269.477 180.682,269.249 180.395,268.952C180.108,268.656 179.886,268.297 179.73,267.874C179.574,267.452 179.496,266.979 179.496,266.457C179.496,266.018 179.592,265.55 179.786,265.053C179.98,264.556 180.289,264.025 180.714,263.461L183.262,260.038C183.327,259.954 183.417,259.883 183.531,259.824C183.645,259.766 183.777,259.737 183.927,259.737L185.033,259.737L182.058,263.496Z" style="fill-rule:nonzero;"/><path d="M189.394,263.524C189.916,263.412 190.397,263.356 190.836,263.356C191.358,263.356 191.82,263.433 192.222,263.587C192.623,263.741 192.958,263.953 193.226,264.224C193.494,264.494 193.697,264.814 193.835,265.183C193.973,265.551 194.042,265.953 194.042,266.387C194.042,266.919 193.949,267.399 193.765,267.829C193.581,268.258 193.326,268.626 193.002,268.931C192.678,269.237 192.296,269.471 191.858,269.635C191.419,269.798 190.945,269.88 190.437,269.88C190.143,269.88 189.86,269.851 189.59,269.792C189.319,269.734 189.066,269.656 188.83,269.558C188.594,269.46 188.376,269.348 188.176,269.222C187.975,269.096 187.798,268.963 187.644,268.823L188.029,268.291C188.113,268.169 188.222,268.109 188.358,268.109C188.451,268.109 188.556,268.145 188.673,268.217C188.789,268.29 188.932,268.37 189.1,268.459C189.268,268.547 189.465,268.628 189.691,268.7C189.917,268.773 190.187,268.809 190.5,268.809C190.85,268.809 191.165,268.753 191.445,268.641C191.725,268.529 191.965,268.369 192.166,268.161C192.366,267.954 192.52,267.705 192.628,267.416C192.735,267.126 192.789,266.802 192.789,266.443C192.789,266.13 192.743,265.848 192.652,265.596C192.561,265.344 192.423,265.129 192.239,264.952C192.055,264.774 191.825,264.637 191.55,264.539C191.274,264.441 190.952,264.392 190.584,264.392C190.332,264.392 190.069,264.413 189.796,264.455C189.523,264.497 189.244,264.564 188.96,264.658L188.176,264.427L188.981,259.737L193.734,259.737L193.734,260.283C193.734,260.46 193.679,260.606 193.569,260.72C193.459,260.835 193.272,260.892 193.006,260.892L189.856,260.892L189.394,263.524Z" style="fill-rule:nonzero;"/><path d="M197.514,263.524C198.036,263.412 198.517,263.356 198.956,263.356C199.478,263.356 199.94,263.433 200.342,263.587C200.743,263.741 201.078,263.953 201.346,264.224C201.614,264.494 201.817,264.814 201.955,265.183C202.093,265.551 202.162,265.953 202.162,266.387C202.162,266.919 202.069,267.399 201.885,267.829C201.701,268.258 201.446,268.626 201.122,268.931C200.798,269.237 200.416,269.471 199.978,269.635C199.539,269.798 199.065,269.88 198.557,269.88C198.263,269.88 197.98,269.851 197.71,269.792C197.439,269.734 197.186,269.656 196.95,269.558C196.714,269.46 196.496,269.348 196.296,269.222C196.095,269.096 195.918,268.963 195.764,268.823L196.149,268.291C196.233,268.169 196.342,268.109 196.478,268.109C196.571,268.109 196.676,268.145 196.793,268.217C196.909,268.29 197.052,268.37 197.22,268.459C197.388,268.547 197.585,268.628 197.811,268.7C198.037,268.773 198.307,268.809 198.62,268.809C198.97,268.809 199.285,268.753 199.565,268.641C199.845,268.529 200.085,268.369 200.286,268.161C200.486,267.954 200.64,267.705 200.748,267.416C200.855,267.126 200.909,266.802 200.909,266.443C200.909,266.13 200.863,265.848 200.772,265.596C200.681,265.344 200.543,265.129 200.359,264.952C200.175,264.774 199.945,264.637 199.67,264.539C199.394,264.441 199.072,264.392 198.704,264.392C198.452,264.392 198.189,264.413 197.916,264.455C197.643,264.497 197.364,264.564 197.08,264.658L196.296,264.427L197.101,259.737L201.854,259.737L201.854,260.283C201.854,260.46 201.799,260.606 201.689,260.72C201.579,260.835 201.392,260.892 201.126,260.892L197.976,260.892L197.514,263.524Z" style="fill-rule:nonzero;"/><path d="M205.634,263.524C206.156,263.412 206.637,263.356 207.076,263.356C207.598,263.356 208.06,263.433 208.462,263.587C208.863,263.741 209.198,263.953 209.466,264.224C209.734,264.494 209.937,264.814 210.075,265.183C210.213,265.551 210.282,265.953 210.282,266.387C210.282,266.919 210.189,267.399 210.005,267.829C209.821,268.258 209.566,268.626 209.242,268.931C208.918,269.237 208.536,269.471 208.098,269.635C207.659,269.798 207.185,269.88 206.677,269.88C206.383,269.88 206.1,269.851 205.83,269.792C205.559,269.734 205.306,269.656 205.07,269.558C204.834,269.46 204.616,269.348 204.416,269.222C204.215,269.096 204.038,268.963 203.884,268.823L204.269,268.291C204.353,268.169 204.462,268.109 204.598,268.109C204.691,268.109 204.796,268.145 204.913,268.217C205.029,268.29 205.172,268.37 205.34,268.459C205.508,268.547 205.705,268.628 205.931,268.7C206.157,268.773 206.427,268.809 206.74,268.809C207.09,268.809 207.405,268.753 207.685,268.641C207.965,268.529 208.205,268.369 208.406,268.161C208.606,267.954 208.76,267.705 208.868,267.416C208.975,267.126 209.029,266.802 209.029,266.443C209.029,266.13 208.983,265.848 208.892,265.596C208.801,265.344 208.663,265.129 208.479,264.952C208.295,264.774 208.065,264.637 207.79,264.539C207.514,264.441 207.192,264.392 206.824,264.392C206.572,264.392 206.309,264.413 206.036,264.455C205.763,264.497 205.484,264.564 205.2,264.658L204.416,264.427L205.221,259.737L209.974,259.737L209.974,260.283C209.974,260.46 209.919,260.606 209.809,260.72C209.699,260.835 209.512,260.892 209.246,260.892L206.096,260.892L205.634,263.524Z" style="fill-rule:nonzero;"/><path d="M218.92,264.756C218.92,265.633 218.825,266.393 218.636,267.034C218.447,267.676 218.189,268.207 217.863,268.627C217.536,269.047 217.15,269.359 216.704,269.565C216.258,269.77 215.781,269.873 215.273,269.873C214.759,269.873 214.282,269.77 213.841,269.565C213.4,269.359 213.016,269.047 212.69,268.627C212.363,268.207 212.106,267.676 211.92,267.034C211.733,266.393 211.64,265.633 211.64,264.756C211.64,263.878 211.733,263.118 211.92,262.474C212.106,261.83 212.363,261.297 212.69,260.874C213.016,260.452 213.4,260.138 213.841,259.933C214.282,259.727 214.759,259.625 215.273,259.625C215.781,259.625 216.258,259.727 216.704,259.933C217.15,260.138 217.536,260.452 217.863,260.874C218.189,261.297 218.447,261.83 218.636,262.474C218.825,263.118 218.92,263.878 218.92,264.756ZM217.625,264.756C217.625,263.99 217.56,263.348 217.432,262.827C217.304,262.307 217.131,261.888 216.914,261.571C216.697,261.253 216.446,261.026 216.162,260.888C215.877,260.751 215.581,260.682 215.273,260.682C214.965,260.682 214.668,260.751 214.384,260.888C214.099,261.026 213.849,261.253 213.635,261.571C213.42,261.888 213.248,262.307 213.12,262.827C212.992,263.348 212.928,263.99 212.928,264.756C212.928,265.521 212.992,266.163 213.12,266.681C213.248,267.199 213.42,267.616 213.635,267.934C213.849,268.251 214.099,268.479 214.384,268.616C214.668,268.754 214.965,268.823 215.273,268.823C215.581,268.823 215.877,268.754 216.162,268.616C216.446,268.479 216.697,268.251 216.914,267.934C217.131,267.616 217.304,267.199 217.432,266.681C217.56,266.163 217.625,265.521 217.625,264.756Z" style="fill-rule:nonzero;"/><ellipse cx="286.045" cy="310.491" rx="44.264" ry="28.923" style="fill:rgb(200,255,106);fill-opacity:0.6;stroke:rgb(136,138,133);stroke-width:1px;stroke-miterlimit:1.41421;"/><path d="M263.576,311.679L262.001,307.598C261.955,307.476 261.906,307.335 261.854,307.174C261.803,307.013 261.754,306.842 261.707,306.66C261.609,307.038 261.509,307.353 261.406,307.605L259.831,311.679L263.576,311.679ZM266.404,315.403L265.354,315.403C265.233,315.403 265.135,315.372 265.06,315.312C264.986,315.251 264.93,315.174 264.892,315.081L263.954,312.659L259.453,312.659L258.515,315.081C258.487,315.165 258.434,315.239 258.354,315.305C258.275,315.37 258.177,315.403 258.06,315.403L257.01,315.403L261.021,305.372L262.393,305.372L266.404,315.403Z" style="fill-rule:nonzero;"/><path d="M272.858,306.94C272.816,307.01 272.771,307.062 272.722,307.097C272.673,307.132 272.613,307.15 272.543,307.15C272.464,307.15 272.371,307.11 272.263,307.031C272.156,306.951 272.022,306.864 271.861,306.768C271.7,306.672 271.506,306.585 271.28,306.506C271.053,306.426 270.779,306.387 270.457,306.387C270.154,306.387 269.887,306.427 269.656,306.509C269.425,306.591 269.231,306.702 269.075,306.842C268.918,306.982 268.801,307.146 268.721,307.335C268.642,307.524 268.602,307.728 268.602,307.948C268.602,308.228 268.671,308.46 268.809,308.644C268.946,308.828 269.128,308.986 269.355,309.117C269.581,309.247 269.838,309.36 270.125,309.456C270.412,309.552 270.706,309.651 271.007,309.754C271.308,309.856 271.602,309.972 271.889,310.1C272.176,310.228 272.432,310.391 272.659,310.587C272.885,310.783 273.067,311.023 273.205,311.308C273.342,311.592 273.411,311.942 273.411,312.358C273.411,312.796 273.337,313.208 273.187,313.593C273.038,313.978 272.82,314.313 272.533,314.598C272.246,314.882 271.893,315.106 271.476,315.27C271.058,315.433 270.583,315.515 270.051,315.515C269.398,315.515 268.805,315.397 268.273,315.161C267.741,314.925 267.286,314.607 266.908,314.206L267.3,313.562C267.338,313.51 267.383,313.467 267.437,313.432C267.49,313.397 267.55,313.38 267.615,313.38C267.676,313.38 267.745,313.404 267.822,313.453C267.899,313.502 267.986,313.564 268.084,313.639C268.182,313.713 268.294,313.795 268.42,313.884C268.546,313.972 268.69,314.054 268.851,314.129C269.012,314.203 269.195,314.265 269.4,314.314C269.606,314.363 269.837,314.388 270.093,314.388C270.415,314.388 270.702,314.343 270.954,314.255C271.206,314.166 271.42,314.041 271.595,313.88C271.77,313.719 271.904,313.527 271.997,313.303C272.091,313.079 272.137,312.829 272.137,312.554C272.137,312.25 272.068,312.002 271.931,311.808C271.793,311.614 271.612,311.452 271.388,311.322C271.164,311.191 270.908,311.08 270.618,310.989C270.329,310.898 270.035,310.805 269.736,310.709C269.438,310.613 269.144,310.503 268.854,310.377C268.565,310.251 268.308,310.087 268.084,309.887C267.86,309.686 267.679,309.435 267.542,309.134C267.404,308.833 267.335,308.461 267.335,308.018C267.335,307.663 267.404,307.32 267.542,306.989C267.679,306.657 267.88,306.363 268.144,306.107C268.407,305.85 268.732,305.645 269.117,305.491C269.502,305.337 269.944,305.26 270.443,305.26C271.003,305.26 271.513,305.348 271.973,305.526C272.432,305.703 272.837,305.96 273.187,306.296L272.858,306.94Z" style="fill-rule:nonzero;"/><path d="M278.087,314.479C278.423,314.479 278.728,314.425 279.001,314.318C279.274,314.21 279.507,314.061 279.701,313.87C279.894,313.678 280.044,313.452 280.149,313.191C280.254,312.929 280.306,312.645 280.306,312.337C280.306,312.01 280.255,311.715 280.152,311.451C280.05,311.187 279.904,310.963 279.715,310.779C279.526,310.595 279.301,310.454 279.039,310.356C278.778,310.258 278.491,310.209 278.178,310.209C277.842,310.209 277.539,310.266 277.268,310.38C276.998,310.494 276.768,310.648 276.579,310.842C276.39,311.036 276.245,311.26 276.145,311.514C276.044,311.768 275.994,312.033 275.994,312.309C275.994,312.631 276.041,312.925 276.134,313.191C276.228,313.457 276.364,313.685 276.544,313.877C276.723,314.068 276.943,314.216 277.202,314.321C277.461,314.426 277.756,314.479 278.087,314.479ZM277.359,309.131C277.271,309.243 277.185,309.351 277.104,309.456C277.022,309.561 276.944,309.665 276.869,309.768C277.107,309.604 277.369,309.478 277.653,309.39C277.938,309.301 278.248,309.257 278.584,309.257C278.99,309.257 279.373,309.323 279.732,309.456C280.092,309.589 280.405,309.783 280.674,310.037C280.942,310.291 281.156,310.604 281.314,310.975C281.473,311.346 281.552,311.77 281.552,312.246C281.552,312.708 281.468,313.137 281.3,313.534C281.132,313.93 280.898,314.276 280.597,314.57C280.296,314.864 279.934,315.095 279.512,315.263C279.089,315.431 278.624,315.515 278.115,315.515C277.611,315.515 277.154,315.434 276.743,315.273C276.333,315.112 275.984,314.883 275.697,314.587C275.41,314.291 275.188,313.931 275.032,313.509C274.875,313.087 274.797,312.614 274.797,312.092C274.797,311.653 274.894,311.185 275.088,310.688C275.281,310.191 275.591,309.66 276.015,309.096L278.563,305.673C278.629,305.589 278.718,305.517 278.833,305.459C278.947,305.401 279.079,305.372 279.228,305.372L280.334,305.372L277.359,309.131Z" style="fill-rule:nonzero;"/><path d="M284.695,309.159C285.218,309.047 285.699,308.991 286.137,308.991C286.66,308.991 287.122,309.068 287.523,309.222C287.925,309.376 288.259,309.588 288.528,309.859C288.796,310.129 288.999,310.449 289.137,310.818C289.274,311.186 289.343,311.588 289.343,312.022C289.343,312.554 289.251,313.034 289.067,313.464C288.882,313.893 288.628,314.26 288.304,314.566C287.979,314.872 287.598,315.106 287.159,315.27C286.721,315.433 286.247,315.515 285.738,315.515C285.444,315.515 285.162,315.485 284.891,315.427C284.621,315.369 284.367,315.291 284.132,315.193C283.896,315.095 283.678,314.983 283.477,314.857C283.277,314.731 283.099,314.598 282.945,314.458L283.33,313.926C283.414,313.804 283.524,313.744 283.659,313.744C283.753,313.744 283.858,313.78 283.974,313.852C284.091,313.924 284.233,314.005 284.401,314.094C284.569,314.182 284.766,314.263 284.993,314.335C285.219,314.407 285.489,314.444 285.801,314.444C286.151,314.444 286.466,314.388 286.746,314.276C287.026,314.164 287.267,314.004 287.467,313.796C287.668,313.588 287.822,313.34 287.929,313.051C288.037,312.761 288.09,312.437 288.09,312.078C288.09,311.765 288.045,311.483 287.954,311.231C287.863,310.979 287.725,310.764 287.541,310.587C287.356,310.409 287.127,310.272 286.851,310.174C286.576,310.076 286.254,310.027 285.885,310.027C285.633,310.027 285.371,310.048 285.098,310.09C284.825,310.132 284.546,310.199 284.261,310.293L283.477,310.062L284.282,305.372L289.035,305.372L289.035,305.918C289.035,306.095 288.98,306.241 288.871,306.355C288.761,306.469 288.573,306.527 288.307,306.527L285.157,306.527L284.695,309.159Z" style="fill-rule:nonzero;"/><path d="M292.815,309.159C293.338,309.047 293.819,308.991 294.257,308.991C294.78,308.991 295.242,309.068 295.643,309.222C296.045,309.376 296.379,309.588 296.648,309.859C296.916,310.129 297.119,310.449 297.257,310.818C297.394,311.186 297.463,311.588 297.463,312.022C297.463,312.554 297.371,313.034 297.187,313.464C297.002,313.893 296.748,314.26 296.424,314.566C296.099,314.872 295.718,315.106 295.279,315.27C294.841,315.433 294.367,315.515 293.858,315.515C293.564,315.515 293.282,315.485 293.011,315.427C292.741,315.369 292.487,315.291 292.252,315.193C292.016,315.095 291.798,314.983 291.597,314.857C291.397,314.731 291.219,314.598 291.065,314.458L291.45,313.926C291.534,313.804 291.644,313.744 291.779,313.744C291.873,313.744 291.978,313.78 292.094,313.852C292.211,313.924 292.353,314.005 292.521,314.094C292.689,314.182 292.886,314.263 293.113,314.335C293.339,314.407 293.609,314.444 293.921,314.444C294.271,314.444 294.586,314.388 294.866,314.276C295.146,314.164 295.387,314.004 295.587,313.796C295.788,313.588 295.942,313.34 296.049,313.051C296.157,312.761 296.21,312.437 296.21,312.078C296.21,311.765 296.165,311.483 296.074,311.231C295.983,310.979 295.845,310.764 295.661,310.587C295.476,310.409 295.247,310.272 294.971,310.174C294.696,310.076 294.374,310.027 294.005,310.027C293.753,310.027 293.491,310.048 293.218,310.09C292.945,310.132 292.666,310.199 292.381,310.293L291.597,310.062L292.402,305.372L297.155,305.372L297.155,305.918C297.155,306.095 297.1,306.241 296.991,306.355C296.881,306.469 296.693,306.527 296.427,306.527L293.277,306.527L292.815,309.159Z" style="fill-rule:nonzero;"/><path d="M299.311,308.088C299.377,307.63 299.503,307.225 299.689,306.873C299.876,306.521 300.113,306.226 300.4,305.988C300.687,305.75 301.016,305.569 301.387,305.445C301.758,305.321 302.158,305.26 302.587,305.26C303.012,305.26 303.404,305.32 303.763,305.442C304.123,305.563 304.432,305.736 304.691,305.96C304.95,306.184 305.152,306.454 305.296,306.772C305.441,307.089 305.513,307.441 305.513,307.829C305.513,308.146 305.472,308.429 305.391,308.679C305.309,308.929 305.192,309.147 305.041,309.334C304.889,309.52 304.706,309.679 304.491,309.81C304.277,309.94 304.036,310.048 303.77,310.132C304.424,310.3 304.915,310.588 305.244,310.996C305.573,311.404 305.737,311.914 305.737,312.526C305.737,312.988 305.65,313.403 305.475,313.772C305.3,314.14 305.061,314.454 304.757,314.713C304.454,314.972 304.1,315.17 303.697,315.308C303.293,315.446 302.86,315.515 302.398,315.515C301.866,315.515 301.411,315.448 301.033,315.315C300.655,315.182 300.336,314.999 300.074,314.766C299.813,314.532 299.598,314.256 299.43,313.936C299.262,313.616 299.12,313.27 299.003,312.897L299.542,312.673C299.682,312.612 299.819,312.596 299.952,312.624C300.085,312.652 300.182,312.729 300.242,312.855C300.303,312.985 300.379,313.142 300.47,313.324C300.561,313.506 300.686,313.681 300.844,313.849C301.003,314.017 301.205,314.159 301.45,314.276C301.695,314.392 302.006,314.451 302.384,314.451C302.734,314.451 303.041,314.393 303.305,314.279C303.568,314.165 303.788,314.017 303.963,313.835C304.138,313.653 304.27,313.45 304.358,313.226C304.447,313.002 304.491,312.78 304.491,312.561C304.491,312.29 304.456,312.043 304.386,311.819C304.316,311.595 304.186,311.401 303.994,311.238C303.803,311.074 303.54,310.946 303.207,310.853C302.873,310.759 302.445,310.713 301.922,310.713L301.922,309.81C302.352,309.805 302.717,309.758 303.018,309.67C303.319,309.581 303.564,309.46 303.753,309.306C303.942,309.152 304.079,308.967 304.166,308.753C304.252,308.538 304.295,308.3 304.295,308.039C304.295,307.749 304.25,307.497 304.159,307.283C304.068,307.068 303.943,306.891 303.784,306.751C303.626,306.611 303.438,306.506 303.221,306.436C303.004,306.366 302.769,306.331 302.517,306.331C302.265,306.331 302.031,306.368 301.814,306.443C301.597,306.517 301.405,306.621 301.24,306.754C301.074,306.887 300.935,307.045 300.823,307.227C300.711,307.409 300.632,307.609 300.585,307.829C300.525,307.992 300.449,308.1 300.358,308.154C300.267,308.208 300.135,308.223 299.962,308.2L299.311,308.088Z" style="fill-rule:nonzero;"/><path d="M310.567,314.479C310.903,314.479 311.208,314.425 311.481,314.318C311.754,314.21 311.987,314.061 312.181,313.87C312.374,313.678 312.524,313.452 312.629,313.191C312.734,312.929 312.786,312.645 312.786,312.337C312.786,312.01 312.735,311.715 312.632,311.451C312.53,311.187 312.384,310.963 312.195,310.779C312.006,310.595 311.781,310.454 311.519,310.356C311.258,310.258 310.971,310.209 310.658,310.209C310.322,310.209 310.019,310.266 309.748,310.38C309.478,310.494 309.248,310.648 309.059,310.842C308.87,311.036 308.725,311.26 308.625,311.514C308.524,311.768 308.474,312.033 308.474,312.309C308.474,312.631 308.521,312.925 308.614,313.191C308.708,313.457 308.844,313.685 309.024,313.877C309.203,314.068 309.423,314.216 309.682,314.321C309.941,314.426 310.236,314.479 310.567,314.479ZM309.839,309.131C309.751,309.243 309.665,309.351 309.584,309.456C309.502,309.561 309.424,309.665 309.349,309.768C309.587,309.604 309.849,309.478 310.133,309.39C310.418,309.301 310.728,309.257 311.064,309.257C311.47,309.257 311.853,309.323 312.212,309.456C312.572,309.589 312.885,309.783 313.154,310.037C313.422,310.291 313.636,310.604 313.794,310.975C313.953,311.346 314.032,311.77 314.032,312.246C314.032,312.708 313.948,313.137 313.78,313.534C313.612,313.93 313.378,314.276 313.077,314.57C312.776,314.864 312.414,315.095 311.992,315.263C311.569,315.431 311.104,315.515 310.595,315.515C310.091,315.515 309.634,315.434 309.223,315.273C308.813,315.112 308.464,314.883 308.177,314.587C307.89,314.291 307.668,313.931 307.512,313.509C307.355,313.087 307.277,312.614 307.277,312.092C307.277,311.653 307.374,311.185 307.568,310.688C307.761,310.191 308.071,309.66 308.495,309.096L311.043,305.673C311.109,305.589 311.198,305.517 311.313,305.459C311.427,305.401 311.559,305.372 311.708,305.372L312.814,305.372L309.839,309.131Z" style="fill-rule:nonzero;"/></svg>