<?xml version="1.0" encoding="UTF-8" standalone="no"?>
<!DOCTYPE svg PUBLIC "-//W3C//DTD SVG 1.1//EN" "http://www.w3.org/Graphics/SVG/1.1/DTD/svg11.dtd">
<svg width="100%" height="100%" viewBox="0 0 500 400" version="1.1" xmlns="http://www.w3.org/2000/svg" xmlns:xlink="http://www.w3.org/1999/xlink" xml:space="preserve" xmlns:serif="http://www.serif.com/" style="fill-rule:evenodd;clip-rule:evenodd;stroke-linecap:round;stroke-linejoin:round;stroke-miterlimit:1.5;">
    <path d="M244.918,61.507L244.918,102.022" style="stroke:rgb(11,205,41);stroke-width:3px;"/>
    <path d="M258.501,61.507L258.501,102.022" style="stroke:rgb(255,66,66);stroke-width:6px;"/>
    <path d="M229.995,135.344L169.677,168.581" style="stroke:rgb(255,66,66);stroke-width:6px;"/>
    <path d="M156.811,193.29L188.347,243.3" style="stroke:rgb(255,66,66);stroke-width:6px;"/>
    <path d="M229.305,121.141L166.436,155.074" style="stroke:rgb(11,205,41);stroke-width:3px;"/>
    <path d="M173.579,245.854L150.306,208.563" style="stroke:rgb(11,205,41);stroke-width:3px;"/>
    <path d="M224.163,271.331L270.404,302.228" style="stroke:rgb(255,66,66);stroke-width:6px;"/>
    <path d="M324.758,318.747L371.469,340.414" style="stroke:rgb(255,66,66);stroke-width:6px;"/>
    <path d="M124.224,339.414L174.255,281.568" style="stroke:rgb(11,205,41);stroke-width:3px;"/>
    <path d="M296.228,24.735C296.228,16.914 289.879,10.564 282.058,10.564L221.87,10.564C214.049,10.564 207.7,16.914 207.7,24.735L207.7,53.076C207.7,60.897 214.049,67.246 221.87,67.246L282.058,67.246C289.879,67.246 296.228,60.897 296.228,53.076L296.228,24.735Z" style="fill:rgb(199,137,246);"/>
    <path d="M234.265,42.627C233.431,41.72 233.014,40.563 233.014,39.155C233.014,37.746 233.432,36.589 234.268,35.682C235.104,34.775 236.195,34.322 237.539,34.322C239.116,34.322 240.337,34.948 241.203,36.201L240.171,36.912C239.578,35.992 238.715,35.532 237.58,35.532C237.575,35.532 237.571,35.532 237.566,35.532C236.605,35.532 235.835,35.86 235.256,36.516C234.677,37.172 234.388,38.047 234.388,39.141C234.388,40.244 234.677,41.128 235.256,41.793C235.835,42.459 236.596,42.791 237.539,42.791C238.678,42.791 239.556,42.313 240.171,41.356L241.251,42.053C240.403,43.343 239.171,43.988 237.553,43.988C236.199,43.988 235.103,43.534 234.265,42.627Z" style="fill-rule:nonzero;"/>
    <path d="M242.83,42.039L242.83,33.823L244.047,33.823L244.047,42.053C244.047,42.363 244.103,42.581 244.214,42.706C244.326,42.831 244.498,42.894 244.73,42.894C244.999,42.894 245.204,42.841 245.346,42.737L245.612,43.721C245.375,43.876 245.043,43.953 244.614,43.953C244.601,43.953 244.589,43.953 244.58,43.953C243.896,43.953 243.411,43.748 243.124,43.338C242.928,43.06 242.83,42.627 242.83,42.039Z" style="fill-rule:nonzero;"/>
    <path d="M246.733,43.817L246.733,36.536L247.95,36.536L247.95,43.817L246.733,43.817ZM246.733,35.108L246.733,33.823L247.95,33.823L247.95,35.108L246.733,35.108Z" style="fill-rule:nonzero;"/>
    <path d="M249.652,40.207C249.652,39.104 249.977,38.188 250.626,37.459C251.276,36.73 252.141,36.366 253.221,36.366C254.264,36.366 255.104,36.712 255.74,37.405C256.375,38.097 256.693,38.961 256.693,39.995C256.693,40.182 256.684,40.342 256.666,40.474L250.958,40.474C250.994,41.221 251.231,41.807 251.669,42.231C252.106,42.655 252.685,42.866 253.405,42.866C254.253,42.866 254.971,42.547 255.559,41.909L256.372,42.709C255.579,43.557 254.581,43.983 253.378,43.988C252.22,43.988 251.31,43.636 250.647,42.931C249.984,42.227 249.652,41.319 249.652,40.207ZM250.985,39.531L255.436,39.531C255.372,38.861 255.134,38.341 254.721,37.972C254.309,37.603 253.804,37.418 253.207,37.418C252.583,37.418 252.068,37.614 251.662,38.006C251.256,38.398 251.031,38.906 250.985,39.531Z" style="fill-rule:nonzero;"/>
    <path d="M258.334,43.817L258.334,36.536L259.551,36.536L259.551,37.74C260.175,36.824 261.005,36.366 262.039,36.366C262.823,36.366 263.444,36.608 263.902,37.094C264.36,37.579 264.589,38.257 264.589,39.127L264.589,43.817L263.372,43.817L263.372,39.408C263.372,38.15 262.83,37.519 261.745,37.514C261.112,37.514 260.588,37.725 260.173,38.146C259.758,38.568 259.551,39.114 259.551,39.783L259.551,43.817L258.334,43.817Z" style="fill-rule:nonzero;"/>
    <path d="M265.86,37.541L265.86,36.536L267.118,36.536L267.118,34.492L268.335,34.492L268.335,36.536L270.686,36.536L270.686,37.541L268.335,37.541L268.335,41.616C268.335,42.454 268.709,42.876 269.456,42.88C269.821,42.88 270.133,42.778 270.393,42.573L270.912,43.495C270.493,43.824 269.966,43.988 269.333,43.988C268.444,43.988 267.809,43.678 267.426,43.058C267.221,42.739 267.118,42.258 267.118,41.616L267.118,37.541L265.86,37.541Z" style="fill-rule:nonzero;"/>
    <path d="M139.737,341.558C139.737,333.737 133.387,327.388 125.566,327.388L37.375,327.388C29.554,327.388 23.205,333.737 23.205,341.558L23.205,369.899C23.205,377.72 29.554,384.07 37.375,384.07L125.566,384.07C133.387,384.07 139.737,377.72 139.737,369.899L139.737,341.558Z" style="fill:rgb(11,205,41);"/>
    <path d="M42.196,351.849C43.531,351.599 44.472,351.198 45.019,350.646L46.017,350.646L46.017,359.97L44.698,359.97L44.698,352.198C44.073,352.535 43.29,352.765 42.346,352.888L42.196,351.849Z" style="fill-rule:nonzero;"/>
    <path d="M49.23,353.695C49.23,352.742 49.544,351.968 50.173,351.371C50.802,350.774 51.632,350.475 52.662,350.475C53.696,350.475 54.523,350.782 55.143,351.395C55.763,352.008 56.073,352.854 56.073,353.934C56.073,355.01 55.779,356.033 55.191,357.004C54.603,357.974 53.792,358.963 52.757,359.97L50.912,359.97C51.604,359.419 52.277,358.782 52.928,358.06C53.58,357.337 54.036,356.664 54.295,356.04C53.849,356.523 53.158,356.764 52.224,356.764C51.367,356.764 50.654,356.482 50.084,355.917C49.515,355.352 49.23,354.611 49.23,353.695ZM50.604,353.668C50.604,354.283 50.783,354.77 51.141,355.13C51.498,355.491 52.001,355.671 52.648,355.671C53.3,355.671 53.81,355.489 54.179,355.127C54.548,354.765 54.733,354.279 54.733,353.671C54.733,353.063 54.548,352.574 54.179,352.205C53.81,351.836 53.3,351.651 52.648,351.651C52.005,351.651 51.504,351.836 51.144,352.205C50.784,352.574 50.604,353.061 50.604,353.668Z" style="fill-rule:nonzero;"/>
    <path d="M57.44,352.3C58.242,351.088 59.333,350.48 60.714,350.475C61.612,350.475 62.35,350.735 62.929,351.255C63.508,351.774 63.797,352.467 63.797,353.333C63.797,354.153 63.477,354.958 62.837,355.749C62.197,356.54 61.097,357.546 59.539,358.767L64.16,358.767L64.16,359.97L57.638,359.97L57.638,358.965C59.457,357.462 60.709,356.322 61.395,355.547C62.08,354.773 62.423,354.053 62.423,353.387C62.423,352.827 62.256,352.401 61.921,352.109C61.586,351.817 61.152,351.671 60.619,351.671C59.703,351.671 58.989,352.095 58.479,352.943L57.44,352.3Z" style="fill-rule:nonzero;"/>
    <rect x="65.903" y="358.487" width="1.504" height="1.483" style="fill-rule:nonzero;"/>
    <path d="M69.068,355.308C69.068,354.666 69.124,354.073 69.235,353.531C69.347,352.989 69.527,352.479 69.775,352.003C70.024,351.527 70.377,351.153 70.835,350.882C71.293,350.611 71.839,350.475 72.472,350.475C73.106,350.475 73.651,350.611 74.109,350.882C74.567,351.153 74.919,351.527 75.166,352.003C75.412,352.479 75.592,352.989 75.706,353.531C75.819,354.073 75.876,354.666 75.876,355.308C75.876,355.942 75.819,356.532 75.706,357.079C75.592,357.626 75.412,358.135 75.166,358.607C74.919,359.078 74.567,359.452 74.109,359.728C73.651,360.003 73.106,360.141 72.472,360.141C71.839,360.141 71.293,360.003 70.835,359.728C70.377,359.452 70.024,359.078 69.775,358.607C69.527,358.135 69.347,357.626 69.235,357.079C69.124,356.532 69.068,355.942 69.068,355.308ZM70.415,355.308C70.415,357.783 71.1,359.02 72.472,359.02C73.835,359.02 74.516,357.783 74.516,355.308C74.516,352.843 73.835,351.61 72.472,351.61C71.1,351.61 70.415,352.843 70.415,355.308Z" style="fill-rule:nonzero;"/>
    <rect x="77.531" y="358.487" width="1.504" height="1.483" style="fill-rule:nonzero;"/>
    <path d="M80.696,352.3C81.498,351.088 82.589,350.48 83.97,350.475C84.868,350.475 85.606,350.735 86.185,351.255C86.764,351.774 87.053,352.467 87.053,353.333C87.053,354.153 86.733,354.958 86.093,355.749C85.452,356.54 84.353,357.546 82.794,358.767L87.416,358.767L87.416,359.97L80.894,359.97L80.894,358.965C82.712,357.462 83.965,356.322 84.65,355.547C85.336,354.773 85.679,354.053 85.679,353.387C85.679,352.827 85.512,352.401 85.177,352.109C84.842,351.817 84.408,351.671 83.875,351.671C82.958,351.671 82.245,352.095 81.735,352.943L80.696,352.3Z" style="fill-rule:nonzero;"/>
    <rect x="89.159" y="358.487" width="1.504" height="1.483" style="fill-rule:nonzero;"/>
    <path d="M92.324,355.308C92.324,354.666 92.38,354.073 92.491,353.531C92.603,352.989 92.783,352.479 93.031,352.003C93.28,351.527 93.633,351.153 94.091,350.882C94.549,350.611 95.095,350.475 95.728,350.475C96.361,350.475 96.907,350.611 97.365,350.882C97.823,351.153 98.175,351.527 98.421,352.003C98.667,352.479 98.847,352.989 98.961,353.531C99.075,354.073 99.132,354.666 99.132,355.308C99.132,355.942 99.075,356.532 98.961,357.079C98.847,357.626 98.667,358.135 98.421,358.607C98.175,359.078 97.823,359.452 97.365,359.728C96.907,360.003 96.361,360.141 95.728,360.141C95.095,360.141 94.549,360.003 94.091,359.728C93.633,359.452 93.28,359.078 93.031,358.607C92.783,358.135 92.603,357.626 92.491,357.079C92.38,356.532 92.324,355.942 92.324,355.308ZM93.67,355.308C93.67,357.783 94.356,359.02 95.728,359.02C97.091,359.02 97.772,357.783 97.772,355.308C97.772,352.843 97.091,351.61 95.728,351.61C94.356,351.61 93.67,352.843 93.67,355.308Z" style="fill-rule:nonzero;"/>
    <path d="M100.233,361.481L103.309,349.976L104.307,349.976L101.224,361.481L100.233,361.481Z" style="fill-rule:nonzero;"/>
    <path d="M105.374,352.3C106.176,351.088 107.267,350.48 108.648,350.475C109.546,350.475 110.284,350.735 110.863,351.255C111.442,351.774 111.731,352.467 111.731,353.333C111.731,354.153 111.411,354.958 110.77,355.749C110.13,356.54 109.031,357.546 107.472,358.767L112.093,358.767L112.093,359.97L105.572,359.97L105.572,358.965C107.39,357.462 108.642,356.322 109.328,355.547C110.014,354.773 110.357,354.053 110.357,353.387C110.357,352.827 110.189,352.401 109.854,352.109C109.52,351.817 109.085,351.671 108.552,351.671C107.636,351.671 106.923,352.095 106.413,352.943L105.374,352.3Z" style="fill-rule:nonzero;"/>
    <path d="M113.296,357.79L113.296,356.71C113.912,355.648 114.382,354.577 114.708,353.497C115.034,352.417 115.197,351.466 115.197,350.646L116.468,350.646C116.468,351.476 116.294,352.437 115.945,353.531C115.597,354.625 115.124,355.661 114.527,356.641L117.829,356.641L117.829,352.69L119.121,352.69L119.121,356.641L120.488,356.641L120.488,357.79L119.121,357.79L119.121,359.97L117.829,359.97L117.829,357.79L113.296,357.79Z" style="fill-rule:nonzero;"/>
    <path d="M476.836,341.074C476.836,333.253 470.487,326.904 462.666,326.904L374.475,326.904C366.654,326.904 360.304,333.253 360.304,341.074L360.304,369.415C360.304,377.236 366.654,383.586 374.475,383.586L462.666,383.586C470.487,383.586 476.836,377.236 476.836,369.415L476.836,341.074Z" style="fill:rgb(255,66,66);"/>
    <path d="M379.424,351.365C380.759,351.115 381.7,350.714 382.247,350.162L383.245,350.162L383.245,359.486L381.926,359.486L381.926,351.714C381.302,352.051 380.518,352.281 379.575,352.404L379.424,351.365Z" style="fill-rule:nonzero;"/>
    <path d="M386.458,353.211C386.458,352.258 386.773,351.484 387.402,350.887C388.031,350.29 388.86,349.991 389.89,349.991C390.924,349.991 391.752,350.298 392.371,350.911C392.991,351.524 393.301,352.37 393.301,353.45C393.301,354.526 393.007,355.549 392.419,356.52C391.831,357.49 391.02,358.479 389.986,359.486L388.14,359.486C388.833,358.935 389.505,358.298 390.157,357.576C390.808,356.853 391.264,356.18 391.524,355.556C391.077,356.039 390.387,356.28 389.452,356.28C388.596,356.28 387.882,355.998 387.313,355.433C386.743,354.867 386.458,354.127 386.458,353.211ZM387.832,353.184C387.832,353.799 388.011,354.286 388.369,354.646C388.727,355.006 389.229,355.186 389.876,355.186C390.528,355.186 391.038,355.005 391.408,354.643C391.777,354.281 391.961,353.795 391.961,353.187C391.961,352.579 391.777,352.09 391.408,351.721C391.038,351.352 390.528,351.167 389.876,351.167C389.234,351.167 388.732,351.352 388.372,351.721C388.012,352.09 387.832,352.577 387.832,353.184Z" style="fill-rule:nonzero;"/>
    <path d="M394.668,351.816C395.47,350.604 396.562,349.996 397.943,349.991C398.84,349.991 399.579,350.251 400.158,350.77C400.736,351.29 401.026,351.983 401.026,352.849C401.026,353.669 400.706,354.474 400.065,355.265C399.425,356.056 398.325,357.062 396.767,358.283L401.388,358.283L401.388,359.486L394.866,359.486L394.866,358.481C396.685,356.978 397.937,355.838 398.623,355.063C399.309,354.289 399.652,353.569 399.652,352.903C399.652,352.343 399.484,351.917 399.149,351.625C398.814,351.333 398.38,351.187 397.847,351.187C396.931,351.187 396.218,351.611 395.707,352.459L394.668,351.816Z" style="fill-rule:nonzero;"/>
    <rect x="403.131" y="358.003" width="1.504" height="1.483" style="fill-rule:nonzero;"/>
    <path d="M406.296,354.824C406.296,354.182 406.352,353.589 406.464,353.047C406.575,352.505 406.755,351.995 407.004,351.519C407.252,351.043 407.605,350.669 408.063,350.398C408.521,350.127 409.067,349.991 409.7,349.991C410.334,349.991 410.88,350.127 411.338,350.398C411.796,350.669 412.148,351.043 412.394,351.519C412.64,351.995 412.82,352.505 412.934,353.047C413.048,353.589 413.105,354.182 413.105,354.824C413.105,355.458 413.048,356.048 412.934,356.595C412.82,357.142 412.64,357.651 412.394,358.123C412.148,358.594 411.796,358.968 411.338,359.244C410.88,359.519 410.334,359.657 409.7,359.657C409.067,359.657 408.521,359.519 408.063,359.244C407.605,358.968 407.252,358.594 407.004,358.123C406.755,357.651 406.575,357.142 406.464,356.595C406.352,356.048 406.296,355.458 406.296,354.824ZM407.643,354.824C407.643,357.299 408.329,358.536 409.7,358.536C411.063,358.536 411.744,357.299 411.744,354.824C411.744,352.359 411.063,351.126 409.7,351.126C408.329,351.126 407.643,352.359 407.643,354.824Z" style="fill-rule:nonzero;"/>
    <rect x="414.759" y="358.003" width="1.504" height="1.483" style="fill-rule:nonzero;"/>
    <path d="M417.924,351.816C418.726,350.604 419.818,349.996 421.199,349.991C422.096,349.991 422.835,350.251 423.413,350.77C423.992,351.29 424.282,351.983 424.282,352.849C424.282,353.669 423.961,354.474 423.321,355.265C422.681,356.056 421.581,357.062 420.023,358.283L424.644,358.283L424.644,359.486L418.122,359.486L418.122,358.481C419.941,356.978 421.193,355.838 421.879,355.063C422.565,354.289 422.908,353.569 422.908,352.903C422.908,352.343 422.74,351.917 422.405,351.625C422.07,351.333 421.636,351.187 421.103,351.187C420.187,351.187 419.474,351.611 418.963,352.459L417.924,351.816Z" style="fill-rule:nonzero;"/>
    <rect x="426.387" y="358.003" width="1.504" height="1.483" style="fill-rule:nonzero;"/>
    <path d="M429.552,354.824C429.552,354.182 429.608,353.589 429.72,353.047C429.831,352.505 430.011,351.995 430.26,351.519C430.508,351.043 430.861,350.669 431.319,350.398C431.777,350.127 432.323,349.991 432.956,349.991C433.59,349.991 434.136,350.127 434.594,350.398C435.052,350.669 435.404,351.043 435.65,351.519C435.896,351.995 436.076,352.505 436.19,353.047C436.304,353.589 436.361,354.182 436.361,354.824C436.361,355.458 436.304,356.048 436.19,356.595C436.076,357.142 435.896,357.651 435.65,358.123C435.404,358.594 435.052,358.968 434.594,359.244C434.136,359.519 433.59,359.657 432.956,359.657C432.323,359.657 431.777,359.519 431.319,359.244C430.861,358.968 430.508,358.594 430.26,358.123C430.011,357.651 429.831,357.142 429.72,356.595C429.608,356.048 429.552,355.458 429.552,354.824ZM430.899,354.824C430.899,357.299 431.585,358.536 432.956,358.536C434.319,358.536 435,357.299 435,354.824C435,352.359 434.319,351.126 432.956,351.126C431.585,351.126 430.899,352.359 430.899,354.824Z" style="fill-rule:nonzero;"/>
    <path d="M437.461,360.997L440.537,349.492L441.535,349.492L438.452,360.997L437.461,360.997Z" style="fill-rule:nonzero;"/>
    <path d="M442.602,351.816C443.404,350.604 444.495,349.996 445.876,349.991C446.774,349.991 447.512,350.251 448.091,350.77C448.67,351.29 448.959,351.983 448.959,352.849C448.959,353.669 448.639,354.474 447.999,355.265C447.359,356.056 446.259,357.062 444.7,358.283L449.322,358.283L449.322,359.486L442.8,359.486L442.8,358.481C444.618,356.978 445.871,355.838 446.556,355.063C447.242,354.289 447.585,353.569 447.585,352.903C447.585,352.343 447.418,351.917 447.083,351.625C446.748,351.333 446.314,351.187 445.781,351.187C444.865,351.187 444.151,351.611 443.641,352.459L442.602,351.816Z" style="fill-rule:nonzero;"/>
    <path d="M450.689,357.873L451.796,357.217C452.234,358.046 452.961,358.461 453.977,358.461C454.619,358.461 455.133,358.287 455.518,357.938C455.903,357.589 456.096,357.107 456.096,356.492C456.096,355.895 455.911,355.426 455.542,355.084C455.173,354.742 454.672,354.571 454.038,354.571C453.191,354.571 452.523,354.87 452.035,355.467L451.236,355.091L451.543,350.162L456.923,350.162L456.923,351.365L452.623,351.365L452.398,354.038C452.949,353.646 453.599,353.45 454.346,353.45C455.244,353.45 455.985,353.728 456.571,354.284C457.157,354.84 457.45,355.562 457.45,356.451C457.45,357.358 457.142,358.119 456.527,358.734C455.911,359.35 455.077,359.657 454.025,359.657C452.493,359.653 451.381,359.058 450.689,357.873Z" style="fill-rule:nonzero;"/>
    <ellipse cx="251.965" cy="123.04" rx="44.264" ry="28.923" style="fill:rgb(143,229,255);"/>
    <path d="M222.692,127.951L226.486,118.627L227.922,118.627L231.736,127.951L230.26,127.951L229.269,125.36L225.071,125.36L224.06,127.951L222.692,127.951ZM225.516,124.212L228.838,124.212L227.197,119.898L225.516,124.212Z" style="fill-rule:nonzero;"/>
    <path d="M232.365,126.201L233.439,125.518C234.054,126.488 234.993,126.974 236.255,126.974C236.888,126.974 237.399,126.831 237.786,126.546C238.174,126.262 238.367,125.871 238.367,125.374C238.367,125.196 238.345,125.038 238.299,124.899C238.253,124.76 238.162,124.637 238.026,124.53C237.889,124.423 237.771,124.336 237.673,124.27C237.575,124.204 237.399,124.133 237.144,124.058C236.888,123.983 236.697,123.929 236.569,123.897C236.442,123.866 236.207,123.813 235.865,123.74C235.41,123.649 235.022,123.547 234.703,123.433C234.384,123.319 234.066,123.164 233.75,122.968C233.433,122.772 233.192,122.518 233.028,122.206C232.864,121.893 232.782,121.528 232.782,121.108C232.782,120.288 233.085,119.641 233.692,119.167C234.298,118.693 235.081,118.456 236.043,118.456C236.763,118.456 237.426,118.598 238.032,118.883C238.638,119.168 239.142,119.577 239.543,120.11L238.538,120.828C237.941,120.026 237.087,119.623 235.975,119.618C235.432,119.618 234.985,119.729 234.631,119.95C234.278,120.171 234.102,120.514 234.102,120.979C234.102,121.174 234.143,121.348 234.225,121.498C234.307,121.648 234.4,121.768 234.505,121.857C234.61,121.946 234.774,122.034 234.997,122.12C235.22,122.207 235.407,122.271 235.558,122.312L236.255,122.476C236.683,122.58 237.035,122.673 237.311,122.752C237.587,122.832 237.893,122.948 238.231,123.101C238.568,123.254 238.831,123.419 239.02,123.597C239.209,123.774 239.37,124.006 239.502,124.291C239.634,124.575 239.7,124.9 239.7,125.265C239.7,126.121 239.378,126.812 238.733,127.336C238.088,127.86 237.23,128.122 236.159,128.122C235.303,128.122 234.545,127.951 233.886,127.609C233.228,127.268 232.721,126.798 232.365,126.201Z" style="fill-rule:nonzero;"/>
    <path d="M241.054,124.663C241.054,123.588 241.345,122.562 241.929,121.587C242.512,120.612 243.328,119.625 244.376,118.627L246.222,118.627C245.529,119.178 244.857,119.815 244.205,120.538C243.553,121.26 243.098,121.936 242.838,122.564C243.285,122.081 243.975,121.838 244.909,121.833C245.766,121.833 246.479,122.116 247.049,122.681C247.619,123.246 247.903,123.986 247.903,124.902C247.903,125.855 247.588,126.63 246.957,127.227C246.325,127.824 245.497,128.122 244.472,128.122C243.437,128.122 242.609,127.817 241.987,127.206C241.365,126.595 241.054,125.748 241.054,124.663ZM242.954,123.474C242.585,123.838 242.401,124.324 242.401,124.93C242.401,125.536 242.585,126.023 242.954,126.393C243.323,126.762 243.834,126.946 244.485,126.946C245.128,126.946 245.629,126.762 245.989,126.393C246.349,126.023 246.529,125.536 246.529,124.93C246.529,124.314 246.351,123.827 245.993,123.467C245.635,123.107 245.133,122.927 244.485,122.927C243.834,122.927 243.323,123.109 242.954,123.474Z" style="fill-rule:nonzero;"/>
    <path d="M248.922,125.771L248.922,124.69C249.537,123.629 250.008,122.558 250.334,121.478C250.659,120.397 250.822,119.447 250.822,118.627L252.094,118.627C252.094,119.456 251.92,120.418 251.571,121.512C251.222,122.605 250.749,123.642 250.152,124.622L253.454,124.622L253.454,120.671L254.746,120.671L254.746,124.622L256.113,124.622L256.113,125.771L254.746,125.771L254.746,127.951L253.454,127.951L253.454,125.771L248.922,125.771Z" style="fill-rule:nonzero;"/>
    <path d="M257.2,126.338L258.308,125.682C258.745,126.511 259.472,126.926 260.488,126.926C261.131,126.926 261.645,126.751 262.03,126.403C262.415,126.054 262.608,125.572 262.608,124.957C262.608,124.36 262.423,123.891 262.054,123.549C261.685,123.207 261.183,123.036 260.55,123.036C259.702,123.036 259.035,123.335 258.547,123.932L257.747,123.556L258.055,118.627L263.435,118.627L263.435,119.83L259.135,119.83L258.909,122.503C259.461,122.111 260.11,121.915 260.858,121.915C261.755,121.915 262.497,122.193 263.083,122.749C263.668,123.305 263.961,124.027 263.961,124.916C263.961,125.823 263.653,126.584 263.038,127.199C262.423,127.814 261.589,128.122 260.536,128.122C259.005,128.118 257.893,127.523 257.2,126.338Z" style="fill-rule:nonzero;"/>
    <path d="M265.342,123.289C265.342,122.646 265.398,122.054 265.509,121.512C265.621,120.969 265.801,120.46 266.049,119.984C266.298,119.508 266.651,119.134 267.109,118.863C267.567,118.592 268.113,118.456 268.746,118.456C269.38,118.456 269.925,118.592 270.383,118.863C270.841,119.134 271.193,119.508 271.44,119.984C271.686,120.46 271.866,120.969 271.98,121.512C272.094,122.054 272.151,122.646 272.151,123.289C272.151,123.923 272.094,124.513 271.98,125.06C271.866,125.606 271.686,126.116 271.44,126.587C271.193,127.059 270.841,127.433 270.383,127.708C269.925,127.984 269.38,128.122 268.746,128.122C268.113,128.122 267.567,127.984 267.109,127.708C266.651,127.433 266.298,127.059 266.049,126.587C265.801,126.116 265.621,125.606 265.509,125.06C265.398,124.513 265.342,123.923 265.342,123.289ZM266.689,123.289C266.689,125.764 267.374,127.001 268.746,127.001C270.109,127.001 270.79,125.764 270.79,123.289C270.79,120.824 270.109,119.591 268.746,119.591C267.374,119.591 266.689,120.824 266.689,123.289Z" style="fill-rule:nonzero;"/>
    <path d="M273.456,123.289C273.456,122.646 273.512,122.054 273.624,121.512C273.735,120.969 273.915,120.46 274.164,119.984C274.412,119.508 274.765,119.134 275.223,118.863C275.681,118.592 276.227,118.456 276.86,118.456C277.494,118.456 278.04,118.592 278.498,118.863C278.956,119.134 279.308,119.508 279.554,119.984C279.8,120.46 279.98,120.969 280.094,121.512C280.208,122.054 280.265,122.646 280.265,123.289C280.265,123.923 280.208,124.513 280.094,125.06C279.98,125.606 279.8,126.116 279.554,126.587C279.308,127.059 278.956,127.433 278.498,127.708C278.04,127.984 277.494,128.122 276.86,128.122C276.227,128.122 275.681,127.984 275.223,127.708C274.765,127.433 274.412,127.059 274.164,126.587C273.915,126.116 273.735,125.606 273.624,125.06C273.512,124.513 273.456,123.923 273.456,123.289ZM274.803,123.289C274.803,125.764 275.489,127.001 276.86,127.001C278.223,127.001 278.904,125.764 278.904,123.289C278.904,120.824 278.223,119.591 276.86,119.591C275.489,119.591 274.803,120.824 274.803,123.289Z" style="fill-rule:nonzero;"/>
    <ellipse cx="154.108" cy="180.885" rx="44.264" ry="28.923" style="fill:rgb(143,229,255);"/>
    <path d="M124.835,185.797L128.629,176.473L130.065,176.473L133.879,185.797L132.402,185.797L131.411,183.206L127.214,183.206L126.202,185.797L124.835,185.797ZM127.658,182.058L130.981,182.058L129.34,177.744L127.658,182.058Z" style="fill-rule:nonzero;"/>
    <path d="M134.508,184.047L135.581,183.363C136.196,184.334 137.135,184.819 138.398,184.819C139.031,184.819 139.541,184.677 139.929,184.392C140.316,184.107 140.51,183.716 140.51,183.22C140.51,183.042 140.487,182.884 140.442,182.745C140.396,182.606 140.305,182.483 140.168,182.375C140.031,182.268 139.914,182.182 139.816,182.116C139.718,182.05 139.541,181.979 139.286,181.904C139.031,181.829 138.84,181.775 138.712,181.743C138.584,181.711 138.35,181.659 138.008,181.586C137.552,181.495 137.165,181.392 136.846,181.278C136.527,181.164 136.209,181.009 135.892,180.813C135.575,180.618 135.335,180.363 135.171,180.051C135.007,179.739 134.925,179.373 134.925,178.954C134.925,178.134 135.228,177.487 135.834,177.013C136.44,176.539 137.224,176.302 138.186,176.302C138.906,176.302 139.569,176.444 140.175,176.729C140.781,177.014 141.285,177.423 141.686,177.956L140.681,178.674C140.084,177.872 139.229,177.468 138.117,177.464C137.575,177.464 137.127,177.574 136.774,177.795C136.421,178.016 136.244,178.359 136.244,178.824C136.244,179.02 136.285,179.193 136.367,179.344C136.449,179.494 136.543,179.614 136.648,179.703C136.752,179.792 136.916,179.879 137.14,179.966C137.363,180.052 137.55,180.116 137.7,180.157L138.398,180.321C138.826,180.426 139.178,180.518 139.454,180.598C139.729,180.678 140.036,180.794 140.373,180.947C140.71,181.099 140.974,181.265 141.163,181.442C141.352,181.62 141.512,181.851 141.645,182.136C141.777,182.421 141.843,182.746 141.843,183.11C141.843,183.967 141.52,184.658 140.876,185.182C140.231,185.706 139.373,185.968 138.302,185.968C137.445,185.968 136.687,185.797 136.029,185.455C135.37,185.113 134.863,184.644 134.508,184.047Z" style="fill-rule:nonzero;"/>
    <path d="M143.196,182.509C143.196,181.433 143.488,180.408 144.071,179.433C144.655,178.457 145.47,177.471 146.519,176.473L148.364,176.473C147.672,177.024 146.999,177.661 146.348,178.383C145.696,179.106 145.24,179.781 144.981,180.41C145.427,179.927 146.118,179.683 147.052,179.679C147.909,179.679 148.622,179.961 149.192,180.526C149.761,181.091 150.046,181.832 150.046,182.748C150.046,183.701 149.73,184.475 149.099,185.072C148.468,185.669 147.64,185.968 146.614,185.968C145.58,185.968 144.752,185.662 144.13,185.052C143.507,184.441 143.196,183.593 143.196,182.509ZM145.097,181.319C144.728,181.684 144.543,182.169 144.543,182.775C144.543,183.382 144.728,183.869 145.097,184.238C145.466,184.607 145.976,184.792 146.628,184.792C147.271,184.792 147.772,184.607 148.132,184.238C148.492,183.869 148.672,183.382 148.672,182.775C148.672,182.16 148.493,181.673 148.135,181.313C147.778,180.952 147.275,180.772 146.628,180.772C145.976,180.772 145.466,180.955 145.097,181.319Z" style="fill-rule:nonzero;"/>
    <path d="M151.065,183.616L151.065,182.536C151.68,181.474 152.15,180.403 152.476,179.323C152.802,178.243 152.965,177.293 152.965,176.473L154.236,176.473C154.236,177.302 154.062,178.264 153.713,179.357C153.365,180.451 152.892,181.488 152.295,182.468L155.597,182.468L155.597,178.517L156.889,178.517L156.889,182.468L158.256,182.468L158.256,183.616L156.889,183.616L156.889,185.797L155.597,185.797L155.597,183.616L151.065,183.616Z" style="fill-rule:nonzero;"/>
    <path d="M159.343,184.184L160.45,183.527C160.888,184.357 161.615,184.771 162.631,184.771C163.274,184.771 163.787,184.597 164.172,184.249C164.558,183.9 164.75,183.418 164.75,182.803C164.75,182.206 164.566,181.736 164.196,181.395C163.827,181.053 163.326,180.882 162.692,180.882C161.845,180.882 161.177,181.18 160.69,181.777L159.89,181.401L160.197,176.473L165.577,176.473L165.577,177.676L161.277,177.676L161.052,180.349C161.603,179.957 162.253,179.761 163,179.761C163.898,179.761 164.64,180.039 165.225,180.595C165.811,181.151 166.104,181.873 166.104,182.762C166.104,183.669 165.796,184.43 165.181,185.045C164.566,185.66 163.732,185.968 162.679,185.968C161.148,185.963 160.036,185.368 159.343,184.184Z" style="fill-rule:nonzero;"/>
    <path d="M168.469,177.676C169.804,177.425 170.745,177.024 171.292,176.473L172.29,176.473L172.29,185.797L170.971,185.797L170.971,178.024C170.346,178.362 169.563,178.592 168.619,178.715L168.469,177.676Z" style="fill-rule:nonzero;"/>
    <path d="M175.599,181.135C175.599,180.492 175.655,179.9 175.766,179.357C175.878,178.815 176.058,178.306 176.306,177.83C176.555,177.353 176.908,176.98 177.366,176.708C177.824,176.437 178.37,176.302 179.003,176.302C179.637,176.302 180.182,176.437 180.64,176.708C181.098,176.98 181.45,177.353 181.696,177.83C181.942,178.306 182.123,178.815 182.236,179.357C182.35,179.9 182.407,180.492 182.407,181.135C182.407,181.768 182.35,182.358 182.236,182.905C182.123,183.452 181.942,183.961 181.696,184.433C181.45,184.905 181.098,185.278 180.64,185.554C180.182,185.83 179.637,185.968 179.003,185.968C178.37,185.968 177.824,185.83 177.366,185.554C176.908,185.278 176.555,184.905 176.306,184.433C176.058,183.961 175.878,183.452 175.766,182.905C175.655,182.358 175.599,181.768 175.599,181.135ZM176.945,181.135C176.945,183.609 177.631,184.847 179.003,184.847C180.366,184.847 181.047,183.609 181.047,181.135C181.047,178.669 180.366,177.437 179.003,177.437C177.631,177.437 176.945,178.669 176.945,181.135Z" style="fill-rule:nonzero;"/>
    <ellipse cx="351.818" cy="171.592" rx="44.264" ry="28.923" style="fill:rgb(143,229,255);"/>
    <path d="M322.545,176.504L326.339,167.18L327.775,167.18L331.589,176.504L330.113,176.504L329.121,173.913L324.924,173.913L323.912,176.504L322.545,176.504ZM325.369,172.765L328.691,172.765L327.05,168.451L325.369,172.765Z" style="fill-rule:nonzero;"/>
    <path d="M332.218,174.754L333.291,174.07C333.907,175.041 334.845,175.526 336.108,175.526C336.741,175.526 337.252,175.384 337.639,175.099C338.026,174.814 338.22,174.423 338.22,173.927C338.22,173.749 338.197,173.591 338.152,173.452C338.106,173.313 338.015,173.189 337.878,173.082C337.742,172.975 337.624,172.889 337.526,172.823C337.428,172.757 337.252,172.686 336.996,172.611C336.741,172.536 336.55,172.482 336.422,172.45C336.295,172.418 336.06,172.366 335.718,172.293C335.262,172.202 334.875,172.099 334.556,171.985C334.237,171.871 333.919,171.716 333.602,171.52C333.286,171.324 333.045,171.07 332.881,170.758C332.717,170.446 332.635,170.08 332.635,169.661C332.635,168.841 332.938,168.194 333.544,167.72C334.15,167.246 334.934,167.009 335.896,167.009C336.616,167.009 337.279,167.151 337.885,167.436C338.491,167.721 338.995,168.13 339.396,168.663L338.391,169.381C337.794,168.579 336.939,168.175 335.827,168.171C335.285,168.171 334.837,168.281 334.484,168.502C334.131,168.723 333.954,169.066 333.954,169.531C333.954,169.727 333.995,169.9 334.077,170.051C334.16,170.201 334.253,170.321 334.358,170.41C334.463,170.498 334.627,170.586 334.85,170.673C335.073,170.759 335.26,170.823 335.411,170.864L336.108,171.028C336.536,171.133 336.888,171.225 337.164,171.305C337.44,171.385 337.746,171.501 338.083,171.654C338.421,171.806 338.684,171.972 338.873,172.149C339.062,172.327 339.223,172.558 339.355,172.843C339.487,173.128 339.553,173.453 339.553,173.817C339.553,174.674 339.231,175.364 338.586,175.889C337.941,176.413 337.083,176.675 336.012,176.675C335.155,176.675 334.398,176.504 333.739,176.162C333.081,175.82 332.574,175.351 332.218,174.754Z" style="fill-rule:nonzero;"/>
    <path d="M340.907,173.216C340.907,172.14 341.198,171.115 341.782,170.14C342.365,169.164 343.181,168.178 344.229,167.18L346.075,167.18C345.382,167.731 344.71,168.368 344.058,169.09C343.406,169.813 342.951,170.488 342.691,171.117C343.137,170.634 343.828,170.39 344.762,170.386C345.619,170.386 346.332,170.668 346.902,171.233C347.471,171.798 347.756,172.539 347.756,173.455C347.756,174.407 347.441,175.182 346.809,175.779C346.178,176.376 345.35,176.675 344.325,176.675C343.29,176.675 342.462,176.369 341.84,175.759C341.218,175.148 340.907,174.3 340.907,173.216ZM342.807,172.026C342.438,172.391 342.253,172.876 342.253,173.482C342.253,174.088 342.438,174.576 342.807,174.945C343.176,175.314 343.687,175.499 344.338,175.499C344.981,175.499 345.482,175.314 345.842,174.945C346.202,174.576 346.382,174.088 346.382,173.482C346.382,172.867 346.203,172.379 345.846,172.019C345.488,171.659 344.985,171.479 344.338,171.479C343.687,171.479 343.176,171.662 342.807,172.026Z" style="fill-rule:nonzero;"/>
    <path d="M348.939,174.89L350.046,174.234C350.484,175.064 351.211,175.478 352.227,175.478C352.869,175.478 353.383,175.304 353.768,174.955C354.154,174.607 354.346,174.125 354.346,173.51C354.346,172.913 354.161,172.443 353.792,172.101C353.423,171.76 352.922,171.589 352.288,171.589C351.441,171.589 350.773,171.887 350.286,172.484L349.486,172.108L349.793,167.18L355.173,167.18L355.173,168.383L350.873,168.383L350.648,171.056C351.199,170.664 351.849,170.468 352.596,170.468C353.494,170.468 354.236,170.746 354.821,171.302C355.407,171.858 355.7,172.58 355.7,173.469C355.7,174.376 355.392,175.137 354.777,175.752C354.161,176.367 353.327,176.675 352.275,176.675C350.744,176.67 349.632,176.075 348.939,174.89Z" style="fill-rule:nonzero;"/>
    <path d="M357.053,174.89L358.161,174.234C358.598,175.064 359.325,175.478 360.341,175.478C360.984,175.478 361.498,175.304 361.883,174.955C362.268,174.607 362.46,174.125 362.46,173.51C362.46,172.913 362.276,172.443 361.907,172.101C361.537,171.76 361.036,171.589 360.403,171.589C359.555,171.589 358.887,171.887 358.4,172.484L357.6,172.108L357.908,167.18L363.287,167.18L363.287,168.383L358.988,168.383L358.762,171.056C359.313,170.664 359.963,170.468 360.71,170.468C361.608,170.468 362.35,170.746 362.935,171.302C363.521,171.858 363.814,172.58 363.814,173.469C363.814,174.376 363.506,175.137 362.891,175.752C362.276,176.367 361.442,176.675 360.389,176.675C358.858,176.67 357.746,176.075 357.053,174.89Z" style="fill-rule:nonzero;"/>
    <path d="M365.003,174.323L365.003,173.243C365.619,172.181 366.089,171.11 366.415,170.03C366.741,168.95 366.904,168 366.904,167.18L368.175,167.18C368.175,168.009 368.001,168.971 367.652,170.064C367.304,171.158 366.831,172.195 366.234,173.175L369.536,173.175L369.536,169.223L370.827,169.223L370.827,173.175L372.195,173.175L372.195,174.323L370.827,174.323L370.827,176.504L369.536,176.504L369.536,174.323L365.003,174.323Z" style="fill-rule:nonzero;"/>
    <path d="M373.309,171.842C373.309,171.199 373.365,170.607 373.476,170.064C373.588,169.522 373.768,169.013 374.016,168.536C374.265,168.06 374.618,167.687 375.076,167.415C375.534,167.144 376.08,167.009 376.713,167.009C377.347,167.009 377.892,167.144 378.35,167.415C378.808,167.687 379.161,168.06 379.407,168.536C379.653,169.013 379.833,169.522 379.947,170.064C380.061,170.607 380.118,171.199 380.118,171.842C380.118,172.475 380.061,173.065 379.947,173.612C379.833,174.159 379.653,174.668 379.407,175.14C379.161,175.612 378.808,175.985 378.35,176.261C377.892,176.537 377.347,176.675 376.713,176.675C376.08,176.675 375.534,176.537 375.076,176.261C374.618,175.985 374.265,175.612 374.016,175.14C373.768,174.668 373.588,174.159 373.476,173.612C373.365,173.065 373.309,172.475 373.309,171.842ZM374.656,171.842C374.656,174.316 375.341,175.554 376.713,175.554C378.076,175.554 378.757,174.316 378.757,171.842C378.757,169.376 378.076,168.143 376.713,168.143C375.341,168.143 374.656,169.376 374.656,171.842Z" style="fill-rule:nonzero;"/>
    <ellipse cx="190.743" cy="264.856" rx="44.264" ry="28.923" style="fill:rgb(143,229,255);"/>
    <path d="M161.471,269.768L165.265,260.444L166.7,260.444L170.515,269.768L169.038,269.768L168.047,267.177L163.85,267.177L162.838,269.768L161.471,269.768ZM164.294,266.028L167.616,266.028L165.976,261.715L164.294,266.028Z" style="fill-rule:nonzero;"/>
    <path d="M171.144,268.018L172.217,267.334C172.832,268.305 173.771,268.79 175.033,268.79C175.667,268.79 176.177,268.648 176.565,268.363C176.952,268.078 177.146,267.687 177.146,267.191C177.146,267.013 177.123,266.854 177.077,266.715C177.032,266.576 176.941,266.453 176.804,266.346C176.667,266.239 176.55,266.153 176.452,266.087C176.354,266.02 176.177,265.95 175.922,265.875C175.667,265.799 175.475,265.746 175.348,265.714C175.22,265.682 174.986,265.63 174.644,265.557C174.188,265.466 173.801,265.363 173.482,265.249C173.163,265.135 172.845,264.98 172.528,264.784C172.211,264.588 171.971,264.334 171.807,264.022C171.643,263.71 171.561,263.344 171.561,262.925C171.561,262.105 171.864,261.458 172.47,260.984C173.076,260.51 173.86,260.273 174.821,260.273C175.542,260.273 176.205,260.415 176.811,260.7C177.417,260.985 177.92,261.394 178.321,261.927L177.317,262.645C176.72,261.843 175.865,261.439 174.753,261.435C174.211,261.435 173.763,261.545 173.41,261.766C173.057,261.987 172.88,262.33 172.88,262.795C172.88,262.991 172.921,263.164 173.003,263.315C173.085,263.465 173.179,263.585 173.283,263.673C173.388,263.762 173.552,263.85 173.776,263.937C173.999,264.023 174.186,264.087 174.336,264.128L175.033,264.292C175.462,264.397 175.814,264.489 176.09,264.569C176.365,264.649 176.672,264.765 177.009,264.918C177.346,265.07 177.609,265.235 177.799,265.413C177.988,265.591 178.148,265.822 178.28,266.107C178.413,266.392 178.479,266.717 178.479,267.081C178.479,267.938 178.156,268.628 177.511,269.152C176.867,269.677 176.009,269.939 174.938,269.939C174.081,269.939 173.323,269.768 172.665,269.426C172.006,269.084 171.499,268.615 171.144,268.018Z" style="fill-rule:nonzero;"/>
    <path d="M179.832,266.48C179.832,265.404 180.124,264.379 180.707,263.403C181.291,262.428 182.106,261.442 183.154,260.444L185,260.444C184.307,260.995 183.635,261.632 182.984,262.354C182.332,263.076 181.876,263.752 181.616,264.381C182.063,263.898 182.753,263.654 183.688,263.65C184.544,263.65 185.258,263.932 185.827,264.497C186.397,265.062 186.682,265.803 186.682,266.719C186.682,267.671 186.366,268.446 185.735,269.043C185.104,269.64 184.276,269.939 183.25,269.939C182.216,269.939 181.387,269.633 180.765,269.023C180.143,268.412 179.832,267.564 179.832,266.48ZM181.733,265.29C181.363,265.655 181.179,266.14 181.179,266.746C181.179,267.352 181.363,267.84 181.733,268.209C182.102,268.578 182.612,268.763 183.264,268.763C183.906,268.763 184.408,268.578 184.768,268.209C185.128,267.84 185.308,267.352 185.308,266.746C185.308,266.131 185.129,265.643 184.771,265.283C184.413,264.923 183.911,264.743 183.264,264.743C182.612,264.743 182.102,264.926 181.733,265.29Z" style="fill-rule:nonzero;"/>
    <path d="M187.864,268.154L188.972,267.498C189.409,268.328 190.136,268.742 191.153,268.742C191.795,268.742 192.309,268.568 192.694,268.219C193.079,267.871 193.272,267.389 193.272,266.774C193.272,266.177 193.087,265.707 192.718,265.365C192.349,265.024 191.848,264.853 191.214,264.853C190.366,264.853 189.699,265.151 189.211,265.748L188.411,265.372L188.719,260.444L194.099,260.444L194.099,261.647L189.799,261.647L189.573,264.319C190.125,263.928 190.774,263.732 191.522,263.732C192.419,263.732 193.161,264.01 193.747,264.566C194.332,265.122 194.625,265.844 194.625,266.733C194.625,267.639 194.318,268.401 193.702,269.016C193.087,269.631 192.253,269.939 191.2,269.939C189.669,269.934 188.557,269.339 187.864,268.154Z" style="fill-rule:nonzero;"/>
    <path d="M195.979,268.154L197.086,267.498C197.524,268.328 198.251,268.742 199.267,268.742C199.909,268.742 200.423,268.568 200.808,268.219C201.193,267.871 201.386,267.389 201.386,266.774C201.386,266.177 201.201,265.707 200.832,265.365C200.463,265.024 199.962,264.853 199.328,264.853C198.481,264.853 197.813,265.151 197.325,265.748L196.526,265.372L196.833,260.444L202.213,260.444L202.213,261.647L197.913,261.647L197.688,264.319C198.239,263.928 198.889,263.732 199.636,263.732C200.534,263.732 201.275,264.01 201.861,264.566C202.447,265.122 202.739,265.844 202.739,266.733C202.739,267.639 202.432,268.401 201.817,269.016C201.201,269.631 200.367,269.939 199.315,269.939C197.783,269.934 196.671,269.339 195.979,268.154Z" style="fill-rule:nonzero;"/>
    <path d="M204.093,268.154L205.2,267.498C205.638,268.328 206.365,268.742 207.381,268.742C208.024,268.742 208.537,268.568 208.923,268.219C209.308,267.871 209.5,267.389 209.5,266.774C209.5,266.177 209.316,265.707 208.946,265.365C208.577,265.024 208.076,264.853 207.443,264.853C206.595,264.853 205.927,265.151 205.44,265.748L204.64,265.372L204.947,260.444L210.327,260.444L210.327,261.647L206.028,261.647L205.802,264.319C206.353,263.928 207.003,263.732 207.75,263.732C208.648,263.732 209.39,264.01 209.975,264.566C210.561,265.122 210.854,265.844 210.854,266.733C210.854,267.639 210.546,268.401 209.931,269.016C209.316,269.631 208.482,269.939 207.429,269.939C205.898,269.934 204.786,269.339 204.093,268.154Z" style="fill-rule:nonzero;"/>
    <path d="M212.235,265.106C212.235,264.463 212.29,263.871 212.402,263.328C212.514,262.786 212.694,262.277 212.942,261.8C213.19,261.324 213.544,260.951 214.002,260.679C214.46,260.408 215.005,260.273 215.639,260.273C216.272,260.273 216.818,260.408 217.276,260.679C217.734,260.951 218.086,261.324 218.332,261.8C218.578,262.277 218.758,262.786 218.872,263.328C218.986,263.871 219.043,264.463 219.043,265.106C219.043,265.739 218.986,266.329 218.872,266.876C218.758,267.423 218.578,267.932 218.332,268.404C218.086,268.876 217.734,269.249 217.276,269.525C216.818,269.801 216.272,269.939 215.639,269.939C215.005,269.939 214.46,269.801 214.002,269.525C213.544,269.249 213.19,268.876 212.942,268.404C212.694,267.932 212.514,267.423 212.402,266.876C212.29,266.329 212.235,265.739 212.235,265.106ZM213.581,265.106C213.581,267.58 214.267,268.818 215.639,268.818C217.001,268.818 217.683,267.58 217.683,265.106C217.683,262.64 217.001,261.407 215.639,261.407C214.267,261.407 213.581,262.64 213.581,265.106Z" style="fill-rule:nonzero;"/>
    <ellipse cx="286.045" cy="310.491" rx="44.264" ry="28.923" style="fill:rgb(143,229,255);"/>
    <path d="M256.772,315.403L260.566,306.078L262.002,306.078L265.816,315.403L264.34,315.403L263.349,312.812L259.151,312.812L258.14,315.403L256.772,315.403ZM259.596,311.663L262.918,311.663L261.277,307.35L259.596,311.663Z" style="fill-rule:nonzero;"/>
    <path d="M266.445,313.653L267.519,312.969C268.134,313.94 269.073,314.425 270.335,314.425C270.968,314.425 271.479,314.283 271.866,313.998C272.254,313.713 272.447,313.322 272.447,312.825C272.447,312.648 272.424,312.489 272.379,312.35C272.333,312.211 272.242,312.088 272.105,311.981C271.969,311.874 271.851,311.788 271.753,311.721C271.655,311.655 271.479,311.585 271.224,311.51C270.968,311.434 270.777,311.381 270.649,311.349C270.522,311.317 270.287,311.265 269.945,311.192C269.49,311.101 269.102,310.998 268.783,310.884C268.464,310.77 268.146,310.615 267.83,310.419C267.513,310.223 267.272,309.969 267.108,309.657C266.944,309.345 266.862,308.979 266.862,308.56C266.862,307.74 267.165,307.092 267.771,306.618C268.378,306.144 269.161,305.907 270.123,305.907C270.843,305.907 271.506,306.05 272.112,306.335C272.718,306.62 273.222,307.029 273.623,307.562L272.618,308.28C272.021,307.477 271.167,307.074 270.055,307.07C269.512,307.07 269.065,307.18 268.711,307.401C268.358,307.622 268.182,307.965 268.182,308.43C268.182,308.626 268.223,308.799 268.305,308.949C268.387,309.1 268.48,309.219 268.585,309.308C268.69,309.397 268.854,309.485 269.077,309.572C269.3,309.658 269.487,309.722 269.638,309.763L270.335,309.927C270.763,310.032 271.115,310.124 271.391,310.204C271.667,310.284 271.973,310.4 272.311,310.552C272.648,310.705 272.911,310.87 273.1,311.048C273.289,311.226 273.45,311.457 273.582,311.742C273.714,312.027 273.78,312.351 273.78,312.716C273.78,313.573 273.458,314.263 272.813,314.787C272.168,315.311 271.31,315.573 270.239,315.573C269.382,315.573 268.625,315.403 267.966,315.061C267.308,314.719 266.801,314.25 266.445,313.653Z" style="fill-rule:nonzero;"/>
    <path d="M275.134,312.115C275.134,311.039 275.425,310.014 276.009,309.038C276.592,308.063 277.408,307.076 278.456,306.078L280.302,306.078C279.609,306.63 278.937,307.267 278.285,307.989C277.633,308.711 277.178,309.387 276.918,310.016C277.365,309.533 278.055,309.289 278.989,309.284C279.846,309.284 280.559,309.567 281.129,310.132C281.699,310.697 281.983,311.438 281.983,312.354C281.983,313.306 281.668,314.081 281.037,314.678C280.405,315.275 279.577,315.573 278.552,315.573C277.517,315.573 276.689,315.268 276.067,314.657C275.445,314.047 275.134,313.199 275.134,312.115ZM277.034,310.925C276.665,311.29 276.48,311.775 276.48,312.381C276.48,312.987 276.665,313.475 277.034,313.844C277.403,314.213 277.914,314.398 278.565,314.398C279.208,314.398 279.709,314.213 280.069,313.844C280.429,313.475 280.609,312.987 280.609,312.381C280.609,311.766 280.431,311.278 280.073,310.918C279.715,310.558 279.213,310.378 278.565,310.378C277.914,310.378 277.403,310.56 277.034,310.925Z" style="fill-rule:nonzero;"/>
    <path d="M283.166,313.789L284.273,313.133C284.711,313.962 285.438,314.377 286.454,314.377C287.097,314.377 287.611,314.203 287.996,313.854C288.381,313.506 288.573,313.024 288.573,312.408C288.573,311.811 288.389,311.342 288.02,311C287.65,310.658 287.149,310.488 286.516,310.488C285.668,310.488 285,310.786 284.513,311.383L283.713,311.007L284.021,306.078L289.4,306.078L289.4,307.281L285.101,307.281L284.875,309.954C285.426,309.562 286.076,309.366 286.823,309.366C287.721,309.366 288.463,309.644 289.048,310.2C289.634,310.756 289.927,311.479 289.927,312.367C289.927,313.274 289.619,314.035 289.004,314.651C288.389,315.266 287.555,315.573 286.502,315.573C284.971,315.569 283.859,314.974 283.166,313.789Z" style="fill-rule:nonzero;"/>
    <path d="M291.28,313.789L292.388,313.133C292.825,313.962 293.552,314.377 294.568,314.377C295.211,314.377 295.725,314.203 296.11,313.854C296.495,313.506 296.688,313.024 296.688,312.408C296.688,311.811 296.503,311.342 296.134,311C295.765,310.658 295.263,310.488 294.63,310.488C293.782,310.488 293.115,310.786 292.627,311.383L291.827,311.007L292.135,306.078L297.515,306.078L297.515,307.281L293.215,307.281L292.989,309.954C293.541,309.562 294.19,309.366 294.938,309.366C295.835,309.366 296.577,309.644 297.163,310.2C297.748,310.756 298.041,311.479 298.041,312.367C298.041,313.274 297.733,314.035 297.118,314.651C296.503,315.266 295.669,315.573 294.616,315.573C293.085,315.569 291.973,314.974 291.28,313.789Z" style="fill-rule:nonzero;"/>
    <path d="M299.299,313.68L300.434,313.065C300.88,313.953 301.66,314.398 302.771,314.398C303.396,314.398 303.88,314.243 304.224,313.933C304.568,313.623 304.74,313.208 304.74,312.689C304.74,312.215 304.566,311.837 304.217,311.554C303.869,311.271 303.353,311.13 302.669,311.13L301.944,311.13L301.944,309.995L302.696,309.995C303.266,309.995 303.708,309.861 304.022,309.592C304.337,309.323 304.494,308.954 304.494,308.485C304.494,308.047 304.337,307.704 304.022,307.456C303.708,307.207 303.282,307.083 302.744,307.083C301.783,307.083 301.04,307.457 300.516,308.204L299.538,307.521C300.358,306.445 301.441,305.907 302.785,305.907C303.683,305.907 304.413,306.136 304.976,306.594C305.539,307.052 305.82,307.642 305.82,308.362C305.82,309.305 305.353,310.004 304.419,310.46C304.97,310.674 305.389,310.987 305.673,311.397C305.958,311.807 306.101,312.26 306.101,312.757C306.101,313.568 305.8,314.24 305.198,314.774C304.597,315.307 303.788,315.573 302.771,315.573C301.149,315.569 299.992,314.938 299.299,313.68Z" style="fill-rule:nonzero;"/>
    <path d="M307.591,312.115C307.591,311.039 307.882,310.014 308.466,309.038C309.049,308.063 309.865,307.076 310.913,306.078L312.759,306.078C312.066,306.63 311.394,307.267 310.742,307.989C310.091,308.711 309.635,309.387 309.375,310.016C309.822,309.533 310.512,309.289 311.446,309.284C312.303,309.284 313.016,309.567 313.586,310.132C314.156,310.697 314.44,311.438 314.44,312.354C314.44,313.306 314.125,314.081 313.494,314.678C312.862,315.275 312.034,315.573 311.009,315.573C309.974,315.573 309.146,315.268 308.524,314.657C307.902,314.047 307.591,313.199 307.591,312.115ZM309.491,310.925C309.122,311.29 308.938,311.775 308.938,312.381C308.938,312.987 309.122,313.475 309.491,313.844C309.86,314.213 310.371,314.398 311.022,314.398C311.665,314.398 312.166,314.213 312.526,313.844C312.886,313.475 313.066,312.987 313.066,312.381C313.066,311.766 312.888,311.278 312.53,310.918C312.172,310.558 311.67,310.378 311.022,310.378C310.371,310.378 309.86,310.56 309.491,310.925Z" style="fill-rule:nonzero;"/>
</svg>
