<?xml version="1.0" encoding="UTF-8" standalone="no"?>
<!DOCTYPE svg PUBLIC "-//W3C//DTD SVG 1.1//EN" "http://www.w3.org/Graphics/SVG/1.1/DTD/svg11.dtd">
<svg width="100%" height="100%" viewBox="0 0 580 320" version="1.1" xmlns="http://www.w3.org/2000/svg" xmlns:xlink="http://www.w3.org/1999/xlink" xml:space="preserve" xmlns:serif="http://www.serif.com/" style="fill-rule:evenodd;clip-rule:evenodd;stroke-linecap:round;stroke-linejoin:round;stroke-miterlimit:1.5;">
    <g transform="matrix(0.871951,0,0,0.871951,7.47904,-57.678)">
        <path d="M131.669,100.463C131.669,91.494 124.386,84.212 115.417,84.212L46.391,84.212C37.422,84.212 30.14,91.494 30.14,100.463L30.14,132.966C30.14,141.936 37.422,149.218 46.391,149.218L115.417,149.218C124.386,149.218 131.669,141.936 131.669,132.966L131.669,100.463Z" style="fill:rgb(235,235,235);"/>
    </g>
    <g transform="matrix(0.871951,0,0,0.871951,113.466,-57.678)">
        <path d="M131.669,100.463C131.669,91.494 124.386,84.212 115.417,84.212L46.391,84.212C37.422,84.212 30.14,91.494 30.14,100.463L30.14,132.966C30.14,141.936 37.422,149.218 46.391,149.218L115.417,149.218C124.386,149.218 131.669,141.936 131.669,132.966L131.669,100.463Z" style="fill:rgb(235,235,235);"/>
    </g>
    <g transform="matrix(0.871951,0,0,0.871951,219.457,-57.678)">
        <path d="M131.669,100.463C131.669,91.494 124.386,84.212 115.417,84.212L46.391,84.212C37.422,84.212 30.14,91.494 30.14,100.463L30.14,132.966C30.14,141.936 37.422,149.218 46.391,149.218L115.417,149.218C124.386,149.218 131.669,141.936 131.669,132.966L131.669,100.463Z" style="fill:rgb(235,235,235);"/>
    </g>
    <g transform="matrix(0.685279,0,0,0.685279,128.568,44.2802)">
        <path d="M131.669,100.463C131.669,91.494 124.386,84.212 115.417,84.212L46.391,84.212C37.422,84.212 30.14,91.494 30.14,100.463L30.14,132.966C30.14,141.936 37.422,149.218 46.391,149.218L115.417,149.218C124.386,149.218 131.669,141.936 131.669,132.966L131.669,100.463Z" style="fill:rgb(235,235,235);"/>
    </g>
    <g transform="matrix(0.871951,0,0,0.871951,325.443,-57.678)">
        <path d="M131.669,100.463C131.669,91.494 124.386,84.212 115.417,84.212L46.391,84.212C37.422,84.212 30.14,91.494 30.14,100.463L30.14,132.966C30.14,141.936 37.422,149.218 46.391,149.218L115.417,149.218C124.386,149.218 131.669,141.936 131.669,132.966L131.669,100.463Z" style="fill:rgb(235,235,235);"/>
    </g>
    <g transform="matrix(0.871951,0,0,0.871951,431.432,-57.678)">
        <path d="M131.669,100.463C131.669,91.494 124.386,84.212 115.417,84.212L46.391,84.212C37.422,84.212 30.14,91.494 30.14,100.463L30.14,132.966C30.14,141.936 37.422,149.218 46.391,149.218L115.417,149.218C124.386,149.218 131.669,141.936 131.669,132.966L131.669,100.463Z" style="fill:rgb(235,235,235);"/>
    </g>
    <g transform="matrix(0.871951,0,0,0.871951,-14.4432,-53.7146)">
        <text x="82.686px" y="116.464px" style="font-family:'ARSMaquettePro-Regular', 'ARS Maquette Pro';font-size:16.056px;">APNIC</text>
    </g>
    <g transform="matrix(0.871951,0,0,0.871951,91.3212,-53.7146)">
        <text x="77.837px" y="116.464px" style="font-family:'ARSMaquettePro-Regular', 'ARS Maquette Pro';font-size:16.056px;">LACNIC</text>
    </g>
    <g transform="matrix(0.871951,0,0,0.871951,197.311,-53.8423)">
        <text x="87.849px" y="116.464px" style="font-family:'ARSMaquettePro-Regular', 'ARS Maquette Pro';font-size:16.056px;">ARIN</text>
    </g>
    <g transform="matrix(0.871951,0,0,0.871951,91.3201,27.3734)">
        <text x="93.203px" y="116.464px" style="font-family:'ARSMaquettePro-Regular', 'ARS Maquette Pro';font-size:16.056px;">NIR</text>
    </g>
    <g transform="matrix(0.489006,0,0,0.489006,145.027,130.542)">
        <path d="M131.669,100.463C131.669,91.494 124.386,84.212 115.417,84.212L46.391,84.212C37.422,84.212 30.14,91.494 30.14,100.463L30.14,132.966C30.14,141.936 37.422,149.218 46.391,149.218L115.417,149.218C124.386,149.218 131.669,141.936 131.669,132.966L131.669,100.463Z" style="fill:rgb(235,235,235);"/>
    </g>
    <g transform="matrix(0.871951,0,0,0.871951,91.3201,90.7277)">
        <text x="94.493px" y="116.464px" style="font-family:'ARSMaquettePro-Regular', 'ARS Maquette Pro';font-size:16.056px;">LIR</text>
    </g>
    <g transform="matrix(0.489006,0,0,0.489006,85.3008,130.542)">
        <path d="M131.669,100.463C131.669,91.494 124.386,84.212 115.417,84.212L46.391,84.212C37.422,84.212 30.14,91.494 30.14,100.463L30.14,132.966C30.14,141.936 37.422,149.218 46.391,149.218L115.417,149.218C124.386,149.218 131.669,141.936 131.669,132.966L131.669,100.463Z" style="fill:rgb(235,235,235);"/>
    </g>
    <g transform="matrix(0.871951,0,0,0.871951,31.5942,90.7277)">
        <text x="94.493px" y="116.464px" style="font-family:'ARSMaquettePro-Regular', 'ARS Maquette Pro';font-size:16.056px;">LIR</text>
    </g>
    <g transform="matrix(0.489006,0,0,0.489006,85.3008,130.542)">
        <path d="M131.669,100.463C131.669,91.494 124.386,84.212 115.417,84.212L46.391,84.212C37.422,84.212 30.14,91.494 30.14,100.463L30.14,132.966C30.14,141.936 37.422,149.218 46.391,149.218L115.417,149.218C124.386,149.218 131.669,141.936 131.669,132.966L131.669,100.463Z" style="fill:rgb(235,235,235);"/>
    </g>
    <g transform="matrix(0.871951,0,0,0.871951,31.5942,90.7277)">
        <text x="94.493px" y="116.464px" style="font-family:'ARSMaquettePro-Regular', 'ARS Maquette Pro';font-size:16.056px;">LIR</text>
    </g>
    <g transform="matrix(0.489006,0,0,0.489006,25.6674,130.542)">
        <path d="M131.669,100.463C131.669,91.494 124.386,84.212 115.417,84.212L46.391,84.212C37.422,84.212 30.14,91.494 30.14,100.463L30.14,132.966C30.14,141.936 37.422,149.218 46.391,149.218L115.417,149.218C124.386,149.218 131.669,141.936 131.669,132.966L131.669,100.463Z" style="fill:rgb(235,235,235);"/>
    </g>
    <g transform="matrix(0.871951,0,0,0.871951,-28.0391,90.7277)">
        <text x="94.493px" y="116.464px" style="font-family:'ARSMaquettePro-Regular', 'ARS Maquette Pro';font-size:16.056px;">LIR</text>
    </g>
    <g transform="matrix(0.489006,0,0,0.489006,204.678,130.542)">
        <path d="M131.669,100.463C131.669,91.494 124.386,84.212 115.417,84.212L46.391,84.212C37.422,84.212 30.14,91.494 30.14,100.463L30.14,132.966C30.14,141.936 37.422,149.218 46.391,149.218L115.417,149.218C124.386,149.218 131.669,141.936 131.669,132.966L131.669,100.463Z" style="fill:rgb(235,235,235);"/>
    </g>
    <g transform="matrix(0.871951,0,0,0.871951,150.972,90.7277)">
        <text x="94.493px" y="116.464px" style="font-family:'ARSMaquettePro-Regular', 'ARS Maquette Pro';font-size:16.056px;">LIR</text>
    </g>
    <g transform="matrix(0.871951,0,0,0.871951,303.299,-53.8423)">
        <text x="70.221px" y="116.464px" style="font-family:'ARSMaquettePro-Regular', 'ARS Maquette Pro';font-size:16.056px;">RIPE NCC</text>
    </g>
    <g transform="matrix(0.871951,0,0,0.871951,409.288,-53.8423)">
        <text x="75.45px" y="116.464px" style="font-family:'ARSMaquettePro-Regular', 'ARS Maquette Pro';font-size:16.056px;">AFRINIC</text>
    </g>
    <g transform="matrix(1,0,0,1,-257.827,10.2607)">
        <path d="M442.329,62.172L442.329,91.728" style="fill:none;stroke:black;stroke-width:1px;"/>
    </g>
    <g transform="matrix(1,0,0,0.852156,-257.74,93.5559)">
        <path d="M442.329,62.172L442.329,91.728" style="fill:none;stroke:black;stroke-width:1.08px;"/>
    </g>
    <g transform="matrix(1,0,0,1,-151.759,10.2607)">
        <path d="M396,161.462L336.349,136.275L278.871,161.462" style="fill:none;stroke:black;stroke-width:1px;"/>
    </g>
    <g transform="matrix(1,0,0,1,-151.759,10.2607)">
        <path d="M336.349,62.172L216.989,161.462" style="fill:none;stroke:black;stroke-width:1px;"/>
    </g>
    <g transform="matrix(2e-06,0,0,3.70217,64.4124,-511.933)">
        <path d="M216.989,193.25L217.184,212.275" style="fill:none;stroke:black;stroke-width:0.38px;"/>
    </g>
    <g transform="matrix(2e-06,0,0,3.70217,183.235,-511.933)">
        <path d="M216.989,193.25L217.184,212.275" style="fill:none;stroke:black;stroke-width:0.38px;"/>
    </g>
    <g transform="matrix(-0.681138,0,0,5.21894,541.805,-936.128)">
        <path d="M216.989,193.25L217.184,212.275" style="fill:none;stroke:black;stroke-width:0.27px;"/>
    </g>
    <g transform="matrix(2e-06,0,0,3.70217,243.467,-511.933)">
        <path d="M216.989,193.25L217.184,212.275" style="fill:none;stroke:black;stroke-width:0.38px;"/>
    </g>
    <g transform="matrix(2e-06,0,0,3.70217,394.005,-511.933)">
        <path d="M216.989,193.25L217.184,212.275" style="fill:none;stroke:black;stroke-width:0.38px;"/>
    </g>
    <g transform="matrix(2e-06,0,0,3.70217,453.657,-511.933)">
        <path d="M216.989,193.25L217.184,212.275" style="fill:none;stroke:black;stroke-width:0.38px;"/>
    </g>
    <g transform="matrix(1,0,0,1,-92.8931,10.2607)">
        <path d="M216.989,193.25L217.184,212.275" style="fill:none;stroke:black;stroke-width:1px;"/>
    </g>
    <g transform="matrix(0.489006,0,0,0.489006,84.7285,181.356)">
        <path d="M131.669,100.463C131.669,91.494 124.386,84.212 115.417,84.212L46.391,84.212C37.422,84.212 30.14,91.494 30.14,100.463L30.14,132.966C30.14,141.936 37.422,149.218 46.391,149.218L115.417,149.218C124.386,149.218 131.669,141.936 131.669,132.966L131.669,100.463Z" style="fill:rgb(235,235,235);"/>
    </g>
    <g transform="matrix(0.871951,0,0,0.871951,31.0219,141.541)">
        <text x="94.411px" y="116.464px" style="font-family:'ARSMaquettePro-Regular', 'ARS Maquette Pro';font-size:16.056px;">ISP</text>
    </g>
    <g transform="matrix(1,0,0,1,-93.4655,61.074)">
        <path d="M216.989,193.25L217.184,212.275" style="fill:none;stroke:black;stroke-width:1px;"/>
    </g>
    <g transform="matrix(1,0,0,1,116.597,10.2607)">
        <path d="M216.989,193.25L217.184,212.275" style="fill:none;stroke:black;stroke-width:1px;"/>
    </g>
    <g transform="matrix(0.489006,0,0,0.489006,294.219,181.356)">
        <path d="M131.669,100.463C131.669,91.494 124.386,84.212 115.417,84.212L46.391,84.212C37.422,84.212 30.14,91.494 30.14,100.463L30.14,132.966C30.14,141.936 37.422,149.218 46.391,149.218L115.417,149.218C124.386,149.218 131.669,141.936 131.669,132.966L131.669,100.463Z" style="fill:rgb(235,235,235);"/>
    </g>
    <g transform="matrix(0.871951,0,0,0.871951,240.512,141.541)">
        <text x="94.411px" y="116.464px" style="font-family:'ARSMaquettePro-Regular', 'ARS Maquette Pro';font-size:16.056px;">ISP</text>
    </g>
    <g transform="matrix(1,0,0,1,116.025,61.074)">
        <path d="M216.989,193.25L217.184,212.275" style="fill:none;stroke:black;stroke-width:1px;"/>
    </g>
    <g transform="matrix(0.489006,0,0,0.489006,354.442,130.542)">
        <path d="M131.669,100.463C131.669,91.494 124.386,84.212 115.417,84.212L46.391,84.212C37.422,84.212 30.14,91.494 30.14,100.463L30.14,132.966C30.14,141.936 37.422,149.218 46.391,149.218L115.417,149.218C124.386,149.218 131.669,141.936 131.669,132.966L131.669,100.463Z" style="fill:rgb(235,235,235);"/>
    </g>
    <g transform="matrix(0.871951,0,0,0.871951,300.736,90.7277)">
        <text x="94.493px" y="116.464px" style="font-family:'ARSMaquettePro-Regular', 'ARS Maquette Pro';font-size:16.056px;">LIR</text>
    </g>
    <g transform="matrix(0.489006,0,0,0.489006,294.717,130.542)">
        <path d="M131.669,100.463C131.669,91.494 124.386,84.212 115.417,84.212L46.391,84.212C37.422,84.212 30.14,91.494 30.14,100.463L30.14,132.966C30.14,141.936 37.422,149.218 46.391,149.218L115.417,149.218C124.386,149.218 131.669,141.936 131.669,132.966L131.669,100.463Z" style="fill:rgb(235,235,235);"/>
    </g>
    <g transform="matrix(0.871951,0,0,0.871951,241.01,90.7277)">
        <text x="94.493px" y="116.464px" style="font-family:'ARSMaquettePro-Regular', 'ARS Maquette Pro';font-size:16.056px;">LIR</text>
    </g>
    <g transform="matrix(0.489006,0,0,0.489006,414.094,130.542)">
        <path d="M131.669,100.463C131.669,91.494 124.386,84.212 115.417,84.212L46.391,84.212C37.422,84.212 30.14,91.494 30.14,100.463L30.14,132.966C30.14,141.936 37.422,149.218 46.391,149.218L115.417,149.218C124.386,149.218 131.669,141.936 131.669,132.966L131.669,100.463Z" style="fill:rgb(235,235,235);"/>
    </g>
    <g transform="matrix(0.871951,0,0,0.871951,360.387,90.7277)">
        <text x="94.493px" y="116.464px" style="font-family:'ARSMaquettePro-Regular', 'ARS Maquette Pro';font-size:16.056px;">LIR</text>
    </g>
    <g transform="matrix(0.489006,0,0,0.489006,145.027,231.281)">
        <path d="M131.669,100.463C131.669,91.494 124.386,84.212 115.417,84.212L46.391,84.212C37.422,84.212 30.14,91.494 30.14,100.463L30.14,132.966C30.14,141.936 37.422,149.218 46.391,149.218L115.417,149.218C124.386,149.218 131.669,141.936 131.669,132.966L131.669,100.463Z" style="fill:rgb(235,235,235);"/>
    </g>
    <g transform="matrix(0.489006,0,0,0.489006,85.3008,231.281)">
        <path d="M131.669,100.463C131.669,91.494 124.386,84.212 115.417,84.212L46.391,84.212C37.422,84.212 30.14,91.494 30.14,100.463L30.14,132.966C30.14,141.936 37.422,149.218 46.391,149.218L115.417,149.218C124.386,149.218 131.669,141.936 131.669,132.966L131.669,100.463Z" style="fill:rgb(235,235,235);"/>
    </g>
    <g transform="matrix(0.871951,0,0,0.871951,31.5942,191.466)">
        <text x="94.493px" y="116.464px" style="font-family:'ARSMaquettePro-Regular', 'ARS Maquette Pro';font-size:16.056px;">LIR</text>
    </g>
    <g transform="matrix(0.489006,0,0,0.489006,85.3008,231.281)">
        <path d="M131.669,100.463C131.669,91.494 124.386,84.212 115.417,84.212L46.391,84.212C37.422,84.212 30.14,91.494 30.14,100.463L30.14,132.966C30.14,141.936 37.422,149.218 46.391,149.218L115.417,149.218C124.386,149.218 131.669,141.936 131.669,132.966L131.669,100.463Z" style="fill:rgb(235,235,235);"/>
    </g>
    <g transform="matrix(0.489006,0,0,0.489006,25.6674,231.281)">
        <path d="M131.669,100.463C131.669,91.494 124.386,84.212 115.417,84.212L46.391,84.212C37.422,84.212 30.14,91.494 30.14,100.463L30.14,132.966C30.14,141.936 37.422,149.218 46.391,149.218L115.417,149.218C124.386,149.218 131.669,141.936 131.669,132.966L131.669,100.463Z" style="fill:rgb(235,235,235);"/>
    </g>
    <g transform="matrix(0.871951,0,0,0.871951,-28.0567,185.313)">
        <text x="95.938px" y="116.464px" style="font-family:'ARSMaquettePro-Regular', 'ARS Maquette Pro';font-size:11.469px;">End</text>
        <text x="93.896px" y="127.933px" style="font-family:'ARSMaquettePro-Regular', 'ARS Maquette Pro';font-size:11.469px;">User</text>
    </g>
    <g transform="matrix(0.489006,0,0,0.489006,204.678,231.281)">
        <path d="M131.669,100.463C131.669,91.494 124.386,84.212 115.417,84.212L46.391,84.212C37.422,84.212 30.14,91.494 30.14,100.463L30.14,132.966C30.14,141.936 37.422,149.218 46.391,149.218L115.417,149.218C124.386,149.218 131.669,141.936 131.669,132.966L131.669,100.463Z" style="fill:rgb(235,235,235);"/>
    </g>
    <g transform="matrix(0.489006,0,0,0.489006,354.442,231.281)">
        <path d="M131.669,100.463C131.669,91.494 124.386,84.212 115.417,84.212L46.391,84.212C37.422,84.212 30.14,91.494 30.14,100.463L30.14,132.966C30.14,141.936 37.422,149.218 46.391,149.218L115.417,149.218C124.386,149.218 131.669,141.936 131.669,132.966L131.669,100.463Z" style="fill:rgb(235,235,235);"/>
    </g>
    <g transform="matrix(0.489006,0,0,0.489006,294.717,231.281)">
        <path d="M131.669,100.463C131.669,91.494 124.386,84.212 115.417,84.212L46.391,84.212C37.422,84.212 30.14,91.494 30.14,100.463L30.14,132.966C30.14,141.936 37.422,149.218 46.391,149.218L115.417,149.218C124.386,149.218 131.669,141.936 131.669,132.966L131.669,100.463Z" style="fill:rgb(235,235,235);"/>
    </g>
    <g transform="matrix(0.489006,0,0,0.489006,414.094,231.281)">
        <path d="M131.669,100.463C131.669,91.494 124.386,84.212 115.417,84.212L46.391,84.212C37.422,84.212 30.14,91.494 30.14,100.463L30.14,132.966C30.14,141.936 37.422,149.218 46.391,149.218L115.417,149.218C124.386,149.218 131.669,141.936 131.669,132.966L131.669,100.463Z" style="fill:rgb(235,235,235);"/>
    </g>
    <g transform="matrix(1,0,0,3.94219,57.6565,-464.79)">
        <path d="M396,161.462L336.349,136.275L278.871,161.462" style="fill:none;stroke:black;stroke-width:0.35px;"/>
    </g>
    <g transform="matrix(0.871951,0,0,0.871951,30.3715,185.472)">
        <text x="95.938px" y="116.464px" style="font-family:'ARSMaquettePro-Regular', 'ARS Maquette Pro';font-size:11.469px;">End</text>
        <text x="93.896px" y="127.933px" style="font-family:'ARSMaquettePro-Regular', 'ARS Maquette Pro';font-size:11.469px;">User</text>
    </g>
    <g transform="matrix(0.871951,0,0,0.871951,89.9765,185.313)">
        <text x="95.938px" y="116.464px" style="font-family:'ARSMaquettePro-Regular', 'ARS Maquette Pro';font-size:11.469px;">End</text>
        <text x="93.896px" y="127.933px" style="font-family:'ARSMaquettePro-Regular', 'ARS Maquette Pro';font-size:11.469px;">User</text>
    </g>
    <g transform="matrix(0.871951,0,0,0.871951,150.573,185.313)">
        <text x="95.938px" y="116.464px" style="font-family:'ARSMaquettePro-Regular', 'ARS Maquette Pro';font-size:11.469px;">End</text>
        <text x="93.896px" y="127.933px" style="font-family:'ARSMaquettePro-Regular', 'ARS Maquette Pro';font-size:11.469px;">User</text>
    </g>
    <g transform="matrix(0.871951,0,0,0.871951,239.995,185.357)">
        <text x="95.938px" y="116.464px" style="font-family:'ARSMaquettePro-Regular', 'ARS Maquette Pro';font-size:11.469px;">End</text>
        <text x="93.896px" y="127.933px" style="font-family:'ARSMaquettePro-Regular', 'ARS Maquette Pro';font-size:11.469px;">User</text>
    </g>
    <g transform="matrix(0.871951,0,0,0.871951,300.718,185.357)">
        <text x="95.938px" y="116.464px" style="font-family:'ARSMaquettePro-Regular', 'ARS Maquette Pro';font-size:11.469px;">End</text>
        <text x="93.896px" y="127.933px" style="font-family:'ARSMaquettePro-Regular', 'ARS Maquette Pro';font-size:11.469px;">User</text>
    </g>
    <g transform="matrix(0.871951,0,0,0.871951,360.37,185.313)">
        <text x="95.938px" y="116.464px" style="font-family:'ARSMaquettePro-Regular', 'ARS Maquette Pro';font-size:11.469px;">End</text>
        <text x="93.896px" y="127.933px" style="font-family:'ARSMaquettePro-Regular', 'ARS Maquette Pro';font-size:11.469px;">User</text>
    </g>
</svg>
