<?xml version="1.0" encoding="UTF-8" standalone="no"?>
<!DOCTYPE svg PUBLIC "-//W3C//DTD SVG 1.1//EN" "http://www.w3.org/Graphics/SVG/1.1/DTD/svg11.dtd">
<svg width="100%" height="100%" viewBox="0 0 580 320" version="1.1" xmlns="http://www.w3.org/2000/svg" xmlns:xlink="http://www.w3.org/1999/xlink" xml:space="preserve" xmlns:serif="http://www.serif.com/" style="fill-rule:evenodd;clip-rule:evenodd;stroke-linecap:round;stroke-linejoin:round;stroke-miterlimit:1.5;">
    <path d="M333.587,203.511L333.781,222.536" style="fill:none;stroke:black;stroke-width:1px;"/>
    <path d="M394.005,203.511L394.005,273.944" style="fill:none;stroke:black;stroke-width:1px;"/>
    <path d="M453.657,203.511L453.657,273.944" style="fill:none;stroke:black;stroke-width:1px;"/>
    <path d="M333.014,254.324L333.209,273.349" style="fill:none;stroke:black;stroke-width:1px;"/>
    <path d="M122.288,29.921C122.288,22.1 115.938,15.75 108.117,15.75L47.93,15.75C40.109,15.75 33.759,22.1 33.759,29.921L33.759,58.262C33.759,66.083 40.109,72.433 47.93,72.433L108.117,72.433C115.938,72.433 122.288,66.083 122.288,58.262L122.288,29.921Z" style="fill:rgb(235,235,235);"/>
    <path d="M228.274,29.921C228.274,22.1 221.925,15.75 214.104,15.75L153.916,15.75C146.095,15.75 139.746,22.1 139.746,29.921L139.746,58.262C139.746,66.083 146.095,72.433 153.916,72.433L214.104,72.433C221.925,72.433 228.274,66.083 228.274,58.262L228.274,29.921Z" style="fill:rgb(235,235,235);"/>
    <path d="M334.265,29.921C334.265,22.1 327.916,15.75 320.095,15.75L259.908,15.75C252.087,15.75 245.737,22.1 245.737,29.921L245.737,58.262C245.737,66.083 252.087,72.433 259.908,72.433L320.095,72.433C327.916,72.433 334.265,66.083 334.265,58.262L334.265,29.921Z" style="fill:rgb(235,235,235);"/>
    <path d="M218.798,113.126C218.798,106.979 213.808,101.989 207.661,101.989L160.359,101.989C154.212,101.989 149.222,106.979 149.222,113.126L149.222,135.399C149.222,141.546 154.212,146.536 160.359,146.536L207.661,146.536C213.808,146.536 218.798,141.546 218.798,135.399L218.798,113.126Z" style="fill:rgb(235,235,235);"/>
    <path d="M440.252,29.921C440.252,22.1 433.902,15.75 426.081,15.75L365.894,15.75C358.073,15.75 351.724,22.1 351.724,29.921L351.724,58.262C351.724,66.083 358.073,72.433 365.894,72.433L426.081,72.433C433.902,72.433 440.252,66.083 440.252,58.262L440.252,29.921Z" style="fill:rgb(235,235,235);"/>
    <path d="M546.241,29.921C546.241,22.1 539.891,15.75 532.07,15.75L471.883,15.75C464.062,15.75 457.712,22.1 457.712,29.921L457.712,58.262C457.712,66.083 464.062,72.433 471.883,72.433L532.07,72.433C539.891,72.433 546.241,66.083 546.241,58.262L546.241,29.921Z" style="fill:rgb(235,235,235);"/>
    <path d="M57.812,47.836L61.606,38.512L63.042,38.512L66.856,47.836L65.38,47.836L64.389,45.246L60.191,45.246L59.18,47.836L57.812,47.836ZM60.636,44.097L63.958,44.097L62.317,39.784L60.636,44.097Z" style="fill-rule:nonzero;"/>
    <path d="M68.251,47.836L68.251,38.512L72.175,38.512C73.209,38.512 74.016,38.773 74.595,39.295C75.173,39.817 75.463,40.522 75.463,41.411C75.463,42.299 75.176,43.002 74.601,43.52C74.027,44.037 73.218,44.295 72.175,44.295L69.57,44.295L69.57,47.836L68.251,47.836ZM69.57,43.092L72.175,43.092C72.808,43.092 73.288,42.943 73.614,42.645C73.939,42.346 74.102,41.935 74.102,41.411C74.102,40.877 73.939,40.462 73.614,40.163C73.288,39.865 72.808,39.715 72.175,39.715L69.57,39.715L69.57,43.092Z" style="fill-rule:nonzero;"/>
    <path d="M77.124,47.836L77.124,38.512L78.805,38.512L83.55,46.018L83.55,38.512L84.814,38.512L84.814,47.836L83.269,47.836L78.389,40.153L78.389,47.836L77.124,47.836Z" style="fill-rule:nonzero;"/>
    <rect x="87.323" y="38.512" width="1.306" height="9.324" style="fill-rule:nonzero;"/>
    <path d="M91.807,46.647C90.973,45.74 90.556,44.583 90.556,43.174C90.556,41.766 90.975,40.609 91.811,39.702C92.647,38.795 93.737,38.341 95.082,38.341C96.659,38.341 97.88,38.968 98.746,40.221L97.714,40.932C97.121,40.012 96.258,39.551 95.123,39.551C95.118,39.551 95.114,39.551 95.109,39.551C94.148,39.551 93.377,39.879 92.799,40.536C92.22,41.192 91.93,42.067 91.93,43.161C91.93,44.264 92.22,45.148 92.799,45.813C93.377,46.478 94.139,46.811 95.082,46.811C96.221,46.811 97.098,46.333 97.714,45.376L98.794,46.073C97.946,47.363 96.713,48.007 95.096,48.007C93.742,48.007 92.646,47.554 91.807,46.647Z" style="fill-rule:nonzero;"/>
    <path d="M160.449,47.836L160.449,38.512L161.755,38.512L161.755,46.633L166.937,46.633L166.937,47.836L160.449,47.836Z" style="fill-rule:nonzero;"/>
    <path d="M167.299,47.836L171.093,38.512L172.528,38.512L176.343,47.836L174.866,47.836L173.875,45.246L169.678,45.246L168.666,47.836L167.299,47.836ZM170.122,44.097L173.444,44.097L171.804,39.784L170.122,44.097Z" style="fill-rule:nonzero;"/>
    <path d="M178.4,46.647C177.566,45.74 177.149,44.583 177.149,43.174C177.149,41.766 177.568,40.609 178.404,39.702C179.24,38.795 180.33,38.341 181.675,38.341C183.252,38.341 184.473,38.968 185.339,40.221L184.307,40.932C183.714,40.012 182.851,39.551 181.716,39.551C181.711,39.551 181.707,39.551 181.702,39.551C180.741,39.551 179.97,39.879 179.392,40.536C178.813,41.192 178.523,42.067 178.523,43.161C178.523,44.264 178.813,45.148 179.392,45.813C179.97,46.478 180.731,46.811 181.675,46.811C182.814,46.811 183.691,46.333 184.307,45.376L185.387,46.073C184.539,47.363 183.306,48.007 181.688,48.007C180.335,48.007 179.239,47.554 178.4,46.647Z" style="fill-rule:nonzero;"/>
    <path d="M187.116,47.836L187.116,38.512L188.798,38.512L193.542,46.018L193.542,38.512L194.807,38.512L194.807,47.836L193.262,47.836L188.381,40.153L188.381,47.836L187.116,47.836Z" style="fill-rule:nonzero;"/>
    <rect x="197.315" y="38.512" width="1.306" height="9.324" style="fill-rule:nonzero;"/>
    <path d="M201.8,46.647C200.966,45.74 200.549,44.583 200.549,43.174C200.549,41.766 200.967,40.609 201.803,39.702C202.639,38.795 203.73,38.341 205.074,38.341C206.651,38.341 207.872,38.968 208.738,40.221L207.706,40.932C207.114,40.012 206.25,39.551 205.115,39.551C205.111,39.551 205.106,39.551 205.102,39.551C204.14,39.551 203.37,39.879 202.791,40.536C202.212,41.192 201.923,42.067 201.923,43.161C201.923,44.264 202.212,45.148 202.791,45.813C203.37,46.478 204.131,46.811 205.074,46.811C206.214,46.811 207.091,46.333 207.706,45.376L208.786,46.073C207.938,47.363 206.706,48.007 205.088,48.007C203.734,48.007 202.638,47.554 201.8,46.647Z" style="fill-rule:nonzero;"/>
    <path d="M274.068,47.709L277.862,38.385L279.298,38.385L283.112,47.709L281.635,47.709L280.644,45.118L276.447,45.118L275.435,47.709L274.068,47.709ZM276.891,43.969L280.214,43.969L278.573,39.656L276.891,43.969Z" style="fill-rule:nonzero;"/>
    <path d="M284.507,47.709L284.507,38.385L288.594,38.385C289.547,38.385 290.306,38.632 290.871,39.126C291.436,39.621 291.718,40.283 291.718,41.112C291.718,41.736 291.543,42.275 291.192,42.729C290.841,43.182 290.376,43.511 289.798,43.717L291.971,47.709L290.488,47.709L288.499,43.956L285.826,43.956L285.826,47.709L284.507,47.709ZM285.826,42.807L288.594,42.807C289.128,42.807 289.555,42.66 289.876,42.366C290.197,42.073 290.358,41.689 290.358,41.215C290.358,40.718 290.193,40.323 289.863,40.029C289.532,39.735 289.096,39.588 288.553,39.588L285.826,39.588L285.826,42.807Z" style="fill-rule:nonzero;"/>
    <rect x="293.756" y="38.385" width="1.306" height="9.324" style="fill-rule:nonzero;"/>
    <path d="M297.577,47.709L297.577,38.385L299.259,38.385L304.003,45.89L304.003,38.385L305.267,38.385L305.267,47.709L303.722,47.709L298.842,40.025L298.842,47.709L297.577,47.709Z" style="fill-rule:nonzero;"/>
    <path d="M173.847,128.924L173.847,119.6L175.528,119.6L180.272,127.106L180.272,119.6L181.537,119.6L181.537,128.924L179.992,128.924L175.111,121.241L175.111,128.924L173.847,128.924Z" style="fill-rule:nonzero;"/>
    <rect x="184.046" y="119.6" width="1.306" height="9.324" style="fill-rule:nonzero;"/>
    <path d="M187.867,128.924L187.867,119.6L191.955,119.6C192.907,119.6 193.666,119.848 194.231,120.342C194.796,120.836 195.079,121.498 195.079,122.328C195.079,122.952 194.904,123.491 194.553,123.945C194.202,124.398 193.737,124.727 193.158,124.932L195.332,128.924L193.848,128.924L191.859,125.172L189.186,125.172L189.186,128.924L187.867,128.924ZM189.186,124.023L191.955,124.023C192.488,124.023 192.915,123.876 193.237,123.582C193.558,123.288 193.719,122.904 193.719,122.43C193.719,121.934 193.553,121.538 193.223,121.244C192.893,120.95 192.456,120.803 191.914,120.803L189.186,120.803L189.186,124.023Z" style="fill-rule:nonzero;"/>
    <path d="M209.413,179.67C209.413,175.283 205.852,171.723 201.466,171.723L167.712,171.723C163.326,171.723 159.765,175.283 159.765,179.67L159.765,195.564C159.765,199.95 163.326,203.511 167.712,203.511L201.466,203.511C205.852,203.511 209.413,199.95 209.413,195.564L209.413,179.67Z" style="fill:rgb(235,235,235);"/>
    <path d="M174.971,192.279L174.971,182.955L176.277,182.955L176.277,191.076L181.458,191.076L181.458,192.279L174.971,192.279Z" style="fill-rule:nonzero;"/>
    <rect x="182.921" y="182.955" width="1.306" height="9.324" style="fill-rule:nonzero;"/>
    <path d="M186.743,192.279L186.743,182.955L190.83,182.955C191.783,182.955 192.542,183.202 193.107,183.696C193.672,184.191 193.954,184.853 193.954,185.682C193.954,186.306 193.779,186.845 193.428,187.299C193.077,187.752 192.612,188.082 192.034,188.287L194.207,192.279L192.724,192.279L190.735,188.526L188.062,188.526L188.062,192.279L186.743,192.279ZM188.062,187.377L190.83,187.377C191.364,187.377 191.791,187.23 192.112,186.937C192.433,186.643 192.594,186.259 192.594,185.785C192.594,185.288 192.429,184.893 192.098,184.599C191.768,184.305 191.332,184.158 190.789,184.158L188.062,184.158L188.062,187.377Z" style="fill-rule:nonzero;"/>
    <path d="M149.688,179.67C149.688,175.283 146.127,171.723 141.74,171.723L107.986,171.723C103.6,171.723 100.039,175.283 100.039,179.67L100.039,195.564C100.039,199.95 103.6,203.511 107.986,203.511L141.74,203.511C146.127,203.511 149.688,199.95 149.688,195.564L149.688,179.67Z" style="fill:rgb(235,235,235);"/>
    <path d="M115.245,192.279L115.245,182.955L116.551,182.955L116.551,191.076L121.733,191.076L121.733,192.279L115.245,192.279Z" style="fill-rule:nonzero;"/>
    <rect x="123.195" y="182.955" width="1.306" height="9.324" style="fill-rule:nonzero;"/>
    <path d="M127.017,192.279L127.017,182.955L131.105,182.955C132.057,182.955 132.816,183.202 133.381,183.696C133.946,184.191 134.229,184.853 134.229,185.682C134.229,186.306 134.053,186.845 133.702,187.299C133.351,187.752 132.886,188.082 132.308,188.287L134.482,192.279L132.998,192.279L131.009,188.526L128.336,188.526L128.336,192.279L127.017,192.279ZM128.336,187.377L131.105,187.377C131.638,187.377 132.065,187.23 132.386,186.937C132.708,186.643 132.868,186.259 132.868,185.785C132.868,185.288 132.703,184.893 132.373,184.599C132.042,184.305 131.606,184.158 131.064,184.158L128.336,184.158L128.336,187.377Z" style="fill-rule:nonzero;"/>
    <path d="M149.688,179.67C149.688,175.283 146.127,171.723 141.74,171.723L107.986,171.723C103.6,171.723 100.039,175.283 100.039,179.67L100.039,195.564C100.039,199.95 103.6,203.511 107.986,203.511L141.74,203.511C146.127,203.511 149.688,199.95 149.688,195.564L149.688,179.67Z" style="fill:rgb(235,235,235);"/>
    <path d="M115.245,192.279L115.245,182.955L116.551,182.955L116.551,191.076L121.733,191.076L121.733,192.279L115.245,192.279Z" style="fill-rule:nonzero;"/>
    <rect x="123.195" y="182.955" width="1.306" height="9.324" style="fill-rule:nonzero;"/>
    <path d="M127.017,192.279L127.017,182.955L131.105,182.955C132.057,182.955 132.816,183.202 133.381,183.696C133.946,184.191 134.229,184.853 134.229,185.682C134.229,186.306 134.053,186.845 133.702,187.299C133.351,187.752 132.886,188.082 132.308,188.287L134.482,192.279L132.998,192.279L131.009,188.526L128.336,188.526L128.336,192.279L127.017,192.279ZM128.336,187.377L131.105,187.377C131.638,187.377 132.065,187.23 132.386,186.937C132.708,186.643 132.868,186.259 132.868,185.785C132.868,185.288 132.703,184.893 132.373,184.599C132.042,184.305 131.606,184.158 131.064,184.158L128.336,184.158L128.336,187.377Z" style="fill-rule:nonzero;"/>
    <path d="M90.054,179.67C90.054,175.283 86.493,171.723 82.107,171.723L48.353,171.723C43.967,171.723 40.406,175.283 40.406,179.67L40.406,195.564C40.406,199.95 43.967,203.511 48.353,203.511L82.107,203.511C86.493,203.511 90.054,199.95 90.054,195.564L90.054,179.67Z" style="fill:rgb(235,235,235);"/>
    <path d="M55.612,192.279L55.612,182.955L56.918,182.955L56.918,191.076L62.099,191.076L62.099,192.279L55.612,192.279Z" style="fill-rule:nonzero;"/>
    <rect x="63.562" y="182.955" width="1.306" height="9.324" style="fill-rule:nonzero;"/>
    <path d="M67.383,192.279L67.383,182.955L71.471,182.955C72.424,182.955 73.182,183.202 73.748,183.696C74.313,184.191 74.595,184.853 74.595,185.682C74.595,186.306 74.42,186.845 74.069,187.299C73.718,187.752 73.253,188.082 72.674,188.287L74.848,192.279L73.365,192.279L71.376,188.526L68.703,188.526L68.703,192.279L67.383,192.279ZM68.703,187.377L71.471,187.377C72.004,187.377 72.432,187.23 72.753,186.937C73.074,186.643 73.235,186.259 73.235,185.785C73.235,185.288 73.07,184.893 72.739,184.599C72.409,184.305 71.973,184.158 71.43,184.158L68.703,184.158L68.703,187.377Z" style="fill-rule:nonzero;"/>
    <path d="M269.065,179.67C269.065,175.283 265.504,171.723 261.118,171.723L227.364,171.723C222.978,171.723 219.417,175.283 219.417,179.67L219.417,195.564C219.417,199.95 222.978,203.511 227.364,203.511L261.118,203.511C265.504,203.511 269.065,199.95 269.065,195.564L269.065,179.67Z" style="fill:rgb(235,235,235);"/>
    <path d="M234.623,192.279L234.623,182.955L235.928,182.955L235.928,191.076L241.11,191.076L241.11,192.279L234.623,192.279Z" style="fill-rule:nonzero;"/>
    <rect x="242.573" y="182.955" width="1.306" height="9.324" style="fill-rule:nonzero;"/>
    <path d="M246.394,192.279L246.394,182.955L250.482,182.955C251.434,182.955 252.193,183.202 252.758,183.696C253.323,184.191 253.606,184.853 253.606,185.682C253.606,186.306 253.431,186.845 253.08,187.299C252.729,187.752 252.264,188.082 251.685,188.287L253.859,192.279L252.376,192.279L250.386,188.526L247.713,188.526L247.713,192.279L246.394,192.279ZM247.713,187.377L250.482,187.377C251.015,187.377 251.442,187.23 251.764,186.937C252.085,186.643 252.246,186.259 252.246,185.785C252.246,185.288 252.08,184.893 251.75,184.599C251.42,184.305 250.983,184.158 250.441,184.158L247.713,184.158L247.713,187.377Z" style="fill-rule:nonzero;"/>
    <path d="M365.786,47.709L365.786,38.385L369.874,38.385C370.826,38.385 371.585,38.632 372.15,39.126C372.715,39.621 372.998,40.283 372.998,41.112C372.998,41.736 372.822,42.275 372.471,42.729C372.12,43.182 371.656,43.511 371.077,43.717L373.251,47.709L371.767,47.709L369.778,43.956L367.105,43.956L367.105,47.709L365.786,47.709ZM367.105,42.807L369.874,42.807C370.407,42.807 370.834,42.66 371.155,42.366C371.477,42.073 371.637,41.689 371.637,41.215C371.637,40.718 371.472,40.323 371.142,40.029C370.811,39.735 370.375,39.588 369.833,39.588L367.105,39.588L367.105,42.807Z" style="fill-rule:nonzero;"/>
    <rect x="375.035" y="38.385" width="1.306" height="9.324" style="fill-rule:nonzero;"/>
    <path d="M378.856,47.709L378.856,38.385L382.78,38.385C383.814,38.385 384.621,38.645 385.2,39.167C385.779,39.689 386.068,40.394 386.068,41.283C386.068,42.172 385.781,42.875 385.207,43.392C384.632,43.909 383.824,44.168 382.78,44.168L380.175,44.168L380.175,47.709L378.856,47.709ZM380.175,42.965L382.78,42.965C383.413,42.965 383.893,42.815 384.219,42.517C384.545,42.218 384.708,41.807 384.708,41.283C384.708,40.75 384.545,40.334 384.219,40.035C383.893,39.737 383.413,39.588 382.78,39.588L380.175,39.588L380.175,42.965Z" style="fill-rule:nonzero;"/>
    <path d="M387.729,47.709L387.729,38.385L394.34,38.385L394.34,39.588L389.048,39.588L389.048,42.219L393.656,42.219L393.656,43.354L389.048,43.354L389.048,46.506L394.476,46.506L394.476,47.709L387.729,47.709Z" style="fill-rule:nonzero;"/>
    <path d="M400.177,47.709L400.177,38.385L401.859,38.385L406.603,45.89L406.603,38.385L407.868,38.385L407.868,47.709L406.323,47.709L401.442,40.025L401.442,47.709L400.177,47.709Z" style="fill-rule:nonzero;"/>
    <path d="M411.04,46.519C410.206,45.612 409.789,44.455 409.789,43.047C409.789,41.638 410.207,40.481 411.043,39.574C411.879,38.667 412.97,38.214 414.314,38.214C415.891,38.214 417.112,38.84 417.978,40.094L416.946,40.804C416.353,39.884 415.49,39.424 414.355,39.424C414.351,39.424 414.346,39.424 414.341,39.424C413.38,39.424 412.61,39.752 412.031,40.408C411.452,41.064 411.163,41.939 411.163,43.033C411.163,44.136 411.452,45.02 412.031,45.685C412.61,46.351 413.371,46.683 414.314,46.683C415.453,46.683 416.331,46.205 416.946,45.248L418.026,45.945C417.178,47.235 415.946,47.88 414.328,47.88C412.974,47.88 411.878,47.426 411.04,46.519Z" style="fill-rule:nonzero;"/>
    <path d="M420.419,46.519C419.585,45.612 419.168,44.455 419.168,43.047C419.168,41.638 419.586,40.481 420.422,39.574C421.258,38.667 422.349,38.214 423.693,38.214C425.27,38.214 426.491,38.84 427.357,40.094L426.325,40.804C425.732,39.884 424.869,39.424 423.734,39.424C423.729,39.424 423.725,39.424 423.72,39.424C422.759,39.424 421.989,39.752 421.41,40.408C420.831,41.064 420.542,41.939 420.542,43.033C420.542,44.136 420.831,45.02 421.41,45.685C421.989,46.351 422.75,46.683 423.693,46.683C424.832,46.683 425.71,46.205 426.325,45.248L427.405,45.945C426.557,47.235 425.325,47.88 423.707,47.88C422.353,47.88 421.257,47.426 420.419,46.519Z" style="fill-rule:nonzero;"/>
    <path d="M475.234,47.709L479.028,38.385L480.463,38.385L484.278,47.709L482.801,47.709L481.81,45.118L477.613,45.118L476.601,47.709L475.234,47.709ZM478.057,43.969L481.379,43.969L479.738,39.656L478.057,43.969Z" style="fill-rule:nonzero;"/>
    <path d="M485.672,47.709L485.672,38.385L492.405,38.385L492.405,39.588L486.991,39.588L486.991,42.274L491.585,42.274L491.585,43.409L486.991,43.409L486.991,47.709L485.672,47.709Z" style="fill-rule:nonzero;"/>
    <path d="M494.094,47.709L494.094,38.385L498.182,38.385C499.134,38.385 499.893,38.632 500.458,39.126C501.023,39.621 501.306,40.283 501.306,41.112C501.306,41.736 501.13,42.275 500.78,42.729C500.429,43.182 499.964,43.511 499.385,43.717L501.559,47.709L500.075,47.709L498.086,43.956L495.413,43.956L495.413,47.709L494.094,47.709ZM495.413,42.807L498.182,42.807C498.715,42.807 499.142,42.66 499.464,42.366C499.785,42.073 499.946,41.689 499.946,41.215C499.946,40.718 499.78,40.323 499.45,40.029C499.12,39.735 498.683,39.588 498.141,39.588L495.413,39.588L495.413,42.807Z" style="fill-rule:nonzero;"/>
    <rect x="503.343" y="38.385" width="1.306" height="9.324" style="fill-rule:nonzero;"/>
    <path d="M507.164,47.709L507.164,38.385L508.846,38.385L513.59,45.89L513.59,38.385L514.855,38.385L514.855,47.709L513.31,47.709L508.429,40.025L508.429,47.709L507.164,47.709Z" style="fill-rule:nonzero;"/>
    <rect x="517.363" y="38.385" width="1.306" height="9.324" style="fill-rule:nonzero;"/>
    <path d="M521.848,46.519C521.014,45.612 520.597,44.455 520.597,43.047C520.597,41.638 521.015,40.481 521.851,39.574C522.688,38.667 523.778,38.214 525.122,38.214C526.699,38.214 527.92,38.84 528.786,40.094L527.754,40.804C527.162,39.884 526.298,39.424 525.163,39.424C525.159,39.424 525.154,39.424 525.15,39.424C524.188,39.424 523.418,39.752 522.839,40.408C522.26,41.064 521.971,41.939 521.971,43.033C521.971,44.136 522.26,45.02 522.839,45.685C523.418,46.351 524.179,46.683 525.122,46.683C526.262,46.683 527.139,46.205 527.754,45.248L528.834,45.945C527.987,47.235 526.754,47.88 525.136,47.88C523.782,47.88 522.686,47.426 521.848,46.519Z" style="fill-rule:nonzero;"/>
    <path d="M184.502,72.433L184.502,101.989" style="fill:none;stroke:black;stroke-width:1px;"/>
    <path d="M184.589,146.536L184.589,171.723" style="fill:none;stroke:black;stroke-width:1px;"/>
    <path d="M244.241,171.723L184.589,146.536L127.112,171.723" style="fill:none;stroke:black;stroke-width:1px;"/>
    <path d="M184.589,72.433L65.23,171.723" style="fill:none;stroke:black;stroke-width:1px;"/>
    <path d="M64.412,203.511L64.412,273.944" style="fill:none;stroke:black;stroke-width:1px;"/>
    <path d="M183.235,203.511L183.235,273.944" style="fill:none;stroke:black;stroke-width:1px;"/>
    <path d="M394.005,72.433L393.872,171.723" style="fill:none;stroke:black;stroke-width:1px;"/>
    <path d="M243.467,203.511L243.467,273.944" style="fill:none;stroke:black;stroke-width:1px;"/>
    <path d="M124.096,203.511L124.291,222.536" style="fill:none;stroke:black;stroke-width:1px;"/>
    <path d="M149.115,230.483C149.115,226.097 145.554,222.536 141.168,222.536L107.414,222.536C103.028,222.536 99.467,226.097 99.467,230.483L99.467,246.377C99.467,250.763 103.028,254.324 107.414,254.324L141.168,254.324C145.554,254.324 149.115,250.763 149.115,246.377L149.115,230.483Z" style="fill:rgb(235,235,235);"/>
    <rect x="114.601" y="233.768" width="1.306" height="9.324" style="fill-rule:nonzero;"/>
    <path d="M117.657,241.342L118.73,240.658C119.345,241.629 120.284,242.115 121.546,242.115C122.18,242.115 122.69,241.972 123.078,241.687C123.465,241.402 123.659,241.012 123.659,240.515C123.659,240.337 123.636,240.179 123.59,240.04C123.545,239.901 123.454,239.778 123.317,239.671C123.18,239.564 123.063,239.477 122.965,239.411C122.867,239.345 122.69,239.274 122.435,239.199C122.18,239.124 121.988,239.07 121.861,239.038C121.733,239.006 121.499,238.954 121.157,238.881C120.701,238.79 120.314,238.687 119.995,238.574C119.676,238.46 119.358,238.305 119.041,238.109C118.724,237.913 118.484,237.659 118.32,237.346C118.156,237.034 118.074,236.669 118.074,236.249C118.074,235.429 118.377,234.782 118.983,234.308C119.589,233.834 120.373,233.597 121.335,233.597C122.055,233.597 122.718,233.739 123.324,234.024C123.93,234.309 124.433,234.718 124.835,235.251L123.83,235.969C123.233,235.167 122.378,234.764 121.266,234.759C120.724,234.759 120.276,234.87 119.923,235.091C119.57,235.312 119.393,235.655 119.393,236.119C119.393,236.315 119.434,236.489 119.516,236.639C119.598,236.789 119.692,236.909 119.796,236.998C119.901,237.087 120.065,237.174 120.289,237.261C120.512,237.348 120.699,237.411 120.849,237.452L121.546,237.616C121.975,237.721 122.327,237.814 122.603,237.893C122.878,237.973 123.185,238.089 123.522,238.242C123.859,238.395 124.122,238.56 124.312,238.738C124.501,238.915 124.661,239.147 124.793,239.431C124.926,239.716 124.992,240.041 124.992,240.406C124.992,241.262 124.669,241.953 124.024,242.477C123.38,243.001 122.522,243.263 121.451,243.263C120.594,243.263 119.836,243.092 119.178,242.75C118.519,242.408 118.012,241.939 117.657,241.342Z" style="fill-rule:nonzero;"/>
    <path d="M126.892,243.092L126.892,233.768L130.816,233.768C131.85,233.768 132.657,234.029 133.236,234.551C133.815,235.072 134.104,235.778 134.104,236.666C134.104,237.555 133.817,238.258 133.243,238.775C132.668,239.292 131.86,239.551 130.816,239.551L128.211,239.551L128.211,243.092L126.892,243.092ZM128.211,238.348L130.816,238.348C131.449,238.348 131.929,238.199 132.255,237.9C132.581,237.602 132.744,237.19 132.744,236.666C132.744,236.133 132.581,235.717 132.255,235.419C131.929,235.12 131.449,234.971 130.816,234.971L128.211,234.971L128.211,238.348Z" style="fill-rule:nonzero;"/>
    <path d="M123.524,254.324L123.719,273.349" style="fill:none;stroke:black;stroke-width:1px;"/>
    <path d="M358.605,230.483C358.605,226.097 355.044,222.536 350.658,222.536L316.904,222.536C312.518,222.536 308.957,226.097 308.957,230.483L308.957,246.377C308.957,250.763 312.518,254.324 316.904,254.324L350.658,254.324C355.044,254.324 358.605,250.763 358.605,246.377L358.605,230.483Z" style="fill:rgb(235,235,235);"/>
    <rect x="324.091" y="233.768" width="1.306" height="9.324" style="fill-rule:nonzero;"/>
    <path d="M327.147,241.342L328.22,240.658C328.836,241.629 329.774,242.115 331.037,242.115C331.67,242.115 332.181,241.972 332.568,241.687C332.955,241.402 333.149,241.012 333.149,240.515C333.149,240.337 333.126,240.179 333.081,240.04C333.035,239.901 332.944,239.778 332.807,239.671C332.67,239.564 332.553,239.477 332.455,239.411C332.357,239.345 332.181,239.274 331.925,239.199C331.67,239.124 331.479,239.07 331.351,239.038C331.224,239.006 330.989,238.954 330.647,238.881C330.191,238.79 329.804,238.687 329.485,238.574C329.166,238.46 328.848,238.305 328.531,238.109C328.215,237.913 327.974,237.659 327.81,237.346C327.646,237.034 327.564,236.669 327.564,236.249C327.564,235.429 327.867,234.782 328.473,234.308C329.079,233.834 329.863,233.597 330.825,233.597C331.545,233.597 332.208,233.739 332.814,234.024C333.42,234.309 333.924,234.718 334.325,235.251L333.32,235.969C332.723,235.167 331.868,234.764 330.756,234.759C330.214,234.759 329.766,234.87 329.413,235.091C329.06,235.312 328.883,235.655 328.883,236.119C328.883,236.315 328.924,236.489 329.006,236.639C329.088,236.789 329.182,236.909 329.287,236.998C329.392,237.087 329.556,237.174 329.779,237.261C330.002,237.348 330.189,237.411 330.339,237.452L331.037,237.616C331.465,237.721 331.817,237.814 332.093,237.893C332.369,237.973 332.675,238.089 333.012,238.242C333.35,238.395 333.613,238.56 333.802,238.738C333.991,238.915 334.152,239.147 334.284,239.431C334.416,239.716 334.482,240.041 334.482,240.406C334.482,241.262 334.16,241.953 333.515,242.477C332.87,243.001 332.012,243.263 330.941,243.263C330.084,243.263 329.327,243.092 328.668,242.75C328.01,242.408 327.503,241.939 327.147,241.342Z" style="fill-rule:nonzero;"/>
    <path d="M336.382,243.092L336.382,233.768L340.306,233.768C341.341,233.768 342.147,234.029 342.726,234.551C343.305,235.072 343.594,235.778 343.594,236.666C343.594,237.555 343.307,238.258 342.733,238.775C342.159,239.292 341.35,239.551 340.306,239.551L337.702,239.551L337.702,243.092L336.382,243.092ZM337.702,238.348L340.306,238.348C340.94,238.348 341.419,238.199 341.745,237.9C342.071,237.602 342.234,237.19 342.234,236.666C342.234,236.133 342.071,235.717 341.745,235.419C341.419,235.12 340.94,234.971 340.306,234.971L337.702,234.971L337.702,238.348Z" style="fill-rule:nonzero;"/>
    <path d="M418.829,179.67C418.829,175.283 415.268,171.723 410.882,171.723L377.128,171.723C372.742,171.723 369.181,175.283 369.181,179.67L369.181,195.564C369.181,199.95 372.742,203.511 377.128,203.511L410.882,203.511C415.268,203.511 418.829,199.95 418.829,195.564L418.829,179.67Z" style="fill:rgb(235,235,235);"/>
    <path d="M384.387,192.279L384.387,182.955L385.693,182.955L385.693,191.076L390.874,191.076L390.874,192.279L384.387,192.279Z" style="fill-rule:nonzero;"/>
    <rect x="392.337" y="182.955" width="1.306" height="9.324" style="fill-rule:nonzero;"/>
    <path d="M396.158,192.279L396.158,182.955L400.246,182.955C401.199,182.955 401.958,183.202 402.523,183.696C403.088,184.191 403.37,184.853 403.37,185.682C403.37,186.306 403.195,186.845 402.844,187.299C402.493,187.752 402.028,188.082 401.449,188.287L403.623,192.279L402.14,192.279L400.151,188.526L397.478,188.526L397.478,192.279L396.158,192.279ZM397.478,187.377L400.246,187.377C400.779,187.377 401.207,187.23 401.528,186.937C401.849,186.643 402.01,186.259 402.01,185.785C402.01,185.288 401.845,184.893 401.514,184.599C401.184,184.305 400.748,184.158 400.205,184.158L397.478,184.158L397.478,187.377Z" style="fill-rule:nonzero;"/>
    <path d="M359.103,179.67C359.103,175.283 355.542,171.723 351.156,171.723L317.402,171.723C313.016,171.723 309.455,175.283 309.455,179.67L309.455,195.564C309.455,199.95 313.016,203.511 317.402,203.511L351.156,203.511C355.542,203.511 359.103,199.95 359.103,195.564L359.103,179.67Z" style="fill:rgb(235,235,235);"/>
    <path d="M324.661,192.279L324.661,182.955L325.967,182.955L325.967,191.076L331.148,191.076L331.148,192.279L324.661,192.279Z" style="fill-rule:nonzero;"/>
    <rect x="332.611" y="182.955" width="1.306" height="9.324" style="fill-rule:nonzero;"/>
    <path d="M336.433,192.279L336.433,182.955L340.52,182.955C341.473,182.955 342.232,183.202 342.797,183.696C343.362,184.191 343.644,184.853 343.644,185.682C343.644,186.306 343.469,186.845 343.118,187.299C342.767,187.752 342.302,188.082 341.724,188.287L343.897,192.279L342.414,192.279L340.425,188.526L337.752,188.526L337.752,192.279L336.433,192.279ZM337.752,187.377L340.52,187.377C341.054,187.377 341.481,187.23 341.802,186.937C342.123,186.643 342.284,186.259 342.284,185.785C342.284,185.288 342.119,184.893 341.788,184.599C341.458,184.305 341.022,184.158 340.479,184.158L337.752,184.158L337.752,187.377Z" style="fill-rule:nonzero;"/>
    <path d="M478.481,179.67C478.481,175.283 474.92,171.723 470.534,171.723L436.78,171.723C432.393,171.723 428.832,175.283 428.832,179.67L428.832,195.564C428.832,199.95 432.393,203.511 436.78,203.511L470.534,203.511C474.92,203.511 478.481,199.95 478.481,195.564L478.481,179.67Z" style="fill:rgb(235,235,235);"/>
    <path d="M444.038,192.279L444.038,182.955L445.344,182.955L445.344,191.076L450.526,191.076L450.526,192.279L444.038,192.279Z" style="fill-rule:nonzero;"/>
    <rect x="451.989" y="182.955" width="1.306" height="9.324" style="fill-rule:nonzero;"/>
    <path d="M455.81,192.279L455.81,182.955L459.898,182.955C460.85,182.955 461.609,183.202 462.174,183.696C462.739,184.191 463.022,184.853 463.022,185.682C463.022,186.306 462.846,186.845 462.495,187.299C462.145,187.752 461.68,188.082 461.101,188.287L463.275,192.279L461.791,192.279L459.802,188.526L457.129,188.526L457.129,192.279L455.81,192.279ZM457.129,187.377L459.898,187.377C460.431,187.377 460.858,187.23 461.18,186.937C461.501,186.643 461.661,186.259 461.661,185.785C461.661,185.288 461.496,184.893 461.166,184.599C460.835,184.305 460.399,184.158 459.857,184.158L457.129,184.158L457.129,187.377Z" style="fill-rule:nonzero;"/>
    <path d="M209.413,280.408C209.413,276.022 205.852,272.461 201.466,272.461L167.712,272.461C163.326,272.461 159.765,276.022 159.765,280.408L159.765,296.302C159.765,300.689 163.326,304.25 167.712,304.25L201.466,304.25C205.852,304.25 209.413,300.689 209.413,296.302L209.413,280.408Z" style="fill:rgb(235,235,235);"/>
    <path d="M149.688,280.408C149.688,276.022 146.127,272.461 141.74,272.461L107.986,272.461C103.6,272.461 100.039,276.022 100.039,280.408L100.039,296.302C100.039,300.689 103.6,304.25 107.986,304.25L141.74,304.25C146.127,304.25 149.688,300.689 149.688,296.302L149.688,280.408Z" style="fill:rgb(235,235,235);"/>
    <path d="M115.245,293.017L115.245,283.693L116.551,283.693L116.551,291.814L121.733,291.814L121.733,293.017L115.245,293.017Z" style="fill-rule:nonzero;"/>
    <rect x="123.195" y="283.693" width="1.306" height="9.324" style="fill-rule:nonzero;"/>
    <path d="M127.017,293.017L127.017,283.693L131.105,283.693C132.057,283.693 132.816,283.94 133.381,284.435C133.946,284.929 134.229,285.591 134.229,286.421C134.229,287.045 134.053,287.584 133.702,288.037C133.351,288.491 132.886,288.82 132.308,289.025L134.482,293.017L132.998,293.017L131.009,289.265L128.336,289.265L128.336,293.017L127.017,293.017ZM128.336,288.116L131.105,288.116C131.638,288.116 132.065,287.969 132.386,287.675C132.708,287.381 132.868,286.997 132.868,286.523C132.868,286.027 132.703,285.631 132.373,285.337C132.042,285.043 131.606,284.896 131.064,284.896L128.336,284.896L128.336,288.116Z" style="fill-rule:nonzero;"/>
    <path d="M149.688,280.408C149.688,276.022 146.127,272.461 141.74,272.461L107.986,272.461C103.6,272.461 100.039,276.022 100.039,280.408L100.039,296.302C100.039,300.689 103.6,304.25 107.986,304.25L141.74,304.25C146.127,304.25 149.688,300.689 149.688,296.302L149.688,280.408Z" style="fill:rgb(235,235,235);"/>
    <path d="M90.054,280.408C90.054,276.022 86.493,272.461 82.107,272.461L48.353,272.461C43.967,272.461 40.406,276.022 40.406,280.408L40.406,296.302C40.406,300.689 43.967,304.25 48.353,304.25L82.107,304.25C86.493,304.25 90.054,300.689 90.054,296.302L90.054,280.408Z" style="fill:rgb(235,235,235);"/>
    <g transform="matrix(0.871951,0,0,0.871951,-28.0567,185.313)">
        <path d="M96.968,116.464L96.968,108.826L102.383,108.826L102.383,109.811L98.049,109.811L98.049,111.967L101.823,111.967L101.823,112.897L98.049,112.897L98.049,115.479L102.495,115.479L102.495,116.464L96.968,116.464Z" style="fill-rule:nonzero;"/>
        <path d="M103.94,116.464L103.94,110.5L104.937,110.5L104.937,111.486C105.448,110.735 106.128,110.36 106.975,110.36C107.617,110.36 108.126,110.559 108.501,110.957C108.876,111.354 109.064,111.91 109.064,112.623L109.064,116.464L108.067,116.464L108.067,112.852C108.067,111.822 107.623,111.305 106.734,111.301C106.215,111.301 105.786,111.474 105.446,111.819C105.106,112.164 104.937,112.611 104.937,113.16L104.937,116.464L103.94,116.464Z" style="fill-rule:nonzero;"/>
        <path d="M110.402,113.496C110.402,112.585 110.65,111.835 111.147,111.245C111.643,110.655 112.31,110.36 113.146,110.36C114.035,110.36 114.742,110.735 115.268,111.486L115.268,108.277L116.265,108.277L116.265,116.464L115.268,116.464L115.268,115.49C114.749,116.233 114.042,116.604 113.146,116.604C112.314,116.604 111.648,116.31 111.15,115.722C110.651,115.134 110.402,114.392 110.402,113.496ZM111.936,111.906C111.619,112.313 111.46,112.838 111.46,113.482C111.46,114.126 111.621,114.654 111.942,115.067C112.263,115.479 112.724,115.686 113.325,115.686C113.937,115.686 114.414,115.478 114.756,115.061C115.098,114.645 115.268,114.12 115.268,113.485C115.268,112.85 115.098,112.326 114.756,111.911C114.414,111.497 113.937,111.29 113.325,111.29C112.72,111.29 112.258,111.495 111.936,111.906Z" style="fill-rule:nonzero;"/>
        <path d="M94.837,125.066L94.837,120.294L95.901,120.294L95.901,125.066C95.901,125.678 96.085,126.165 96.453,126.527C96.821,126.889 97.322,127.07 97.956,127.07C98.591,127.07 99.096,126.889 99.471,126.527C99.846,126.165 100.034,125.678 100.034,125.066L100.034,120.294L101.098,120.294L101.098,125.066C101.098,125.976 100.806,126.705 100.222,127.252C99.637,127.799 98.882,128.073 97.956,128.073C97.031,128.073 96.279,127.799 95.702,127.252C95.126,126.705 94.837,125.976 94.837,125.066Z" style="fill-rule:nonzero;"/>
        <path d="M102.408,126.796L103.142,126.247C103.609,126.889 104.262,127.21 105.102,127.21C105.524,127.21 105.861,127.128 106.113,126.964C106.365,126.8 106.491,126.561 106.491,126.247C106.491,125.963 106.376,125.768 106.146,125.662C105.917,125.556 105.484,125.441 104.85,125.318C104.163,125.187 103.636,124.999 103.268,124.755C102.9,124.51 102.716,124.121 102.716,123.587C102.716,123.012 102.932,122.575 103.363,122.277C103.794,121.978 104.323,121.829 104.951,121.829C105.929,121.829 106.735,122.163 107.37,122.831L106.709,123.458C106.265,122.947 105.675,122.691 104.939,122.691C104.588,122.691 104.291,122.758 104.046,122.893C103.802,123.027 103.679,123.227 103.679,123.492C103.679,123.608 103.708,123.711 103.766,123.803C103.824,123.894 103.889,123.969 103.959,124.027C104.03,124.085 104.142,124.139 104.295,124.189C104.449,124.24 104.581,124.276 104.693,124.298L105.158,124.388C105.449,124.44 105.686,124.49 105.869,124.536C106.052,124.583 106.258,124.652 106.488,124.744C106.717,124.835 106.896,124.939 107.023,125.054C107.15,125.17 107.259,125.323 107.35,125.514C107.442,125.704 107.487,125.922 107.487,126.169C107.487,126.744 107.269,127.205 106.832,127.552C106.395,127.899 105.8,128.073 105.046,128.073C103.847,128.069 102.968,127.643 102.408,126.796Z" style="fill-rule:nonzero;"/>
        <path d="M108.479,124.976C108.479,124.072 108.745,123.322 109.277,122.725C109.809,122.127 110.517,121.829 111.402,121.829C112.257,121.829 112.944,122.113 113.465,122.68C113.986,123.247 114.246,123.955 114.246,124.802C114.246,124.955 114.239,125.086 114.224,125.194L109.548,125.194C109.578,125.807 109.772,126.286 110.131,126.633C110.489,126.981 110.963,127.154 111.553,127.154C112.247,127.154 112.835,126.893 113.317,126.37L113.983,127.025C113.334,127.72 112.516,128.069 111.53,128.073C110.582,128.073 109.837,127.784 109.293,127.207C108.75,126.631 108.479,125.887 108.479,124.976ZM109.571,124.422L113.216,124.422C113.164,123.873 112.969,123.447 112.631,123.145C112.293,122.842 111.88,122.691 111.39,122.691C110.879,122.691 110.457,122.852 110.125,123.173C109.793,123.494 109.608,123.91 109.571,124.422Z" style="fill-rule:nonzero;"/>
        <path d="M115.59,127.933L115.59,121.969L116.587,121.969L116.587,122.977C117.05,122.23 117.623,121.857 118.306,121.857C118.31,121.857 118.314,121.857 118.318,121.857C118.639,121.857 118.911,121.928 119.135,122.07L118.81,123.022C118.59,122.902 118.368,122.842 118.144,122.842C118.136,122.842 118.129,122.842 118.122,122.842C117.7,122.842 117.338,123.02 117.038,123.374C116.737,123.729 116.587,124.212 116.587,124.825L116.587,127.933L115.59,127.933Z" style="fill-rule:nonzero;"/>
    </g>
    <path d="M269.065,280.408C269.065,276.022 265.504,272.461 261.118,272.461L227.364,272.461C222.978,272.461 219.417,276.022 219.417,280.408L219.417,296.302C219.417,300.689 222.978,304.25 227.364,304.25L261.118,304.25C265.504,304.25 269.065,300.689 269.065,296.302L269.065,280.408Z" style="fill:rgb(235,235,235);"/>
    <path d="M418.829,280.408C418.829,276.022 415.268,272.461 410.882,272.461L377.128,272.461C372.742,272.461 369.181,276.022 369.181,280.408L369.181,296.302C369.181,300.689 372.742,304.25 377.128,304.25L410.882,304.25C415.268,304.25 418.829,300.689 418.829,296.302L418.829,280.408Z" style="fill:rgb(235,235,235);"/>
    <path d="M359.103,280.408C359.103,276.022 355.542,272.461 351.156,272.461L317.402,272.461C313.016,272.461 309.455,276.022 309.455,280.408L309.455,296.302C309.455,300.689 313.016,304.25 317.402,304.25L351.156,304.25C355.542,304.25 359.103,300.689 359.103,296.302L359.103,280.408Z" style="fill:rgb(235,235,235);"/>
    <path d="M478.481,280.408C478.481,276.022 474.92,272.461 470.534,272.461L436.78,272.461C432.393,272.461 428.832,276.022 428.832,280.408L428.832,296.302C428.832,300.689 432.393,304.25 436.78,304.25L470.534,304.25C474.92,304.25 478.481,300.689 478.481,296.302L478.481,280.408Z" style="fill:rgb(235,235,235);"/>
    <path d="M453.657,171.723L394.005,72.433L336.528,171.723" style="fill:none;stroke:black;stroke-width:1px;"/>
    <g transform="matrix(0.871951,0,0,0.871951,31.5766,185.313)">
        <path d="M96.968,116.464L96.968,108.826L102.383,108.826L102.383,109.811L98.049,109.811L98.049,111.967L101.823,111.967L101.823,112.897L98.049,112.897L98.049,115.479L102.495,115.479L102.495,116.464L96.968,116.464Z" style="fill-rule:nonzero;"/>
        <path d="M103.94,116.464L103.94,110.5L104.937,110.5L104.937,111.486C105.448,110.735 106.128,110.36 106.975,110.36C107.617,110.36 108.126,110.559 108.501,110.957C108.876,111.354 109.064,111.91 109.064,112.623L109.064,116.464L108.067,116.464L108.067,112.852C108.067,111.822 107.623,111.305 106.734,111.301C106.215,111.301 105.786,111.474 105.446,111.819C105.106,112.164 104.937,112.611 104.937,113.16L104.937,116.464L103.94,116.464Z" style="fill-rule:nonzero;"/>
        <path d="M110.402,113.496C110.402,112.585 110.65,111.835 111.147,111.245C111.643,110.655 112.31,110.36 113.146,110.36C114.035,110.36 114.742,110.735 115.268,111.486L115.268,108.277L116.265,108.277L116.265,116.464L115.268,116.464L115.268,115.49C114.749,116.233 114.042,116.604 113.146,116.604C112.314,116.604 111.648,116.31 111.15,115.722C110.651,115.134 110.402,114.392 110.402,113.496ZM111.936,111.906C111.619,112.313 111.46,112.838 111.46,113.482C111.46,114.126 111.621,114.654 111.942,115.067C112.263,115.479 112.724,115.686 113.325,115.686C113.937,115.686 114.414,115.478 114.756,115.061C115.098,114.645 115.268,114.12 115.268,113.485C115.268,112.85 115.098,112.326 114.756,111.911C114.414,111.497 113.937,111.29 113.325,111.29C112.72,111.29 112.258,111.495 111.936,111.906Z" style="fill-rule:nonzero;"/>
        <path d="M94.837,125.066L94.837,120.294L95.901,120.294L95.901,125.066C95.901,125.678 96.085,126.165 96.453,126.527C96.821,126.889 97.322,127.07 97.956,127.07C98.591,127.07 99.096,126.889 99.471,126.527C99.846,126.165 100.034,125.678 100.034,125.066L100.034,120.294L101.098,120.294L101.098,125.066C101.098,125.976 100.806,126.705 100.222,127.252C99.637,127.799 98.882,128.073 97.956,128.073C97.031,128.073 96.279,127.799 95.702,127.252C95.126,126.705 94.837,125.976 94.837,125.066Z" style="fill-rule:nonzero;"/>
        <path d="M102.408,126.796L103.142,126.247C103.609,126.889 104.262,127.21 105.102,127.21C105.524,127.21 105.861,127.128 106.113,126.964C106.365,126.8 106.491,126.561 106.491,126.247C106.491,125.963 106.376,125.768 106.146,125.662C105.917,125.556 105.484,125.441 104.85,125.318C104.163,125.187 103.636,124.999 103.268,124.755C102.9,124.51 102.716,124.121 102.716,123.587C102.716,123.012 102.932,122.575 103.363,122.277C103.794,121.978 104.323,121.829 104.951,121.829C105.929,121.829 106.735,122.163 107.37,122.831L106.709,123.458C106.265,122.947 105.675,122.691 104.939,122.691C104.588,122.691 104.291,122.758 104.046,122.893C103.802,123.027 103.679,123.227 103.679,123.492C103.679,123.608 103.708,123.711 103.766,123.803C103.824,123.894 103.889,123.969 103.959,124.027C104.03,124.085 104.142,124.139 104.295,124.189C104.449,124.24 104.581,124.276 104.693,124.298L105.158,124.388C105.449,124.44 105.686,124.49 105.869,124.536C106.052,124.583 106.258,124.652 106.488,124.744C106.717,124.835 106.896,124.939 107.023,125.054C107.15,125.17 107.259,125.323 107.35,125.514C107.442,125.704 107.487,125.922 107.487,126.169C107.487,126.744 107.269,127.205 106.832,127.552C106.395,127.899 105.8,128.073 105.046,128.073C103.847,128.069 102.968,127.643 102.408,126.796Z" style="fill-rule:nonzero;"/>
        <path d="M108.479,124.976C108.479,124.072 108.745,123.322 109.277,122.725C109.809,122.127 110.517,121.829 111.402,121.829C112.257,121.829 112.944,122.113 113.465,122.68C113.986,123.247 114.246,123.955 114.246,124.802C114.246,124.955 114.239,125.086 114.224,125.194L109.548,125.194C109.578,125.807 109.772,126.286 110.131,126.633C110.489,126.981 110.963,127.154 111.553,127.154C112.247,127.154 112.835,126.893 113.317,126.37L113.983,127.025C113.334,127.72 112.516,128.069 111.53,128.073C110.582,128.073 109.837,127.784 109.293,127.207C108.75,126.631 108.479,125.887 108.479,124.976ZM109.571,124.422L113.216,124.422C113.164,123.873 112.969,123.447 112.631,123.145C112.293,122.842 111.88,122.691 111.39,122.691C110.879,122.691 110.457,122.852 110.125,123.173C109.793,123.494 109.608,123.91 109.571,124.422Z" style="fill-rule:nonzero;"/>
        <path d="M115.59,127.933L115.59,121.969L116.587,121.969L116.587,122.977C117.05,122.23 117.623,121.857 118.306,121.857C118.31,121.857 118.314,121.857 118.318,121.857C118.639,121.857 118.911,121.928 119.135,122.07L118.81,123.022C118.59,122.902 118.368,122.842 118.144,122.842C118.136,122.842 118.129,122.842 118.122,122.842C117.7,122.842 117.338,123.02 117.038,123.374C116.737,123.729 116.587,124.212 116.587,124.825L116.587,127.933L115.59,127.933Z" style="fill-rule:nonzero;"/>
    </g>
    <g transform="matrix(0.871951,0,0,0.871951,91.3025,185.313)">
        <path d="M96.968,116.464L96.968,108.826L102.383,108.826L102.383,109.811L98.049,109.811L98.049,111.967L101.823,111.967L101.823,112.897L98.049,112.897L98.049,115.479L102.495,115.479L102.495,116.464L96.968,116.464Z" style="fill-rule:nonzero;"/>
        <path d="M103.94,116.464L103.94,110.5L104.937,110.5L104.937,111.486C105.448,110.735 106.128,110.36 106.975,110.36C107.617,110.36 108.126,110.559 108.501,110.957C108.876,111.354 109.064,111.91 109.064,112.623L109.064,116.464L108.067,116.464L108.067,112.852C108.067,111.822 107.623,111.305 106.734,111.301C106.215,111.301 105.786,111.474 105.446,111.819C105.106,112.164 104.937,112.611 104.937,113.16L104.937,116.464L103.94,116.464Z" style="fill-rule:nonzero;"/>
        <path d="M110.402,113.496C110.402,112.585 110.65,111.835 111.147,111.245C111.643,110.655 112.31,110.36 113.146,110.36C114.035,110.36 114.742,110.735 115.268,111.486L115.268,108.277L116.265,108.277L116.265,116.464L115.268,116.464L115.268,115.49C114.749,116.233 114.042,116.604 113.146,116.604C112.314,116.604 111.648,116.31 111.15,115.722C110.651,115.134 110.402,114.392 110.402,113.496ZM111.936,111.906C111.619,112.313 111.46,112.838 111.46,113.482C111.46,114.126 111.621,114.654 111.942,115.067C112.263,115.479 112.724,115.686 113.325,115.686C113.937,115.686 114.414,115.478 114.756,115.061C115.098,114.645 115.268,114.12 115.268,113.485C115.268,112.85 115.098,112.326 114.756,111.911C114.414,111.497 113.937,111.29 113.325,111.29C112.72,111.29 112.258,111.495 111.936,111.906Z" style="fill-rule:nonzero;"/>
        <path d="M94.837,125.066L94.837,120.294L95.901,120.294L95.901,125.066C95.901,125.678 96.085,126.165 96.453,126.527C96.821,126.889 97.322,127.07 97.956,127.07C98.591,127.07 99.096,126.889 99.471,126.527C99.846,126.165 100.034,125.678 100.034,125.066L100.034,120.294L101.098,120.294L101.098,125.066C101.098,125.976 100.806,126.705 100.222,127.252C99.637,127.799 98.882,128.073 97.956,128.073C97.031,128.073 96.279,127.799 95.702,127.252C95.126,126.705 94.837,125.976 94.837,125.066Z" style="fill-rule:nonzero;"/>
        <path d="M102.408,126.796L103.142,126.247C103.609,126.889 104.262,127.21 105.102,127.21C105.524,127.21 105.861,127.128 106.113,126.964C106.365,126.8 106.491,126.561 106.491,126.247C106.491,125.963 106.376,125.768 106.146,125.662C105.917,125.556 105.484,125.441 104.85,125.318C104.163,125.187 103.636,124.999 103.268,124.755C102.9,124.51 102.716,124.121 102.716,123.587C102.716,123.012 102.932,122.575 103.363,122.277C103.794,121.978 104.323,121.829 104.951,121.829C105.929,121.829 106.735,122.163 107.37,122.831L106.709,123.458C106.265,122.947 105.675,122.691 104.939,122.691C104.588,122.691 104.291,122.758 104.046,122.893C103.802,123.027 103.679,123.227 103.679,123.492C103.679,123.608 103.708,123.711 103.766,123.803C103.824,123.894 103.889,123.969 103.959,124.027C104.03,124.085 104.142,124.139 104.295,124.189C104.449,124.24 104.581,124.276 104.693,124.298L105.158,124.388C105.449,124.44 105.686,124.49 105.869,124.536C106.052,124.583 106.258,124.652 106.488,124.744C106.717,124.835 106.896,124.939 107.023,125.054C107.15,125.17 107.259,125.323 107.35,125.514C107.442,125.704 107.487,125.922 107.487,126.169C107.487,126.744 107.269,127.205 106.832,127.552C106.395,127.899 105.8,128.073 105.046,128.073C103.847,128.069 102.968,127.643 102.408,126.796Z" style="fill-rule:nonzero;"/>
        <path d="M108.479,124.976C108.479,124.072 108.745,123.322 109.277,122.725C109.809,122.127 110.517,121.829 111.402,121.829C112.257,121.829 112.944,122.113 113.465,122.68C113.986,123.247 114.246,123.955 114.246,124.802C114.246,124.955 114.239,125.086 114.224,125.194L109.548,125.194C109.578,125.807 109.772,126.286 110.131,126.633C110.489,126.981 110.963,127.154 111.553,127.154C112.247,127.154 112.835,126.893 113.317,126.37L113.983,127.025C113.334,127.72 112.516,128.069 111.53,128.073C110.582,128.073 109.837,127.784 109.293,127.207C108.75,126.631 108.479,125.887 108.479,124.976ZM109.571,124.422L113.216,124.422C113.164,123.873 112.969,123.447 112.631,123.145C112.293,122.842 111.88,122.691 111.39,122.691C110.879,122.691 110.457,122.852 110.125,123.173C109.793,123.494 109.608,123.91 109.571,124.422Z" style="fill-rule:nonzero;"/>
        <path d="M115.59,127.933L115.59,121.969L116.587,121.969L116.587,122.977C117.05,122.23 117.623,121.857 118.306,121.857C118.31,121.857 118.314,121.857 118.318,121.857C118.639,121.857 118.911,121.928 119.135,122.07L118.81,123.022C118.59,122.902 118.368,122.842 118.144,122.842C118.136,122.842 118.129,122.842 118.122,122.842C117.7,122.842 117.338,123.02 117.038,123.374C116.737,123.729 116.587,124.212 116.587,124.825L116.587,127.933L115.59,127.933Z" style="fill-rule:nonzero;"/>
    </g>
    <g transform="matrix(0.871951,0,0,0.871951,150.954,185.313)">
        <path d="M96.968,116.464L96.968,108.826L102.383,108.826L102.383,109.811L98.049,109.811L98.049,111.967L101.823,111.967L101.823,112.897L98.049,112.897L98.049,115.479L102.495,115.479L102.495,116.464L96.968,116.464Z" style="fill-rule:nonzero;"/>
        <path d="M103.94,116.464L103.94,110.5L104.937,110.5L104.937,111.486C105.448,110.735 106.128,110.36 106.975,110.36C107.617,110.36 108.126,110.559 108.501,110.957C108.876,111.354 109.064,111.91 109.064,112.623L109.064,116.464L108.067,116.464L108.067,112.852C108.067,111.822 107.623,111.305 106.734,111.301C106.215,111.301 105.786,111.474 105.446,111.819C105.106,112.164 104.937,112.611 104.937,113.16L104.937,116.464L103.94,116.464Z" style="fill-rule:nonzero;"/>
        <path d="M110.402,113.496C110.402,112.585 110.65,111.835 111.147,111.245C111.643,110.655 112.31,110.36 113.146,110.36C114.035,110.36 114.742,110.735 115.268,111.486L115.268,108.277L116.265,108.277L116.265,116.464L115.268,116.464L115.268,115.49C114.749,116.233 114.042,116.604 113.146,116.604C112.314,116.604 111.648,116.31 111.15,115.722C110.651,115.134 110.402,114.392 110.402,113.496ZM111.936,111.906C111.619,112.313 111.46,112.838 111.46,113.482C111.46,114.126 111.621,114.654 111.942,115.067C112.263,115.479 112.724,115.686 113.325,115.686C113.937,115.686 114.414,115.478 114.756,115.061C115.098,114.645 115.268,114.12 115.268,113.485C115.268,112.85 115.098,112.326 114.756,111.911C114.414,111.497 113.937,111.29 113.325,111.29C112.72,111.29 112.258,111.495 111.936,111.906Z" style="fill-rule:nonzero;"/>
        <path d="M94.837,125.066L94.837,120.294L95.901,120.294L95.901,125.066C95.901,125.678 96.085,126.165 96.453,126.527C96.821,126.889 97.322,127.07 97.956,127.07C98.591,127.07 99.096,126.889 99.471,126.527C99.846,126.165 100.034,125.678 100.034,125.066L100.034,120.294L101.098,120.294L101.098,125.066C101.098,125.976 100.806,126.705 100.222,127.252C99.637,127.799 98.882,128.073 97.956,128.073C97.031,128.073 96.279,127.799 95.702,127.252C95.126,126.705 94.837,125.976 94.837,125.066Z" style="fill-rule:nonzero;"/>
        <path d="M102.408,126.796L103.142,126.247C103.609,126.889 104.262,127.21 105.102,127.21C105.524,127.21 105.861,127.128 106.113,126.964C106.365,126.8 106.491,126.561 106.491,126.247C106.491,125.963 106.376,125.768 106.146,125.662C105.917,125.556 105.484,125.441 104.85,125.318C104.163,125.187 103.636,124.999 103.268,124.755C102.9,124.51 102.716,124.121 102.716,123.587C102.716,123.012 102.932,122.575 103.363,122.277C103.794,121.978 104.323,121.829 104.951,121.829C105.929,121.829 106.735,122.163 107.37,122.831L106.709,123.458C106.265,122.947 105.675,122.691 104.939,122.691C104.588,122.691 104.291,122.758 104.046,122.893C103.802,123.027 103.679,123.227 103.679,123.492C103.679,123.608 103.708,123.711 103.766,123.803C103.824,123.894 103.889,123.969 103.959,124.027C104.03,124.085 104.142,124.139 104.295,124.189C104.449,124.24 104.581,124.276 104.693,124.298L105.158,124.388C105.449,124.44 105.686,124.49 105.869,124.536C106.052,124.583 106.258,124.652 106.488,124.744C106.717,124.835 106.896,124.939 107.023,125.054C107.15,125.17 107.259,125.323 107.35,125.514C107.442,125.704 107.487,125.922 107.487,126.169C107.487,126.744 107.269,127.205 106.832,127.552C106.395,127.899 105.8,128.073 105.046,128.073C103.847,128.069 102.968,127.643 102.408,126.796Z" style="fill-rule:nonzero;"/>
        <path d="M108.479,124.976C108.479,124.072 108.745,123.322 109.277,122.725C109.809,122.127 110.517,121.829 111.402,121.829C112.257,121.829 112.944,122.113 113.465,122.68C113.986,123.247 114.246,123.955 114.246,124.802C114.246,124.955 114.239,125.086 114.224,125.194L109.548,125.194C109.578,125.807 109.772,126.286 110.131,126.633C110.489,126.981 110.963,127.154 111.553,127.154C112.247,127.154 112.835,126.893 113.317,126.37L113.983,127.025C113.334,127.72 112.516,128.069 111.53,128.073C110.582,128.073 109.837,127.784 109.293,127.207C108.75,126.631 108.479,125.887 108.479,124.976ZM109.571,124.422L113.216,124.422C113.164,123.873 112.969,123.447 112.631,123.145C112.293,122.842 111.88,122.691 111.39,122.691C110.879,122.691 110.457,122.852 110.125,123.173C109.793,123.494 109.608,123.91 109.571,124.422Z" style="fill-rule:nonzero;"/>
        <path d="M115.59,127.933L115.59,121.969L116.587,121.969L116.587,122.977C117.05,122.23 117.623,121.857 118.306,121.857C118.31,121.857 118.314,121.857 118.318,121.857C118.639,121.857 118.911,121.928 119.135,122.07L118.81,123.022C118.59,122.902 118.368,122.842 118.144,122.842C118.136,122.842 118.129,122.842 118.122,122.842C117.7,122.842 117.338,123.02 117.038,123.374C116.737,123.729 116.587,124.212 116.587,124.825L116.587,127.933L115.59,127.933Z" style="fill-rule:nonzero;"/>
    </g>
    <g transform="matrix(0.871951,0,0,0.871951,240.992,185.313)">
        <path d="M96.968,116.464L96.968,108.826L102.383,108.826L102.383,109.811L98.049,109.811L98.049,111.967L101.823,111.967L101.823,112.897L98.049,112.897L98.049,115.479L102.495,115.479L102.495,116.464L96.968,116.464Z" style="fill-rule:nonzero;"/>
        <path d="M103.94,116.464L103.94,110.5L104.937,110.5L104.937,111.486C105.448,110.735 106.128,110.36 106.975,110.36C107.617,110.36 108.126,110.559 108.501,110.957C108.876,111.354 109.064,111.91 109.064,112.623L109.064,116.464L108.067,116.464L108.067,112.852C108.067,111.822 107.623,111.305 106.734,111.301C106.215,111.301 105.786,111.474 105.446,111.819C105.106,112.164 104.937,112.611 104.937,113.16L104.937,116.464L103.94,116.464Z" style="fill-rule:nonzero;"/>
        <path d="M110.402,113.496C110.402,112.585 110.65,111.835 111.147,111.245C111.643,110.655 112.31,110.36 113.146,110.36C114.035,110.36 114.742,110.735 115.268,111.486L115.268,108.277L116.265,108.277L116.265,116.464L115.268,116.464L115.268,115.49C114.749,116.233 114.042,116.604 113.146,116.604C112.314,116.604 111.648,116.31 111.15,115.722C110.651,115.134 110.402,114.392 110.402,113.496ZM111.936,111.906C111.619,112.313 111.46,112.838 111.46,113.482C111.46,114.126 111.621,114.654 111.942,115.067C112.263,115.479 112.724,115.686 113.325,115.686C113.937,115.686 114.414,115.478 114.756,115.061C115.098,114.645 115.268,114.12 115.268,113.485C115.268,112.85 115.098,112.326 114.756,111.911C114.414,111.497 113.937,111.29 113.325,111.29C112.72,111.29 112.258,111.495 111.936,111.906Z" style="fill-rule:nonzero;"/>
        <path d="M94.837,125.066L94.837,120.294L95.901,120.294L95.901,125.066C95.901,125.678 96.085,126.165 96.453,126.527C96.821,126.889 97.322,127.07 97.956,127.07C98.591,127.07 99.096,126.889 99.471,126.527C99.846,126.165 100.034,125.678 100.034,125.066L100.034,120.294L101.098,120.294L101.098,125.066C101.098,125.976 100.806,126.705 100.222,127.252C99.637,127.799 98.882,128.073 97.956,128.073C97.031,128.073 96.279,127.799 95.702,127.252C95.126,126.705 94.837,125.976 94.837,125.066Z" style="fill-rule:nonzero;"/>
        <path d="M102.408,126.796L103.142,126.247C103.609,126.889 104.262,127.21 105.102,127.21C105.524,127.21 105.861,127.128 106.113,126.964C106.365,126.8 106.491,126.561 106.491,126.247C106.491,125.963 106.376,125.768 106.146,125.662C105.917,125.556 105.484,125.441 104.85,125.318C104.163,125.187 103.636,124.999 103.268,124.755C102.9,124.51 102.716,124.121 102.716,123.587C102.716,123.012 102.932,122.575 103.363,122.277C103.794,121.978 104.323,121.829 104.951,121.829C105.929,121.829 106.735,122.163 107.37,122.831L106.709,123.458C106.265,122.947 105.675,122.691 104.939,122.691C104.588,122.691 104.291,122.758 104.046,122.893C103.802,123.027 103.679,123.227 103.679,123.492C103.679,123.608 103.708,123.711 103.766,123.803C103.824,123.894 103.889,123.969 103.959,124.027C104.03,124.085 104.142,124.139 104.295,124.189C104.449,124.24 104.581,124.276 104.693,124.298L105.158,124.388C105.449,124.44 105.686,124.49 105.869,124.536C106.052,124.583 106.258,124.652 106.488,124.744C106.717,124.835 106.896,124.939 107.023,125.054C107.15,125.17 107.259,125.323 107.35,125.514C107.442,125.704 107.487,125.922 107.487,126.169C107.487,126.744 107.269,127.205 106.832,127.552C106.395,127.899 105.8,128.073 105.046,128.073C103.847,128.069 102.968,127.643 102.408,126.796Z" style="fill-rule:nonzero;"/>
        <path d="M108.479,124.976C108.479,124.072 108.745,123.322 109.277,122.725C109.809,122.127 110.517,121.829 111.402,121.829C112.257,121.829 112.944,122.113 113.465,122.68C113.986,123.247 114.246,123.955 114.246,124.802C114.246,124.955 114.239,125.086 114.224,125.194L109.548,125.194C109.578,125.807 109.772,126.286 110.131,126.633C110.489,126.981 110.963,127.154 111.553,127.154C112.247,127.154 112.835,126.893 113.317,126.37L113.983,127.025C113.334,127.72 112.516,128.069 111.53,128.073C110.582,128.073 109.837,127.784 109.293,127.207C108.75,126.631 108.479,125.887 108.479,124.976ZM109.571,124.422L113.216,124.422C113.164,123.873 112.969,123.447 112.631,123.145C112.293,122.842 111.88,122.691 111.39,122.691C110.879,122.691 110.457,122.852 110.125,123.173C109.793,123.494 109.608,123.91 109.571,124.422Z" style="fill-rule:nonzero;"/>
        <path d="M115.59,127.933L115.59,121.969L116.587,121.969L116.587,122.977C117.05,122.23 117.623,121.857 118.306,121.857C118.31,121.857 118.314,121.857 118.318,121.857C118.639,121.857 118.911,121.928 119.135,122.07L118.81,123.022C118.59,122.902 118.368,122.842 118.144,122.842C118.136,122.842 118.129,122.842 118.122,122.842C117.7,122.842 117.338,123.02 117.038,123.374C116.737,123.729 116.587,124.212 116.587,124.825L116.587,127.933L115.59,127.933Z" style="fill-rule:nonzero;"/>
    </g>
    <g transform="matrix(0.871951,0,0,0.871951,300.718,185.313)">
        <path d="M96.968,116.464L96.968,108.826L102.383,108.826L102.383,109.811L98.049,109.811L98.049,111.967L101.823,111.967L101.823,112.897L98.049,112.897L98.049,115.479L102.495,115.479L102.495,116.464L96.968,116.464Z" style="fill-rule:nonzero;"/>
        <path d="M103.94,116.464L103.94,110.5L104.937,110.5L104.937,111.486C105.448,110.735 106.128,110.36 106.975,110.36C107.617,110.36 108.126,110.559 108.501,110.957C108.876,111.354 109.064,111.91 109.064,112.623L109.064,116.464L108.067,116.464L108.067,112.852C108.067,111.822 107.623,111.305 106.734,111.301C106.215,111.301 105.786,111.474 105.446,111.819C105.106,112.164 104.937,112.611 104.937,113.16L104.937,116.464L103.94,116.464Z" style="fill-rule:nonzero;"/>
        <path d="M110.402,113.496C110.402,112.585 110.65,111.835 111.147,111.245C111.643,110.655 112.31,110.36 113.146,110.36C114.035,110.36 114.742,110.735 115.268,111.486L115.268,108.277L116.265,108.277L116.265,116.464L115.268,116.464L115.268,115.49C114.749,116.233 114.042,116.604 113.146,116.604C112.314,116.604 111.648,116.31 111.15,115.722C110.651,115.134 110.402,114.392 110.402,113.496ZM111.936,111.906C111.619,112.313 111.46,112.838 111.46,113.482C111.46,114.126 111.621,114.654 111.942,115.067C112.263,115.479 112.724,115.686 113.325,115.686C113.937,115.686 114.414,115.478 114.756,115.061C115.098,114.645 115.268,114.12 115.268,113.485C115.268,112.85 115.098,112.326 114.756,111.911C114.414,111.497 113.937,111.29 113.325,111.29C112.72,111.29 112.258,111.495 111.936,111.906Z" style="fill-rule:nonzero;"/>
        <path d="M94.837,125.066L94.837,120.294L95.901,120.294L95.901,125.066C95.901,125.678 96.085,126.165 96.453,126.527C96.821,126.889 97.322,127.07 97.956,127.07C98.591,127.07 99.096,126.889 99.471,126.527C99.846,126.165 100.034,125.678 100.034,125.066L100.034,120.294L101.098,120.294L101.098,125.066C101.098,125.976 100.806,126.705 100.222,127.252C99.637,127.799 98.882,128.073 97.956,128.073C97.031,128.073 96.279,127.799 95.702,127.252C95.126,126.705 94.837,125.976 94.837,125.066Z" style="fill-rule:nonzero;"/>
        <path d="M102.408,126.796L103.142,126.247C103.609,126.889 104.262,127.21 105.102,127.21C105.524,127.21 105.861,127.128 106.113,126.964C106.365,126.8 106.491,126.561 106.491,126.247C106.491,125.963 106.376,125.768 106.146,125.662C105.917,125.556 105.484,125.441 104.85,125.318C104.163,125.187 103.636,124.999 103.268,124.755C102.9,124.51 102.716,124.121 102.716,123.587C102.716,123.012 102.932,122.575 103.363,122.277C103.794,121.978 104.323,121.829 104.951,121.829C105.929,121.829 106.735,122.163 107.37,122.831L106.709,123.458C106.265,122.947 105.675,122.691 104.939,122.691C104.588,122.691 104.291,122.758 104.046,122.893C103.802,123.027 103.679,123.227 103.679,123.492C103.679,123.608 103.708,123.711 103.766,123.803C103.824,123.894 103.889,123.969 103.959,124.027C104.03,124.085 104.142,124.139 104.295,124.189C104.449,124.24 104.581,124.276 104.693,124.298L105.158,124.388C105.449,124.44 105.686,124.49 105.869,124.536C106.052,124.583 106.258,124.652 106.488,124.744C106.717,124.835 106.896,124.939 107.023,125.054C107.15,125.17 107.259,125.323 107.35,125.514C107.442,125.704 107.487,125.922 107.487,126.169C107.487,126.744 107.269,127.205 106.832,127.552C106.395,127.899 105.8,128.073 105.046,128.073C103.847,128.069 102.968,127.643 102.408,126.796Z" style="fill-rule:nonzero;"/>
        <path d="M108.479,124.976C108.479,124.072 108.745,123.322 109.277,122.725C109.809,122.127 110.517,121.829 111.402,121.829C112.257,121.829 112.944,122.113 113.465,122.68C113.986,123.247 114.246,123.955 114.246,124.802C114.246,124.955 114.239,125.086 114.224,125.194L109.548,125.194C109.578,125.807 109.772,126.286 110.131,126.633C110.489,126.981 110.963,127.154 111.553,127.154C112.247,127.154 112.835,126.893 113.317,126.37L113.983,127.025C113.334,127.72 112.516,128.069 111.53,128.073C110.582,128.073 109.837,127.784 109.293,127.207C108.75,126.631 108.479,125.887 108.479,124.976ZM109.571,124.422L113.216,124.422C113.164,123.873 112.969,123.447 112.631,123.145C112.293,122.842 111.88,122.691 111.39,122.691C110.879,122.691 110.457,122.852 110.125,123.173C109.793,123.494 109.608,123.91 109.571,124.422Z" style="fill-rule:nonzero;"/>
        <path d="M115.59,127.933L115.59,121.969L116.587,121.969L116.587,122.977C117.05,122.23 117.623,121.857 118.306,121.857C118.31,121.857 118.314,121.857 118.318,121.857C118.639,121.857 118.911,121.928 119.135,122.07L118.81,123.022C118.59,122.902 118.368,122.842 118.144,122.842C118.136,122.842 118.129,122.842 118.122,122.842C117.7,122.842 117.338,123.02 117.038,123.374C116.737,123.729 116.587,124.212 116.587,124.825L116.587,127.933L115.59,127.933Z" style="fill-rule:nonzero;"/>
    </g>
    <g transform="matrix(0.871951,0,0,0.871951,360.37,185.313)">
        <path d="M96.968,116.464L96.968,108.826L102.383,108.826L102.383,109.811L98.049,109.811L98.049,111.967L101.823,111.967L101.823,112.897L98.049,112.897L98.049,115.479L102.495,115.479L102.495,116.464L96.968,116.464Z" style="fill-rule:nonzero;"/>
        <path d="M103.94,116.464L103.94,110.5L104.937,110.5L104.937,111.486C105.448,110.735 106.128,110.36 106.975,110.36C107.617,110.36 108.126,110.559 108.501,110.957C108.876,111.354 109.064,111.91 109.064,112.623L109.064,116.464L108.067,116.464L108.067,112.852C108.067,111.822 107.623,111.305 106.734,111.301C106.215,111.301 105.786,111.474 105.446,111.819C105.106,112.164 104.937,112.611 104.937,113.16L104.937,116.464L103.94,116.464Z" style="fill-rule:nonzero;"/>
        <path d="M110.402,113.496C110.402,112.585 110.65,111.835 111.147,111.245C111.643,110.655 112.31,110.36 113.146,110.36C114.035,110.36 114.742,110.735 115.268,111.486L115.268,108.277L116.265,108.277L116.265,116.464L115.268,116.464L115.268,115.49C114.749,116.233 114.042,116.604 113.146,116.604C112.314,116.604 111.648,116.31 111.15,115.722C110.651,115.134 110.402,114.392 110.402,113.496ZM111.936,111.906C111.619,112.313 111.46,112.838 111.46,113.482C111.46,114.126 111.621,114.654 111.942,115.067C112.263,115.479 112.724,115.686 113.325,115.686C113.937,115.686 114.414,115.478 114.756,115.061C115.098,114.645 115.268,114.12 115.268,113.485C115.268,112.85 115.098,112.326 114.756,111.911C114.414,111.497 113.937,111.29 113.325,111.29C112.72,111.29 112.258,111.495 111.936,111.906Z" style="fill-rule:nonzero;"/>
        <path d="M94.837,125.066L94.837,120.294L95.901,120.294L95.901,125.066C95.901,125.678 96.085,126.165 96.453,126.527C96.821,126.889 97.322,127.07 97.956,127.07C98.591,127.07 99.096,126.889 99.471,126.527C99.846,126.165 100.034,125.678 100.034,125.066L100.034,120.294L101.098,120.294L101.098,125.066C101.098,125.976 100.806,126.705 100.222,127.252C99.637,127.799 98.882,128.073 97.956,128.073C97.031,128.073 96.279,127.799 95.702,127.252C95.126,126.705 94.837,125.976 94.837,125.066Z" style="fill-rule:nonzero;"/>
        <path d="M102.408,126.796L103.142,126.247C103.609,126.889 104.262,127.21 105.102,127.21C105.524,127.21 105.861,127.128 106.113,126.964C106.365,126.8 106.491,126.561 106.491,126.247C106.491,125.963 106.376,125.768 106.146,125.662C105.917,125.556 105.484,125.441 104.85,125.318C104.163,125.187 103.636,124.999 103.268,124.755C102.9,124.51 102.716,124.121 102.716,123.587C102.716,123.012 102.932,122.575 103.363,122.277C103.794,121.978 104.323,121.829 104.951,121.829C105.929,121.829 106.735,122.163 107.37,122.831L106.709,123.458C106.265,122.947 105.675,122.691 104.939,122.691C104.588,122.691 104.291,122.758 104.046,122.893C103.802,123.027 103.679,123.227 103.679,123.492C103.679,123.608 103.708,123.711 103.766,123.803C103.824,123.894 103.889,123.969 103.959,124.027C104.03,124.085 104.142,124.139 104.295,124.189C104.449,124.24 104.581,124.276 104.693,124.298L105.158,124.388C105.449,124.44 105.686,124.49 105.869,124.536C106.052,124.583 106.258,124.652 106.488,124.744C106.717,124.835 106.896,124.939 107.023,125.054C107.15,125.17 107.259,125.323 107.35,125.514C107.442,125.704 107.487,125.922 107.487,126.169C107.487,126.744 107.269,127.205 106.832,127.552C106.395,127.899 105.8,128.073 105.046,128.073C103.847,128.069 102.968,127.643 102.408,126.796Z" style="fill-rule:nonzero;"/>
        <path d="M108.479,124.976C108.479,124.072 108.745,123.322 109.277,122.725C109.809,122.127 110.517,121.829 111.402,121.829C112.257,121.829 112.944,122.113 113.465,122.68C113.986,123.247 114.246,123.955 114.246,124.802C114.246,124.955 114.239,125.086 114.224,125.194L109.548,125.194C109.578,125.807 109.772,126.286 110.131,126.633C110.489,126.981 110.963,127.154 111.553,127.154C112.247,127.154 112.835,126.893 113.317,126.37L113.983,127.025C113.334,127.72 112.516,128.069 111.53,128.073C110.582,128.073 109.837,127.784 109.293,127.207C108.75,126.631 108.479,125.887 108.479,124.976ZM109.571,124.422L113.216,124.422C113.164,123.873 112.969,123.447 112.631,123.145C112.293,122.842 111.88,122.691 111.39,122.691C110.879,122.691 110.457,122.852 110.125,123.173C109.793,123.494 109.608,123.91 109.571,124.422Z" style="fill-rule:nonzero;"/>
        <path d="M115.59,127.933L115.59,121.969L116.587,121.969L116.587,122.977C117.05,122.23 117.623,121.857 118.306,121.857C118.31,121.857 118.314,121.857 118.318,121.857C118.639,121.857 118.911,121.928 119.135,122.07L118.81,123.022C118.59,122.902 118.368,122.842 118.144,122.842C118.136,122.842 118.129,122.842 118.122,122.842C117.7,122.842 117.338,123.02 117.038,123.374C116.737,123.729 116.587,124.212 116.587,124.825L116.587,127.933L115.59,127.933Z" style="fill-rule:nonzero;"/>
    </g>
</svg>
