<?xml version="1.0" encoding="UTF-8" standalone="no"?>
<!DOCTYPE svg PUBLIC "-//W3C//DTD SVG 1.1//EN" "http://www.w3.org/Graphics/SVG/1.1/DTD/svg11.dtd">
<svg width="100%" height="100%" viewBox="0 0 710 260" version="1.1" xmlns="http://www.w3.org/2000/svg" xmlns:xlink="http://www.w3.org/1999/xlink" xml:space="preserve" xmlns:serif="http://www.serif.com/" style="fill-rule:evenodd;clip-rule:evenodd;stroke-linecap:round;stroke-linejoin:round;stroke-miterlimit:1.5;">
    <path d="M273.453,23.202C273.453,15.381 267.104,9.032 259.283,9.032L199.096,9.032C191.275,9.032 184.925,15.381 184.925,23.202L184.925,51.543C184.925,59.364 191.275,65.714 199.096,65.714L259.283,65.714C267.104,65.714 273.453,59.364 273.453,51.543L273.453,23.202Z" style="fill:rgb(235,235,235);"/>
    <path d="M379.44,23.202C379.44,15.381 373.09,9.032 365.269,9.032L305.082,9.032C297.261,9.032 290.912,15.381 290.912,23.202L290.912,51.543C290.912,59.364 297.261,65.714 305.082,65.714L365.269,65.714C373.09,65.714 379.44,59.364 379.44,51.543L379.44,23.202Z" style="fill:rgb(235,235,235);"/>
    <path d="M485.431,23.202C485.431,15.381 479.081,9.032 471.261,9.032L411.073,9.032C403.252,9.032 396.903,15.381 396.903,23.202L396.903,51.543C396.903,59.364 403.252,65.714 411.073,65.714L471.261,65.714C479.081,65.714 485.431,59.364 485.431,51.543L485.431,23.202Z" style="fill:rgb(235,235,235);"/>
    <path d="M369.964,106.407C369.964,100.26 364.973,95.27 358.827,95.27L311.525,95.27C305.378,95.27 300.388,100.26 300.388,106.407L300.388,128.681C300.388,134.827 305.378,139.817 311.525,139.817L358.827,139.817C364.973,139.817 369.964,134.827 369.964,128.681L369.964,106.407Z" style="fill:rgb(235,235,235);"/>
    <path d="M591.418,23.202C591.418,15.381 585.068,9.032 577.247,9.032L517.06,9.032C509.239,9.032 502.889,15.381 502.889,23.202L502.889,51.543C502.889,59.364 509.239,65.714 517.06,65.714L577.247,65.714C585.068,65.714 591.418,59.364 591.418,51.543L591.418,23.202Z" style="fill:rgb(235,235,235);"/>
    <path d="M697.406,23.202C697.406,15.381 691.057,9.032 683.236,9.032L623.049,9.032C615.228,9.032 608.878,15.381 608.878,23.202L608.878,51.543C608.878,59.364 615.228,65.714 623.049,65.714L683.236,65.714C691.057,65.714 697.406,59.364 697.406,51.543L697.406,23.202Z" style="fill:rgb(235,235,235);"/>
    <path d="M208.978,41.118L212.772,31.794L214.208,31.794L218.022,41.118L216.545,41.118L215.554,38.527L211.357,38.527L210.345,41.118L208.978,41.118ZM211.801,37.379L215.124,37.379L213.483,33.065L211.801,37.379Z" style="fill-rule:nonzero;"/>
    <path d="M219.417,41.118L219.417,31.794L223.34,31.794C224.375,31.794 225.182,32.054 225.76,32.576C226.339,33.098 226.629,33.803 226.629,34.692C226.629,35.581 226.341,36.284 225.767,36.801C225.193,37.318 224.384,37.577 223.34,37.577L220.736,37.577L220.736,41.118L219.417,41.118ZM220.736,36.374L223.34,36.374C223.974,36.374 224.454,36.224 224.779,35.926C225.105,35.627 225.268,35.216 225.268,34.692C225.268,34.159 225.105,33.743 224.779,33.444C224.454,33.146 223.974,32.997 223.34,32.997L220.736,32.997L220.736,36.374Z" style="fill-rule:nonzero;"/>
    <path d="M228.29,41.118L228.29,31.794L229.971,31.794L234.715,39.299L234.715,31.794L235.98,31.794L235.98,41.118L234.435,41.118L229.554,33.434L229.554,41.118L228.29,41.118Z" style="fill-rule:nonzero;"/>
    <rect x="238.489" y="31.794" width="1.306" height="9.324" style="fill-rule:nonzero;"/>
    <path d="M242.973,39.928C242.139,39.021 241.722,37.864 241.722,36.456C241.722,35.047 242.14,33.89 242.977,32.983C243.813,32.076 244.903,31.623 246.248,31.623C247.824,31.623 249.046,32.249 249.912,33.503L248.879,34.213C248.287,33.293 247.423,32.833 246.289,32.833C246.284,32.833 246.28,32.833 246.275,32.833C245.313,32.833 244.543,33.161 243.964,33.817C243.386,34.473 243.096,35.348 243.096,36.442C243.096,37.545 243.386,38.429 243.964,39.094C244.543,39.76 245.304,40.092 246.248,40.092C247.387,40.092 248.264,39.614 248.879,38.657L249.96,39.354C249.112,40.644 247.879,41.289 246.261,41.289C244.908,41.289 243.812,40.835 242.973,39.928Z" style="fill-rule:nonzero;"/>
    <path d="M107.219,41.702L107.219,33.044L111.014,33.044C111.899,33.044 112.603,33.273 113.128,33.732C113.653,34.192 113.915,34.806 113.915,35.576C113.915,36.156 113.752,36.657 113.427,37.078C113.101,37.499 112.669,37.804 112.132,37.995L114.15,41.702L112.773,41.702L110.926,38.217L108.444,38.217L108.444,41.702L107.219,41.702ZM108.444,37.151L111.014,37.151C111.51,37.151 111.906,37.014 112.205,36.741C112.503,36.468 112.652,36.112 112.652,35.672C112.652,35.21 112.499,34.843 112.192,34.57C111.885,34.297 111.48,34.161 110.976,34.161L108.444,34.161L108.444,37.151Z" style="fill-rule:nonzero;"/>
    <rect x="115.807" y="33.044" width="1.212" height="8.658" style="fill-rule:nonzero;"/>
    <path d="M119.355,41.702L119.355,33.044L123.151,33.044C124.036,33.044 124.74,33.273 125.265,33.732C125.79,34.192 126.052,34.806 126.052,35.576C126.052,36.156 125.889,36.657 125.563,37.078C125.237,37.499 124.806,37.804 124.268,37.995L126.287,41.702L124.909,41.702L123.062,38.217L120.58,38.217L120.58,41.702L119.355,41.702ZM120.58,37.151L123.151,37.151C123.646,37.151 124.043,37.014 124.341,36.741C124.64,36.468 124.789,36.112 124.789,35.672C124.789,35.21 124.635,34.843 124.329,34.57C124.022,34.297 123.617,34.161 123.113,34.161L120.58,34.161L120.58,37.151Z" style="fill-rule:nonzero;"/>
    <path d="M131.448,41.702L131.448,33.044L135.243,33.044C136.128,33.044 136.832,33.273 137.357,33.732C137.882,34.192 138.144,34.806 138.144,35.576C138.144,36.156 137.981,36.657 137.656,37.078C137.33,37.499 136.898,37.804 136.361,37.995L138.379,41.702L137.002,41.702L135.155,38.217L132.673,38.217L132.673,41.702L131.448,41.702ZM132.673,37.151L135.243,37.151C135.739,37.151 136.135,37.014 136.434,36.741C136.732,36.468 136.881,36.112 136.881,35.672C136.881,35.21 136.728,34.843 136.421,34.57C136.114,34.297 135.709,34.161 135.205,34.161L132.673,34.161L132.673,37.151Z" style="fill-rule:nonzero;"/>
    <path d="M139.439,38.338C139.439,37.297 139.741,36.444 140.344,35.78C140.947,35.115 141.754,34.783 142.765,34.783C143.773,34.783 144.58,35.115 145.187,35.78C145.794,36.444 146.098,37.297 146.098,38.338C146.098,39.37 145.794,40.216 145.187,40.874C144.58,41.532 143.773,41.861 142.765,41.861C141.75,41.861 140.942,41.532 140.341,40.874C139.74,40.216 139.439,39.37 139.439,38.338ZM140.639,38.338C140.639,39.066 140.829,39.665 141.21,40.137C141.591,40.609 142.111,40.845 142.769,40.845C143.427,40.845 143.944,40.609 144.321,40.137C144.697,39.665 144.886,39.066 144.886,38.338C144.886,37.601 144.697,36.996 144.321,36.522C143.944,36.048 143.427,35.811 142.769,35.811C142.111,35.811 141.591,36.048 141.21,36.522C140.829,36.996 140.639,37.601 140.639,38.338Z" style="fill-rule:nonzero;"/>
    <path d="M147.234,38.338C147.234,37.297 147.536,36.444 148.139,35.78C148.742,35.115 149.549,34.783 150.56,34.783C151.567,34.783 152.375,35.115 152.982,35.78C153.589,36.444 153.893,37.297 153.893,38.338C153.893,39.37 153.589,40.216 152.982,40.874C152.375,41.532 151.567,41.861 150.56,41.861C149.545,41.861 148.736,41.532 148.136,40.874C147.535,40.216 147.234,39.37 147.234,38.338ZM148.434,38.338C148.434,39.066 148.624,39.665 149.005,40.137C149.386,40.609 149.905,40.845 150.564,40.845C151.222,40.845 151.739,40.609 152.116,40.137C152.492,39.665 152.68,39.066 152.68,38.338C152.68,37.601 152.492,36.996 152.116,36.522C151.739,36.048 151.222,35.811 150.564,35.811C149.905,35.811 149.386,36.048 149.005,36.522C148.624,36.996 148.434,37.601 148.434,38.338Z" style="fill-rule:nonzero;"/>
    <path d="M154.705,35.875L154.705,34.942L155.873,34.942L155.873,33.044L157.003,33.044L157.003,34.942L159.187,34.942L159.187,35.875L157.003,35.875L157.003,39.658C157.003,40.437 157.35,40.828 158.044,40.832C158.383,40.832 158.673,40.737 158.914,40.547L159.396,41.404C159.007,41.708 158.518,41.861 157.93,41.861C157.105,41.861 156.514,41.573 156.159,40.997C155.969,40.701 155.873,40.255 155.873,39.658L155.873,35.875L154.705,35.875Z" style="fill-rule:nonzero;"/>
    <path d="M164.862,40.597C164.087,39.755 163.7,38.68 163.7,37.373C163.7,36.065 164.088,34.99 164.865,34.148C165.641,33.306 166.654,32.885 167.902,32.885C169.366,32.885 170.5,33.467 171.304,34.631L170.346,35.291C169.796,34.436 168.994,34.009 167.94,34.009C167.936,34.009 167.932,34.009 167.928,34.009C167.035,34.009 166.319,34.313 165.782,34.923C165.245,35.532 164.976,36.345 164.976,37.36C164.976,38.384 165.245,39.205 165.782,39.823C166.319,40.441 167.026,40.75 167.902,40.75C168.96,40.75 169.775,40.305 170.346,39.417L171.349,40.064C170.562,41.262 169.417,41.861 167.915,41.861C166.658,41.861 165.64,41.44 164.862,40.597Z" style="fill-rule:nonzero;"/>
    <path d="M171.933,41.702L175.456,33.044L176.789,33.044L180.331,41.702L178.96,41.702L178.039,39.296L174.142,39.296L173.202,41.702L171.933,41.702ZM174.554,38.23L177.639,38.23L176.116,34.224L174.554,38.23Z" style="fill-rule:nonzero;"/>
    <g transform="matrix(0.871951,0,0,0.871951,72.0048,15.2308)">
        <path d="M36.847,116.464L36.847,106.534L38.638,106.534L43.69,114.528L43.69,106.534L45.037,106.534L45.037,116.464L43.392,116.464L38.194,108.282L38.194,116.464L36.847,116.464Z" style="fill-rule:nonzero;"/>
        <rect x="47.708" y="106.534" width="1.39" height="9.93" style="fill-rule:nonzero;"/>
        <path d="M51.778,116.464L51.778,106.534L56.131,106.534C57.146,106.534 57.954,106.798 58.555,107.324C59.157,107.851 59.458,108.556 59.458,109.439C59.458,110.104 59.271,110.678 58.898,111.161C58.524,111.644 58.029,111.994 57.412,112.213L59.727,116.464L58.148,116.464L56.029,112.467L53.183,112.467L53.183,116.464L51.778,116.464ZM53.183,111.244L56.131,111.244C56.699,111.244 57.154,111.088 57.496,110.775C57.838,110.462 58.009,110.053 58.009,109.548C58.009,109.019 57.833,108.598 57.482,108.285C57.13,107.972 56.665,107.816 56.088,107.816L53.183,107.816L53.183,111.244Z" style="fill-rule:nonzero;"/>
        <path d="M66.352,115.197C65.464,114.232 65.02,112.999 65.02,111.499C65.02,110 65.465,108.767 66.356,107.801C67.246,106.835 68.407,106.352 69.839,106.352C71.518,106.352 72.819,107.02 73.741,108.354L72.642,109.111C72.011,108.131 71.091,107.641 69.883,107.641C69.878,107.641 69.873,107.641 69.868,107.641C68.844,107.641 68.024,107.99 67.408,108.689C66.791,109.388 66.483,110.32 66.483,111.485C66.483,112.659 66.791,113.601 67.408,114.309C68.024,115.018 68.835,115.372 69.839,115.372C71.052,115.372 71.987,114.863 72.642,113.843L73.792,114.586C72.889,115.959 71.577,116.646 69.854,116.646C68.412,116.646 67.245,116.163 66.352,115.197Z" style="fill-rule:nonzero;"/>
        <path d="M75.459,116.464L75.459,105.821L76.755,105.821L76.755,109.992C77.42,109.017 78.303,108.529 79.405,108.529C80.24,108.529 80.901,108.788 81.389,109.304C81.876,109.821 82.12,110.543 82.12,111.47L82.12,116.464L80.824,116.464L80.824,111.769C80.824,110.429 80.247,109.757 79.092,109.752C78.417,109.752 77.859,109.977 77.417,110.426C76.976,110.874 76.755,111.456 76.755,112.169L76.755,116.464L75.459,116.464Z" style="fill-rule:nonzero;"/>
        <path d="M84.355,116.464L84.355,108.711L85.651,108.711L85.651,116.464L84.355,116.464ZM84.355,107.19L84.355,105.821L85.651,105.821L85.651,107.19L84.355,107.19Z" style="fill-rule:nonzero;"/>
        <path d="M87.988,114.571L87.988,105.821L89.284,105.821L89.284,114.586C89.284,114.916 89.343,115.148 89.462,115.281C89.581,115.415 89.764,115.481 90.012,115.481C90.298,115.481 90.516,115.426 90.667,115.314L90.951,116.362C90.698,116.527 90.344,116.61 89.888,116.61C89.873,116.61 89.861,116.61 89.851,116.61C89.123,116.61 88.607,116.391 88.301,115.955C88.092,115.658 87.988,115.197 87.988,114.571Z" style="fill-rule:nonzero;"/>
        <path d="M91.649,112.606C91.649,111.422 91.972,110.446 92.618,109.679C93.263,108.913 94.129,108.529 95.217,108.529C96.372,108.529 97.291,109.017 97.976,109.992L97.976,105.821L99.271,105.821L99.271,116.464L97.976,116.464L97.976,115.197C97.301,116.163 96.381,116.646 95.217,116.646C94.134,116.646 93.269,116.264 92.621,115.5C91.973,114.735 91.649,113.771 91.649,112.606ZM93.644,110.538C93.232,111.067 93.025,111.75 93.025,112.588C93.025,113.425 93.234,114.112 93.651,114.648C94.069,115.184 94.668,115.452 95.45,115.452C96.245,115.452 96.865,115.182 97.31,114.641C97.754,114.099 97.976,113.416 97.976,112.591C97.976,111.766 97.754,111.084 97.31,110.546C96.865,110.007 96.245,109.738 95.45,109.738C94.663,109.738 94.062,110.004 93.644,110.538Z" style="fill-rule:nonzero;"/>
        <path d="M106.493,115.197C105.605,114.232 105.161,112.999 105.161,111.499C105.161,110 105.606,108.767 106.497,107.801C107.387,106.835 108.548,106.352 109.98,106.352C111.659,106.352 112.96,107.02 113.882,108.354L112.783,109.111C112.152,108.131 111.232,107.641 110.024,107.641C110.019,107.641 110.014,107.641 110.009,107.641C108.985,107.641 108.165,107.99 107.549,108.689C106.932,109.388 106.624,110.32 106.624,111.485C106.624,112.659 106.932,113.601 107.549,114.309C108.165,115.018 108.975,115.372 109.98,115.372C111.193,115.372 112.128,114.863 112.783,113.843L113.933,114.586C113.03,115.959 111.718,116.646 109.995,116.646C108.553,116.646 107.386,116.163 106.493,115.197Z" style="fill-rule:nonzero;"/>
        <path d="M114.603,116.464L118.643,106.534L120.172,106.534L124.234,116.464L122.662,116.464L121.606,113.705L117.136,113.705L116.059,116.464L114.603,116.464ZM117.609,112.482L121.147,112.482L119.4,107.888L117.609,112.482Z" style="fill-rule:nonzero;"/>
        <path d="M-79.528,126.499L-78.649,125.939C-78.145,126.734 -77.376,127.132 -76.342,127.132C-75.823,127.132 -75.405,127.015 -75.088,126.782C-74.77,126.549 -74.612,126.228 -74.612,125.821C-74.612,125.676 -74.63,125.546 -74.668,125.432C-74.705,125.318 -74.78,125.218 -74.892,125.13C-75.004,125.042 -75.1,124.971 -75.18,124.917C-75.26,124.863 -75.405,124.805 -75.614,124.744C-75.823,124.682 -75.98,124.638 -76.084,124.612C-76.189,124.586 -76.381,124.543 -76.661,124.483C-77.035,124.408 -77.352,124.324 -77.613,124.231C-77.875,124.138 -78.135,124.011 -78.394,123.85C-78.654,123.69 -78.851,123.482 -78.985,123.226C-79.12,122.97 -79.187,122.671 -79.187,122.327C-79.187,121.655 -78.939,121.125 -78.442,120.737C-77.946,120.349 -77.303,120.154 -76.516,120.154C-75.926,120.154 -75.383,120.271 -74.886,120.504C-74.39,120.738 -73.977,121.073 -73.649,121.51L-74.472,122.098C-74.961,121.441 -75.661,121.11 -76.572,121.106C-77.016,121.106 -77.383,121.197 -77.672,121.378C-77.961,121.559 -78.106,121.84 -78.106,122.221C-78.106,122.381 -78.072,122.523 -78.005,122.646C-77.938,122.77 -77.862,122.868 -77.776,122.94C-77.69,123.013 -77.555,123.085 -77.372,123.156C-77.19,123.227 -77.036,123.279 -76.913,123.313L-76.342,123.447C-75.991,123.533 -75.703,123.609 -75.477,123.674C-75.251,123.739 -75,123.834 -74.724,123.96C-74.447,124.085 -74.232,124.22 -74.077,124.366C-73.922,124.511 -73.79,124.701 -73.682,124.934C-73.574,125.167 -73.52,125.433 -73.52,125.732C-73.52,126.434 -73.784,126.999 -74.312,127.429C-74.84,127.858 -75.543,128.073 -76.42,128.073C-77.122,128.073 -77.743,127.933 -78.282,127.653C-78.822,127.373 -79.237,126.988 -79.528,126.499Z" style="fill-rule:nonzero;"/>
        <path d="M-72.489,124.965C-72.489,124.046 -72.223,123.294 -71.691,122.708C-71.159,122.122 -70.447,121.829 -69.555,121.829C-68.667,121.829 -67.954,122.122 -67.419,122.708C-66.883,123.294 -66.615,124.046 -66.615,124.965C-66.615,125.876 -66.883,126.621 -67.419,127.202C-67.954,127.782 -68.667,128.073 -69.555,128.073C-70.451,128.073 -71.164,127.782 -71.694,127.202C-72.224,126.621 -72.489,125.876 -72.489,124.965ZM-71.431,124.965C-71.431,125.607 -71.263,126.136 -70.927,126.552C-70.591,126.969 -70.133,127.177 -69.552,127.177C-68.972,127.177 -68.515,126.969 -68.183,126.552C-67.851,126.136 -67.685,125.607 -67.685,124.965C-67.685,124.315 -67.851,123.781 -68.183,123.363C-68.515,122.945 -68.972,122.736 -69.552,122.736C-70.133,122.736 -70.591,122.945 -70.927,123.363C-71.263,123.781 -71.431,124.315 -71.431,124.965Z" style="fill-rule:nonzero;"/>
        <path d="M-65.221,127.933L-65.221,121.969L-64.224,121.969L-64.224,122.932C-63.727,122.197 -63.082,121.829 -62.286,121.829C-61.375,121.829 -60.778,122.232 -60.494,123.038C-59.968,122.236 -59.266,121.833 -58.389,121.829C-57.754,121.829 -57.259,122.024 -56.902,122.414C-56.546,122.804 -56.367,123.348 -56.367,124.046L-56.367,127.933L-57.364,127.933L-57.364,124.287C-57.364,123.279 -57.782,122.773 -58.618,122.77C-59.1,122.77 -59.501,122.94 -59.822,123.282C-60.144,123.624 -60.304,124.061 -60.304,124.595L-60.304,127.933L-61.301,127.933L-61.301,124.287C-61.301,123.279 -61.717,122.773 -62.55,122.77C-63.039,122.77 -63.44,122.939 -63.754,123.276C-64.067,123.614 -64.224,124.054 -64.224,124.595L-64.224,127.933L-65.221,127.933Z" style="fill-rule:nonzero;"/>
        <path d="M-55.04,124.976C-55.04,124.072 -54.774,123.322 -54.242,122.725C-53.71,122.127 -53.002,121.829 -52.117,121.829C-51.262,121.829 -50.574,122.113 -50.053,122.68C-49.533,123.247 -49.272,123.955 -49.272,124.802C-49.272,124.955 -49.28,125.086 -49.295,125.194L-53.971,125.194C-53.941,125.807 -53.747,126.286 -53.388,126.633C-53.03,126.981 -52.556,127.154 -51.966,127.154C-51.271,127.154 -50.683,126.893 -50.202,126.37L-49.536,127.025C-50.185,127.72 -51.003,128.069 -51.988,128.073C-52.936,128.073 -53.682,127.784 -54.225,127.207C-54.769,126.631 -55.04,125.887 -55.04,124.976ZM-53.948,124.422L-50.303,124.422C-50.355,123.873 -50.55,123.447 -50.888,123.145C-51.226,122.842 -51.639,122.691 -52.128,122.691C-52.64,122.691 -53.062,122.852 -53.394,123.173C-53.726,123.494 -53.911,123.91 -53.948,124.422Z" style="fill-rule:nonzero;"/>
        <path d="M-45.604,127.933L-42.496,120.294L-41.321,120.294L-38.196,127.933L-39.405,127.933L-40.217,125.81L-43.656,125.81L-44.484,127.933L-45.604,127.933ZM-43.292,124.87L-40.57,124.87L-41.914,121.336L-43.292,124.87Z" style="fill-rule:nonzero;"/>
        <path d="M-37.053,127.933L-37.053,120.294L-33.839,120.294C-32.992,120.294 -32.331,120.508 -31.857,120.936C-31.383,121.363 -31.146,121.941 -31.146,122.669C-31.146,123.397 -31.381,123.973 -31.851,124.396C-32.322,124.82 -32.984,125.032 -33.839,125.032L-35.973,125.032L-35.973,127.933L-37.053,127.933ZM-35.973,124.046L-33.839,124.046C-33.32,124.046 -32.927,123.924 -32.66,123.68C-32.393,123.435 -32.26,123.098 -32.26,122.669C-32.26,122.232 -32.393,121.891 -32.66,121.647C-32.927,121.402 -33.32,121.28 -33.839,121.28L-35.973,121.28L-35.973,124.046Z" style="fill-rule:nonzero;"/>
        <path d="M-29.785,127.933L-29.785,120.294L-28.407,120.294L-24.521,126.443L-24.521,120.294L-23.485,120.294L-23.485,127.933L-24.75,127.933L-28.749,121.638L-28.749,127.933L-29.785,127.933Z" style="fill-rule:nonzero;"/>
        <rect x="-21.43" y="120.294" width="1.07" height="7.638" style="fill-rule:nonzero;"/>
        <path d="M-17.756,126.958C-18.439,126.215 -18.781,125.267 -18.781,124.114C-18.781,122.96 -18.439,122.012 -17.753,121.269C-17.068,120.526 -16.175,120.154 -15.074,120.154C-13.782,120.154 -12.782,120.668 -12.072,121.694L-12.918,122.277C-13.403,121.523 -14.111,121.146 -15.04,121.146C-15.044,121.146 -15.048,121.146 -15.052,121.146C-15.839,121.146 -16.47,121.414 -16.944,121.952C-17.418,122.49 -17.655,123.206 -17.655,124.102C-17.655,125.006 -17.418,125.73 -16.944,126.275C-16.47,126.82 -15.847,127.093 -15.074,127.093C-14.141,127.093 -13.422,126.701 -12.918,125.917L-12.033,126.488C-12.728,127.544 -13.737,128.073 -15.063,128.073C-16.171,128.073 -17.069,127.701 -17.756,126.958Z" style="fill-rule:nonzero;"/>
        <path d="M-8.164,125.917C-8.164,124.968 -7.583,124.25 -6.422,123.761C-6.743,123.417 -6.971,123.117 -7.105,122.859C-7.24,122.602 -7.307,122.309 -7.307,121.98C-7.307,121.398 -7.112,120.948 -6.722,120.63C-6.332,120.313 -5.83,120.154 -5.218,120.154C-4.598,120.154 -4.099,120.313 -3.72,120.63C-3.341,120.948 -3.152,121.371 -3.152,121.902C-3.152,122.346 -3.297,122.736 -3.589,123.072C-3.88,123.408 -4.324,123.712 -4.921,123.985L-3.062,125.866C-2.726,125.4 -2.489,124.907 -2.351,124.388L-1.444,124.618C-1.657,125.327 -1.985,125.961 -2.429,126.521L-1.035,127.933L-2.351,127.933L-3.107,127.188C-3.809,127.778 -4.608,128.073 -5.504,128.073C-6.269,128.073 -6.904,127.879 -7.408,127.493C-7.912,127.107 -8.164,126.581 -8.164,125.917ZM-7.122,125.799C-7.122,126.221 -6.962,126.558 -6.641,126.81C-6.319,127.062 -5.899,127.188 -5.381,127.188C-4.761,127.188 -4.21,126.973 -3.729,126.544L-5.885,124.343C-6.71,124.709 -7.122,125.194 -7.122,125.799ZM-6.355,121.969C-6.355,122.204 -6.288,122.425 -6.153,122.632C-6.019,122.84 -5.799,123.096 -5.493,123.402C-5.033,123.19 -4.681,122.978 -4.437,122.767C-4.192,122.556 -4.07,122.286 -4.07,121.958C-4.07,121.644 -4.181,121.403 -4.403,121.235C-4.625,121.067 -4.897,120.983 -5.218,120.983C-5.539,120.983 -5.809,121.069 -6.027,121.241C-6.246,121.413 -6.355,121.655 -6.355,121.969Z" style="fill-rule:nonzero;"/>
        <path d="M3.271,127.933L3.271,120.294L4.341,120.294L4.341,126.947L8.586,126.947L8.586,127.933L3.271,127.933Z" style="fill-rule:nonzero;"/>
        <path d="M8.882,127.933L11.99,120.294L13.166,120.294L16.291,127.933L15.081,127.933L14.269,125.81L10.831,125.81L10.002,127.933L8.882,127.933ZM11.195,124.87L13.917,124.87L12.573,121.336L11.195,124.87Z" style="fill-rule:nonzero;"/>
        <path d="M17.977,126.958C17.293,126.215 16.952,125.267 16.952,124.114C16.952,122.96 17.294,122.012 17.979,121.269C18.664,120.526 19.558,120.154 20.659,120.154C21.951,120.154 22.951,120.668 23.66,121.694L22.815,122.277C22.329,121.523 21.622,121.146 20.692,121.146C20.689,121.146 20.685,121.146 20.681,121.146C19.894,121.146 19.263,121.414 18.788,121.952C18.314,122.49 18.077,123.206 18.077,124.102C18.077,125.006 18.314,125.73 18.788,126.275C19.263,126.82 19.886,127.093 20.659,127.093C21.592,127.093 22.311,126.701 22.815,125.917L23.7,126.488C23.005,127.544 21.995,128.073 20.67,128.073C19.561,128.073 18.663,127.701 17.977,126.958Z" style="fill-rule:nonzero;"/>
        <path d="M25.116,127.933L25.116,120.294L26.494,120.294L30.38,126.443L30.38,120.294L31.416,120.294L31.416,127.933L30.151,127.933L26.152,121.638L26.152,127.933L25.116,127.933Z" style="fill-rule:nonzero;"/>
        <rect x="33.471" y="120.294" width="1.07" height="7.638" style="fill-rule:nonzero;"/>
        <path d="M37.145,126.958C36.462,126.215 36.12,125.267 36.12,124.114C36.12,122.96 36.463,122.012 37.148,121.269C37.833,120.526 38.726,120.154 39.827,120.154C41.119,120.154 42.119,120.668 42.829,121.694L41.983,122.277C41.498,121.523 40.79,121.146 39.861,121.146C39.857,121.146 39.853,121.146 39.85,121.146C39.062,121.146 38.431,121.414 37.957,121.952C37.483,122.49 37.246,123.206 37.246,124.102C37.246,125.006 37.483,125.73 37.957,126.275C38.431,126.82 39.054,127.093 39.827,127.093C40.76,127.093 41.479,126.701 41.983,125.917L42.868,126.488C42.174,127.544 41.164,128.073 39.838,128.073C38.73,128.073 37.832,127.701 37.145,126.958Z" style="fill-rule:nonzero;"/>
        <path d="M47.639,127.188C47.113,126.598 46.849,125.852 46.849,124.951C46.849,124.049 47.114,123.303 47.642,122.714C48.17,122.124 48.869,121.829 49.739,121.829C50.747,121.829 51.538,122.243 52.113,123.072L51.369,123.666C50.988,123.046 50.456,122.736 49.773,122.736C49.205,122.736 48.752,122.944 48.415,123.36C48.077,123.777 47.908,124.307 47.908,124.951C47.908,125.595 48.078,126.125 48.417,126.541C48.757,126.957 49.205,127.165 49.761,127.165C50.441,127.165 50.98,126.867 51.38,126.269L52.147,126.818C51.565,127.651 50.762,128.069 49.739,128.073C48.869,128.073 48.169,127.778 47.639,127.188Z" style="fill-rule:nonzero;"/>
        <path d="M52.992,124.965C52.992,124.046 53.258,123.294 53.79,122.708C54.322,122.122 55.035,121.829 55.927,121.829C56.815,121.829 57.527,122.122 58.063,122.708C58.599,123.294 58.867,124.046 58.867,124.965C58.867,125.876 58.599,126.621 58.063,127.202C57.527,127.782 56.815,128.073 55.927,128.073C55.031,128.073 54.318,127.782 53.788,127.202C53.258,126.621 52.992,125.876 52.992,124.965ZM54.051,124.965C54.051,125.607 54.219,126.136 54.555,126.552C54.891,126.969 55.349,127.177 55.93,127.177C56.51,127.177 56.967,126.969 57.299,126.552C57.631,126.136 57.797,125.607 57.797,124.965C57.797,124.315 57.631,123.781 57.299,123.363C56.967,122.945 56.51,122.736 55.93,122.736C55.349,122.736 54.891,122.945 54.555,123.363C54.219,123.781 54.051,124.315 54.051,124.965Z" style="fill-rule:nonzero;"/>
        <path d="M60.188,125.821L60.188,121.969L61.191,121.969L61.191,125.592C61.191,126.622 61.629,127.139 62.507,127.143C63.026,127.143 63.458,126.97 63.803,126.625C64.148,126.28 64.321,125.833 64.321,125.284L64.321,121.969L65.318,121.969L65.318,127.933L64.321,127.933L64.321,126.958C63.795,127.701 63.113,128.073 62.277,128.073C61.635,128.073 61.126,127.873 60.751,127.473C60.376,127.074 60.188,126.523 60.188,125.821Z" style="fill-rule:nonzero;"/>
        <path d="M67.104,127.933L67.104,121.969L68.101,121.969L68.101,122.954C68.612,122.204 69.292,121.829 70.139,121.829C70.781,121.829 71.29,122.028 71.665,122.425C72.04,122.823 72.228,123.378 72.228,124.091L72.228,127.933L71.231,127.933L71.231,124.321C71.231,123.29 70.787,122.773 69.898,122.77C69.38,122.77 68.95,122.942 68.611,123.288C68.271,123.633 68.101,124.08 68.101,124.629L68.101,127.933L67.104,127.933Z" style="fill-rule:nonzero;"/>
        <path d="M73.27,122.792L73.27,121.969L74.3,121.969L74.3,120.294L75.297,120.294L75.297,121.969L77.223,121.969L77.223,122.792L75.297,122.792L75.297,126.129C75.297,126.816 75.603,127.162 76.215,127.165C76.514,127.165 76.77,127.081 76.982,126.913L77.408,127.669C77.064,127.938 76.633,128.073 76.114,128.073C75.386,128.073 74.866,127.819 74.552,127.311C74.384,127.05 74.3,126.656 74.3,126.129L74.3,122.792L73.27,122.792Z" style="fill-rule:nonzero;"/>
        <path d="M78.461,127.933L78.461,121.969L79.457,121.969L79.457,122.977C79.92,122.23 80.493,121.857 81.177,121.857C81.18,121.857 81.184,121.857 81.188,121.857C81.509,121.857 81.781,121.928 82.005,122.07L81.681,123.022C81.46,122.902 81.238,122.842 81.014,122.842C81.007,122.842 80.999,122.842 80.992,122.842C80.57,122.842 80.209,123.02 79.908,123.374C79.608,123.729 79.457,124.212 79.457,124.825L79.457,127.933L78.461,127.933Z" style="fill-rule:nonzero;"/>
        <path d="M82.963,127.933L82.963,121.969L83.96,121.969L83.96,127.933L82.963,127.933ZM82.963,120.798L82.963,119.746L83.96,119.746L83.96,120.798L82.963,120.798Z" style="fill-rule:nonzero;"/>
        <path d="M85.354,124.976C85.354,124.072 85.62,123.322 86.152,122.725C86.684,122.127 87.392,121.829 88.277,121.829C89.132,121.829 89.82,122.113 90.341,122.68C90.862,123.247 91.122,123.955 91.122,124.802C91.122,124.955 91.115,125.086 91.1,125.194L86.424,125.194C86.454,125.807 86.648,126.286 87.006,126.633C87.364,126.981 87.839,127.154 88.428,127.154C89.123,127.154 89.711,126.893 90.192,126.37L90.859,127.025C90.209,127.72 89.392,128.069 88.406,128.073C87.458,128.073 86.712,127.784 86.169,127.207C85.626,126.631 85.354,125.887 85.354,124.976ZM86.446,124.422L90.092,124.422C90.039,123.873 89.844,123.447 89.506,123.145C89.169,122.842 88.755,122.691 88.266,122.691C87.755,122.691 87.333,122.852 87,123.173C86.668,123.494 86.483,123.91 86.446,124.422Z" style="fill-rule:nonzero;"/>
        <path d="M91.94,126.796L92.673,126.247C93.14,126.889 93.793,127.21 94.633,127.21C95.055,127.21 95.392,127.128 95.644,126.964C95.896,126.8 96.022,126.561 96.022,126.247C96.022,125.963 95.907,125.768 95.677,125.662C95.448,125.556 95.016,125.441 94.381,125.318C93.694,125.187 93.167,124.999 92.799,124.755C92.431,124.51 92.248,124.121 92.248,123.587C92.248,123.012 92.463,122.575 92.894,122.277C93.326,121.978 93.855,121.829 94.482,121.829C95.46,121.829 96.266,122.163 96.901,122.831L96.24,123.458C95.796,122.947 95.206,122.691 94.471,122.691C94.12,122.691 93.822,122.758 93.578,122.893C93.333,123.027 93.211,123.227 93.211,123.492C93.211,123.608 93.24,123.711 93.298,123.803C93.355,123.894 93.42,123.969 93.491,124.027C93.562,124.085 93.674,124.139 93.827,124.189C93.98,124.24 94.112,124.276 94.224,124.298L94.689,124.388C94.98,124.44 95.217,124.49 95.4,124.536C95.583,124.583 95.789,124.652 96.019,124.744C96.249,124.835 96.427,124.939 96.554,125.054C96.681,125.17 96.79,125.323 96.881,125.514C96.973,125.704 97.019,125.922 97.019,126.169C97.019,126.744 96.8,127.205 96.363,127.552C95.927,127.899 95.331,128.073 94.577,128.073C93.379,128.069 92.5,127.643 91.94,126.796Z" style="fill-rule:nonzero;"/>
        <path d="M101.101,124.965C101.101,124.046 101.367,123.294 101.899,122.708C102.431,122.122 103.143,121.829 104.035,121.829C104.924,121.829 105.636,122.122 106.172,122.708C106.707,123.294 106.975,124.046 106.975,124.965C106.975,125.876 106.707,126.621 106.172,127.202C105.636,127.782 104.924,128.073 104.035,128.073C103.139,128.073 102.426,127.782 101.896,127.202C101.366,126.621 101.101,125.876 101.101,124.965ZM102.159,124.965C102.159,125.607 102.327,126.136 102.663,126.552C102.999,126.969 103.458,127.177 104.038,127.177C104.619,127.177 105.075,126.969 105.407,126.552C105.739,126.136 105.906,125.607 105.906,124.965C105.906,124.315 105.739,123.781 105.407,123.363C105.075,122.945 104.619,122.736 104.038,122.736C103.458,122.736 102.999,122.945 102.663,123.363C102.327,123.781 102.159,124.315 102.159,124.965Z" style="fill-rule:nonzero;"/>
        <path d="M108.37,127.933L108.37,121.969L109.366,121.969L109.366,122.954C109.878,122.204 110.557,121.829 111.405,121.829C112.047,121.829 112.555,122.028 112.931,122.425C113.306,122.823 113.493,123.378 113.493,124.091L113.493,127.933L112.497,127.933L112.497,124.321C112.497,123.29 112.052,122.773 111.164,122.77C110.645,122.77 110.216,122.942 109.876,123.288C109.536,123.633 109.366,124.08 109.366,124.629L109.366,127.933L108.37,127.933Z" style="fill-rule:nonzero;"/>
        <path d="M115.224,126.477L115.224,119.746L116.221,119.746L116.221,126.488C116.221,126.742 116.266,126.92 116.358,127.023C116.449,127.125 116.59,127.177 116.781,127.177C117.001,127.177 117.169,127.134 117.285,127.048L117.503,127.854C117.309,127.981 117.036,128.045 116.685,128.045C116.674,128.045 116.665,128.045 116.657,128.045C116.097,128.045 115.7,127.877 115.465,127.541C115.304,127.313 115.224,126.958 115.224,126.477Z" style="fill-rule:nonzero;"/>
        <path d="M118.27,129.333L118.763,128.543C119.267,128.939 119.875,129.137 120.588,129.137C121.148,129.137 121.606,128.998 121.96,128.719C122.315,128.441 122.492,128.007 122.492,127.417L122.492,126.533C121.966,127.276 121.285,127.647 120.448,127.647C119.806,127.647 119.299,127.446 118.925,127.045C118.552,126.644 118.365,126.09 118.365,125.385L118.365,121.969L119.362,121.969L119.362,125.155C119.362,126.185 119.801,126.703 120.678,126.706C121.197,126.706 121.629,126.535 121.974,126.191C122.32,125.848 122.492,125.4 122.492,124.847L122.492,121.969L123.489,121.969L123.489,127.221C123.489,128.076 123.286,128.726 122.879,129.17C122.36,129.753 121.589,130.044 120.566,130.044C119.678,130.044 118.912,129.807 118.27,129.333Z" style="fill-rule:nonzero;"/>
    </g>
    <path d="M106.222,185.119L106.222,176.461L107.434,176.461L107.434,184.002L112.246,184.002L112.246,185.119L106.222,185.119Z" style="fill-rule:nonzero;"/>
    <rect x="113.604" y="176.461" width="1.212" height="8.658" style="fill-rule:nonzero;"/>
    <path d="M117.153,185.119L117.153,176.461L120.949,176.461C121.833,176.461 122.538,176.69 123.062,177.149C123.587,177.608 123.849,178.223 123.849,178.993C123.849,179.573 123.686,180.073 123.361,180.494C123.035,180.916 122.603,181.221 122.066,181.412L124.084,185.119L122.707,185.119L120.86,181.634L118.378,181.634L118.378,185.119L117.153,185.119ZM118.378,180.567L120.949,180.567C121.444,180.567 121.84,180.431 122.139,180.158C122.437,179.885 122.586,179.529 122.586,179.088C122.586,178.627 122.433,178.26 122.126,177.987C121.819,177.714 121.414,177.578 120.91,177.578L118.378,177.578L118.378,180.567Z" style="fill-rule:nonzero;"/>
    <path d="M129.861,184.014C129.086,183.172 128.699,182.097 128.699,180.79C128.699,179.482 129.087,178.407 129.864,177.565C130.64,176.723 131.653,176.302 132.901,176.302C134.365,176.302 135.499,176.884 136.303,178.047L135.345,178.708C134.795,177.853 133.993,177.425 132.939,177.425C132.935,177.425 132.931,177.425 132.927,177.425C132.034,177.425 131.318,177.73 130.781,178.339C130.244,178.949 129.975,179.761 129.975,180.777C129.975,181.801 130.244,182.622 130.781,183.24C131.318,183.858 132.025,184.167 132.901,184.167C133.959,184.167 134.774,183.722 135.345,182.834L136.348,183.481C135.561,184.679 134.416,185.277 132.914,185.277C131.657,185.277 130.639,184.856 129.861,184.014Z" style="fill-rule:nonzero;"/>
    <path d="M137.802,185.119L137.802,175.838L138.931,175.838L138.931,179.476C139.511,178.625 140.281,178.2 141.242,178.2C141.97,178.2 142.546,178.425 142.972,178.876C143.397,179.327 143.61,179.956 143.61,180.764L143.61,185.119L142.48,185.119L142.48,181.025C142.48,179.857 141.976,179.27 140.969,179.266C140.381,179.266 139.894,179.462 139.509,179.853C139.124,180.245 138.931,180.752 138.931,181.374L138.931,185.119L137.802,185.119Z" style="fill-rule:nonzero;"/>
    <path d="M145.558,185.119L145.558,178.358L146.688,178.358L146.688,185.119L145.558,185.119ZM145.558,177.032L145.558,175.838L146.688,175.838L146.688,177.032L145.558,177.032Z" style="fill-rule:nonzero;"/>
    <path d="M148.726,183.468L148.726,175.838L149.856,175.838L149.856,183.481C149.856,183.769 149.908,183.971 150.011,184.087C150.115,184.204 150.275,184.262 150.491,184.262C150.74,184.262 150.931,184.213 151.062,184.116L151.309,185.03C151.089,185.174 150.78,185.246 150.383,185.246C150.37,185.246 150.359,185.246 150.351,185.246C149.716,185.246 149.265,185.055 148.999,184.674C148.817,184.416 148.726,184.014 148.726,183.468Z" style="fill-rule:nonzero;"/>
    <path d="M151.919,181.754C151.919,180.722 152.2,179.871 152.763,179.203C153.326,178.534 154.081,178.2 155.029,178.2C156.036,178.2 156.838,178.625 157.435,179.476L157.435,175.838L158.565,175.838L158.565,185.119L157.435,185.119L157.435,184.014C156.847,184.856 156.045,185.277 155.029,185.277C154.085,185.277 153.331,184.944 152.766,184.278C152.201,183.611 151.919,182.77 151.919,181.754ZM153.658,179.952C153.298,180.413 153.118,181.009 153.118,181.739C153.118,182.469 153.3,183.067 153.664,183.535C154.028,184.003 154.551,184.236 155.232,184.236C155.926,184.236 156.467,184.001 156.854,183.529C157.241,183.057 157.435,182.461 157.435,181.742C157.435,181.022 157.241,180.428 156.854,179.958C156.467,179.488 155.926,179.254 155.232,179.254C154.547,179.254 154.022,179.486 153.658,179.952Z" style="fill-rule:nonzero;"/>
    <path d="M164.862,184.014C164.087,183.172 163.7,182.097 163.7,180.79C163.7,179.482 164.088,178.407 164.865,177.565C165.641,176.723 166.654,176.302 167.902,176.302C169.366,176.302 170.5,176.884 171.304,178.047L170.346,178.708C169.796,177.853 168.994,177.425 167.94,177.425C167.936,177.425 167.932,177.425 167.928,177.425C167.035,177.425 166.319,177.73 165.782,178.339C165.245,178.949 164.976,179.761 164.976,180.777C164.976,181.801 165.245,182.622 165.782,183.24C166.319,183.858 167.026,184.167 167.902,184.167C168.96,184.167 169.775,183.722 170.346,182.834L171.349,183.481C170.562,184.679 169.417,185.277 167.915,185.277C166.658,185.277 165.64,184.856 164.862,184.014Z" style="fill-rule:nonzero;"/>
    <path d="M171.933,185.119L175.456,176.461L176.789,176.461L180.331,185.119L178.96,185.119L178.039,182.713L174.142,182.713L173.202,185.119L171.933,185.119ZM174.554,181.647L177.639,181.647L176.116,177.641L174.554,181.647Z" style="fill-rule:nonzero;"/>
    <path d="M42.815,238.182C41.334,236.637 40.594,234.787 40.594,232.631C40.594,230.475 41.334,228.625 42.815,227.08L43.545,227.677C42.263,229.027 41.622,230.677 41.622,232.628C41.622,234.57 42.263,236.227 43.545,237.598L42.815,238.182Z" style="fill-rule:nonzero;"/>
    <path d="M45.564,235.459C44.794,234.612 44.408,233.54 44.408,232.241C44.408,230.941 44.795,229.869 45.567,229.022C46.339,228.176 47.362,227.753 48.636,227.753C49.91,227.753 50.935,228.176 51.711,229.022C52.488,229.869 52.876,230.941 52.876,232.241C52.876,233.54 52.488,234.612 51.711,235.459C50.935,236.305 49.91,236.728 48.636,236.728C47.362,236.728 46.338,236.305 45.564,235.459ZM46.478,229.822C45.949,230.436 45.684,231.242 45.684,232.241C45.684,233.239 45.949,234.048 46.478,234.665C47.007,235.283 47.726,235.592 48.636,235.592C49.537,235.592 50.255,235.283 50.788,234.665C51.321,234.048 51.588,233.239 51.588,232.241C51.588,231.242 51.321,230.436 50.788,229.822C50.255,229.209 49.537,228.902 48.636,228.902C47.726,228.902 47.007,229.209 46.478,229.822Z" style="fill-rule:nonzero;"/>
    <path d="M54.495,238.829L54.495,229.809L55.625,229.809L55.625,230.927C56.213,230.076 57.015,229.651 58.031,229.651C58.974,229.651 59.727,229.985 60.29,230.654C60.853,231.322 61.135,232.168 61.135,233.19C61.135,234.212 60.851,235.057 60.284,235.725C59.717,236.394 58.966,236.728 58.031,236.728C57.015,236.728 56.213,236.307 55.625,235.465L55.625,238.829L54.495,238.829ZM56.196,231.415C55.815,231.889 55.625,232.486 55.625,233.205C55.625,233.925 55.817,234.518 56.202,234.986C56.588,235.454 57.123,235.687 57.808,235.687C58.494,235.687 59.019,235.456 59.383,234.992C59.747,234.529 59.928,233.933 59.928,233.205C59.928,232.478 59.747,231.879 59.383,231.409C59.019,230.939 58.494,230.704 57.808,230.704C57.114,230.704 56.577,230.941 56.196,231.415Z" style="fill-rule:nonzero;"/>
    <path d="M61.953,230.743L61.953,229.809L63.121,229.809L63.121,227.911L64.251,227.911L64.251,229.809L66.435,229.809L66.435,230.743L64.251,230.743L64.251,234.526C64.251,235.304 64.598,235.696 65.292,235.7C65.631,235.7 65.921,235.605 66.162,235.414L66.644,236.271C66.255,236.576 65.766,236.728 65.178,236.728C64.353,236.728 63.762,236.441 63.407,235.865C63.217,235.569 63.121,235.122 63.121,234.526L63.121,230.743L61.953,230.743Z" style="fill-rule:nonzero;"/>
    <path d="M67.838,236.57L67.838,229.809L68.968,229.809L68.968,236.57L67.838,236.57ZM67.838,228.483L67.838,227.289L68.968,227.289L68.968,228.483L67.838,228.483Z" style="fill-rule:nonzero;"/>
    <path d="M70.548,233.205C70.548,232.164 70.85,231.312 71.453,230.647C72.056,229.983 72.863,229.651 73.874,229.651C74.881,229.651 75.689,229.983 76.296,230.647C76.903,231.312 77.207,232.164 77.207,233.205C77.207,234.238 76.903,235.083 76.296,235.741C75.689,236.399 74.881,236.728 73.874,236.728C72.859,236.728 72.05,236.399 71.449,235.741C70.849,235.083 70.548,234.238 70.548,233.205ZM71.748,233.205C71.748,233.933 71.938,234.533 72.319,235.005C72.7,235.477 73.219,235.713 73.877,235.713C74.536,235.713 75.053,235.477 75.429,235.005C75.806,234.533 75.994,233.933 75.994,233.205C75.994,232.469 75.806,231.864 75.429,231.39C75.053,230.916 74.536,230.679 73.877,230.679C73.219,230.679 72.7,230.916 72.319,231.39C71.938,231.864 71.748,232.469 71.748,233.205Z" style="fill-rule:nonzero;"/>
    <path d="M78.787,236.57L78.787,229.809L79.917,229.809L79.917,230.927C80.497,230.076 81.267,229.651 82.228,229.651C82.956,229.651 83.532,229.876 83.958,230.327C84.383,230.777 84.595,231.407 84.595,232.215L84.595,236.57L83.466,236.57L83.466,232.475C83.466,231.307 82.962,230.721 81.955,230.717C81.367,230.717 80.88,230.913 80.495,231.304C80.11,231.696 79.917,232.202 79.917,232.825L79.917,236.57L78.787,236.57Z" style="fill-rule:nonzero;"/>
    <path d="M86.113,233.205C86.113,232.173 86.394,231.322 86.957,230.654C87.52,229.985 88.275,229.651 89.223,229.651C90.23,229.651 91.032,230.076 91.629,230.927L91.629,229.809L92.759,229.809L92.759,235.059C92.759,235.317 92.798,235.503 92.876,235.618C92.954,235.732 93.089,235.789 93.279,235.789C93.444,235.789 93.582,235.755 93.692,235.687L93.838,236.544C93.613,236.629 93.353,236.671 93.057,236.671C92.71,236.671 92.411,236.578 92.159,236.392C91.907,236.206 91.747,235.918 91.679,235.529C91.134,236.324 90.327,236.724 89.261,236.728C88.292,236.728 87.525,236.397 86.96,235.735C86.395,235.073 86.113,234.23 86.113,233.205ZM87.865,231.403C87.496,231.864 87.312,232.46 87.312,233.19C87.312,233.92 87.494,234.518 87.858,234.986C88.222,235.454 88.745,235.687 89.426,235.687C90.12,235.687 90.661,235.451 91.048,234.98C91.435,234.508 91.629,233.912 91.629,233.193C91.629,232.473 91.435,231.879 91.048,231.409C90.661,230.939 90.125,230.704 89.442,230.704C88.758,230.704 88.233,230.937 87.865,231.403Z" style="fill-rule:nonzero;"/>
    <path d="M95.056,234.919L95.056,227.289L96.186,227.289L96.186,234.932C96.186,235.22 96.238,235.422 96.342,235.538C96.446,235.655 96.605,235.713 96.821,235.713C97.071,235.713 97.261,235.664 97.392,235.567L97.64,236.481C97.42,236.625 97.111,236.697 96.713,236.697C96.7,236.697 96.69,236.697 96.681,236.697C96.047,236.697 95.596,236.506 95.329,236.125C95.147,235.867 95.056,235.465 95.056,234.919Z" style="fill-rule:nonzero;"/>
    <path d="M97.913,237.598C99.204,236.235 99.849,234.58 99.849,232.631C99.849,230.682 99.204,229.031 97.913,227.677L98.656,227.08C100.137,228.65 100.877,230.499 100.877,232.628C100.877,234.786 100.137,236.637 98.656,238.182L97.913,237.598Z" style="fill-rule:nonzero;"/>
    <rect x="106.089" y="227.911" width="1.212" height="8.658" style="fill-rule:nonzero;"/>
    <path d="M108.926,234.945L109.923,234.31C110.494,235.211 111.366,235.662 112.538,235.662C113.126,235.662 113.6,235.53 113.96,235.265C114.319,235.001 114.499,234.638 114.499,234.177C114.499,234.012 114.478,233.865 114.436,233.735C114.393,233.606 114.309,233.492 114.182,233.393C114.055,233.293 113.946,233.213 113.855,233.151C113.764,233.09 113.6,233.025 113.363,232.955C113.126,232.885 112.948,232.835 112.83,232.806C112.711,232.776 112.493,232.727 112.176,232.66C111.753,232.575 111.393,232.48 111.097,232.374C110.801,232.268 110.506,232.124 110.211,231.942C109.917,231.76 109.694,231.524 109.542,231.234C109.389,230.945 109.313,230.605 109.313,230.216C109.313,229.454 109.595,228.853 110.157,228.413C110.72,227.973 111.448,227.753 112.341,227.753C113.01,227.753 113.625,227.885 114.188,228.15C114.751,228.414 115.219,228.794 115.591,229.289L114.658,229.955C114.104,229.211 113.31,228.836 112.278,228.832C111.774,228.832 111.358,228.935 111.03,229.14C110.702,229.345 110.538,229.663 110.538,230.095C110.538,230.277 110.576,230.438 110.653,230.577C110.729,230.717 110.816,230.828 110.913,230.911C111.01,230.993 111.163,231.075 111.37,231.155C111.577,231.236 111.751,231.295 111.89,231.333L112.538,231.485C112.936,231.583 113.263,231.668 113.519,231.742C113.775,231.816 114.059,231.924 114.372,232.066C114.685,232.208 114.93,232.361 115.105,232.526C115.281,232.691 115.43,232.906 115.553,233.171C115.676,233.435 115.737,233.737 115.737,234.075C115.737,234.871 115.438,235.512 114.839,235.998C114.24,236.485 113.443,236.728 112.449,236.728C111.653,236.728 110.95,236.57 110.338,236.252C109.727,235.935 109.256,235.499 108.926,234.945Z" style="fill-rule:nonzero;"/>
    <path d="M117.502,236.57L117.502,227.911L121.145,227.911C122.106,227.911 122.855,228.154 123.392,228.638C123.93,229.123 124.199,229.778 124.199,230.603C124.199,231.428 123.932,232.081 123.399,232.561C122.866,233.041 122.114,233.282 121.145,233.282L118.727,233.282L118.727,236.57L117.502,236.57ZM118.727,232.164L121.145,232.164C121.734,232.164 122.179,232.026 122.481,231.749C122.784,231.471 122.935,231.09 122.935,230.603C122.935,230.108 122.784,229.722 122.481,229.444C122.179,229.167 121.734,229.029 121.145,229.029L118.727,229.029L118.727,232.164Z" style="fill-rule:nonzero;"/>
    <path d="M129.861,235.465C129.086,234.623 128.699,233.548 128.699,232.241C128.699,230.933 129.087,229.858 129.864,229.016C130.64,228.174 131.653,227.753 132.901,227.753C134.365,227.753 135.499,228.335 136.303,229.498L135.345,230.159C134.795,229.304 133.993,228.876 132.939,228.876C132.935,228.876 132.931,228.876 132.927,228.876C132.034,228.876 131.318,229.181 130.781,229.79C130.244,230.4 129.975,231.212 129.975,232.228C129.975,233.252 130.244,234.073 130.781,234.691C131.318,235.309 132.025,235.618 132.901,235.618C133.959,235.618 134.774,235.173 135.345,234.285L136.348,234.932C135.561,236.13 134.416,236.728 132.914,236.728C131.657,236.728 130.639,236.307 129.861,235.465Z" style="fill-rule:nonzero;"/>
    <path d="M137.802,236.57L137.802,227.289L138.931,227.289L138.931,230.927C139.511,230.076 140.281,229.651 141.242,229.651C141.97,229.651 142.546,229.876 142.972,230.327C143.397,230.777 143.61,231.407 143.61,232.215L143.61,236.57L142.48,236.57L142.48,232.475C142.48,231.307 141.976,230.721 140.969,230.717C140.381,230.717 139.894,230.913 139.509,231.304C139.124,231.696 138.931,232.202 138.931,232.825L138.931,236.57L137.802,236.57Z" style="fill-rule:nonzero;"/>
    <path d="M145.558,236.57L145.558,229.809L146.688,229.809L146.688,236.57L145.558,236.57ZM145.558,228.483L145.558,227.289L146.688,227.289L146.688,228.483L145.558,228.483Z" style="fill-rule:nonzero;"/>
    <path d="M148.726,234.919L148.726,227.289L149.856,227.289L149.856,234.932C149.856,235.22 149.908,235.422 150.011,235.538C150.115,235.655 150.275,235.713 150.491,235.713C150.74,235.713 150.931,235.664 151.062,235.567L151.309,236.481C151.089,236.625 150.78,236.697 150.383,236.697C150.37,236.697 150.359,236.697 150.351,236.697C149.716,236.697 149.265,236.506 148.999,236.125C148.817,235.867 148.726,235.465 148.726,234.919Z" style="fill-rule:nonzero;"/>
    <path d="M151.919,233.205C151.919,232.173 152.2,231.322 152.763,230.654C153.326,229.985 154.081,229.651 155.029,229.651C156.036,229.651 156.838,230.076 157.435,230.927L157.435,227.289L158.565,227.289L158.565,236.57L157.435,236.57L157.435,235.465C156.847,236.307 156.045,236.728 155.029,236.728C154.085,236.728 153.331,236.395 152.766,235.729C152.201,235.062 151.919,234.221 151.919,233.205ZM153.658,231.403C153.298,231.864 153.118,232.46 153.118,233.19C153.118,233.92 153.3,234.518 153.664,234.986C154.028,235.454 154.551,235.687 155.232,235.687C155.926,235.687 156.467,235.451 156.854,234.98C157.241,234.508 157.435,233.912 157.435,233.193C157.435,232.473 157.241,231.879 156.854,231.409C156.467,230.939 155.926,230.704 155.232,230.704C154.547,230.704 154.022,230.937 153.658,231.403Z" style="fill-rule:nonzero;"/>
    <path d="M164.862,235.465C164.087,234.623 163.7,233.548 163.7,232.241C163.7,230.933 164.088,229.858 164.865,229.016C165.641,228.174 166.654,227.753 167.902,227.753C169.366,227.753 170.5,228.335 171.304,229.498L170.346,230.159C169.796,229.304 168.994,228.876 167.94,228.876C167.936,228.876 167.932,228.876 167.928,228.876C167.035,228.876 166.319,229.181 165.782,229.79C165.245,230.4 164.976,231.212 164.976,232.228C164.976,233.252 165.245,234.073 165.782,234.691C166.319,235.309 167.026,235.618 167.902,235.618C168.96,235.618 169.775,235.173 170.346,234.285L171.349,234.932C170.562,236.13 169.417,236.728 167.915,236.728C166.658,236.728 165.64,236.307 164.862,235.465Z" style="fill-rule:nonzero;"/>
    <path d="M171.933,236.57L175.456,227.911L176.789,227.911L180.331,236.57L178.96,236.57L178.039,234.164L174.142,234.164L173.202,236.57L171.933,236.57ZM174.554,233.098L177.639,233.098L176.116,229.092L174.554,233.098Z" style="fill-rule:nonzero;"/>
    <path d="M311.615,41.118L311.615,31.794L312.921,31.794L312.921,39.915L318.102,39.915L318.102,41.118L311.615,41.118Z" style="fill-rule:nonzero;"/>
    <path d="M318.465,41.118L322.259,31.794L323.694,31.794L327.509,41.118L326.032,41.118L325.041,38.527L320.844,38.527L319.832,41.118L318.465,41.118ZM321.288,37.379L324.61,37.379L322.97,33.065L321.288,37.379Z" style="fill-rule:nonzero;"/>
    <path d="M329.566,39.928C328.732,39.021 328.315,37.864 328.315,36.456C328.315,35.047 328.733,33.89 329.57,32.983C330.406,32.076 331.496,31.623 332.841,31.623C334.417,31.623 335.639,32.249 336.505,33.503L335.472,34.213C334.88,33.293 334.016,32.833 332.882,32.833C332.877,32.833 332.872,32.833 332.868,32.833C331.906,32.833 331.136,33.161 330.557,33.817C329.979,34.473 329.689,35.348 329.689,36.442C329.689,37.545 329.979,38.429 330.557,39.094C331.136,39.76 331.897,40.092 332.841,40.092C333.98,40.092 334.857,39.614 335.472,38.657L336.553,39.354C335.705,40.644 334.472,41.289 332.854,41.289C331.501,41.289 330.405,40.835 329.566,39.928Z" style="fill-rule:nonzero;"/>
    <path d="M338.282,41.118L338.282,31.794L339.964,31.794L344.708,39.299L344.708,31.794L345.972,31.794L345.972,41.118L344.428,41.118L339.547,33.434L339.547,41.118L338.282,41.118Z" style="fill-rule:nonzero;"/>
    <rect x="348.481" y="31.794" width="1.306" height="9.324" style="fill-rule:nonzero;"/>
    <path d="M352.966,39.928C352.132,39.021 351.715,37.864 351.715,36.456C351.715,35.047 352.133,33.89 352.969,32.983C353.805,32.076 354.896,31.623 356.24,31.623C357.817,31.623 359.038,32.249 359.904,33.503L358.872,34.213C358.279,33.293 357.416,32.833 356.281,32.833C356.276,32.833 356.272,32.833 356.267,32.833C355.306,32.833 354.536,33.161 353.957,33.817C353.378,34.473 353.089,35.348 353.089,36.442C353.089,37.545 353.378,38.429 353.957,39.094C354.536,39.76 355.297,40.092 356.24,40.092C357.379,40.092 358.257,39.614 358.872,38.657L359.952,39.354C359.104,40.644 357.872,41.289 356.254,41.289C354.9,41.289 353.804,40.835 352.966,39.928Z" style="fill-rule:nonzero;"/>
    <path d="M425.234,40.99L429.028,31.666L430.463,31.666L434.278,40.99L432.801,40.99L431.81,38.399L427.613,38.399L426.601,40.99L425.234,40.99ZM428.057,37.251L431.379,37.251L429.739,32.937L428.057,37.251Z" style="fill-rule:nonzero;"/>
    <path d="M435.672,40.99L435.672,31.666L439.76,31.666C440.713,31.666 441.472,31.913 442.037,32.408C442.602,32.902 442.884,33.564 442.884,34.393C442.884,35.018 442.709,35.557 442.358,36.01C442.007,36.464 441.542,36.793 440.963,36.998L443.137,40.99L441.654,40.99L439.665,37.237L436.992,37.237L436.992,40.99L435.672,40.99ZM436.992,36.089L439.76,36.089C440.293,36.089 440.721,35.942 441.042,35.648C441.363,35.354 441.524,34.97 441.524,34.496C441.524,33.999 441.359,33.604 441.028,33.31C440.698,33.016 440.262,32.869 439.719,32.869L436.992,32.869L436.992,36.089Z" style="fill-rule:nonzero;"/>
    <rect x="444.921" y="31.666" width="1.306" height="9.324" style="fill-rule:nonzero;"/>
    <path d="M448.743,40.99L448.743,31.666L450.424,31.666L455.168,39.172L455.168,31.666L456.433,31.666L456.433,40.99L454.888,40.99L450.007,33.306L450.007,40.99L448.743,40.99Z" style="fill-rule:nonzero;"/>
    <path d="M325.012,122.206L325.012,112.882L326.694,112.882L331.438,120.387L331.438,112.882L332.703,112.882L332.703,122.206L331.158,122.206L326.277,114.522L326.277,122.206L325.012,122.206Z" style="fill-rule:nonzero;"/>
    <rect x="335.212" y="112.882" width="1.306" height="9.324" style="fill-rule:nonzero;"/>
    <path d="M339.033,122.206L339.033,112.882L343.121,112.882C344.073,112.882 344.832,113.129 345.397,113.623C345.962,114.118 346.245,114.78 346.245,115.609C346.245,116.233 346.069,116.772 345.718,117.226C345.367,117.679 344.903,118.009 344.324,118.214L346.498,122.206L345.014,122.206L343.025,118.453L340.352,118.453L340.352,122.206L339.033,122.206ZM340.352,117.304L343.121,117.304C343.654,117.304 344.081,117.157 344.402,116.864C344.724,116.57 344.884,116.186 344.884,115.712C344.884,115.215 344.719,114.82 344.389,114.526C344.058,114.232 343.622,114.085 343.08,114.085L340.352,114.085L340.352,117.304Z" style="fill-rule:nonzero;"/>
    <path d="M360.579,172.951C360.579,168.565 357.018,165.004 352.632,165.004L318.878,165.004C314.492,165.004 310.931,168.565 310.931,172.951L310.931,188.845C310.931,193.231 314.492,196.792 318.878,196.792L352.632,196.792C357.018,196.792 360.579,193.231 360.579,188.845L360.579,172.951Z" style="fill:rgb(235,235,235);"/>
    <path d="M326.137,185.56L326.137,176.236L327.442,176.236L327.442,184.357L332.624,184.357L332.624,185.56L326.137,185.56Z" style="fill-rule:nonzero;"/>
    <rect x="334.087" y="176.236" width="1.306" height="9.324" style="fill-rule:nonzero;"/>
    <path d="M337.908,185.56L337.908,176.236L341.996,176.236C342.949,176.236 343.707,176.483 344.273,176.978C344.838,177.472 345.12,178.134 345.12,178.963C345.12,179.588 344.945,180.127 344.594,180.58C344.243,181.034 343.778,181.363 343.199,181.568L345.373,185.56L343.89,185.56L341.901,181.807L339.228,181.807L339.228,185.56L337.908,185.56ZM339.228,180.659L341.996,180.659C342.529,180.659 342.957,180.512 343.278,180.218C343.599,179.924 343.76,179.54 343.76,179.066C343.76,178.569 343.595,178.174 343.264,177.88C342.934,177.586 342.498,177.439 341.955,177.439L339.228,177.439L339.228,180.659Z" style="fill-rule:nonzero;"/>
    <path d="M300.853,172.951C300.853,168.565 297.292,165.004 292.906,165.004L259.152,165.004C254.766,165.004 251.205,168.565 251.205,172.951L251.205,188.845C251.205,193.231 254.766,196.792 259.152,196.792L292.906,196.792C297.292,196.792 300.853,193.231 300.853,188.845L300.853,172.951Z" style="fill:rgb(235,235,235);"/>
    <path d="M266.411,185.56L266.411,176.236L267.717,176.236L267.717,184.357L272.898,184.357L272.898,185.56L266.411,185.56Z" style="fill-rule:nonzero;"/>
    <rect x="274.361" y="176.236" width="1.306" height="9.324" style="fill-rule:nonzero;"/>
    <path d="M278.182,185.56L278.182,176.236L282.27,176.236C283.223,176.236 283.982,176.483 284.547,176.978C285.112,177.472 285.394,178.134 285.394,178.963C285.394,179.588 285.219,180.127 284.868,180.58C284.517,181.034 284.052,181.363 283.474,181.568L285.647,185.56L284.164,185.56L282.175,181.807L279.502,181.807L279.502,185.56L278.182,185.56ZM279.502,180.659L282.27,180.659C282.804,180.659 283.231,180.512 283.552,180.218C283.873,179.924 284.034,179.54 284.034,179.066C284.034,178.569 283.869,178.174 283.538,177.88C283.208,177.586 282.772,177.439 282.229,177.439L279.502,177.439L279.502,180.659Z" style="fill-rule:nonzero;"/>
    <path d="M300.853,172.951C300.853,168.565 297.292,165.004 292.906,165.004L259.152,165.004C254.766,165.004 251.205,168.565 251.205,172.951L251.205,188.845C251.205,193.231 254.766,196.792 259.152,196.792L292.906,196.792C297.292,196.792 300.853,193.231 300.853,188.845L300.853,172.951Z" style="fill:rgb(235,235,235);"/>
    <path d="M266.411,185.56L266.411,176.236L267.717,176.236L267.717,184.357L272.898,184.357L272.898,185.56L266.411,185.56Z" style="fill-rule:nonzero;"/>
    <rect x="274.361" y="176.236" width="1.306" height="9.324" style="fill-rule:nonzero;"/>
    <path d="M278.182,185.56L278.182,176.236L282.27,176.236C283.223,176.236 283.982,176.483 284.547,176.978C285.112,177.472 285.394,178.134 285.394,178.963C285.394,179.588 285.219,180.127 284.868,180.58C284.517,181.034 284.052,181.363 283.474,181.568L285.647,185.56L284.164,185.56L282.175,181.807L279.502,181.807L279.502,185.56L278.182,185.56ZM279.502,180.659L282.27,180.659C282.804,180.659 283.231,180.512 283.552,180.218C283.873,179.924 284.034,179.54 284.034,179.066C284.034,178.569 283.869,178.174 283.538,177.88C283.208,177.586 282.772,177.439 282.229,177.439L279.502,177.439L279.502,180.659Z" style="fill-rule:nonzero;"/>
    <path d="M241.22,172.951C241.22,168.565 237.659,165.004 233.273,165.004L199.519,165.004C195.133,165.004 191.572,168.565 191.572,172.951L191.572,188.845C191.572,193.231 195.133,196.792 199.519,196.792L233.273,196.792C237.659,196.792 241.22,193.231 241.22,188.845L241.22,172.951Z" style="fill:rgb(235,235,235);"/>
    <path d="M206.778,185.56L206.778,176.236L208.083,176.236L208.083,184.357L213.265,184.357L213.265,185.56L206.778,185.56Z" style="fill-rule:nonzero;"/>
    <rect x="214.728" y="176.236" width="1.306" height="9.324" style="fill-rule:nonzero;"/>
    <path d="M218.549,185.56L218.549,176.236L222.637,176.236C223.589,176.236 224.348,176.483 224.913,176.978C225.478,177.472 225.761,178.134 225.761,178.963C225.761,179.588 225.586,180.127 225.235,180.58C224.884,181.034 224.419,181.363 223.84,181.568L226.014,185.56L224.531,185.56L222.541,181.807L219.868,181.807L219.868,185.56L218.549,185.56ZM219.868,180.659L222.637,180.659C223.17,180.659 223.597,180.512 223.919,180.218C224.24,179.924 224.401,179.54 224.401,179.066C224.401,178.569 224.235,178.174 223.905,177.88C223.575,177.586 223.138,177.439 222.596,177.439L219.868,177.439L219.868,180.659Z" style="fill-rule:nonzero;"/>
    <path d="M420.231,172.951C420.231,168.565 416.67,165.004 412.284,165.004L378.53,165.004C374.143,165.004 370.582,168.565 370.582,172.951L370.582,188.845C370.582,193.231 374.143,196.792 378.53,196.792L412.284,196.792C416.67,196.792 420.231,193.231 420.231,188.845L420.231,172.951Z" style="fill:rgb(235,235,235);"/>
    <path d="M385.788,185.56L385.788,176.236L387.094,176.236L387.094,184.357L392.276,184.357L392.276,185.56L385.788,185.56Z" style="fill-rule:nonzero;"/>
    <rect x="393.739" y="176.236" width="1.306" height="9.324" style="fill-rule:nonzero;"/>
    <path d="M397.56,185.56L397.56,176.236L401.648,176.236C402.6,176.236 403.359,176.483 403.924,176.978C404.489,177.472 404.772,178.134 404.772,178.963C404.772,179.588 404.596,180.127 404.245,180.58C403.895,181.034 403.43,181.363 402.851,181.568L405.025,185.56L403.541,185.56L401.552,181.807L398.879,181.807L398.879,185.56L397.56,185.56ZM398.879,180.659L401.648,180.659C402.181,180.659 402.608,180.512 402.93,180.218C403.251,179.924 403.411,179.54 403.411,179.066C403.411,178.569 403.246,178.174 402.916,177.88C402.585,177.586 402.149,177.439 401.607,177.439L398.879,177.439L398.879,180.659Z" style="fill-rule:nonzero;"/>
    <path d="M516.952,40.99L516.952,31.666L521.039,31.666C521.992,31.666 522.751,31.913 523.316,32.408C523.881,32.902 524.163,33.564 524.163,34.393C524.163,35.018 523.988,35.557 523.637,36.01C523.286,36.464 522.821,36.793 522.243,36.998L524.416,40.99L522.933,40.99L520.944,37.237L518.271,37.237L518.271,40.99L516.952,40.99ZM518.271,36.089L521.039,36.089C521.573,36.089 522,35.942 522.321,35.648C522.642,35.354 522.803,34.97 522.803,34.496C522.803,33.999 522.638,33.604 522.308,33.31C521.977,33.016 521.541,32.869 520.998,32.869L518.271,32.869L518.271,36.089Z" style="fill-rule:nonzero;"/>
    <rect x="526.201" y="31.666" width="1.306" height="9.324" style="fill-rule:nonzero;"/>
    <path d="M530.022,40.99L530.022,31.666L533.946,31.666C534.98,31.666 535.787,31.927 536.366,32.449C536.944,32.97 537.234,33.676 537.234,34.564C537.234,35.453 536.947,36.156 536.372,36.673C535.798,37.19 534.989,37.449 533.946,37.449L531.341,37.449L531.341,40.99L530.022,40.99ZM531.341,36.246L533.946,36.246C534.579,36.246 535.059,36.097 535.385,35.798C535.711,35.5 535.873,35.088 535.873,34.564C535.873,34.031 535.711,33.615 535.385,33.317C535.059,33.018 534.579,32.869 533.946,32.869L531.341,32.869L531.341,36.246Z" style="fill-rule:nonzero;"/>
    <path d="M538.895,40.99L538.895,31.666L545.505,31.666L545.505,32.869L540.214,32.869L540.214,35.501L544.822,35.501L544.822,36.636L540.214,36.636L540.214,39.787L545.642,39.787L545.642,40.99L538.895,40.99Z" style="fill-rule:nonzero;"/>
    <path d="M551.343,40.99L551.343,31.666L553.025,31.666L557.769,39.172L557.769,31.666L559.034,31.666L559.034,40.99L557.489,40.99L552.608,33.306L552.608,40.99L551.343,40.99Z" style="fill-rule:nonzero;"/>
    <path d="M562.205,39.801C561.371,38.894 560.955,37.736 560.955,36.328C560.955,34.92 561.373,33.762 562.209,32.855C563.045,31.948 564.135,31.495 565.48,31.495C567.057,31.495 568.278,32.122 569.144,33.375L568.112,34.086C567.519,33.165 566.656,32.705 565.521,32.705C565.516,32.705 565.512,32.705 565.507,32.705C564.546,32.705 563.775,33.033 563.197,33.689C562.618,34.346 562.329,35.221 562.329,36.314C562.329,37.417 562.618,38.301 563.197,38.967C563.775,39.632 564.537,39.965 565.48,39.965C566.619,39.965 567.496,39.486 568.112,38.529L569.192,39.226C568.344,40.516 567.111,41.161 565.494,41.161C564.14,41.161 563.044,40.708 562.205,39.801Z" style="fill-rule:nonzero;"/>
    <path d="M571.584,39.801C570.75,38.894 570.333,37.736 570.333,36.328C570.333,34.92 570.752,33.762 571.588,32.855C572.424,31.948 573.514,31.495 574.859,31.495C576.436,31.495 577.657,32.122 578.523,33.375L577.491,34.086C576.898,33.165 576.035,32.705 574.9,32.705C574.895,32.705 574.891,32.705 574.886,32.705C573.925,32.705 573.154,33.033 572.576,33.689C571.997,34.346 571.707,35.221 571.707,36.314C571.707,37.417 571.997,38.301 572.576,38.967C573.154,39.632 573.915,39.965 574.859,39.965C575.998,39.965 576.875,39.486 577.491,38.529L578.571,39.226C577.723,40.516 576.49,41.161 574.872,41.161C573.519,41.161 572.423,40.708 571.584,39.801Z" style="fill-rule:nonzero;"/>
    <path d="M626.399,40.99L630.193,31.666L631.629,31.666L635.443,40.99L633.967,40.99L632.976,38.399L628.778,38.399L627.767,40.99L626.399,40.99ZM629.223,37.251L632.545,37.251L630.904,32.937L629.223,37.251Z" style="fill-rule:nonzero;"/>
    <path d="M636.838,40.99L636.838,31.666L643.571,31.666L643.571,32.869L638.157,32.869L638.157,35.555L642.751,35.555L642.751,36.69L638.157,36.69L638.157,40.99L636.838,40.99Z" style="fill-rule:nonzero;"/>
    <path d="M645.26,40.99L645.26,31.666L649.348,31.666C650.3,31.666 651.059,31.913 651.624,32.408C652.189,32.902 652.472,33.564 652.472,34.393C652.472,35.018 652.296,35.557 651.945,36.01C651.594,36.464 651.13,36.793 650.551,36.998L652.725,40.99L651.241,40.99L649.252,37.237L646.579,37.237L646.579,40.99L645.26,40.99ZM646.579,36.089L649.348,36.089C649.881,36.089 650.308,35.942 650.629,35.648C650.951,35.354 651.111,34.97 651.111,34.496C651.111,33.999 650.946,33.604 650.616,33.31C650.285,33.016 649.849,32.869 649.307,32.869L646.579,32.869L646.579,36.089Z" style="fill-rule:nonzero;"/>
    <rect x="654.509" y="31.666" width="1.306" height="9.324" style="fill-rule:nonzero;"/>
    <path d="M658.33,40.99L658.33,31.666L660.012,31.666L664.756,39.172L664.756,31.666L666.02,31.666L666.02,40.99L664.476,40.99L659.595,33.306L659.595,40.99L658.33,40.99Z" style="fill-rule:nonzero;"/>
    <rect x="668.529" y="31.666" width="1.306" height="9.324" style="fill-rule:nonzero;"/>
    <path d="M673.014,39.801C672.18,38.894 671.763,37.736 671.763,36.328C671.763,34.92 672.181,33.762 673.017,32.855C673.853,31.948 674.944,31.495 676.288,31.495C677.865,31.495 679.086,32.122 679.952,33.375L678.92,34.086C678.327,33.165 677.464,32.705 676.329,32.705C676.325,32.705 676.32,32.705 676.315,32.705C675.354,32.705 674.584,33.033 674.005,33.689C673.426,34.346 673.137,35.221 673.137,36.314C673.137,37.417 673.426,38.301 674.005,38.967C674.584,39.632 675.345,39.965 676.288,39.965C677.427,39.965 678.305,39.486 678.92,38.529L680,39.226C679.152,40.516 677.92,41.161 676.302,41.161C674.948,41.161 673.852,40.708 673.014,39.801Z" style="fill-rule:nonzero;"/>
    <path d="M335.668,65.714L335.668,95.27" style="fill:none;stroke:black;stroke-width:1px;"/>
    <path d="M335.755,139.817L335.755,165.004" style="fill:none;stroke:black;stroke-width:1px;"/>
    <path d="M395.407,165.004L335.755,139.817L278.278,165.004" style="fill:none;stroke:black;stroke-width:1px;"/>
    <path d="M335.755,65.714L216.396,165.004" style="fill:none;stroke:black;stroke-width:1px;"/>
    <path d="M545.171,65.714L545.038,165.004" style="fill:none;stroke:black;stroke-width:1px;"/>
    <path d="M275.262,196.792L275.457,215.817" style="fill:none;stroke:black;stroke-width:1px;"/>
    <path d="M300.281,223.764C300.281,219.378 296.72,215.817 292.334,215.817L258.58,215.817C254.194,215.817 250.633,219.378 250.633,223.764L250.633,239.658C250.633,244.044 254.194,247.605 258.58,247.605L292.334,247.605C296.72,247.605 300.281,244.044 300.281,239.658L300.281,223.764Z" style="fill:rgb(235,235,235);"/>
    <rect x="265.767" y="227.049" width="1.306" height="9.324" style="fill-rule:nonzero;"/>
    <path d="M268.823,234.623L269.896,233.94C270.511,234.91 271.45,235.396 272.712,235.396C273.346,235.396 273.856,235.253 274.243,234.969C274.631,234.684 274.825,234.293 274.825,233.796C274.825,233.618 274.802,233.46 274.756,233.321C274.711,233.182 274.619,233.059 274.483,232.952C274.346,232.845 274.229,232.758 274.131,232.692C274.033,232.626 273.856,232.555 273.601,232.48C273.346,232.405 273.154,232.352 273.027,232.32C272.899,232.288 272.664,232.235 272.323,232.162C271.867,232.071 271.479,231.969 271.16,231.855C270.841,231.741 270.524,231.586 270.207,231.39C269.89,231.194 269.65,230.94 269.486,230.628C269.322,230.316 269.24,229.95 269.24,229.531C269.24,228.71 269.543,228.063 270.149,227.589C270.755,227.115 271.539,226.878 272.5,226.878C273.22,226.878 273.883,227.021 274.49,227.305C275.096,227.59 275.599,227.999 276,228.533L274.995,229.25C274.398,228.448 273.544,228.045 272.432,228.04C271.89,228.04 271.442,228.151 271.089,228.372C270.735,228.593 270.559,228.936 270.559,229.401C270.559,229.597 270.6,229.77 270.682,229.92C270.764,230.071 270.857,230.19 270.962,230.279C271.067,230.368 271.231,230.456 271.454,230.542C271.678,230.629 271.865,230.693 272.015,230.734L272.712,230.898C273.141,231.003 273.493,231.095 273.768,231.175C274.044,231.254 274.351,231.371 274.688,231.523C275.025,231.676 275.288,231.841 275.477,232.019C275.666,232.197 275.827,232.428 275.959,232.713C276.091,232.998 276.158,233.322 276.158,233.687C276.158,234.544 275.835,235.234 275.19,235.758C274.545,236.282 273.687,236.544 272.616,236.544C271.76,236.544 271.002,236.373 270.344,236.032C269.685,235.69 269.178,235.22 268.823,234.623Z" style="fill-rule:nonzero;"/>
    <path d="M278.058,236.373L278.058,227.049L281.982,227.049C283.016,227.049 283.823,227.31 284.402,227.832C284.98,228.354 285.27,229.059 285.27,229.948C285.27,230.836 284.983,231.539 284.408,232.056C283.834,232.574 283.025,232.832 281.982,232.832L279.377,232.832L279.377,236.373L278.058,236.373ZM279.377,231.629L281.982,231.629C282.615,231.629 283.095,231.48 283.421,231.181C283.747,230.883 283.909,230.472 283.909,229.948C283.909,229.414 283.747,228.999 283.421,228.7C283.095,228.402 282.615,228.252 281.982,228.252L279.377,228.252L279.377,231.629Z" style="fill-rule:nonzero;"/>
    <path d="M484.752,196.792L484.947,215.817" style="fill:none;stroke:black;stroke-width:1px;"/>
    <path d="M509.771,223.764C509.771,219.378 506.21,215.817 501.824,215.817L468.07,215.817C463.684,215.817 460.123,219.378 460.123,223.764L460.123,239.658C460.123,244.044 463.684,247.605 468.07,247.605L501.824,247.605C506.21,247.605 509.771,244.044 509.771,239.658L509.771,223.764Z" style="fill:rgb(235,235,235);"/>
    <rect x="475.257" y="227.049" width="1.306" height="9.324" style="fill-rule:nonzero;"/>
    <path d="M478.313,234.623L479.386,233.94C480.001,234.91 480.94,235.396 482.202,235.396C482.836,235.396 483.346,235.253 483.734,234.969C484.121,234.684 484.315,234.293 484.315,233.796C484.315,233.618 484.292,233.46 484.246,233.321C484.201,233.182 484.11,233.059 483.973,232.952C483.836,232.845 483.719,232.758 483.621,232.692C483.523,232.626 483.346,232.555 483.091,232.48C482.836,232.405 482.645,232.352 482.517,232.32C482.389,232.288 482.155,232.235 481.813,232.162C481.357,232.071 480.97,231.969 480.651,231.855C480.332,231.741 480.014,231.586 479.697,231.39C479.38,231.194 479.14,230.94 478.976,230.628C478.812,230.316 478.73,229.95 478.73,229.531C478.73,228.71 479.033,228.063 479.639,227.589C480.245,227.115 481.029,226.878 481.991,226.878C482.711,226.878 483.374,227.021 483.98,227.305C484.586,227.59 485.09,227.999 485.491,228.533L484.486,229.25C483.889,228.448 483.034,228.045 481.922,228.04C481.38,228.04 480.932,228.151 480.579,228.372C480.226,228.593 480.049,228.936 480.049,229.401C480.049,229.597 480.09,229.77 480.172,229.92C480.254,230.071 480.348,230.19 480.452,230.279C480.557,230.368 480.721,230.456 480.945,230.542C481.168,230.629 481.355,230.693 481.505,230.734L482.202,230.898C482.631,231.003 482.983,231.095 483.259,231.175C483.534,231.254 483.841,231.371 484.178,231.523C484.515,231.676 484.778,231.841 484.968,232.019C485.157,232.197 485.317,232.428 485.45,232.713C485.582,232.998 485.648,233.322 485.648,233.687C485.648,234.544 485.325,235.234 484.681,235.758C484.036,236.282 483.178,236.544 482.107,236.544C481.25,236.544 480.492,236.373 479.834,236.032C479.175,235.69 478.668,235.22 478.313,234.623Z" style="fill-rule:nonzero;"/>
    <path d="M487.548,236.373L487.548,227.049L491.472,227.049C492.507,227.049 493.313,227.31 493.892,227.832C494.471,228.354 494.76,229.059 494.76,229.948C494.76,230.836 494.473,231.539 493.899,232.056C493.325,232.574 492.516,232.832 491.472,232.832L488.868,232.832L488.868,236.373L487.548,236.373ZM488.868,231.629L491.472,231.629C492.105,231.629 492.585,231.48 492.911,231.181C493.237,230.883 493.4,230.472 493.4,229.948C493.4,229.414 493.237,228.999 492.911,228.7C492.585,228.402 492.105,228.252 491.472,228.252L488.868,228.252L488.868,231.629Z" style="fill-rule:nonzero;"/>
    <path d="M569.995,172.951C569.995,168.565 566.434,165.004 562.048,165.004L528.294,165.004C523.908,165.004 520.347,168.565 520.347,172.951L520.347,188.845C520.347,193.231 523.908,196.792 528.294,196.792L562.048,196.792C566.434,196.792 569.995,193.231 569.995,188.845L569.995,172.951Z" style="fill:rgb(235,235,235);"/>
    <path d="M535.553,185.56L535.553,176.236L536.858,176.236L536.858,184.357L542.04,184.357L542.04,185.56L535.553,185.56Z" style="fill-rule:nonzero;"/>
    <rect x="543.503" y="176.236" width="1.306" height="9.324" style="fill-rule:nonzero;"/>
    <path d="M547.324,185.56L547.324,176.236L551.412,176.236C552.365,176.236 553.123,176.483 553.688,176.978C554.254,177.472 554.536,178.134 554.536,178.963C554.536,179.588 554.361,180.127 554.01,180.58C553.659,181.034 553.194,181.363 552.615,181.568L554.789,185.56L553.306,185.56L551.316,181.807L548.643,181.807L548.643,185.56L547.324,185.56ZM548.643,180.659L551.412,180.659C551.945,180.659 552.372,180.512 552.694,180.218C553.015,179.924 553.176,179.54 553.176,179.066C553.176,178.569 553.011,178.174 552.68,177.88C552.35,177.586 551.913,177.439 551.371,177.439L548.643,177.439L548.643,180.659Z" style="fill-rule:nonzero;"/>
    <path d="M510.269,172.951C510.269,168.565 506.708,165.004 502.322,165.004L468.568,165.004C464.182,165.004 460.621,168.565 460.621,172.951L460.621,188.845C460.621,193.231 464.182,196.792 468.568,196.792L502.322,196.792C506.708,196.792 510.269,193.231 510.269,188.845L510.269,172.951Z" style="fill:rgb(235,235,235);"/>
    <path d="M475.827,185.56L475.827,176.236L477.132,176.236L477.132,184.357L482.314,184.357L482.314,185.56L475.827,185.56Z" style="fill-rule:nonzero;"/>
    <rect x="483.777" y="176.236" width="1.306" height="9.324" style="fill-rule:nonzero;"/>
    <path d="M487.598,185.56L487.598,176.236L491.686,176.236C492.639,176.236 493.397,176.483 493.963,176.978C494.528,177.472 494.81,178.134 494.81,178.963C494.81,179.588 494.635,180.127 494.284,180.58C493.933,181.034 493.468,181.363 492.889,181.568L495.063,185.56L493.58,185.56L491.591,181.807L488.918,181.807L488.918,185.56L487.598,185.56ZM488.918,180.659L491.686,180.659C492.219,180.659 492.647,180.512 492.968,180.218C493.289,179.924 493.45,179.54 493.45,179.066C493.45,178.569 493.285,178.174 492.954,177.88C492.624,177.586 492.188,177.439 491.645,177.439L488.918,177.439L488.918,180.659Z" style="fill-rule:nonzero;"/>
    <path d="M629.647,172.951C629.647,168.565 626.086,165.004 621.699,165.004L587.945,165.004C583.559,165.004 579.998,168.565 579.998,172.951L579.998,188.845C579.998,193.231 583.559,196.792 587.945,196.792L621.699,196.792C626.086,196.792 629.647,193.231 629.647,188.845L629.647,172.951Z" style="fill:rgb(235,235,235);"/>
    <path d="M595.204,185.56L595.204,176.236L596.51,176.236L596.51,184.357L601.692,184.357L601.692,185.56L595.204,185.56Z" style="fill-rule:nonzero;"/>
    <rect x="603.154" y="176.236" width="1.306" height="9.324" style="fill-rule:nonzero;"/>
    <path d="M606.976,185.56L606.976,176.236L611.064,176.236C612.016,176.236 612.775,176.483 613.34,176.978C613.905,177.472 614.188,178.134 614.188,178.963C614.188,179.588 614.012,180.127 613.661,180.58C613.31,181.034 612.846,181.363 612.267,181.568L614.441,185.56L612.957,185.56L610.968,181.807L608.295,181.807L608.295,185.56L606.976,185.56ZM608.295,180.659L611.064,180.659C611.597,180.659 612.024,180.512 612.345,180.218C612.667,179.924 612.827,179.54 612.827,179.066C612.827,178.569 612.662,178.174 612.332,177.88C612.001,177.586 611.565,177.439 611.023,177.439L608.295,177.439L608.295,180.659Z" style="fill-rule:nonzero;"/>
    <path d="M604.822,165.004L545.171,65.714L487.694,165.004" style="fill:none;stroke:black;stroke-width:1px;"/>
    <path d="M255.567,21.35L256.988,21.35C257.946,25.859 262.983,28.372 267.638,28.372C272.3,28.372 277.331,25.854 278.287,21.35L279.709,21.35C280.178,21.35 280.413,20.783 280.081,20.451L277.139,17.509C276.934,17.303 276.6,17.303 276.395,17.509L273.453,20.451C273.121,20.783 273.356,21.35 273.825,21.35L275.368,21.35C274.477,23.734 271.639,25.15 269.042,25.476L269.042,17.136L271.325,17.136C271.615,17.136 271.851,16.901 271.851,16.61L271.851,14.854C271.851,14.563 271.615,14.327 271.325,14.327L269.042,14.327L269.042,14.087C270.679,13.509 271.851,11.949 271.851,10.114C271.851,7.822 269.991,5.933 267.698,5.901C265.343,5.868 263.424,7.767 263.424,10.114C263.424,11.948 264.597,13.509 266.233,14.087L266.233,14.327L263.951,14.327C263.66,14.327 263.424,14.563 263.424,14.854L263.424,16.61C263.424,16.901 263.66,17.136 263.951,17.136L266.233,17.136L266.233,25.476C263.647,25.151 260.799,23.735 259.908,21.35L261.451,21.35C261.92,21.35 262.155,20.783 261.823,20.451L258.881,17.509C258.675,17.303 258.342,17.303 258.136,17.509L255.194,20.451C254.862,20.783 255.097,21.35 255.567,21.35ZM267.638,8.709C268.412,8.709 269.042,9.339 269.042,10.114C269.042,10.888 268.412,11.518 267.638,11.518C266.863,11.518 266.233,10.888 266.233,10.114C266.233,9.339 266.863,8.709 267.638,8.709Z" style="fill:rgb(137,137,137);fill-rule:nonzero;"/>
    <path d="M361.597,21.35L363.019,21.35C363.976,25.859 369.013,28.372 373.668,28.372C378.33,28.372 383.361,25.854 384.317,21.35L385.739,21.35C386.208,21.35 386.443,20.783 386.111,20.451L383.17,17.509C382.964,17.303 382.63,17.303 382.425,17.509L379.483,20.451C379.151,20.783 379.386,21.35 379.855,21.35L381.398,21.35C380.507,23.734 377.669,25.15 375.072,25.476L375.072,17.136L377.355,17.136C377.646,17.136 377.881,16.901 377.881,16.61L377.881,14.854C377.881,14.563 377.646,14.327 377.355,14.327L375.072,14.327L375.072,14.087C376.709,13.509 377.881,11.949 377.881,10.114C377.882,7.822 376.021,5.933 373.728,5.901C371.373,5.868 369.454,7.767 369.454,10.114C369.454,11.948 370.627,13.509 372.263,14.087L372.263,14.327L369.981,14.327C369.69,14.327 369.454,14.563 369.454,14.854L369.454,16.61C369.454,16.901 369.69,17.136 369.981,17.136L372.263,17.136L372.263,25.476C369.677,25.151 366.829,23.735 365.938,21.35L367.481,21.35C367.95,21.35 368.185,20.783 367.853,20.451L364.911,17.509C364.705,17.303 364.372,17.303 364.166,17.509L361.224,20.451C360.893,20.783 361.128,21.35 361.597,21.35ZM373.668,8.709C374.442,8.709 375.072,9.339 375.072,10.114C375.072,10.888 374.442,11.518 373.668,11.518C372.893,11.518 372.263,10.888 372.263,10.114C372.263,9.339 372.893,8.709 373.668,8.709Z" style="fill:rgb(137,137,137);fill-rule:nonzero;"/>
    <path d="M467.603,21.35L469.024,21.35C469.981,25.859 475.019,28.372 479.674,28.372C484.336,28.372 489.367,25.854 490.323,21.35L491.745,21.35C492.214,21.35 492.449,20.783 492.117,20.451L489.175,17.509C488.97,17.303 488.636,17.303 488.43,17.509L485.488,20.451C485.157,20.783 485.392,21.35 485.861,21.35L487.403,21.35C486.513,23.734 483.674,25.15 481.078,25.476L481.078,17.136L483.36,17.136C483.651,17.136 483.887,16.901 483.887,16.61L483.887,14.854C483.887,14.563 483.651,14.327 483.36,14.327L481.078,14.327L481.078,14.087C482.714,13.509 483.887,11.949 483.887,10.114C483.887,7.822 482.026,5.933 479.734,5.901C477.379,5.868 475.46,7.767 475.46,10.114C475.46,11.948 476.633,13.509 478.269,14.087L478.269,14.327L475.987,14.327C475.696,14.327 475.46,14.563 475.46,14.854L475.46,16.61C475.46,16.901 475.696,17.136 475.987,17.136L478.269,17.136L478.269,25.476C475.682,25.151 472.835,23.735 471.944,21.35L473.486,21.35C473.956,21.35 474.191,20.783 473.859,20.451L470.917,17.509C470.711,17.303 470.378,17.303 470.172,17.509L467.23,20.451C466.898,20.783 467.133,21.35 467.603,21.35ZM479.674,8.709C480.448,8.709 481.078,9.339 481.078,10.114C481.078,10.888 480.448,11.518 479.674,11.518C478.899,11.518 478.269,10.888 478.269,10.114C478.269,9.339 478.899,8.709 479.674,8.709Z" style="fill:rgb(137,137,137);fill-rule:nonzero;"/>
    <path d="M573.461,21.35L574.883,21.35C575.84,25.859 580.877,28.372 585.532,28.372C590.195,28.372 595.226,25.854 596.182,21.35L597.603,21.35C598.073,21.35 598.308,20.783 597.976,20.451L595.034,17.509C594.828,17.303 594.495,17.303 594.289,17.509L591.347,20.451C591.015,20.783 591.25,21.35 591.72,21.35L593.262,21.35C592.372,23.734 589.533,25.15 586.937,25.476L586.937,17.136L589.219,17.136C589.51,17.136 589.746,16.901 589.746,16.61L589.746,14.854C589.746,14.563 589.51,14.327 589.219,14.327L586.937,14.327L586.937,14.087C588.573,13.509 589.746,11.949 589.746,10.114C589.746,7.822 587.885,5.933 585.592,5.901C583.238,5.868 581.319,7.767 581.319,10.114C581.319,11.948 582.491,13.509 584.128,14.087L584.128,14.327L581.846,14.327C581.555,14.327 581.319,14.563 581.319,14.854L581.319,16.61C581.319,16.901 581.555,17.136 581.846,17.136L584.128,17.136L584.128,25.476C581.541,25.151 578.693,23.735 577.802,21.35L579.345,21.35C579.814,21.35 580.049,20.783 579.717,20.451L576.776,17.509C576.57,17.303 576.236,17.303 576.031,17.509L573.089,20.451C572.757,20.783 572.992,21.35 573.461,21.35ZM585.532,8.709C586.307,8.709 586.937,9.339 586.937,10.114C586.937,10.888 586.307,11.518 585.532,11.518C584.758,11.518 584.128,10.888 584.128,10.114C584.128,9.339 584.758,8.709 585.532,8.709Z" style="fill:rgb(137,137,137);fill-rule:nonzero;"/>
    <path d="M679.592,21.35L681.014,21.35C681.971,25.859 687.008,28.372 691.663,28.372C696.326,28.372 701.357,25.854 702.313,21.35L703.734,21.35C704.204,21.35 704.439,20.783 704.107,20.451L701.165,17.509C700.959,17.303 700.626,17.303 700.42,17.509L697.478,20.451C697.146,20.783 697.381,21.35 697.85,21.35L699.393,21.35C698.502,23.734 695.664,25.15 693.068,25.476L693.068,17.136L695.35,17.136C695.641,17.136 695.877,16.901 695.877,16.61L695.877,14.854C695.877,14.563 695.641,14.327 695.35,14.327L693.068,14.327L693.068,14.087C694.704,13.509 695.876,11.949 695.877,10.114C695.877,7.822 694.016,5.933 691.723,5.901C689.369,5.868 687.45,7.767 687.45,10.114C687.45,11.948 688.622,13.509 690.259,14.087L690.259,14.327L687.976,14.327C687.686,14.327 687.45,14.563 687.45,14.854L687.45,16.61C687.45,16.901 687.686,17.136 687.976,17.136L690.259,17.136L690.259,25.476C687.672,25.151 684.824,23.735 683.933,21.35L685.476,21.35C685.945,21.35 686.18,20.783 685.848,20.451L682.906,17.509C682.701,17.303 682.367,17.303 682.162,17.509L679.22,20.451C678.888,20.783 679.123,21.35 679.592,21.35ZM691.663,8.709C692.438,8.709 693.068,9.339 693.068,10.114C693.068,10.888 692.438,11.518 691.663,11.518C690.889,11.518 690.259,10.888 690.259,10.114C690.259,9.339 690.889,8.709 691.663,8.709Z" style="fill:rgb(137,137,137);fill-rule:nonzero;"/>
</svg>
