<?xml version="1.0" encoding="UTF-8" standalone="no"?><!DOCTYPE svg PUBLIC "-//W3C//DTD SVG 1.1//EN" "http://www.w3.org/Graphics/SVG/1.1/DTD/svg11.dtd"><svg width="100%" height="100%" viewBox="0 0 350 150" version="1.1" xmlns="http://www.w3.org/2000/svg" xmlns:xlink="http://www.w3.org/1999/xlink" xml:space="preserve" xmlns:serif="http://www.serif.com/" style="fill-rule:evenodd;clip-rule:evenodd;stroke-linecap:round;stroke-linejoin:round;stroke-miterlimit:1.5;"><path d="M136.727,11.601c0,-3.91 -3.175,-7.085 -7.086,-7.085l-30.093,0c-3.911,0 -7.085,3.175 -7.085,7.085l0,14.171c0,3.91 3.174,7.085 7.085,7.085l30.093,0c3.911,0 7.086,-3.175 7.086,-7.085l0,-14.171Z" style="fill:#ebebeb;"/><path d="M189.72,11.601c0,-3.91 -3.175,-7.085 -7.085,-7.085l-30.094,0c-3.91,0 -7.085,3.175 -7.085,7.085l0,14.171c0,3.91 3.175,7.085 7.085,7.085l30.094,0c3.91,0 7.085,-3.175 7.085,-7.085l0,-14.171Z" style="fill:#ebebeb;"/><path d="M242.716,11.601c0,-3.91 -3.175,-7.085 -7.086,-7.085l-30.093,0c-3.911,0 -7.086,3.175 -7.086,7.085l0,14.171c0,3.91 3.175,7.085 7.086,7.085l30.093,0c3.911,0 7.086,-3.175 7.086,-7.085l0,-14.171Z" style="fill:#ebebeb;"/><path d="M184.982,53.203c0,-3.073 -2.495,-5.568 -5.569,-5.568l-23.651,0c-3.073,0 -5.568,2.495 -5.568,5.568l0,11.137c0,3.074 2.495,5.569 5.568,5.569l23.651,0c3.074,0 5.569,-2.495 5.569,-5.569l0,-11.137Z" style="fill:#ebebeb;"/><path d="M295.709,11.601c0,-3.91 -3.175,-7.085 -7.085,-7.085l-30.094,0c-3.911,0 -7.085,3.175 -7.085,7.085l0,14.171c0,3.91 3.174,7.085 7.085,7.085l30.094,0c3.91,0 7.085,-3.175 7.085,-7.085l0,-14.171Z" style="fill:#ebebeb;"/><path d="M348.703,11.601c0,-3.91 -3.175,-7.085 -7.085,-7.085l-30.094,0c-3.91,0 -7.085,3.175 -7.085,7.085l0,14.171c0,3.91 3.175,7.085 7.085,7.085l30.094,0c3.91,0 7.085,-3.175 7.085,-7.085l0,-14.171Z" style="fill:#ebebeb;"/><path d="M104.489,20.559l1.897,-4.662l0.718,0l1.907,4.662l-0.738,0l-0.496,-1.296l-2.098,0l-0.506,1.296l-0.684,0Zm1.412,-1.87l1.661,0l-0.821,-2.156l-0.84,2.156Z" style="fill-rule:nonzero;"/><path d="M109.708,20.559l0,-4.662l1.962,0c0.517,0 0.921,0.13 1.21,0.391c0.29,0.261 0.434,0.614 0.434,1.058c0,0.444 -0.143,0.796 -0.43,1.054c-0.288,0.259 -0.692,0.388 -1.214,0.388l-1.302,0l0,1.771l-0.66,0Zm0.66,-2.372l1.302,0c0.317,0 0.557,-0.075 0.72,-0.224c0.163,-0.149 0.244,-0.355 0.244,-0.617c0,-0.267 -0.081,-0.475 -0.244,-0.624c-0.163,-0.149 -0.403,-0.224 -0.72,-0.224l-1.302,0l0,1.689Z" style="fill-rule:nonzero;"/><path d="M114.145,20.559l0,-4.662l0.841,0l2.372,3.753l0,-3.753l0.632,0l0,4.662l-0.772,0l-2.441,-3.842l0,3.842l-0.632,0Z" style="fill-rule:nonzero;"/><rect x="119.244" y="15.897" width="0.653" height="4.662" style="fill-rule:nonzero;"/><path d="M121.487,19.964c-0.417,-0.453 -0.626,-1.032 -0.626,-1.736c0,-0.704 0.209,-1.283 0.627,-1.736c0.418,-0.454 0.964,-0.681 1.636,-0.681c0.788,0 1.399,0.314 1.832,0.94l-0.516,0.356c-0.296,-0.461 -0.728,-0.691 -1.296,-0.691c-0.002,0 -0.004,0 -0.007,0c-0.48,0 -0.865,0.164 -1.155,0.493c-0.289,0.328 -0.434,0.765 -0.434,1.312c0,0.551 0.145,0.993 0.434,1.326c0.29,0.333 0.67,0.499 1.142,0.499c0.569,0 1.008,-0.239 1.316,-0.718l0.54,0.349c-0.424,0.645 -1.04,0.967 -1.849,0.967c-0.677,0 -1.225,-0.226 -1.644,-0.68Z" style="fill-rule:nonzero;"/><path d="M53.609,20.851l0,-4.329l1.898,0c0.442,0 0.795,0.115 1.057,0.344c0.262,0.23 0.394,0.537 0.394,0.922c0,0.29 -0.082,0.54 -0.245,0.751c-0.163,0.21 -0.378,0.363 -0.647,0.458l1.009,1.854l-0.689,0l-0.923,-1.742l-1.241,0l0,1.742l-0.613,0Zm0.613,-2.276l1.285,0c0.248,0 0.446,-0.068 0.595,-0.204c0.149,-0.137 0.224,-0.315 0.224,-0.535c0,-0.231 -0.077,-0.414 -0.23,-0.551c-0.153,-0.136 -0.356,-0.205 -0.608,-0.205l-1.266,0l0,1.495Z" style="fill-rule:nonzero;"/><rect x="57.903" y="16.522" width="0.606" height="4.329" style="fill-rule:nonzero;"/><path d="M59.678,20.851l0,-4.329l1.898,0c0.442,0 0.794,0.115 1.056,0.344c0.263,0.23 0.394,0.537 0.394,0.922c0,0.29 -0.081,0.54 -0.244,0.751c-0.163,0.21 -0.379,0.363 -0.648,0.458l1.009,1.854l-0.688,0l-0.924,-1.742l-1.241,0l0,1.742l-0.612,0Zm0.612,-2.276l1.286,0c0.247,0 0.445,-0.068 0.595,-0.204c0.149,-0.137 0.223,-0.315 0.223,-0.535c0,-0.231 -0.076,-0.414 -0.23,-0.551c-0.153,-0.136 -0.356,-0.205 -0.607,-0.205l-1.267,0l0,1.495Z" style="fill-rule:nonzero;"/><path d="M65.724,20.851l0,-4.329l1.898,0c0.442,0 0.794,0.115 1.057,0.344c0.262,0.23 0.393,0.537 0.393,0.922c0,0.29 -0.081,0.54 -0.244,0.751c-0.163,0.21 -0.379,0.363 -0.648,0.458l1.01,1.854l-0.689,0l-0.924,-1.742l-1.241,0l0,1.742l-0.612,0Zm0.612,-2.276l1.286,0c0.247,0 0.446,-0.068 0.595,-0.204c0.149,-0.137 0.224,-0.315 0.224,-0.535c0,-0.231 -0.077,-0.414 -0.231,-0.551c-0.153,-0.136 -0.356,-0.205 -0.607,-0.205l-1.267,0l0,1.495Z" style="fill-rule:nonzero;"/><path d="M69.72,19.169c0,-0.521 0.15,-0.947 0.452,-1.279c0.301,-0.332 0.705,-0.499 1.211,-0.499c0.503,0 0.907,0.167 1.211,0.499c0.303,0.332 0.455,0.758 0.455,1.279c0,0.516 -0.152,0.939 -0.455,1.268c-0.304,0.329 -0.708,0.493 -1.211,0.493c-0.508,0 -0.912,-0.164 -1.213,-0.493c-0.3,-0.329 -0.45,-0.752 -0.45,-1.268Zm0.599,0c0,0.364 0.096,0.664 0.286,0.9c0.191,0.236 0.45,0.353 0.779,0.353c0.329,0 0.588,-0.117 0.776,-0.353c0.189,-0.236 0.283,-0.536 0.283,-0.9c0,-0.368 -0.094,-0.671 -0.283,-0.908c-0.188,-0.237 -0.447,-0.355 -0.776,-0.355c-0.329,0 -0.588,0.118 -0.779,0.355c-0.19,0.237 -0.286,0.54 -0.286,0.908Z" style="fill-rule:nonzero;"/><path d="M73.617,19.169c0,-0.521 0.151,-0.947 0.452,-1.279c0.302,-0.332 0.705,-0.499 1.211,-0.499c0.504,0 0.907,0.167 1.211,0.499c0.304,0.332 0.455,0.758 0.455,1.279c0,0.516 -0.151,0.939 -0.455,1.268c-0.304,0.329 -0.707,0.493 -1.211,0.493c-0.508,0 -0.912,-0.164 -1.212,-0.493c-0.301,-0.329 -0.451,-0.752 -0.451,-1.268Zm0.6,0c0,0.364 0.095,0.664 0.286,0.9c0.19,0.236 0.45,0.353 0.779,0.353c0.329,0 0.587,-0.117 0.776,-0.353c0.188,-0.236 0.282,-0.536 0.282,-0.9c0,-0.368 -0.094,-0.671 -0.282,-0.908c-0.189,-0.237 -0.447,-0.355 -0.776,-0.355c-0.329,0 -0.589,0.118 -0.779,0.355c-0.191,0.237 -0.286,0.54 -0.286,0.908Z" style="fill-rule:nonzero;"/><path d="M77.353,17.937l0,-0.466l0.584,0l0,-0.949l0.565,0l0,0.949l1.091,0l0,0.466l-1.091,0l0,1.892c0,0.389 0.173,0.585 0.52,0.587c0.169,0 0.314,-0.047 0.435,-0.143l0.241,0.429c-0.195,0.152 -0.439,0.228 -0.733,0.228c-0.413,0 -0.708,-0.144 -0.886,-0.431c-0.095,-0.148 -0.142,-0.372 -0.142,-0.67l0,-1.892l-0.584,0Z" style="fill-rule:nonzero;"/><path d="M82.431,20.299c-0.387,-0.421 -0.581,-0.959 -0.581,-1.613c0,-0.653 0.194,-1.191 0.582,-1.612c0.389,-0.421 0.895,-0.631 1.519,-0.631c0.732,0 1.299,0.29 1.701,0.872l-0.479,0.33c-0.275,-0.427 -0.676,-0.641 -1.203,-0.641c-0.002,0 -0.004,0 -0.006,0c-0.447,0 -0.804,0.153 -1.073,0.457c-0.269,0.305 -0.403,0.711 -0.403,1.219c0,0.512 0.134,0.923 0.403,1.232c0.269,0.308 0.622,0.463 1.06,0.463c0.529,0 0.936,-0.222 1.222,-0.667l0.501,0.324c-0.393,0.599 -0.965,0.898 -1.717,0.898c-0.628,0 -1.137,-0.21 -1.526,-0.631Z" style="fill-rule:nonzero;"/><path d="M85.966,20.851l1.762,-4.329l0.666,0l1.771,4.329l-0.685,0l-0.46,-1.203l-1.949,0l-0.47,1.203l-0.635,0Zm1.311,-1.736l1.543,0l-0.762,-2.003l-0.781,2.003Z" style="fill-rule:nonzero;"/><g transform="matrix(0.435976,0,0,0.435976,36.0024,7.61541)"><path d="M36.847,116.464l0,-9.93l1.791,0l5.052,7.994l0,-7.994l1.347,0l0,9.93l-1.645,0l-5.198,-8.182l0,8.182l-1.347,0Z" style="fill-rule:nonzero;"/><rect x="47.708" y="106.534" width="1.39" height="9.93" style="fill-rule:nonzero;"/><path d="M51.778,116.464l0,-9.93l4.353,0c1.015,0 1.823,0.264 2.424,0.79c0.602,0.527 0.903,1.232 0.903,2.115c0,0.665 -0.187,1.239 -0.56,1.722c-0.374,0.483 -0.869,0.833 -1.486,1.052l2.315,4.251l-1.579,0l-2.119,-3.997l-2.846,0l0,3.997l-1.405,0Zm1.405,-5.22l2.948,0c0.568,0 1.023,-0.156 1.365,-0.469c0.342,-0.313 0.513,-0.722 0.513,-1.227c0,-0.529 -0.176,-0.95 -0.527,-1.263c-0.352,-0.313 -0.817,-0.469 -1.394,-0.469l-2.905,0l0,3.428Z" style="fill-rule:nonzero;"/><path d="M66.352,115.197c-0.888,-0.965 -1.332,-2.198 -1.332,-3.698c0,-1.499 0.445,-2.732 1.336,-3.698c0.89,-0.966 2.051,-1.449 3.483,-1.449c1.679,0 2.98,0.668 3.902,2.002l-1.099,0.757c-0.631,-0.98 -1.551,-1.47 -2.759,-1.47c-0.005,0 -0.01,0 -0.015,0c-1.024,0 -1.844,0.349 -2.46,1.048c-0.617,0.699 -0.925,1.631 -0.925,2.796c0,1.174 0.308,2.116 0.925,2.824c0.616,0.709 1.427,1.063 2.431,1.063c1.213,0 2.148,-0.509 2.803,-1.529l1.15,0.743c-0.903,1.373 -2.215,2.06 -3.938,2.06c-1.442,0 -2.609,-0.483 -3.502,-1.449Z" style="fill-rule:nonzero;"/><path d="M75.459,116.464l0,-10.643l1.296,0l0,4.171c0.665,-0.975 1.548,-1.463 2.65,-1.463c0.835,0 1.496,0.259 1.984,0.775c0.487,0.517 0.731,1.239 0.731,2.166l0,4.994l-1.296,0l0,-4.695c0,-1.34 -0.577,-2.012 -1.732,-2.017c-0.675,0 -1.233,0.225 -1.675,0.674c-0.441,0.448 -0.662,1.03 -0.662,1.743l0,4.295l-1.296,0Z" style="fill-rule:nonzero;"/><path d="M84.355,116.464l0,-7.753l1.296,0l0,7.753l-1.296,0Zm0,-9.274l0,-1.369l1.296,0l0,1.369l-1.296,0Z" style="fill-rule:nonzero;"/><path d="M87.988,114.571l0,-8.75l1.296,0l0,8.765c0,0.33 0.059,0.562 0.178,0.695c0.119,0.134 0.302,0.2 0.55,0.2c0.286,0 0.504,-0.055 0.655,-0.167l0.284,1.048c-0.253,0.165 -0.607,0.248 -1.063,0.248c-0.015,0 -0.027,0 -0.037,0c-0.728,0 -1.244,-0.219 -1.55,-0.655c-0.209,-0.297 -0.313,-0.758 -0.313,-1.384Z" style="fill-rule:nonzero;"/><path d="M91.649,112.606c0,-1.184 0.323,-2.16 0.969,-2.927c0.645,-0.766 1.511,-1.15 2.599,-1.15c1.155,0 2.074,0.488 2.759,1.463l0,-4.171l1.295,0l0,10.643l-1.295,0l0,-1.267c-0.675,0.966 -1.595,1.449 -2.759,1.449c-1.083,0 -1.948,-0.382 -2.596,-1.146c-0.648,-0.765 -0.972,-1.729 -0.972,-2.894Zm1.995,-2.068c-0.412,0.529 -0.619,1.212 -0.619,2.05c0,0.837 0.209,1.524 0.626,2.06c0.418,0.536 1.017,0.804 1.799,0.804c0.795,0 1.415,-0.27 1.86,-0.811c0.444,-0.542 0.666,-1.225 0.666,-2.05c0,-0.825 -0.222,-1.507 -0.666,-2.045c-0.445,-0.539 -1.065,-0.808 -1.86,-0.808c-0.787,0 -1.388,0.266 -1.806,0.8Z" style="fill-rule:nonzero;"/><path d="M106.493,115.197c-0.888,-0.965 -1.332,-2.198 -1.332,-3.698c0,-1.499 0.445,-2.732 1.336,-3.698c0.89,-0.966 2.051,-1.449 3.483,-1.449c1.679,0 2.98,0.668 3.902,2.002l-1.099,0.757c-0.631,-0.98 -1.551,-1.47 -2.759,-1.47c-0.005,0 -0.01,0 -0.015,0c-1.024,0 -1.844,0.349 -2.46,1.048c-0.617,0.699 -0.925,1.631 -0.925,2.796c0,1.174 0.308,2.116 0.925,2.824c0.616,0.709 1.426,1.063 2.431,1.063c1.213,0 2.148,-0.509 2.803,-1.529l1.15,0.743c-0.903,1.373 -2.215,2.06 -3.938,2.06c-1.442,0 -2.609,-0.483 -3.502,-1.449Z" style="fill-rule:nonzero;"/><path d="M114.603,116.464l4.04,-9.93l1.529,0l4.062,9.93l-1.572,0l-1.056,-2.759l-4.47,0l-1.077,2.759l-1.456,0Zm3.006,-3.982l3.538,0l-1.747,-4.594l-1.791,4.594Z" style="fill-rule:nonzero;"/><path d="M-79.528,126.499l0.879,-0.56c0.504,0.795 1.273,1.193 2.307,1.193c0.519,0 0.937,-0.117 1.254,-0.35c0.318,-0.233 0.476,-0.554 0.476,-0.961c0,-0.145 -0.018,-0.275 -0.056,-0.389c-0.037,-0.114 -0.112,-0.214 -0.224,-0.302c-0.112,-0.088 -0.208,-0.159 -0.288,-0.213c-0.08,-0.054 -0.225,-0.112 -0.434,-0.173c-0.209,-0.062 -0.366,-0.106 -0.47,-0.132c-0.105,-0.026 -0.297,-0.069 -0.577,-0.129c-0.374,-0.075 -0.691,-0.159 -0.952,-0.252c-0.262,-0.093 -0.522,-0.22 -0.781,-0.381c-0.26,-0.16 -0.457,-0.368 -0.591,-0.624c-0.135,-0.256 -0.202,-0.555 -0.202,-0.899c0,-0.672 0.248,-1.202 0.745,-1.59c0.496,-0.388 1.139,-0.583 1.926,-0.583c0.59,0 1.133,0.117 1.63,0.35c0.496,0.234 0.909,0.569 1.237,1.006l-0.823,0.588c-0.489,-0.657 -1.189,-0.988 -2.1,-0.992c-0.444,0 -0.811,0.091 -1.1,0.272c-0.289,0.181 -0.434,0.462 -0.434,0.843c0,0.16 0.034,0.302 0.101,0.425c0.067,0.124 0.143,0.222 0.229,0.294c0.086,0.073 0.221,0.145 0.404,0.216c0.182,0.071 0.336,0.123 0.459,0.157l0.571,0.134c0.351,0.086 0.639,0.162 0.865,0.227c0.226,0.065 0.477,0.16 0.753,0.286c0.277,0.125 0.492,0.26 0.647,0.406c0.155,0.145 0.287,0.335 0.395,0.568c0.108,0.233 0.162,0.499 0.162,0.798c0,0.702 -0.264,1.267 -0.792,1.697c-0.528,0.429 -1.231,0.644 -2.108,0.644c-0.702,0 -1.323,-0.14 -1.862,-0.42c-0.54,-0.28 -0.955,-0.665 -1.246,-1.154Z" style="fill-rule:nonzero;"/><path d="M-72.489,124.965c0,-0.919 0.266,-1.671 0.798,-2.257c0.532,-0.586 1.244,-0.879 2.136,-0.879c0.888,0 1.601,0.293 2.136,0.879c0.536,0.586 0.804,1.338 0.804,2.257c0,0.911 -0.268,1.656 -0.804,2.237c-0.535,0.58 -1.248,0.871 -2.136,0.871c-0.896,0 -1.609,-0.291 -2.139,-0.871c-0.53,-0.581 -0.795,-1.326 -0.795,-2.237Zm1.058,0c0,0.642 0.168,1.171 0.504,1.587c0.336,0.417 0.794,0.625 1.375,0.625c0.58,0 1.037,-0.208 1.369,-0.625c0.332,-0.416 0.498,-0.945 0.498,-1.587c0,-0.65 -0.166,-1.184 -0.498,-1.602c-0.332,-0.418 -0.789,-0.627 -1.369,-0.627c-0.581,0 -1.039,0.209 -1.375,0.627c-0.336,0.418 -0.504,0.952 -0.504,1.602Z" style="fill-rule:nonzero;"/><path d="M-65.221,127.933l0,-5.964l0.997,0l0,0.963c0.497,-0.735 1.142,-1.103 1.938,-1.103c0.911,0 1.508,0.403 1.792,1.209c0.526,-0.802 1.228,-1.205 2.105,-1.209c0.635,0 1.13,0.195 1.487,0.585c0.356,0.39 0.535,0.934 0.535,1.632l0,3.887l-0.997,0l0,-3.646c0,-1.008 -0.418,-1.514 -1.254,-1.517c-0.482,0 -0.883,0.17 -1.204,0.512c-0.322,0.342 -0.482,0.779 -0.482,1.313l0,3.338l-0.997,0l0,-3.646c0,-1.008 -0.416,-1.514 -1.249,-1.517c-0.489,0 -0.89,0.169 -1.204,0.506c-0.313,0.338 -0.47,0.778 -0.47,1.319l0,3.338l-0.997,0Z" style="fill-rule:nonzero;"/><path d="M-55.04,124.976c0,-0.904 0.266,-1.654 0.798,-2.251c0.532,-0.598 1.24,-0.896 2.125,-0.896c0.855,0 1.543,0.284 2.064,0.851c0.52,0.567 0.781,1.275 0.781,2.122c0,0.153 -0.008,0.284 -0.023,0.392l-4.676,0c0.03,0.613 0.224,1.092 0.583,1.439c0.358,0.348 0.832,0.521 1.422,0.521c0.695,0 1.283,-0.261 1.764,-0.784l0.666,0.655c-0.649,0.695 -1.467,1.044 -2.452,1.048c-0.948,0 -1.694,-0.289 -2.237,-0.866c-0.544,-0.576 -0.815,-1.32 -0.815,-2.231Zm1.092,-0.554l3.645,0c-0.052,-0.549 -0.247,-0.975 -0.585,-1.277c-0.338,-0.303 -0.751,-0.454 -1.24,-0.454c-0.512,0 -0.934,0.161 -1.266,0.482c-0.332,0.321 -0.517,0.737 -0.554,1.249Z" style="fill-rule:nonzero;"/><path d="M-45.604,127.933l3.108,-7.639l1.175,0l3.125,7.639l-1.209,0l-0.812,-2.123l-3.439,0l-0.828,2.123l-1.12,0Zm2.312,-3.063l2.722,0l-1.344,-3.534l-1.378,3.534Z" style="fill-rule:nonzero;"/><path d="M-37.053,127.933l0,-7.639l3.214,0c0.847,0 1.508,0.214 1.982,0.642c0.474,0.427 0.711,1.005 0.711,1.733c0,0.728 -0.235,1.304 -0.705,1.727c-0.471,0.424 -1.133,0.636 -1.988,0.636l-2.134,0l0,2.901l-1.08,0Zm1.08,-3.887l2.134,0c0.519,0 0.912,-0.122 1.179,-0.366c0.267,-0.245 0.4,-0.582 0.4,-1.011c0,-0.437 -0.133,-0.778 -0.4,-1.022c-0.267,-0.245 -0.66,-0.367 -1.179,-0.367l-2.134,0l0,2.766Z" style="fill-rule:nonzero;"/><path d="M-29.785,127.933l0,-7.639l1.378,0l3.886,6.149l0,-6.149l1.036,0l0,7.639l-1.265,0l-3.999,-6.295l0,6.295l-1.036,0Z" style="fill-rule:nonzero;"/><rect x="-21.43" y="120.294" width="1.07" height="7.638" style="fill-rule:nonzero;"/><path d="M-17.756,126.958c-0.683,-0.743 -1.025,-1.691 -1.025,-2.844c0,-1.154 0.342,-2.102 1.028,-2.845c0.685,-0.743 1.578,-1.115 2.679,-1.115c1.292,0 2.292,0.514 3.002,1.54l-0.846,0.583c-0.485,-0.754 -1.193,-1.131 -2.122,-1.131c-0.004,0 -0.008,0 -0.012,0c-0.787,0 -1.418,0.268 -1.892,0.806c-0.474,0.538 -0.711,1.254 -0.711,2.15c0,0.904 0.237,1.628 0.711,2.173c0.474,0.545 1.097,0.818 1.87,0.818c0.933,0 1.652,-0.392 2.156,-1.176l0.885,0.571c-0.695,1.056 -1.704,1.585 -3.03,1.585c-1.108,0 -2.006,-0.372 -2.693,-1.115Z" style="fill-rule:nonzero;"/><path d="M-8.164,125.917c0,-0.949 0.581,-1.667 1.742,-2.156c-0.321,-0.344 -0.549,-0.644 -0.683,-0.902c-0.135,-0.257 -0.202,-0.55 -0.202,-0.879c0,-0.582 0.195,-1.032 0.585,-1.35c0.39,-0.317 0.892,-0.476 1.504,-0.476c0.62,0 1.119,0.159 1.498,0.476c0.379,0.318 0.568,0.741 0.568,1.272c0,0.444 -0.145,0.834 -0.437,1.17c-0.291,0.336 -0.735,0.64 -1.332,0.913l1.859,1.881c0.336,-0.466 0.573,-0.959 0.711,-1.478l0.907,0.23c-0.213,0.709 -0.541,1.343 -0.985,1.903l1.394,1.412l-1.316,0l-0.756,-0.745c-0.702,0.59 -1.501,0.885 -2.397,0.885c-0.765,0 -1.4,-0.194 -1.904,-0.58c-0.504,-0.386 -0.756,-0.912 -0.756,-1.576Zm1.042,-0.118c0,0.422 0.16,0.759 0.481,1.011c0.322,0.252 0.742,0.378 1.26,0.378c0.62,0 1.171,-0.215 1.652,-0.644l-2.156,-2.201c-0.825,0.366 -1.237,0.851 -1.237,1.456Zm0.767,-3.83c0,0.235 0.067,0.456 0.202,0.663c0.134,0.208 0.354,0.464 0.66,0.77c0.46,-0.212 0.812,-0.424 1.056,-0.635c0.245,-0.211 0.367,-0.481 0.367,-0.809c0,-0.314 -0.111,-0.555 -0.333,-0.723c-0.222,-0.168 -0.494,-0.252 -0.815,-0.252c-0.321,0 -0.591,0.086 -0.809,0.258c-0.219,0.172 -0.328,0.414 -0.328,0.728Z" style="fill-rule:nonzero;"/><path d="M3.271,127.933l0,-7.639l1.07,0l0,6.653l4.245,0l0,0.986l-5.315,0Z" style="fill-rule:nonzero;"/><path d="M8.882,127.933l3.108,-7.639l1.176,0l3.125,7.639l-1.21,0l-0.812,-2.123l-3.438,0l-0.829,2.123l-1.12,0Zm2.313,-3.063l2.722,0l-1.344,-3.534l-1.378,3.534Z" style="fill-rule:nonzero;"/><path d="M17.977,126.958c-0.684,-0.743 -1.025,-1.691 -1.025,-2.844c0,-1.154 0.342,-2.102 1.027,-2.845c0.685,-0.743 1.579,-1.115 2.68,-1.115c1.292,0 2.292,0.514 3.001,1.54l-0.845,0.583c-0.486,-0.754 -1.193,-1.131 -2.123,-1.131c-0.003,0 -0.007,0 -0.011,0c-0.787,0 -1.418,0.268 -1.893,0.806c-0.474,0.538 -0.711,1.254 -0.711,2.15c0,0.904 0.237,1.628 0.711,2.173c0.475,0.545 1.098,0.818 1.871,0.818c0.933,0 1.652,-0.392 2.156,-1.176l0.885,0.571c-0.695,1.056 -1.705,1.585 -3.03,1.585c-1.109,0 -2.007,-0.372 -2.693,-1.115Z" style="fill-rule:nonzero;"/><path d="M25.116,127.933l0,-7.639l1.378,0l3.886,6.149l0,-6.149l1.036,0l0,7.639l-1.265,0l-3.999,-6.295l0,6.295l-1.036,0Z" style="fill-rule:nonzero;"/><rect x="33.471" y="120.294" width="1.07" height="7.638" style="fill-rule:nonzero;"/><path d="M37.145,126.958c-0.683,-0.743 -1.025,-1.691 -1.025,-2.844c0,-1.154 0.343,-2.102 1.028,-2.845c0.685,-0.743 1.578,-1.115 2.679,-1.115c1.292,0 2.292,0.514 3.002,1.54l-0.846,0.583c-0.485,-0.754 -1.193,-1.131 -2.122,-1.131c-0.004,0 -0.008,0 -0.011,0c-0.788,0 -1.419,0.268 -1.893,0.806c-0.474,0.538 -0.711,1.254 -0.711,2.15c0,0.904 0.237,1.628 0.711,2.173c0.474,0.545 1.097,0.818 1.87,0.818c0.933,0 1.652,-0.392 2.156,-1.176l0.885,0.571c-0.694,1.056 -1.704,1.585 -3.03,1.585c-1.108,0 -2.006,-0.372 -2.693,-1.115Z" style="fill-rule:nonzero;"/><path d="M47.639,127.188c-0.526,-0.59 -0.79,-1.336 -0.79,-2.237c0,-0.902 0.265,-1.648 0.793,-2.237c0.528,-0.59 1.227,-0.885 2.097,-0.885c1.008,0 1.799,0.414 2.374,1.243l-0.744,0.594c-0.381,-0.62 -0.913,-0.93 -1.596,-0.93c-0.568,0 -1.021,0.208 -1.358,0.624c-0.338,0.417 -0.507,0.947 -0.507,1.591c0,0.644 0.17,1.174 0.509,1.59c0.34,0.416 0.788,0.624 1.344,0.624c0.68,0 1.219,-0.298 1.619,-0.896l0.767,0.549c-0.582,0.833 -1.385,1.251 -2.408,1.255c-0.87,0 -1.57,-0.295 -2.1,-0.885Z" style="fill-rule:nonzero;"/><path d="M52.992,124.965c0,-0.919 0.266,-1.671 0.798,-2.257c0.532,-0.586 1.245,-0.879 2.137,-0.879c0.888,0 1.6,0.293 2.136,0.879c0.536,0.586 0.804,1.338 0.804,2.257c0,0.911 -0.268,1.656 -0.804,2.237c-0.536,0.58 -1.248,0.871 -2.136,0.871c-0.896,0 -1.609,-0.291 -2.139,-0.871c-0.53,-0.581 -0.796,-1.326 -0.796,-2.237Zm1.059,0c0,0.642 0.168,1.171 0.504,1.587c0.336,0.417 0.794,0.625 1.375,0.625c0.58,0 1.037,-0.208 1.369,-0.625c0.332,-0.416 0.498,-0.945 0.498,-1.587c0,-0.65 -0.166,-1.184 -0.498,-1.602c-0.332,-0.418 -0.789,-0.627 -1.369,-0.627c-0.581,0 -1.039,0.209 -1.375,0.627c-0.336,0.418 -0.504,0.952 -0.504,1.602Z" style="fill-rule:nonzero;"/><path d="M60.188,125.821l0,-3.852l1.003,0l0,3.623c0,1.03 0.438,1.547 1.316,1.551c0.519,0 0.951,-0.173 1.296,-0.518c0.345,-0.345 0.518,-0.792 0.518,-1.341l0,-3.315l0.997,0l0,5.964l-0.997,0l0,-0.975c-0.526,0.743 -1.208,1.115 -2.044,1.115c-0.642,0 -1.151,-0.2 -1.526,-0.6c-0.375,-0.399 -0.563,-0.95 -0.563,-1.652Z" style="fill-rule:nonzero;"/><path d="M67.104,127.933l0,-5.964l0.997,0l0,0.985c0.511,-0.75 1.191,-1.125 2.038,-1.125c0.642,0 1.151,0.199 1.526,0.596c0.375,0.398 0.563,0.953 0.563,1.666l0,3.842l-0.997,0l0,-3.612c0,-1.031 -0.444,-1.548 -1.333,-1.551c-0.518,0 -0.948,0.172 -1.287,0.518c-0.34,0.345 -0.51,0.792 -0.51,1.341l0,3.304l-0.997,0Z" style="fill-rule:nonzero;"/><path d="M73.27,122.792l0,-0.823l1.03,0l0,-1.675l0.997,0l0,1.675l1.926,0l0,0.823l-1.926,0l0,3.337c0,0.687 0.306,1.033 0.918,1.036c0.299,0 0.555,-0.084 0.767,-0.252l0.426,0.756c-0.344,0.269 -0.775,0.404 -1.294,0.404c-0.728,0 -1.248,-0.254 -1.562,-0.762c-0.168,-0.261 -0.252,-0.655 -0.252,-1.182l0,-3.337l-1.03,0Z" style="fill-rule:nonzero;"/><path d="M78.461,127.933l0,-5.964l0.996,0l0,1.008c0.463,-0.747 1.036,-1.12 1.72,-1.12c0.003,0 0.007,0 0.011,0c0.321,0 0.593,0.071 0.817,0.213l-0.324,0.952c-0.221,-0.12 -0.443,-0.18 -0.667,-0.18c-0.007,0 -0.015,0 -0.022,0c-0.422,0 -0.783,0.178 -1.084,0.532c-0.3,0.355 -0.451,0.838 -0.451,1.451l0,3.108l-0.996,0Z" style="fill-rule:nonzero;"/><path d="M82.963,127.933l0,-5.964l0.997,0l0,5.964l-0.997,0Zm0,-7.135l0,-1.052l0.997,0l0,1.052l-0.997,0Z" style="fill-rule:nonzero;"/><path d="M85.354,124.976c0,-0.904 0.266,-1.654 0.798,-2.251c0.532,-0.598 1.24,-0.896 2.125,-0.896c0.855,0 1.543,0.284 2.064,0.851c0.521,0.567 0.781,1.275 0.781,2.122c0,0.153 -0.007,0.284 -0.022,0.392l-4.676,0c0.03,0.613 0.224,1.092 0.582,1.439c0.358,0.348 0.833,0.521 1.422,0.521c0.695,0 1.283,-0.261 1.764,-0.784l0.667,0.655c-0.65,0.695 -1.467,1.044 -2.453,1.048c-0.948,0 -1.694,-0.289 -2.237,-0.866c-0.543,-0.576 -0.815,-1.32 -0.815,-2.231Zm1.092,-0.554l3.646,0c-0.053,-0.549 -0.248,-0.975 -0.586,-1.277c-0.337,-0.303 -0.751,-0.454 -1.24,-0.454c-0.511,0 -0.933,0.161 -1.266,0.482c-0.332,0.321 -0.517,0.737 -0.554,1.249Z" style="fill-rule:nonzero;"/><path d="M91.94,126.796l0.733,-0.549c0.467,0.642 1.12,0.963 1.96,0.963c0.422,0 0.759,-0.082 1.011,-0.246c0.252,-0.164 0.378,-0.403 0.378,-0.717c0,-0.284 -0.115,-0.479 -0.345,-0.585c-0.229,-0.106 -0.661,-0.221 -1.296,-0.344c-0.687,-0.131 -1.214,-0.319 -1.582,-0.563c-0.368,-0.245 -0.551,-0.634 -0.551,-1.168c0,-0.575 0.215,-1.012 0.646,-1.31c0.432,-0.299 0.961,-0.448 1.588,-0.448c0.978,0 1.784,0.334 2.419,1.002l-0.661,0.627c-0.444,-0.511 -1.034,-0.767 -1.769,-0.767c-0.351,0 -0.649,0.067 -0.893,0.202c-0.245,0.134 -0.367,0.334 -0.367,0.599c0,0.116 0.029,0.219 0.087,0.311c0.057,0.091 0.122,0.166 0.193,0.224c0.071,0.058 0.183,0.112 0.336,0.162c0.153,0.051 0.285,0.087 0.397,0.109l0.465,0.09c0.291,0.052 0.528,0.102 0.711,0.148c0.183,0.047 0.389,0.116 0.619,0.208c0.23,0.091 0.408,0.195 0.535,0.31c0.127,0.116 0.236,0.269 0.327,0.46c0.092,0.19 0.138,0.408 0.138,0.655c0,0.575 -0.219,1.036 -0.656,1.383c-0.436,0.347 -1.032,0.521 -1.786,0.521c-1.198,-0.004 -2.077,-0.43 -2.637,-1.277Z" style="fill-rule:nonzero;"/><path d="M101.101,124.965c0,-0.919 0.266,-1.671 0.798,-2.257c0.532,-0.586 1.244,-0.879 2.136,-0.879c0.889,0 1.601,0.293 2.137,0.879c0.535,0.586 0.803,1.338 0.803,2.257c0,0.911 -0.268,1.656 -0.803,2.237c-0.536,0.58 -1.248,0.871 -2.137,0.871c-0.896,0 -1.609,-0.291 -2.139,-0.871c-0.53,-0.581 -0.795,-1.326 -0.795,-2.237Zm1.058,0c0,0.642 0.168,1.171 0.504,1.587c0.336,0.417 0.795,0.625 1.375,0.625c0.581,0 1.037,-0.208 1.369,-0.625c0.332,-0.416 0.499,-0.945 0.499,-1.587c0,-0.65 -0.167,-1.184 -0.499,-1.602c-0.332,-0.418 -0.788,-0.627 -1.369,-0.627c-0.58,0 -1.039,0.209 -1.375,0.627c-0.336,0.418 -0.504,0.952 -0.504,1.602Z" style="fill-rule:nonzero;"/><path d="M108.37,127.933l0,-5.964l0.996,0l0,0.985c0.512,-0.75 1.191,-1.125 2.039,-1.125c0.642,0 1.15,0.199 1.526,0.596c0.375,0.398 0.562,0.953 0.562,1.666l0,3.842l-0.996,0l0,-3.612c0,-1.031 -0.445,-1.548 -1.333,-1.551c-0.519,0 -0.948,0.172 -1.288,0.518c-0.34,0.345 -0.51,0.792 -0.51,1.341l0,3.304l-0.996,0Z" style="fill-rule:nonzero;"/><path d="M115.224,126.477l0,-6.731l0.997,0l0,6.742c0,0.254 0.045,0.432 0.137,0.535c0.091,0.102 0.232,0.154 0.423,0.154c0.22,0 0.388,-0.043 0.504,-0.129l0.218,0.806c-0.194,0.127 -0.467,0.191 -0.818,0.191c-0.011,0 -0.02,0 -0.028,0c-0.56,0 -0.957,-0.168 -1.192,-0.504c-0.161,-0.228 -0.241,-0.583 -0.241,-1.064Z" style="fill-rule:nonzero;"/><path d="M118.27,129.333l0.493,-0.79c0.504,0.396 1.112,0.594 1.825,0.594c0.56,0 1.018,-0.139 1.372,-0.418c0.355,-0.278 0.532,-0.712 0.532,-1.302l0,-0.884c-0.526,0.743 -1.207,1.114 -2.044,1.114c-0.642,0 -1.149,-0.201 -1.523,-0.602c-0.373,-0.401 -0.56,-0.955 -0.56,-1.66l0,-3.416l0.997,0l0,3.186c0,1.03 0.439,1.548 1.316,1.551c0.519,0 0.951,-0.171 1.296,-0.515c0.346,-0.343 0.518,-0.791 0.518,-1.344l0,-2.878l0.997,0l0,5.252c0,0.855 -0.203,1.505 -0.61,1.949c-0.519,0.583 -1.29,0.874 -2.313,0.874c-0.888,0 -1.654,-0.237 -2.296,-0.711Z" style="fill-rule:nonzero;"/></g><path d="M53.111,92.559l0,-4.329l0.606,0l0,3.771l2.406,0l0,0.558l-3.012,0Z" style="fill-rule:nonzero;"/><rect x="56.802" y="88.23" width="0.606" height="4.329" style="fill-rule:nonzero;"/><path d="M58.576,92.559l0,-4.329l1.898,0c0.442,0 0.795,0.115 1.057,0.345c0.263,0.229 0.394,0.537 0.394,0.922c0,0.29 -0.082,0.54 -0.245,0.75c-0.163,0.211 -0.378,0.364 -0.647,0.459l1.009,1.853l-0.689,0l-0.923,-1.742l-1.241,0l0,1.742l-0.613,0Zm0.613,-2.275l1.285,0c0.248,0 0.446,-0.068 0.595,-0.205c0.15,-0.136 0.224,-0.315 0.224,-0.535c0,-0.23 -0.077,-0.414 -0.23,-0.55c-0.153,-0.137 -0.356,-0.205 -0.608,-0.205l-1.266,0l0,1.495Z" style="fill-rule:nonzero;"/><path d="M64.93,92.007c-0.387,-0.421 -0.58,-0.958 -0.58,-1.612c0,-0.654 0.194,-1.191 0.582,-1.612c0.388,-0.422 0.894,-0.632 1.519,-0.632c0.732,0 1.299,0.291 1.701,0.873l-0.48,0.33c-0.275,-0.428 -0.676,-0.641 -1.202,-0.641c-0.002,0 -0.005,0 -0.007,0c-0.446,0 -0.804,0.152 -1.072,0.457c-0.269,0.304 -0.404,0.711 -0.404,1.218c0,0.513 0.135,0.923 0.404,1.232c0.268,0.309 0.622,0.463 1.06,0.463c0.529,0 0.936,-0.222 1.221,-0.666l0.502,0.324c-0.394,0.598 -0.966,0.898 -1.717,0.898c-0.628,0 -1.137,-0.211 -1.527,-0.632Z" style="fill-rule:nonzero;"/><path d="M68.901,92.559l0,-4.64l0.565,0l0,1.819c0.29,-0.425 0.675,-0.638 1.155,-0.638c0.364,0 0.652,0.113 0.865,0.338c0.212,0.225 0.319,0.54 0.319,0.944l0,2.177l-0.565,0l0,-2.047c0,-0.584 -0.252,-0.877 -0.755,-0.879c-0.295,0 -0.538,0.098 -0.73,0.294c-0.193,0.195 -0.289,0.449 -0.289,0.76l0,1.872l-0.565,0Z" style="fill-rule:nonzero;"/><path d="M72.779,92.559l0,-3.38l0.565,0l0,3.38l-0.565,0Zm0,-4.043l0,-0.597l0.565,0l0,0.597l-0.565,0Z" style="fill-rule:nonzero;"/><path d="M74.363,91.734l0,-3.815l0.565,0l0,3.822c0,0.143 0.026,0.244 0.078,0.303c0.051,0.058 0.131,0.087 0.239,0.087c0.125,0 0.22,-0.024 0.286,-0.073l0.124,0.457c-0.11,0.072 -0.265,0.108 -0.464,0.108c-0.006,0 -0.011,0 -0.016,0c-0.317,0 -0.542,-0.095 -0.676,-0.286c-0.091,-0.129 -0.136,-0.33 -0.136,-0.603Z" style="fill-rule:nonzero;"/><path d="M75.959,90.877c0,-0.516 0.141,-0.941 0.422,-1.276c0.282,-0.334 0.66,-0.501 1.134,-0.501c0.503,0 0.904,0.213 1.202,0.638l0,-1.819l0.565,0l0,4.64l-0.565,0l0,-0.552c-0.294,0.421 -0.695,0.632 -1.202,0.632c-0.472,0 -0.849,-0.167 -1.132,-0.5c-0.282,-0.333 -0.424,-0.754 -0.424,-1.262Zm0.87,-0.901c-0.18,0.231 -0.27,0.528 -0.27,0.893c0,0.365 0.091,0.665 0.273,0.899c0.182,0.233 0.443,0.35 0.784,0.35c0.347,0 0.617,-0.118 0.811,-0.354c0.194,-0.236 0.29,-0.533 0.29,-0.893c0,-0.36 -0.096,-0.657 -0.29,-0.892c-0.194,-0.235 -0.464,-0.352 -0.811,-0.352c-0.343,0 -0.605,0.116 -0.787,0.349Z" style="fill-rule:nonzero;"/><path d="M82.431,92.007c-0.387,-0.421 -0.581,-0.958 -0.581,-1.612c0,-0.654 0.194,-1.191 0.582,-1.612c0.389,-0.422 0.895,-0.632 1.519,-0.632c0.732,0 1.299,0.291 1.701,0.873l-0.479,0.33c-0.275,-0.428 -0.676,-0.641 -1.203,-0.641c-0.002,0 -0.004,0 -0.006,0c-0.447,0 -0.804,0.152 -1.073,0.457c-0.269,0.304 -0.403,0.711 -0.403,1.218c0,0.513 0.134,0.923 0.403,1.232c0.269,0.309 0.622,0.463 1.06,0.463c0.529,0 0.936,-0.222 1.222,-0.666l0.501,0.324c-0.393,0.598 -0.965,0.898 -1.717,0.898c-0.628,0 -1.137,-0.211 -1.526,-0.632Z" style="fill-rule:nonzero;"/><path d="M85.966,92.559l1.762,-4.329l0.666,0l1.771,4.329l-0.685,0l-0.46,-1.203l-1.949,0l-0.47,1.203l-0.635,0Zm1.311,-1.736l1.543,0l-0.762,-2.002l-0.781,2.002Z" style="fill-rule:nonzero;"/><path d="M21.408,119.091c-0.741,-0.772 -1.111,-1.697 -1.111,-2.776c0,-1.078 0.37,-2.003 1.111,-2.775l0.365,0.298c-0.642,0.675 -0.962,1.5 -0.962,2.476c0,0.971 0.32,1.799 0.962,2.485l-0.365,0.292Z" style="fill-rule:nonzero;"/><path d="M22.782,117.729c-0.385,-0.423 -0.578,-0.959 -0.578,-1.609c0,-0.649 0.193,-1.186 0.579,-1.609c0.387,-0.423 0.898,-0.635 1.535,-0.635c0.637,0 1.149,0.212 1.538,0.635c0.388,0.423 0.582,0.96 0.582,1.609c0,0.65 -0.194,1.186 -0.582,1.609c-0.389,0.424 -0.901,0.635 -1.538,0.635c-0.637,0 -1.149,-0.211 -1.536,-0.635Zm0.457,-2.818c-0.265,0.307 -0.397,0.71 -0.397,1.209c0,0.5 0.132,0.904 0.397,1.213c0.264,0.309 0.624,0.463 1.079,0.463c0.451,0 0.809,-0.154 1.076,-0.463c0.267,-0.309 0.4,-0.713 0.4,-1.213c0,-0.499 -0.133,-0.902 -0.4,-1.209c-0.267,-0.307 -0.625,-0.46 -1.076,-0.46c-0.455,0 -0.815,0.153 -1.079,0.46Z" style="fill-rule:nonzero;"/><path d="M27.247,119.415l0,-4.51l0.565,0l0,0.558c0.294,-0.425 0.695,-0.638 1.203,-0.638c0.472,0 0.849,0.168 1.13,0.502c0.282,0.334 0.422,0.757 0.422,1.268c0,0.511 -0.141,0.933 -0.425,1.268c-0.284,0.334 -0.659,0.501 -1.127,0.501c-0.508,0 -0.909,-0.21 -1.203,-0.631l0,1.682l-0.565,0Zm0.851,-3.707c-0.19,0.237 -0.286,0.535 -0.286,0.895c0,0.359 0.097,0.656 0.289,0.89c0.193,0.234 0.46,0.351 0.803,0.351c0.343,0 0.605,-0.116 0.787,-0.348c0.182,-0.232 0.273,-0.529 0.273,-0.893c0,-0.364 -0.091,-0.664 -0.273,-0.898c-0.182,-0.235 -0.444,-0.353 -0.787,-0.353c-0.347,0 -0.616,0.119 -0.806,0.356Z" style="fill-rule:nonzero;"/><path d="M30.977,115.371l0,-0.466l0.584,0l0,-0.949l0.565,0l0,0.949l1.091,0l0,0.466l-1.091,0l0,1.892c0,0.389 0.173,0.585 0.52,0.587c0.169,0 0.314,-0.048 0.435,-0.143l0.241,0.429c-0.195,0.152 -0.439,0.228 -0.733,0.228c-0.413,0 -0.708,-0.144 -0.885,-0.431c-0.096,-0.149 -0.143,-0.372 -0.143,-0.67l0,-1.892l-0.584,0Z" style="fill-rule:nonzero;"/><path d="M33.919,118.285l0,-3.38l0.565,0l0,3.38l-0.565,0Zm0,-4.044l0,-0.596l0.565,0l0,0.596l-0.565,0Z" style="fill-rule:nonzero;"/><path d="M35.274,116.603c0,-0.521 0.151,-0.947 0.452,-1.279c0.302,-0.333 0.705,-0.499 1.211,-0.499c0.504,0 0.907,0.166 1.211,0.499c0.304,0.332 0.455,0.758 0.455,1.279c0,0.516 -0.151,0.939 -0.455,1.268c-0.304,0.329 -0.707,0.493 -1.211,0.493c-0.508,0 -0.912,-0.164 -1.212,-0.493c-0.301,-0.329 -0.451,-0.752 -0.451,-1.268Zm0.6,0c0,0.364 0.095,0.664 0.286,0.899c0.19,0.236 0.45,0.354 0.779,0.354c0.329,0 0.587,-0.118 0.776,-0.354c0.188,-0.235 0.282,-0.535 0.282,-0.899c0,-0.368 -0.094,-0.671 -0.282,-0.908c-0.189,-0.237 -0.447,-0.355 -0.776,-0.355c-0.329,0 -0.589,0.118 -0.779,0.355c-0.191,0.237 -0.286,0.54 -0.286,0.908Z" style="fill-rule:nonzero;"/><path d="M39.394,118.285l0,-3.38l0.565,0l0,0.558c0.29,-0.425 0.675,-0.638 1.155,-0.638c0.364,0 0.652,0.113 0.865,0.338c0.212,0.226 0.319,0.54 0.319,0.945l0,2.177l-0.565,0l0,-2.047c0,-0.584 -0.252,-0.877 -0.756,-0.879c-0.294,0 -0.537,0.097 -0.73,0.293c-0.192,0.196 -0.288,0.449 -0.288,0.76l0,1.873l-0.565,0Z" style="fill-rule:nonzero;"/><path d="M43.056,116.603c0,-0.517 0.141,-0.942 0.422,-1.276c0.282,-0.334 0.66,-0.502 1.133,-0.502c0.504,0 0.905,0.213 1.203,0.638l0,-0.558l0.565,0l0,2.624c0,0.13 0.02,0.223 0.059,0.28c0.039,0.057 0.106,0.085 0.202,0.085c0.082,0 0.151,-0.016 0.206,-0.05l0.073,0.428c-0.112,0.042 -0.242,0.064 -0.391,0.064c-0.173,0 -0.323,-0.047 -0.449,-0.14c-0.126,-0.093 -0.205,-0.237 -0.239,-0.432c-0.273,0.398 -0.676,0.598 -1.209,0.6c-0.485,0 -0.869,-0.165 -1.151,-0.497c-0.282,-0.331 -0.424,-0.752 -0.424,-1.264Zm0.876,-0.902c-0.184,0.231 -0.276,0.529 -0.276,0.894c0,0.365 0.091,0.664 0.273,0.898c0.182,0.234 0.443,0.351 0.784,0.351c0.347,0 0.617,-0.118 0.811,-0.354c0.194,-0.236 0.29,-0.534 0.29,-0.894c0,-0.359 -0.096,-0.657 -0.29,-0.891c-0.194,-0.235 -0.461,-0.353 -0.803,-0.353c-0.342,0 -0.605,0.117 -0.789,0.349Z" style="fill-rule:nonzero;"/><path d="M47.528,117.46l0,-3.815l0.565,0l0,3.821c0,0.144 0.026,0.245 0.078,0.303c0.052,0.058 0.132,0.087 0.24,0.087c0.124,0 0.22,-0.024 0.285,-0.073l0.124,0.457c-0.11,0.072 -0.265,0.108 -0.463,0.108c-0.007,0 -0.012,0 -0.016,0c-0.318,0 -0.543,-0.095 -0.676,-0.285c-0.091,-0.129 -0.137,-0.33 -0.137,-0.603Z" style="fill-rule:nonzero;"/><path d="M48.956,118.799c0.646,-0.681 0.968,-1.509 0.968,-2.484c0,-0.974 -0.322,-1.8 -0.968,-2.477l0.372,-0.298c0.74,0.785 1.111,1.71 1.111,2.774c0,1.079 -0.371,2.005 -1.111,2.777l-0.372,-0.292Z" style="fill-rule:nonzero;"/><rect x="53.044" y="113.956" width="0.606" height="4.329" style="fill-rule:nonzero;"/><path d="M54.463,117.472l0.498,-0.317c0.286,0.451 0.722,0.676 1.308,0.676c0.294,0 0.531,-0.066 0.711,-0.198c0.18,-0.133 0.27,-0.314 0.27,-0.545c0,-0.082 -0.011,-0.156 -0.032,-0.22c-0.021,-0.065 -0.064,-0.122 -0.127,-0.172c-0.064,-0.049 -0.118,-0.09 -0.163,-0.12c-0.046,-0.031 -0.128,-0.064 -0.246,-0.099c-0.119,-0.035 -0.208,-0.059 -0.267,-0.074c-0.059,-0.015 -0.168,-0.039 -0.327,-0.073c-0.212,-0.043 -0.391,-0.09 -0.54,-0.143c-0.148,-0.053 -0.295,-0.125 -0.442,-0.216c-0.147,-0.091 -0.259,-0.209 -0.335,-0.354c-0.076,-0.145 -0.114,-0.315 -0.114,-0.509c0,-0.381 0.14,-0.681 0.422,-0.902c0.281,-0.22 0.645,-0.33 1.092,-0.33c0.334,0 0.642,0.067 0.923,0.199c0.282,0.132 0.515,0.322 0.702,0.569l-0.467,0.334c-0.277,-0.373 -0.674,-0.56 -1.19,-0.562c-0.252,0 -0.46,0.051 -0.624,0.154c-0.164,0.102 -0.246,0.262 -0.246,0.478c0,0.091 0.019,0.171 0.057,0.241c0.038,0.07 0.082,0.125 0.13,0.166c0.049,0.042 0.125,0.082 0.229,0.123c0.104,0.04 0.19,0.069 0.26,0.088l0.324,0.077c0.199,0.048 0.362,0.091 0.49,0.128c0.128,0.037 0.271,0.091 0.427,0.162c0.157,0.071 0.279,0.148 0.367,0.23c0.088,0.083 0.162,0.19 0.224,0.322c0.061,0.132 0.092,0.283 0.092,0.453c0,0.397 -0.15,0.718 -0.45,0.961c-0.299,0.244 -0.697,0.365 -1.194,0.365c-0.398,0 -0.75,-0.079 -1.056,-0.238c-0.306,-0.159 -0.541,-0.376 -0.706,-0.654Z" style="fill-rule:nonzero;"/><path d="M58.751,118.285l0,-4.329l1.822,0c0.48,0 0.854,0.121 1.123,0.363c0.269,0.242 0.403,0.57 0.403,0.982c0,0.413 -0.133,0.739 -0.4,0.98c-0.266,0.24 -0.642,0.36 -1.126,0.36l-1.21,0l0,1.644l-0.612,0Zm0.612,-2.203l1.21,0c0.294,0 0.516,-0.069 0.668,-0.208c0.151,-0.138 0.227,-0.329 0.227,-0.573c0,-0.247 -0.076,-0.44 -0.227,-0.579c-0.152,-0.138 -0.374,-0.208 -0.668,-0.208l-1.21,0l0,1.568Z" style="fill-rule:nonzero;"/><path d="M64.93,117.733c-0.387,-0.421 -0.58,-0.959 -0.58,-1.613c0,-0.654 0.194,-1.191 0.582,-1.612c0.388,-0.421 0.894,-0.632 1.519,-0.632c0.732,0 1.299,0.291 1.701,0.873l-0.48,0.33c-0.275,-0.427 -0.676,-0.641 -1.202,-0.641c-0.002,0 -0.005,0 -0.007,0c-0.446,0 -0.804,0.153 -1.072,0.457c-0.269,0.305 -0.404,0.711 -0.404,1.219c0,0.512 0.135,0.922 0.404,1.231c0.268,0.309 0.622,0.464 1.06,0.464c0.529,0 0.936,-0.222 1.221,-0.667l0.502,0.324c-0.394,0.599 -0.966,0.898 -1.717,0.898c-0.628,0 -1.137,-0.21 -1.527,-0.631Z" style="fill-rule:nonzero;"/><path d="M68.901,118.285l0,-4.64l0.565,0l0,1.818c0.29,-0.425 0.675,-0.638 1.155,-0.638c0.364,0 0.652,0.113 0.865,0.338c0.212,0.226 0.319,0.54 0.319,0.945l0,2.177l-0.565,0l0,-2.047c0,-0.584 -0.252,-0.877 -0.755,-0.879c-0.295,0 -0.538,0.097 -0.73,0.293c-0.193,0.196 -0.289,0.449 -0.289,0.76l0,1.873l-0.565,0Z" style="fill-rule:nonzero;"/><path d="M72.779,118.285l0,-3.38l0.565,0l0,3.38l-0.565,0Zm0,-4.044l0,-0.596l0.565,0l0,0.596l-0.565,0Z" style="fill-rule:nonzero;"/><path d="M74.363,117.46l0,-3.815l0.565,0l0,3.821c0,0.144 0.026,0.245 0.078,0.303c0.051,0.058 0.131,0.087 0.239,0.087c0.125,0 0.22,-0.024 0.286,-0.073l0.124,0.457c-0.11,0.072 -0.265,0.108 -0.464,0.108c-0.006,0 -0.011,0 -0.016,0c-0.317,0 -0.542,-0.095 -0.676,-0.285c-0.091,-0.129 -0.136,-0.33 -0.136,-0.603Z" style="fill-rule:nonzero;"/><path d="M75.959,116.603c0,-0.517 0.141,-0.942 0.422,-1.276c0.282,-0.334 0.66,-0.502 1.134,-0.502c0.503,0 0.904,0.213 1.202,0.638l0,-1.818l0.565,0l0,4.64l-0.565,0l0,-0.552c-0.294,0.421 -0.695,0.631 -1.202,0.631c-0.472,0 -0.849,-0.166 -1.132,-0.5c-0.282,-0.333 -0.424,-0.753 -0.424,-1.261Zm0.87,-0.902c-0.18,0.231 -0.27,0.529 -0.27,0.894c0,0.365 0.091,0.664 0.273,0.898c0.182,0.234 0.443,0.351 0.784,0.351c0.347,0 0.617,-0.118 0.811,-0.354c0.194,-0.236 0.29,-0.534 0.29,-0.894c0,-0.359 -0.096,-0.657 -0.29,-0.891c-0.194,-0.235 -0.464,-0.353 -0.811,-0.353c-0.343,0 -0.605,0.117 -0.787,0.349Z" style="fill-rule:nonzero;"/><path d="M82.431,117.733c-0.387,-0.421 -0.581,-0.959 -0.581,-1.613c0,-0.654 0.194,-1.191 0.582,-1.612c0.389,-0.421 0.895,-0.632 1.519,-0.632c0.732,0 1.299,0.291 1.701,0.873l-0.479,0.33c-0.275,-0.427 -0.676,-0.641 -1.203,-0.641c-0.002,0 -0.004,0 -0.006,0c-0.447,0 -0.804,0.153 -1.073,0.457c-0.269,0.305 -0.403,0.711 -0.403,1.219c0,0.512 0.134,0.922 0.403,1.231c0.269,0.309 0.622,0.464 1.06,0.464c0.529,0 0.936,-0.222 1.222,-0.667l0.501,0.324c-0.393,0.599 -0.965,0.898 -1.717,0.898c-0.628,0 -1.137,-0.21 -1.526,-0.631Z" style="fill-rule:nonzero;"/><path d="M85.966,118.285l1.762,-4.329l0.666,0l1.771,4.329l-0.685,0l-0.46,-1.203l-1.949,0l-0.47,1.203l-0.635,0Zm1.311,-1.736l1.543,0l-0.762,-2.003l-0.781,2.003Z" style="fill-rule:nonzero;"/><rect x="51.918" y="136.878" width="0.606" height="4.329" style="fill-rule:nonzero;"/><path d="M53.317,140.563l0.416,-0.311c0.265,0.364 0.635,0.546 1.111,0.546c0.239,0 0.43,-0.047 0.573,-0.14c0.143,-0.093 0.214,-0.228 0.214,-0.406c0,-0.161 -0.065,-0.272 -0.195,-0.332c-0.13,-0.06 -0.375,-0.125 -0.735,-0.195c-0.389,-0.074 -0.688,-0.18 -0.897,-0.319c-0.208,-0.139 -0.312,-0.359 -0.312,-0.662c0,-0.326 0.122,-0.573 0.366,-0.742c0.245,-0.17 0.545,-0.254 0.9,-0.254c0.555,0 1.012,0.189 1.371,0.568l-0.374,0.355c-0.252,-0.29 -0.586,-0.435 -1.003,-0.435c-0.199,0 -0.368,0.039 -0.506,0.115c-0.139,0.076 -0.208,0.189 -0.208,0.339c0,0.066 0.016,0.125 0.049,0.176c0.033,0.052 0.069,0.095 0.109,0.127c0.041,0.033 0.104,0.064 0.191,0.092c0.087,0.029 0.162,0.05 0.225,0.062l0.264,0.051c0.165,0.03 0.299,0.058 0.403,0.084c0.103,0.027 0.22,0.066 0.35,0.118c0.131,0.051 0.232,0.11 0.304,0.176c0.071,0.065 0.133,0.152 0.185,0.26c0.052,0.108 0.078,0.232 0.078,0.371c0,0.326 -0.124,0.588 -0.371,0.784c-0.248,0.197 -0.585,0.295 -1.013,0.295c-0.679,-0.002 -1.177,-0.243 -1.495,-0.723Z" style="fill-rule:nonzero;"/><path d="M56.682,140.563l0.415,-0.311c0.265,0.364 0.635,0.546 1.111,0.546c0.239,0 0.43,-0.047 0.573,-0.14c0.143,-0.093 0.214,-0.228 0.214,-0.406c0,-0.161 -0.065,-0.272 -0.195,-0.332c-0.13,-0.06 -0.375,-0.125 -0.735,-0.195c-0.389,-0.074 -0.688,-0.18 -0.896,-0.319c-0.209,-0.139 -0.313,-0.359 -0.313,-0.662c0,-0.326 0.122,-0.573 0.367,-0.742c0.244,-0.17 0.544,-0.254 0.899,-0.254c0.555,0 1.012,0.189 1.372,0.568l-0.375,0.355c-0.252,-0.29 -0.586,-0.435 -1.003,-0.435c-0.199,0 -0.368,0.039 -0.506,0.115c-0.139,0.076 -0.208,0.189 -0.208,0.339c0,0.066 0.016,0.125 0.049,0.176c0.033,0.052 0.069,0.095 0.11,0.127c0.04,0.033 0.103,0.064 0.19,0.092c0.087,0.029 0.162,0.05 0.225,0.062l0.264,0.051c0.165,0.03 0.299,0.058 0.403,0.084c0.104,0.027 0.221,0.066 0.351,0.118c0.13,0.051 0.231,0.11 0.303,0.176c0.072,0.065 0.134,0.152 0.185,0.26c0.052,0.108 0.078,0.232 0.078,0.371c0,0.326 -0.124,0.588 -0.371,0.784c-0.248,0.197 -0.585,0.295 -1.013,0.295c-0.679,-0.002 -1.177,-0.243 -1.494,-0.723Z" style="fill-rule:nonzero;"/><path d="M60.303,140.011l0,-2.184l0.568,0l0,2.053c0,0.584 0.249,0.878 0.746,0.88c0.294,0 0.539,-0.098 0.735,-0.294c0.195,-0.196 0.293,-0.449 0.293,-0.76l0,-1.879l0.565,0l0,3.38l-0.565,0l0,-0.552c-0.298,0.421 -0.684,0.631 -1.158,0.631c-0.364,0 -0.653,-0.113 -0.865,-0.339c-0.213,-0.227 -0.319,-0.539 -0.319,-0.936Z" style="fill-rule:nonzero;"/><path d="M64,139.531c0,-0.512 0.151,-0.937 0.453,-1.276c0.301,-0.338 0.703,-0.507 1.204,-0.507c0.485,0 0.875,0.16 1.17,0.482c0.295,0.322 0.442,0.723 0.442,1.203c0,0.087 -0.004,0.161 -0.012,0.222l-2.65,0c0.017,0.347 0.127,0.619 0.33,0.816c0.203,0.197 0.472,0.295 0.806,0.295c0.393,0 0.727,-0.148 1,-0.444l0.377,0.371c-0.368,0.394 -0.831,0.591 -1.39,0.593c-0.537,0 -0.96,-0.163 -1.268,-0.49c-0.308,-0.327 -0.462,-0.748 -0.462,-1.265Zm0.619,-0.314l2.066,0c-0.029,-0.311 -0.14,-0.552 -0.331,-0.723c-0.192,-0.172 -0.426,-0.258 -0.703,-0.258c-0.29,0 -0.529,0.091 -0.718,0.273c-0.188,0.182 -0.293,0.418 -0.314,0.708Z" style="fill-rule:nonzero;"/><path d="M67.815,139.525c0,-0.516 0.141,-0.942 0.422,-1.276c0.282,-0.334 0.66,-0.501 1.133,-0.501c0.504,0 0.905,0.212 1.203,0.638l0,-1.819l0.565,0l0,4.64l-0.565,0l0,-0.552c-0.294,0.421 -0.695,0.631 -1.203,0.631c-0.471,0 -0.849,-0.166 -1.131,-0.499c-0.282,-0.334 -0.424,-0.754 -0.424,-1.262Zm0.87,-0.901c-0.18,0.23 -0.27,0.528 -0.27,0.893c0,0.365 0.091,0.664 0.273,0.898c0.182,0.234 0.443,0.351 0.784,0.351c0.347,0 0.617,-0.118 0.811,-0.354c0.194,-0.236 0.29,-0.534 0.29,-0.893c0,-0.36 -0.096,-0.657 -0.29,-0.892c-0.194,-0.235 -0.464,-0.352 -0.811,-0.352c-0.343,0 -0.605,0.116 -0.787,0.349Z" style="fill-rule:nonzero;"/><path d="M73.979,141.207l0,-4.329l1.898,0c0.442,0 0.794,0.115 1.057,0.344c0.262,0.23 0.393,0.537 0.393,0.922c0,0.29 -0.081,0.54 -0.244,0.751c-0.163,0.211 -0.379,0.363 -0.648,0.459l1.01,1.853l-0.689,0l-0.924,-1.742l-1.241,0l0,1.742l-0.612,0Zm0.612,-2.275l1.286,0c0.247,0 0.446,-0.069 0.595,-0.205c0.149,-0.137 0.224,-0.315 0.224,-0.535c0,-0.231 -0.077,-0.414 -0.23,-0.551c-0.154,-0.136 -0.356,-0.204 -0.608,-0.204l-1.267,0l0,1.495Z" style="fill-rule:nonzero;"/><path d="M78.571,140.652c-0.385,-0.423 -0.577,-0.96 -0.577,-1.609c0,-0.65 0.193,-1.186 0.579,-1.61c0.386,-0.423 0.898,-0.634 1.535,-0.634c0.636,0 1.149,0.211 1.537,0.634c0.389,0.424 0.583,0.96 0.583,1.61c0,0.649 -0.194,1.186 -0.583,1.609c-0.388,0.423 -0.901,0.634 -1.537,0.634c-0.637,0 -1.149,-0.211 -1.537,-0.634Zm0.457,-2.819c-0.264,0.307 -0.396,0.71 -0.396,1.21c0,0.499 0.132,0.903 0.396,1.212c0.265,0.309 0.625,0.463 1.08,0.463c0.45,0 0.809,-0.154 1.075,-0.463c0.267,-0.309 0.4,-0.713 0.4,-1.212c0,-0.5 -0.133,-0.903 -0.4,-1.21c-0.266,-0.306 -0.625,-0.46 -1.075,-0.46c-0.455,0 -0.815,0.154 -1.08,0.46Z" style="fill-rule:nonzero;"/><path d="M82.602,141.207l1.762,-4.329l0.666,0l1.771,4.329l-0.685,0l-0.461,-1.203l-1.948,0l-0.47,1.203l-0.635,0Zm1.311,-1.736l1.542,0l-0.761,-2.003l-0.781,2.003Z" style="fill-rule:nonzero;"/><path d="M87.074,140.563l0.416,-0.311c0.264,0.364 0.635,0.546 1.111,0.546c0.239,0 0.43,-0.047 0.573,-0.14c0.142,-0.093 0.214,-0.228 0.214,-0.406c0,-0.161 -0.065,-0.272 -0.195,-0.332c-0.13,-0.06 -0.375,-0.125 -0.735,-0.195c-0.389,-0.074 -0.688,-0.18 -0.897,-0.319c-0.208,-0.139 -0.312,-0.359 -0.312,-0.662c0,-0.326 0.122,-0.573 0.366,-0.742c0.245,-0.17 0.545,-0.254 0.9,-0.254c0.554,0 1.011,0.189 1.371,0.568l-0.374,0.355c-0.252,-0.29 -0.586,-0.435 -1.003,-0.435c-0.199,0 -0.368,0.039 -0.507,0.115c-0.138,0.076 -0.207,0.189 -0.207,0.339c0,0.066 0.016,0.125 0.049,0.176c0.033,0.052 0.069,0.095 0.109,0.127c0.04,0.033 0.104,0.064 0.191,0.092c0.086,0.029 0.162,0.05 0.225,0.062l0.263,0.051c0.165,0.03 0.3,0.058 0.404,0.084c0.103,0.027 0.22,0.066 0.35,0.118c0.13,0.051 0.231,0.11 0.303,0.176c0.072,0.065 0.134,0.152 0.186,0.26c0.052,0.108 0.078,0.232 0.078,0.371c0,0.326 -0.124,0.588 -0.372,0.784c-0.247,0.197 -0.585,0.295 -1.012,0.295c-0.679,-0.002 -1.178,-0.243 -1.495,-0.723Z" style="fill-rule:nonzero;"/><path d="M155.808,20.559l0,-4.662l0.652,0l0,4.06l2.591,0l0,0.602l-3.243,0Z" style="fill-rule:nonzero;"/><path d="M159.232,20.559l1.897,-4.662l0.718,0l1.907,4.662l-0.738,0l-0.496,-1.296l-2.098,0l-0.506,1.296l-0.684,0Zm1.412,-1.87l1.661,0l-0.82,-2.156l-0.841,2.156Z" style="fill-rule:nonzero;"/><path d="M164.783,19.964c-0.417,-0.453 -0.625,-1.032 -0.625,-1.736c0,-0.704 0.209,-1.283 0.627,-1.736c0.418,-0.454 0.963,-0.681 1.635,-0.681c0.789,0 1.399,0.314 1.832,0.94l-0.516,0.356c-0.296,-0.461 -0.728,-0.691 -1.295,-0.691c-0.002,0 -0.005,0 -0.007,0c-0.481,0 -0.866,0.164 -1.155,0.493c-0.29,0.328 -0.434,0.765 -0.434,1.312c0,0.551 0.144,0.993 0.434,1.326c0.289,0.333 0.67,0.499 1.141,0.499c0.57,0 1.009,-0.239 1.316,-0.718l0.54,0.349c-0.424,0.645 -1.04,0.967 -1.849,0.967c-0.677,0 -1.225,-0.226 -1.644,-0.68Z" style="fill-rule:nonzero;"/><path d="M169.141,20.559l0,-4.662l0.841,0l2.372,3.753l0,-3.753l0.632,0l0,4.662l-0.772,0l-2.441,-3.842l0,3.842l-0.632,0Z" style="fill-rule:nonzero;"/><rect x="174.241" y="15.897" width="0.653" height="4.662" style="fill-rule:nonzero;"/><path d="M176.483,19.964c-0.417,-0.453 -0.626,-1.032 -0.626,-1.736c0,-0.704 0.209,-1.283 0.628,-1.736c0.418,-0.454 0.963,-0.681 1.635,-0.681c0.788,0 1.399,0.314 1.832,0.94l-0.516,0.356c-0.296,-0.461 -0.728,-0.691 -1.295,-0.691c-0.003,0 -0.005,0 -0.007,0c-0.481,0 -0.866,0.164 -1.156,0.493c-0.289,0.328 -0.434,0.765 -0.434,1.312c0,0.551 0.145,0.993 0.434,1.326c0.29,0.333 0.67,0.499 1.142,0.499c0.57,0 1.008,-0.239 1.316,-0.718l0.54,0.349c-0.424,0.645 -1.04,0.967 -1.849,0.967c-0.677,0 -1.225,-0.226 -1.644,-0.68Z" style="fill-rule:nonzero;"/><path d="M212.617,20.495l1.897,-4.662l0.718,0l1.907,4.662l-0.738,0l-0.496,-1.295l-2.099,0l-0.505,1.295l-0.684,0Zm1.412,-1.87l1.661,0l-0.821,-2.156l-0.84,2.156Z" style="fill-rule:nonzero;"/><path d="M217.836,20.495l0,-4.662l2.044,0c0.476,0 0.856,0.124 1.138,0.371c0.283,0.247 0.424,0.578 0.424,0.993c0,0.312 -0.088,0.581 -0.263,0.808c-0.176,0.227 -0.408,0.391 -0.697,0.494l1.087,1.996l-0.742,0l-0.995,-1.876l-1.336,0l0,1.876l-0.66,0Zm0.66,-2.451l1.384,0c0.267,0 0.48,-0.073 0.641,-0.22c0.161,-0.147 0.241,-0.339 0.241,-0.576c0,-0.248 -0.083,-0.446 -0.248,-0.593c-0.165,-0.147 -0.383,-0.221 -0.654,-0.221l-1.364,0l0,1.61Z" style="fill-rule:nonzero;"/><rect x="222.461" y="15.833" width="0.653" height="4.662" style="fill-rule:nonzero;"/><path d="M224.371,20.495l0,-4.662l0.841,0l2.372,3.753l0,-3.753l0.633,0l0,4.662l-0.773,0l-2.44,-3.842l0,3.842l-0.633,0Z" style="fill-rule:nonzero;"/><path d="M162.506,61.103l0,-4.662l0.841,0l2.372,3.753l0,-3.753l0.632,0l0,4.662l-0.772,0l-2.441,-3.842l0,3.842l-0.632,0Z" style="fill-rule:nonzero;"/><rect x="167.606" y="56.441" width="0.653" height="4.662" style="fill-rule:nonzero;"/><path d="M169.516,61.103l0,-4.662l2.044,0c0.477,0 0.856,0.123 1.139,0.371c0.282,0.247 0.423,0.578 0.423,0.993c0,0.312 -0.087,0.581 -0.263,0.808c-0.175,0.227 -0.408,0.391 -0.697,0.494l1.087,1.996l-0.742,0l-0.994,-1.877l-1.337,0l0,1.877l-0.66,0Zm0.66,-2.451l1.384,0c0.267,0 0.481,-0.073 0.641,-0.22c0.161,-0.147 0.241,-0.339 0.241,-0.576c0,-0.249 -0.082,-0.446 -0.248,-0.593c-0.165,-0.147 -0.383,-0.221 -0.654,-0.221l-1.364,0l0,1.61Z" style="fill-rule:nonzero;"/><path d="M180.29,86.475c0,-2.193 -1.781,-3.973 -3.974,-3.973l-16.877,0c-2.193,0 -3.974,1.78 -3.974,3.973l0,7.948c0,2.193 1.781,3.973 3.974,3.973l16.877,0c2.193,0 3.974,-1.78 3.974,-3.973l0,-7.948Z" style="fill:#ebebeb;"/><path d="M163.068,92.78l0,-4.662l0.653,0l0,4.06l2.591,0l0,0.602l-3.244,0Z" style="fill-rule:nonzero;"/><rect x="167.044" y="88.118" width="0.653" height="4.662" style="fill-rule:nonzero;"/><path d="M168.954,92.78l0,-4.662l2.044,0c0.476,0 0.856,0.124 1.138,0.371c0.283,0.247 0.424,0.578 0.424,0.993c0,0.312 -0.088,0.581 -0.263,0.808c-0.176,0.227 -0.408,0.391 -0.697,0.494l1.087,1.996l-0.742,0l-0.995,-1.876l-1.336,0l0,1.876l-0.66,0Zm0.66,-2.451l1.384,0c0.267,0 0.48,-0.073 0.641,-0.22c0.161,-0.147 0.241,-0.339 0.241,-0.576c0,-0.248 -0.083,-0.446 -0.248,-0.593c-0.165,-0.147 -0.383,-0.22 -0.654,-0.22l-1.364,0l0,1.609Z" style="fill-rule:nonzero;"/><path d="M150.427,86.475c0,-2.193 -1.781,-3.973 -3.974,-3.973l-16.877,0c-2.193,0 -3.973,1.78 -3.973,3.973l0,7.948c0,2.193 1.78,3.973 3.973,3.973l16.877,0c2.193,0 3.974,-1.78 3.974,-3.973l0,-7.948Z" style="fill:#ebebeb;"/><path d="M133.206,92.78l0,-4.662l0.652,0l0,4.06l2.591,0l0,0.602l-3.243,0Z" style="fill-rule:nonzero;"/><rect x="137.181" y="88.118" width="0.653" height="4.662" style="fill-rule:nonzero;"/><path d="M139.091,92.78l0,-4.662l2.044,0c0.476,0 0.856,0.124 1.138,0.371c0.283,0.247 0.424,0.578 0.424,0.993c0,0.312 -0.088,0.581 -0.263,0.808c-0.175,0.227 -0.408,0.391 -0.697,0.494l1.087,1.996l-0.742,0l-0.995,-1.876l-1.336,0l0,1.876l-0.66,0Zm0.66,-2.451l1.384,0c0.267,0 0.48,-0.073 0.641,-0.22c0.161,-0.147 0.241,-0.339 0.241,-0.576c0,-0.248 -0.083,-0.446 -0.248,-0.593c-0.165,-0.147 -0.383,-0.22 -0.654,-0.22l-1.364,0l0,1.609Z" style="fill-rule:nonzero;"/><path d="M150.427,86.475c0,-2.193 -1.781,-3.973 -3.974,-3.973l-16.877,0c-2.193,0 -3.973,1.78 -3.973,3.973l0,7.948c0,2.193 1.78,3.973 3.973,3.973l16.877,0c2.193,0 3.974,-1.78 3.974,-3.973l0,-7.948Z" style="fill:#ebebeb;"/><path d="M133.206,92.78l0,-4.662l0.652,0l0,4.06l2.591,0l0,0.602l-3.243,0Z" style="fill-rule:nonzero;"/><rect x="137.181" y="88.118" width="0.653" height="4.662" style="fill-rule:nonzero;"/><path d="M139.091,92.78l0,-4.662l2.044,0c0.476,0 0.856,0.124 1.138,0.371c0.283,0.247 0.424,0.578 0.424,0.993c0,0.312 -0.088,0.581 -0.263,0.808c-0.175,0.227 -0.408,0.391 -0.697,0.494l1.087,1.996l-0.742,0l-0.995,-1.876l-1.336,0l0,1.876l-0.66,0Zm0.66,-2.451l1.384,0c0.267,0 0.48,-0.073 0.641,-0.22c0.161,-0.147 0.241,-0.339 0.241,-0.576c0,-0.248 -0.083,-0.446 -0.248,-0.593c-0.165,-0.147 -0.383,-0.22 -0.654,-0.22l-1.364,0l0,1.609Z" style="fill-rule:nonzero;"/><path d="M120.61,86.475c0,-2.193 -1.781,-3.973 -3.974,-3.973l-16.877,0c-2.193,0 -3.973,1.78 -3.973,3.973l0,7.948c0,2.193 1.78,3.973 3.973,3.973l16.877,0c2.193,0 3.974,-1.78 3.974,-3.973l0,-7.948Z" style="fill:#ebebeb;"/><path d="M103.389,92.78l0,-4.662l0.653,0l0,4.06l2.59,0l0,0.602l-3.243,0Z" style="fill-rule:nonzero;"/><rect x="107.364" y="88.118" width="0.653" height="4.662" style="fill-rule:nonzero;"/><path d="M109.275,92.78l0,-4.662l2.044,0c0.476,0 0.855,0.124 1.138,0.371c0.282,0.247 0.424,0.578 0.424,0.993c0,0.312 -0.088,0.581 -0.264,0.808c-0.175,0.227 -0.408,0.391 -0.697,0.494l1.087,1.996l-0.742,0l-0.994,-1.876l-1.337,0l0,1.876l-0.659,0Zm0.659,-2.451l1.385,0c0.266,0 0.48,-0.073 0.64,-0.22c0.161,-0.147 0.241,-0.339 0.241,-0.576c0,-0.248 -0.082,-0.446 -0.247,-0.593c-0.166,-0.147 -0.384,-0.22 -0.655,-0.22l-1.364,0l0,1.609Z" style="fill-rule:nonzero;"/><path d="M210.115,86.475c0,-2.193 -1.78,-3.973 -3.973,-3.973l-16.877,0c-2.193,0 -3.974,1.78 -3.974,3.973l0,7.948c0,2.193 1.781,3.973 3.974,3.973l16.877,0c2.193,0 3.973,-1.78 3.973,-3.973l0,-7.948Z" style="fill:#ebebeb;"/><path d="M192.894,92.78l0,-4.662l0.653,0l0,4.06l2.591,0l0,0.602l-3.244,0Z" style="fill-rule:nonzero;"/><rect x="196.869" y="88.118" width="0.653" height="4.662" style="fill-rule:nonzero;"/><path d="M198.78,92.78l0,-4.662l2.044,0c0.476,0 0.856,0.124 1.138,0.371c0.283,0.247 0.424,0.578 0.424,0.993c0,0.312 -0.088,0.581 -0.263,0.808c-0.176,0.227 -0.408,0.391 -0.698,0.494l1.087,1.996l-0.741,0l-0.995,-1.876l-1.336,0l0,1.876l-0.66,0Zm0.66,-2.451l1.384,0c0.266,0 0.48,-0.073 0.641,-0.22c0.16,-0.147 0.241,-0.339 0.241,-0.576c0,-0.248 -0.083,-0.446 -0.248,-0.593c-0.165,-0.147 -0.383,-0.22 -0.655,-0.22l-1.363,0l0,1.609Z" style="fill-rule:nonzero;"/><path d="M258.476,20.495l0,-4.662l2.044,0c0.476,0 0.855,0.124 1.138,0.371c0.282,0.247 0.424,0.578 0.424,0.993c0,0.312 -0.088,0.581 -0.263,0.808c-0.176,0.227 -0.408,0.391 -0.698,0.494l1.087,1.996l-0.741,0l-0.995,-1.876l-1.337,0l0,1.876l-0.659,0Zm0.659,-2.451l1.385,0c0.266,0 0.48,-0.073 0.641,-0.22c0.16,-0.147 0.241,-0.339 0.241,-0.576c0,-0.248 -0.083,-0.446 -0.248,-0.593c-0.165,-0.147 -0.384,-0.221 -0.655,-0.221l-1.364,0l0,1.61Z" style="fill-rule:nonzero;"/><rect x="263.1" y="15.833" width="0.653" height="4.662" style="fill-rule:nonzero;"/><path d="M265.011,20.495l0,-4.662l1.962,0c0.517,0 0.92,0.13 1.21,0.391c0.289,0.261 0.434,0.614 0.434,1.058c0,0.444 -0.144,0.796 -0.431,1.055c-0.287,0.258 -0.691,0.388 -1.213,0.388l-1.302,0l0,1.77l-0.66,0Zm0.66,-2.372l1.302,0c0.317,0 0.556,-0.075 0.719,-0.224c0.163,-0.149 0.245,-0.355 0.245,-0.617c0,-0.266 -0.082,-0.474 -0.245,-0.624c-0.163,-0.149 -0.402,-0.224 -0.719,-0.224l-1.302,0l0,1.689Z" style="fill-rule:nonzero;"/><path d="M269.447,20.495l0,-4.662l3.306,0l0,0.601l-2.646,0l0,1.316l2.304,0l0,0.568l-2.304,0l0,1.575l2.714,0l0,0.602l-3.374,0Z" style="fill-rule:nonzero;"/><path d="M275.672,20.495l0,-4.662l0.84,0l2.372,3.753l0,-3.753l0.633,0l0,4.662l-0.773,0l-2.44,-3.842l0,3.842l-0.632,0Z" style="fill-rule:nonzero;"/><path d="M281.103,19.9c-0.417,-0.453 -0.626,-1.032 -0.626,-1.736c0,-0.704 0.209,-1.283 0.627,-1.736c0.419,-0.454 0.964,-0.681 1.636,-0.681c0.788,0 1.399,0.314 1.832,0.94l-0.516,0.356c-0.296,-0.46 -0.728,-0.691 -1.296,-0.691c-0.002,0 -0.004,0 -0.006,0c-0.481,0 -0.866,0.165 -1.156,0.493c-0.289,0.328 -0.434,0.765 -0.434,1.312c0,0.552 0.145,0.994 0.434,1.326c0.29,0.333 0.67,0.499 1.142,0.499c0.57,0 1.008,-0.239 1.316,-0.717l0.54,0.348c-0.424,0.645 -1.04,0.967 -1.849,0.967c-0.677,0 -1.225,-0.226 -1.644,-0.68Z" style="fill-rule:nonzero;"/><path d="M285.792,19.9c-0.417,-0.453 -0.625,-1.032 -0.625,-1.736c0,-0.704 0.209,-1.283 0.627,-1.736c0.418,-0.454 0.963,-0.681 1.635,-0.681c0.789,0 1.399,0.314 1.832,0.94l-0.516,0.356c-0.296,-0.46 -0.728,-0.691 -1.295,-0.691c-0.002,0 -0.005,0 -0.007,0c-0.481,0 -0.866,0.165 -1.155,0.493c-0.29,0.328 -0.434,0.765 -0.434,1.312c0,0.552 0.144,0.994 0.434,1.326c0.289,0.333 0.67,0.499 1.141,0.499c0.57,0 1.009,-0.239 1.316,-0.717l0.54,0.348c-0.423,0.645 -1.04,0.967 -1.849,0.967c-0.677,0 -1.225,-0.226 -1.644,-0.68Z" style="fill-rule:nonzero;"/><path d="M313.2,20.495l1.897,-4.662l0.717,0l1.908,4.662l-0.739,0l-0.495,-1.295l-2.099,0l-0.506,1.295l-0.683,0Zm1.411,-1.87l1.661,0l-0.82,-2.156l-0.841,2.156Z" style="fill-rule:nonzero;"/><path d="M318.419,20.495l0,-4.662l3.367,0l0,0.601l-2.707,0l0,1.344l2.296,0l0,0.567l-2.296,0l0,2.15l-0.66,0Z" style="fill-rule:nonzero;"/><path d="M322.63,20.495l0,-4.662l2.044,0c0.476,0 0.855,0.124 1.138,0.371c0.283,0.247 0.424,0.578 0.424,0.993c0,0.312 -0.088,0.581 -0.263,0.808c-0.176,0.227 -0.408,0.391 -0.698,0.494l1.087,1.996l-0.741,0l-0.995,-1.876l-1.336,0l0,1.876l-0.66,0Zm0.66,-2.451l1.384,0c0.266,0 0.48,-0.073 0.641,-0.22c0.16,-0.147 0.241,-0.339 0.241,-0.576c0,-0.248 -0.083,-0.446 -0.248,-0.593c-0.165,-0.147 -0.384,-0.221 -0.655,-0.221l-1.363,0l0,1.61Z" style="fill-rule:nonzero;"/><rect x="327.254" y="15.833" width="0.653" height="4.662" style="fill-rule:nonzero;"/><path d="M329.165,20.495l0,-4.662l0.841,0l2.372,3.753l0,-3.753l0.632,0l0,4.662l-0.772,0l-2.441,-3.842l0,3.842l-0.632,0Z" style="fill-rule:nonzero;"/><rect x="334.265" y="15.833" width="0.653" height="4.662" style="fill-rule:nonzero;"/><path d="M336.507,19.9c-0.417,-0.453 -0.626,-1.032 -0.626,-1.736c0,-0.704 0.209,-1.283 0.628,-1.736c0.418,-0.454 0.963,-0.681 1.635,-0.681c0.788,0 1.399,0.314 1.832,0.94l-0.516,0.356c-0.296,-0.46 -0.728,-0.691 -1.295,-0.691c-0.003,0 -0.005,0 -0.007,0c-0.481,0 -0.866,0.165 -1.156,0.493c-0.289,0.328 -0.434,0.765 -0.434,1.312c0,0.552 0.145,0.994 0.434,1.326c0.29,0.333 0.67,0.499 1.142,0.499c0.57,0 1.008,-0.239 1.316,-0.717l0.54,0.348c-0.424,0.645 -1.04,0.967 -1.849,0.967c-0.677,0 -1.225,-0.226 -1.644,-0.68Z" style="fill-rule:nonzero;"/><path d="M167.834,32.857l0,14.778" style="fill:none;stroke:#000;stroke-width:0.5px;"/><path d="M167.877,69.909l0,12.593" style="fill:none;stroke:#000;stroke-width:0.5px;"/><path d="M197.703,82.502l-29.826,-12.593l-28.738,12.593" style="fill:none;stroke:#000;stroke-width:0.5px;"/><path d="M167.877,32.857l-59.679,49.645" style="fill:none;stroke:#000;stroke-width:0.5px;"/><path d="M107.789,98.396l0,35.217" style="fill:none;stroke:#000;stroke-width:0.5px;"/><path d="M146.848,136.357c0,-1.679 -1.363,-3.042 -3.042,-3.042l-12.922,0c-1.679,0 -3.042,1.363 -3.042,3.042l0,6.085c0,1.679 1.363,3.042 3.042,3.042l12.922,0c1.679,0 3.042,-1.363 3.042,-3.042l0,-6.085Z" style="fill:#ebebeb;"/><path d="M130.538,141.731l0,-4.662l2.044,0c0.476,0 0.856,0.123 1.138,0.37c0.283,0.248 0.424,0.579 0.424,0.993c0,0.313 -0.088,0.582 -0.263,0.809c-0.176,0.226 -0.408,0.391 -0.698,0.494l1.087,1.996l-0.741,0l-0.995,-1.877l-1.336,0l0,1.877l-0.66,0Zm0.66,-2.451l1.384,0c0.266,0 0.48,-0.073 0.641,-0.22c0.16,-0.147 0.241,-0.339 0.241,-0.576c0,-0.249 -0.083,-0.446 -0.248,-0.593c-0.165,-0.147 -0.383,-0.221 -0.655,-0.221l-1.363,0l0,1.61Z" style="fill-rule:nonzero;"/><path d="M135.484,141.133c-0.415,-0.456 -0.622,-1.034 -0.622,-1.733c0,-0.7 0.208,-1.278 0.623,-1.733c0.416,-0.456 0.967,-0.684 1.653,-0.684c0.686,0 1.238,0.228 1.656,0.684c0.418,0.455 0.627,1.033 0.627,1.733c0,0.699 -0.209,1.277 -0.627,1.733c-0.418,0.455 -0.97,0.683 -1.656,0.683c-0.686,0 -1.237,-0.228 -1.654,-0.683Zm0.492,-3.036c-0.285,0.331 -0.427,0.765 -0.427,1.303c0,0.537 0.142,0.973 0.427,1.305c0.285,0.333 0.672,0.499 1.162,0.499c0.485,0 0.872,-0.166 1.159,-0.499c0.287,-0.332 0.43,-0.768 0.43,-1.305c0,-0.538 -0.143,-0.972 -0.43,-1.303c-0.287,-0.33 -0.674,-0.495 -1.159,-0.495c-0.49,0 -0.877,0.165 -1.162,0.495Z" style="fill-rule:nonzero;"/><path d="M139.825,141.731l1.897,-4.662l0.717,0l1.908,4.662l-0.739,0l-0.495,-1.296l-2.099,0l-0.506,1.296l-0.683,0Zm1.411,-1.87l1.661,0l-0.82,-2.157l-0.841,2.157Z" style="fill-rule:nonzero;"/><path d="M117.292,136.357c0,-1.679 -1.363,-3.042 -3.042,-3.042l-12.922,0c-1.679,0 -3.042,1.363 -3.042,3.042l0,6.085c0,1.679 1.363,3.042 3.042,3.042l12.922,0c1.679,0 3.042,-1.363 3.042,-3.042l0,-6.085Z" style="fill:#ebebeb;"/><path d="M100.982,141.731l0,-4.662l2.044,0c0.476,0 0.856,0.123 1.138,0.37c0.283,0.248 0.424,0.579 0.424,0.993c0,0.313 -0.088,0.582 -0.263,0.809c-0.175,0.226 -0.408,0.391 -0.697,0.494l1.087,1.996l-0.742,0l-0.995,-1.877l-1.336,0l0,1.877l-0.66,0Zm0.66,-2.451l1.384,0c0.267,0 0.48,-0.073 0.641,-0.22c0.161,-0.147 0.241,-0.339 0.241,-0.576c0,-0.249 -0.083,-0.446 -0.248,-0.593c-0.165,-0.147 -0.383,-0.221 -0.654,-0.221l-1.364,0l0,1.61Z" style="fill-rule:nonzero;"/><path d="M105.928,141.133c-0.415,-0.456 -0.622,-1.034 -0.622,-1.733c0,-0.7 0.208,-1.278 0.624,-1.733c0.416,-0.456 0.966,-0.684 1.652,-0.684c0.686,0 1.238,0.228 1.656,0.684c0.418,0.455 0.627,1.033 0.627,1.733c0,0.699 -0.209,1.277 -0.627,1.733c-0.418,0.455 -0.97,0.683 -1.656,0.683c-0.686,0 -1.237,-0.228 -1.654,-0.683Zm0.492,-3.036c-0.285,0.331 -0.427,0.765 -0.427,1.303c0,0.537 0.142,0.973 0.427,1.305c0.285,0.333 0.672,0.499 1.162,0.499c0.486,0 0.872,-0.166 1.159,-0.499c0.287,-0.332 0.431,-0.768 0.431,-1.305c0,-0.538 -0.144,-0.972 -0.431,-1.303c-0.287,-0.33 -0.673,-0.495 -1.159,-0.495c-0.49,0 -0.877,0.165 -1.162,0.495Z" style="fill-rule:nonzero;"/><path d="M110.269,141.731l1.897,-4.662l0.718,0l1.907,4.662l-0.738,0l-0.496,-1.296l-2.099,0l-0.506,1.296l-0.683,0Zm1.411,-1.87l1.662,0l-0.821,-2.157l-0.841,2.157Z" style="fill-rule:nonzero;"/><path d="M167.2,98.396l0,35.217" style="fill:none;stroke:#000;stroke-width:0.5px;"/><path d="M272.585,32.857l-0.066,49.645" style="fill:none;stroke:#000;stroke-width:0.5px;"/><path d="M176.703,136.357c0,-1.679 -1.363,-3.042 -3.042,-3.042l-12.921,0c-1.679,0 -3.043,1.363 -3.043,3.042l0,6.085c0,1.679 1.364,3.042 3.043,3.042l12.921,0c1.679,0 3.042,-1.363 3.042,-3.042l0,-6.085Z" style="fill:#ebebeb;"/><path d="M160.393,141.731l0,-4.662l2.044,0c0.477,0 0.856,0.123 1.139,0.37c0.282,0.248 0.423,0.579 0.423,0.993c0,0.313 -0.087,0.582 -0.263,0.809c-0.175,0.226 -0.408,0.391 -0.697,0.494l1.087,1.996l-0.742,0l-0.995,-1.877l-1.336,0l0,1.877l-0.66,0Zm0.66,-2.451l1.384,0c0.267,0 0.481,-0.073 0.641,-0.22c0.161,-0.147 0.241,-0.339 0.241,-0.576c0,-0.249 -0.082,-0.446 -0.248,-0.593c-0.165,-0.147 -0.383,-0.221 -0.654,-0.221l-1.364,0l0,1.61Z" style="fill-rule:nonzero;"/><path d="M165.339,141.133c-0.415,-0.456 -0.622,-1.034 -0.622,-1.733c0,-0.7 0.208,-1.278 0.624,-1.733c0.416,-0.456 0.967,-0.684 1.652,-0.684c0.686,0 1.238,0.228 1.657,0.684c0.418,0.455 0.627,1.033 0.627,1.733c0,0.699 -0.209,1.277 -0.627,1.733c-0.419,0.455 -0.971,0.683 -1.657,0.683c-0.685,0 -1.237,-0.228 -1.654,-0.683Zm0.492,-3.036c-0.284,0.331 -0.427,0.765 -0.427,1.303c0,0.537 0.143,0.973 0.427,1.305c0.285,0.333 0.673,0.499 1.162,0.499c0.486,0 0.872,-0.166 1.159,-0.499c0.287,-0.332 0.431,-0.768 0.431,-1.305c0,-0.538 -0.144,-0.972 -0.431,-1.303c-0.287,-0.33 -0.673,-0.495 -1.159,-0.495c-0.489,0 -0.877,0.165 -1.162,0.495Z" style="fill-rule:nonzero;"/><path d="M169.68,141.731l1.897,-4.662l0.718,0l1.907,4.662l-0.738,0l-0.496,-1.296l-2.099,0l-0.505,1.296l-0.684,0Zm1.412,-1.87l1.661,0l-0.821,-2.157l-0.84,2.157Z" style="fill-rule:nonzero;"/><path d="M197.316,98.396l0,35.217" style="fill:none;stroke:#000;stroke-width:0.5px;"/><path d="M272.585,98.396l0,35.217" style="fill:none;stroke:#000;stroke-width:0.5px;"/><path d="M302.411,98.396l0,35.217" style="fill:none;stroke:#000;stroke-width:0.5px;"/><path d="M206.819,136.357c0,-1.679 -1.363,-3.042 -3.042,-3.042l-12.921,0c-1.679,0 -3.043,1.363 -3.043,3.042l0,6.085c0,1.679 1.364,3.042 3.043,3.042l12.921,0c1.679,0 3.042,-1.363 3.042,-3.042l0,-6.085Z" style="fill:#ebebeb;"/><path d="M190.51,141.731l0,-4.662l2.043,0c0.477,0 0.856,0.123 1.139,0.37c0.282,0.248 0.424,0.579 0.424,0.993c0,0.313 -0.088,0.582 -0.264,0.809c-0.175,0.226 -0.408,0.391 -0.697,0.494l1.087,1.996l-0.742,0l-0.994,-1.877l-1.337,0l0,1.877l-0.659,0Zm0.659,-2.451l1.384,0c0.267,0 0.481,-0.073 0.641,-0.22c0.161,-0.147 0.241,-0.339 0.241,-0.576c0,-0.249 -0.082,-0.446 -0.247,-0.593c-0.166,-0.147 -0.384,-0.221 -0.655,-0.221l-1.364,0l0,1.61Z" style="fill-rule:nonzero;"/><path d="M195.455,141.133c-0.414,-0.456 -0.622,-1.034 -0.622,-1.733c0,-0.7 0.208,-1.278 0.624,-1.733c0.416,-0.456 0.967,-0.684 1.653,-0.684c0.686,0 1.238,0.228 1.656,0.684c0.418,0.455 0.627,1.033 0.627,1.733c0,0.699 -0.209,1.277 -0.627,1.733c-0.418,0.455 -0.97,0.683 -1.656,0.683c-0.686,0 -1.238,-0.228 -1.655,-0.683Zm0.493,-3.036c-0.285,0.331 -0.428,0.765 -0.428,1.303c0,0.537 0.143,0.973 0.428,1.305c0.284,0.333 0.672,0.499 1.162,0.499c0.485,0 0.871,-0.166 1.158,-0.499c0.287,-0.332 0.431,-0.768 0.431,-1.305c0,-0.538 -0.144,-0.972 -0.431,-1.303c-0.287,-0.33 -0.673,-0.495 -1.158,-0.495c-0.49,0 -0.878,0.165 -1.162,0.495Z" style="fill-rule:nonzero;"/><path d="M199.796,141.731l1.897,-4.662l0.718,0l1.907,4.662l-0.738,0l-0.496,-1.296l-2.098,0l-0.506,1.296l-0.684,0Zm1.412,-1.87l1.661,0l-0.82,-2.157l-0.841,2.157Z" style="fill-rule:nonzero;"/><path d="M281.644,136.357c0,-1.679 -1.363,-3.042 -3.042,-3.042l-12.921,0c-1.679,0 -3.043,1.363 -3.043,3.042l0,6.085c0,1.679 1.364,3.042 3.043,3.042l12.921,0c1.679,0 3.042,-1.363 3.042,-3.042l0,-6.085Z" style="fill:#ebebeb;"/><path d="M265.334,141.731l0,-4.662l2.044,0c0.477,0 0.856,0.123 1.139,0.37c0.282,0.248 0.423,0.579 0.423,0.993c0,0.313 -0.087,0.582 -0.263,0.809c-0.175,0.226 -0.408,0.391 -0.697,0.494l1.087,1.996l-0.742,0l-0.994,-1.877l-1.337,0l0,1.877l-0.66,0Zm0.66,-2.451l1.384,0c0.267,0 0.481,-0.073 0.641,-0.22c0.161,-0.147 0.241,-0.339 0.241,-0.576c0,-0.249 -0.082,-0.446 -0.248,-0.593c-0.165,-0.147 -0.383,-0.221 -0.654,-0.221l-1.364,0l0,1.61Z" style="fill-rule:nonzero;"/><path d="M270.28,141.133c-0.414,-0.456 -0.622,-1.034 -0.622,-1.733c0,-0.7 0.208,-1.278 0.624,-1.733c0.416,-0.456 0.967,-0.684 1.653,-0.684c0.685,0 1.237,0.228 1.656,0.684c0.418,0.455 0.627,1.033 0.627,1.733c0,0.699 -0.209,1.277 -0.627,1.733c-0.419,0.455 -0.971,0.683 -1.656,0.683c-0.686,0 -1.238,-0.228 -1.655,-0.683Zm0.492,-3.036c-0.284,0.331 -0.427,0.765 -0.427,1.303c0,0.537 0.143,0.973 0.427,1.305c0.285,0.333 0.673,0.499 1.163,0.499c0.485,0 0.871,-0.166 1.158,-0.499c0.287,-0.332 0.431,-0.768 0.431,-1.305c0,-0.538 -0.144,-0.972 -0.431,-1.303c-0.287,-0.33 -0.673,-0.495 -1.158,-0.495c-0.49,0 -0.878,0.165 -1.163,0.495Z" style="fill-rule:nonzero;"/><path d="M274.621,141.731l1.897,-4.662l0.718,0l1.907,4.662l-0.738,0l-0.496,-1.296l-2.098,0l-0.506,1.296l-0.684,0Zm1.412,-1.87l1.661,0l-0.82,-2.157l-0.841,2.157Z" style="fill-rule:nonzero;"/><path d="M137.631,98.396l0.097,9.513" style="fill:none;stroke:#000;stroke-width:0.5px;"/><path d="M150.14,111.882c0,-2.193 -1.78,-3.973 -3.973,-3.973l-16.877,0c-2.193,0 -3.974,1.78 -3.974,3.973l0,7.947c0,2.193 1.781,3.974 3.974,3.974l16.877,0c2.193,0 3.973,-1.781 3.973,-3.974l0,-7.947Z" style="fill:#ebebeb;"/><rect x="132.883" y="113.525" width="0.653" height="4.662" style="fill-rule:nonzero;"/><path d="M134.411,117.312l0.537,-0.342c0.308,0.485 0.777,0.728 1.408,0.728c0.317,0 0.572,-0.071 0.766,-0.214c0.193,-0.142 0.29,-0.338 0.29,-0.586c0,-0.089 -0.011,-0.168 -0.034,-0.237c-0.023,-0.07 -0.068,-0.131 -0.137,-0.185c-0.068,-0.054 -0.127,-0.097 -0.176,-0.13c-0.049,-0.033 -0.137,-0.068 -0.265,-0.106c-0.127,-0.037 -0.223,-0.064 -0.287,-0.08c-0.063,-0.016 -0.181,-0.042 -0.352,-0.079c-0.228,-0.045 -0.421,-0.097 -0.581,-0.154c-0.159,-0.057 -0.318,-0.134 -0.477,-0.232c-0.158,-0.098 -0.278,-0.225 -0.36,-0.381c-0.082,-0.156 -0.123,-0.339 -0.123,-0.549c0,-0.41 0.151,-0.733 0.454,-0.97c0.303,-0.237 0.695,-0.356 1.176,-0.356c0.36,0 0.692,0.071 0.995,0.214c0.303,0.142 0.555,0.347 0.755,0.613l-0.502,0.359c-0.299,-0.401 -0.726,-0.603 -1.282,-0.605c-0.271,0 -0.495,0.055 -0.672,0.166c-0.176,0.11 -0.265,0.282 -0.265,0.514c0,0.098 0.021,0.185 0.062,0.26c0.041,0.075 0.088,0.135 0.14,0.18c0.053,0.044 0.135,0.088 0.246,0.131c0.112,0.043 0.205,0.075 0.28,0.096l0.349,0.082c0.214,0.052 0.39,0.098 0.528,0.138c0.138,0.04 0.291,0.098 0.46,0.175c0.169,0.076 0.3,0.159 0.395,0.247c0.094,0.089 0.175,0.205 0.241,0.347c0.066,0.143 0.099,0.305 0.099,0.487c0,0.429 -0.161,0.774 -0.484,1.036c-0.322,0.262 -0.751,0.393 -1.287,0.393c-0.428,0 -0.807,-0.085 -1.136,-0.256c-0.329,-0.171 -0.583,-0.406 -0.761,-0.704Z" style="fill-rule:nonzero;"/><path d="M139.029,118.187l0,-4.662l1.962,0c0.517,0 0.92,0.13 1.21,0.391c0.289,0.261 0.434,0.613 0.434,1.058c0,0.444 -0.144,0.796 -0.431,1.054c-0.287,0.259 -0.691,0.388 -1.213,0.388l-1.302,0l0,1.771l-0.66,0Zm0.66,-2.372l1.302,0c0.317,0 0.556,-0.075 0.719,-0.224c0.163,-0.15 0.245,-0.355 0.245,-0.617c0,-0.267 -0.082,-0.475 -0.245,-0.624c-0.163,-0.149 -0.402,-0.224 -0.719,-0.224l-1.302,0l0,1.689Z" style="fill-rule:nonzero;"/><path d="M137.345,123.803l0.097,9.512" style="fill:none;stroke:#000;stroke-width:0.5px;"/><path d="M251.593,136.357c0,-1.679 -1.363,-3.042 -3.042,-3.042l-12.922,0c-1.679,0 -3.042,1.363 -3.042,3.042l0,6.085c0,1.679 1.363,3.042 3.042,3.042l12.922,0c1.679,0 3.042,-1.363 3.042,-3.042l0,-6.085Z" style="fill:#ebebeb;"/><path d="M235.283,141.731l0,-4.662l2.044,0c0.476,0 0.856,0.123 1.138,0.37c0.283,0.248 0.424,0.579 0.424,0.993c0,0.313 -0.088,0.582 -0.263,0.809c-0.176,0.226 -0.408,0.391 -0.697,0.494l1.087,1.996l-0.742,0l-0.995,-1.877l-1.336,0l0,1.877l-0.66,0Zm0.66,-2.451l1.384,0c0.267,0 0.48,-0.073 0.641,-0.22c0.161,-0.147 0.241,-0.339 0.241,-0.576c0,-0.249 -0.083,-0.446 -0.248,-0.593c-0.165,-0.147 -0.383,-0.221 -0.654,-0.221l-1.364,0l0,1.61Z" style="fill-rule:nonzero;"/><path d="M240.229,141.133c-0.415,-0.456 -0.622,-1.034 -0.622,-1.733c0,-0.7 0.208,-1.278 0.624,-1.733c0.415,-0.456 0.966,-0.684 1.652,-0.684c0.686,0 1.238,0.228 1.656,0.684c0.418,0.455 0.627,1.033 0.627,1.733c0,0.699 -0.209,1.277 -0.627,1.733c-0.418,0.455 -0.97,0.683 -1.656,0.683c-0.686,0 -1.237,-0.228 -1.654,-0.683Zm0.492,-3.036c-0.285,0.331 -0.427,0.765 -0.427,1.303c0,0.537 0.142,0.973 0.427,1.305c0.285,0.333 0.672,0.499 1.162,0.499c0.486,0 0.872,-0.166 1.159,-0.499c0.287,-0.332 0.431,-0.768 0.431,-1.305c0,-0.538 -0.144,-0.972 -0.431,-1.303c-0.287,-0.33 -0.673,-0.495 -1.159,-0.495c-0.49,0 -0.877,0.165 -1.162,0.495Z" style="fill-rule:nonzero;"/><path d="M244.57,141.731l1.897,-4.662l0.717,0l1.908,4.662l-0.739,0l-0.495,-1.296l-2.099,0l-0.506,1.296l-0.683,0Zm1.411,-1.87l1.661,0l-0.82,-2.157l-0.841,2.157Z" style="fill-rule:nonzero;"/><path d="M242.376,98.396l0.098,9.513" style="fill:none;stroke:#000;stroke-width:0.5px;"/><path d="M254.886,111.882c0,-2.193 -1.781,-3.973 -3.974,-3.973l-16.877,0c-2.193,0 -3.974,1.78 -3.974,3.973l0,7.947c0,2.193 1.781,3.974 3.974,3.974l16.877,0c2.193,0 3.974,-1.781 3.974,-3.974l0,-7.947Z" style="fill:#ebebeb;"/><rect x="237.629" y="113.525" width="0.653" height="4.662" style="fill-rule:nonzero;"/><path d="M239.156,117.312l0.537,-0.342c0.308,0.485 0.777,0.728 1.408,0.728c0.317,0 0.572,-0.071 0.766,-0.214c0.194,-0.142 0.29,-0.338 0.29,-0.586c0,-0.089 -0.011,-0.168 -0.034,-0.237c-0.023,-0.07 -0.068,-0.131 -0.137,-0.185c-0.068,-0.054 -0.127,-0.097 -0.176,-0.13c-0.049,-0.033 -0.137,-0.068 -0.264,-0.106c-0.128,-0.037 -0.224,-0.064 -0.288,-0.08c-0.063,-0.016 -0.181,-0.042 -0.352,-0.079c-0.227,-0.045 -0.421,-0.097 -0.581,-0.154c-0.159,-0.057 -0.318,-0.134 -0.476,-0.232c-0.159,-0.098 -0.279,-0.225 -0.361,-0.381c-0.082,-0.156 -0.123,-0.339 -0.123,-0.549c0,-0.41 0.151,-0.733 0.455,-0.97c0.303,-0.237 0.694,-0.356 1.175,-0.356c0.36,0 0.692,0.071 0.995,0.214c0.303,0.142 0.555,0.347 0.755,0.613l-0.502,0.359c-0.299,-0.401 -0.726,-0.603 -1.282,-0.605c-0.271,0 -0.495,0.055 -0.672,0.166c-0.176,0.11 -0.264,0.282 -0.264,0.514c0,0.098 0.02,0.185 0.061,0.26c0.041,0.075 0.088,0.135 0.14,0.18c0.053,0.044 0.135,0.088 0.246,0.131c0.112,0.043 0.205,0.075 0.281,0.096l0.348,0.082c0.214,0.052 0.39,0.098 0.528,0.138c0.138,0.04 0.291,0.098 0.46,0.175c0.169,0.076 0.3,0.159 0.395,0.247c0.094,0.089 0.175,0.205 0.241,0.347c0.066,0.143 0.099,0.305 0.099,0.487c0,0.429 -0.161,0.774 -0.484,1.036c-0.322,0.262 -0.751,0.393 -1.287,0.393c-0.428,0 -0.807,-0.085 -1.136,-0.256c-0.329,-0.171 -0.583,-0.406 -0.761,-0.704Z" style="fill-rule:nonzero;"/><path d="M243.774,118.187l0,-4.662l1.962,0c0.517,0 0.921,0.13 1.21,0.391c0.289,0.261 0.434,0.613 0.434,1.058c0,0.444 -0.144,0.796 -0.431,1.054c-0.287,0.259 -0.691,0.388 -1.213,0.388l-1.302,0l0,1.771l-0.66,0Zm0.66,-2.372l1.302,0c0.317,0 0.557,-0.075 0.719,-0.224c0.163,-0.15 0.245,-0.355 0.245,-0.617c0,-0.267 -0.082,-0.475 -0.245,-0.624c-0.162,-0.149 -0.402,-0.224 -0.719,-0.224l-1.302,0l0,1.689Z" style="fill-rule:nonzero;"/><path d="M242.09,123.803l0.097,9.512" style="fill:none;stroke:#000;stroke-width:0.5px;"/><path d="M284.997,86.475c0,-2.193 -1.78,-3.973 -3.973,-3.973l-16.877,0c-2.193,0 -3.974,1.78 -3.974,3.973l0,7.948c0,2.193 1.781,3.973 3.974,3.973l16.877,0c2.193,0 3.973,-1.78 3.973,-3.973l0,-7.948Z" style="fill:#ebebeb;"/><path d="M267.776,92.78l0,-4.662l0.653,0l0,4.06l2.591,0l0,0.602l-3.244,0Z" style="fill-rule:nonzero;"/><rect x="271.751" y="88.118" width="0.653" height="4.662" style="fill-rule:nonzero;"/><path d="M273.662,92.78l0,-4.662l2.044,0c0.476,0 0.856,0.124 1.138,0.371c0.283,0.247 0.424,0.578 0.424,0.993c0,0.312 -0.088,0.581 -0.263,0.808c-0.176,0.227 -0.408,0.391 -0.697,0.494l1.086,1.996l-0.741,0l-0.995,-1.876l-1.336,0l0,1.876l-0.66,0Zm0.66,-2.451l1.384,0c0.267,0 0.48,-0.073 0.641,-0.22c0.161,-0.147 0.241,-0.339 0.241,-0.576c0,-0.248 -0.083,-0.446 -0.248,-0.593c-0.165,-0.147 -0.383,-0.22 -0.654,-0.22l-1.364,0l0,1.609Z" style="fill-rule:nonzero;"/><path d="M255.135,86.475c0,-2.193 -1.781,-3.973 -3.974,-3.973l-16.877,0c-2.193,0 -3.974,1.78 -3.974,3.973l0,7.948c0,2.193 1.781,3.973 3.974,3.973l16.877,0c2.193,0 3.974,-1.78 3.974,-3.973l0,-7.948Z" style="fill:#ebebeb;"/><path d="M237.913,92.78l0,-4.662l0.653,0l0,4.06l2.591,0l0,0.602l-3.244,0Z" style="fill-rule:nonzero;"/><rect x="241.889" y="88.118" width="0.653" height="4.662" style="fill-rule:nonzero;"/><path d="M243.799,92.78l0,-4.662l2.044,0c0.476,0 0.856,0.124 1.138,0.371c0.283,0.247 0.424,0.578 0.424,0.993c0,0.312 -0.088,0.581 -0.263,0.808c-0.176,0.227 -0.408,0.391 -0.697,0.494l1.087,1.996l-0.742,0l-0.995,-1.876l-1.336,0l0,1.876l-0.66,0Zm0.66,-2.451l1.384,0c0.267,0 0.48,-0.073 0.641,-0.22c0.161,-0.147 0.241,-0.339 0.241,-0.576c0,-0.248 -0.083,-0.446 -0.248,-0.593c-0.165,-0.147 -0.383,-0.22 -0.654,-0.22l-1.364,0l0,1.609Z" style="fill-rule:nonzero;"/><path d="M314.823,86.475c0,-2.193 -1.78,-3.973 -3.973,-3.973l-16.877,0c-2.193,0 -3.974,1.78 -3.974,3.973l0,7.948c0,2.193 1.781,3.973 3.974,3.973l16.877,0c2.193,0 3.973,-1.78 3.973,-3.973l0,-7.948Z" style="fill:#ebebeb;"/><path d="M297.602,92.78l0,-4.662l0.653,0l0,4.06l2.591,0l0,0.602l-3.244,0Z" style="fill-rule:nonzero;"/><rect x="301.577" y="88.118" width="0.653" height="4.662" style="fill-rule:nonzero;"/><path d="M303.488,92.78l0,-4.662l2.044,0c0.476,0 0.855,0.124 1.138,0.371c0.283,0.247 0.424,0.578 0.424,0.993c0,0.312 -0.088,0.581 -0.263,0.808c-0.176,0.227 -0.408,0.391 -0.698,0.494l1.087,1.996l-0.741,0l-0.995,-1.876l-1.336,0l0,1.876l-0.66,0Zm0.66,-2.451l1.384,0c0.266,0 0.48,-0.073 0.641,-0.22c0.16,-0.147 0.241,-0.339 0.241,-0.576c0,-0.248 -0.083,-0.446 -0.248,-0.593c-0.165,-0.147 -0.384,-0.22 -0.655,-0.22l-1.363,0l0,1.609Z" style="fill-rule:nonzero;"/><path d="M302.411,82.502l-29.826,-49.645l-28.738,49.645" style="fill:none;stroke:#000;stroke-width:0.5px;"/><path d="M311.503,136.357c0,-1.679 -1.363,-3.042 -3.042,-3.042l-12.921,0c-1.679,0 -3.043,1.363 -3.043,3.042l0,6.085c0,1.679 1.364,3.042 3.043,3.042l12.921,0c1.679,0 3.042,-1.363 3.042,-3.042l0,-6.085Z" style="fill:#ebebeb;"/><path d="M295.193,141.731l0,-4.662l2.044,0c0.477,0 0.856,0.123 1.139,0.37c0.282,0.248 0.423,0.579 0.423,0.993c0,0.313 -0.087,0.582 -0.263,0.809c-0.175,0.226 -0.408,0.391 -0.697,0.494l1.087,1.996l-0.742,0l-0.994,-1.877l-1.337,0l0,1.877l-0.66,0Zm0.66,-2.451l1.384,0c0.267,0 0.481,-0.073 0.641,-0.22c0.161,-0.147 0.241,-0.339 0.241,-0.576c0,-0.249 -0.082,-0.446 -0.248,-0.593c-0.165,-0.147 -0.383,-0.221 -0.654,-0.221l-1.364,0l0,1.61Z" style="fill-rule:nonzero;"/><path d="M300.139,141.133c-0.414,-0.456 -0.622,-1.034 -0.622,-1.733c0,-0.7 0.208,-1.278 0.624,-1.733c0.416,-0.456 0.967,-0.684 1.653,-0.684c0.685,0 1.237,0.228 1.656,0.684c0.418,0.455 0.627,1.033 0.627,1.733c0,0.699 -0.209,1.277 -0.627,1.733c-0.419,0.455 -0.971,0.683 -1.656,0.683c-0.686,0 -1.238,-0.228 -1.655,-0.683Zm0.492,-3.036c-0.284,0.331 -0.427,0.765 -0.427,1.303c0,0.537 0.143,0.973 0.427,1.305c0.285,0.333 0.673,0.499 1.163,0.499c0.485,0 0.871,-0.166 1.158,-0.499c0.287,-0.332 0.431,-0.768 0.431,-1.305c0,-0.538 -0.144,-0.972 -0.431,-1.303c-0.287,-0.33 -0.673,-0.495 -1.158,-0.495c-0.49,0 -0.878,0.165 -1.163,0.495Z" style="fill-rule:nonzero;"/><path d="M304.48,141.731l1.897,-4.662l0.718,0l1.907,4.662l-0.738,0l-0.496,-1.296l-2.098,0l-0.506,1.296l-0.684,0Zm1.412,-1.87l1.661,0l-0.821,-2.157l-0.84,2.157Z" style="fill-rule:nonzero;"/></svg>